<svg width="999" height="251" viewBox="0 0 999 251" fill="none" xmlns="http://www.w3.org/2000/svg">
<path d="M23.4367 160.164H34.2461C40.4158 160.164 45.3994 160.656 50.8953 167.001C54.7839 171.388 59.0585 181.081 59.0585 196.762C59.0585 202.391 59.0996 207.964 58.0337 213.692C56.3213 222.725 52.1518 237.206 28.308 237.206C21.9277 237.206 23.4367 237.041 23.4367 237.041V160.175V160.164ZM35.699 250.57C67.7903 250.57 82.1582 236.251 82.1582 197.141C82.1582 186.802 79.1189 169.472 69.4889 158.901C59.5288 148.05 46.6488 146.695 35.7692 146.695H0V250.57H35.699V250.57Z" fill="#046148"/>
<path d="M136.982 223.665C136.982 227.104 136.883 231.723 133.234 235.029C130.173 237.723 125.864 237.928 124.221 237.928C120.15 237.928 116.486 236.447 114.942 231.414C114.556 229.828 114.401 228.228 114.401 226.697C114.401 219.11 119.434 215.916 125.028 214.555C127.96 213.875 129.934 213.746 136.982 213.159V223.667L136.982 223.665ZM136.982 203.794L125.288 204.945C112.689 206.39 107.867 207.541 102.476 211.122C93.7723 217.039 93.6602 225.693 93.6602 228.536C93.6602 235.632 95.8139 240.974 98.749 244.048C102.616 248.555 108.744 250.204 114.661 250.204C129.17 250.204 136.09 243.613 136.09 243.613L136.19 248.302H155.752V199.161C155.752 193.63 155.884 185.853 149.54 180.35C146.22 177.507 143.314 176.195 138.822 175.556C134.358 174.755 132.807 174.431 128.455 174.431C115.259 174.431 105.306 176.753 99.6343 186.848C97.2001 191.221 97.3255 195.608 97.3255 198.963H115.259C115.424 196.038 115.556 191.986 117.842 189.171C118.999 187.572 121.709 185.29 126.728 185.29C128.364 185.29 133.115 185.29 135.537 189.249C136.886 191.587 136.998 194.625 136.998 198.072V203.792L136.982 203.794Z" fill="#046148"/>
<path d="M292.718 223.665C292.718 227.104 292.62 231.723 288.942 235.029C285.961 237.723 281.635 237.928 279.887 237.928C275.844 237.928 272.237 236.447 270.671 231.414C270.279 229.828 270.167 228.228 270.167 226.697C270.167 219.11 275.171 215.916 280.794 214.555C283.726 213.875 285.679 213.746 292.719 213.159V223.667L292.718 223.665ZM292.718 203.794L281.074 204.945C268.397 206.39 263.645 207.541 258.219 211.122C249.565 217.039 249.432 225.693 249.432 228.536C249.432 235.632 251.523 240.974 254.429 244.048C258.353 248.555 264.516 250.204 270.405 250.204C284.948 250.204 291.855 243.613 291.855 243.613L291.954 248.302H311.446V199.161C311.446 193.63 311.611 185.853 305.304 180.35C301.984 177.507 299.023 176.195 294.586 175.556C290.101 174.755 288.571 174.431 284.191 174.431C271.002 174.431 261.07 176.753 255.364 186.848C252.963 191.221 253.118 195.608 253.118 198.963H271.002C271.167 196.038 271.299 191.986 273.591 189.171C274.736 187.572 277.445 185.29 282.471 185.29C284.107 185.29 288.851 185.29 291.336 189.249C292.619 191.587 292.731 194.625 292.731 198.072V203.792L292.718 203.794Z" fill="#046148"/>
<path d="M587.423 248.3H567.011V204.319C567.011 201.505 567.011 199.16 566.781 196.766C566.583 194.464 565.923 186.996 557.024 186.996C554.666 186.996 552.665 187.579 551.388 188.12C545.372 190.878 545.218 195.764 545.071 199.646V248.302H524.617V176.328H545.071V184.513C550.209 179.915 554.855 174.882 566.331 174.882C575.969 174.882 580.742 178.616 582.714 180.926C587.255 186.029 587.255 192.648 587.431 197.807V248.302L587.423 248.3Z" fill="#046148"/>
<path d="M234.414 248.3H214.016V204.319C214.016 201.505 214.016 199.16 213.68 196.766C213.548 194.464 212.852 186.996 203.902 186.996C201.62 186.996 199.621 187.579 198.343 188.12C192.314 190.878 192.138 195.764 191.97 199.646V248.302H171.53V176.328H191.97V184.513C197.206 179.915 201.797 174.882 213.259 174.882C222.952 174.882 227.641 178.616 229.67 180.926C234.253 186.029 234.253 192.648 234.414 197.807V248.302L234.414 248.3Z" fill="#046148"/>
<path d="M326.442 176.293H346.875V184.667C350.799 181.164 357.72 174.819 369.989 174.819C384.027 174.819 387.93 183.2 388.884 185.965C397.244 177.879 402.74 174.819 410.749 174.819C414.672 174.819 417.361 175.459 419.958 176.405C430.964 180.631 431.202 190.415 431.406 196.761V248.253H410.616V201.351C410.516 196.255 410.352 193.371 409.029 191.11C408.765 190.527 406.733 186.941 401.568 186.941C399.82 186.941 396.486 187.363 394.921 188.224C389.2 190.955 388.982 195.707 388.884 199.56V248.252H368.627V201.652C368.627 196.114 368.693 186.94 359.467 186.94C357.383 186.94 353.754 187.53 351.964 188.52C346.875 191.656 346.735 196.255 346.875 202.656V248.252H326.442V176.293V176.293Z" fill="#046148"/>
<path d="M491.747 210.758C491.747 214.843 491.582 218.766 491.157 222.725C490.728 226.698 490.032 234.686 483.913 238.041C482.152 238.882 480.298 239.324 478.396 239.324C466.808 239.324 465.762 227.167 465.523 222.724C465.259 219.411 465.051 216.168 465.051 212.946C465.051 210.067 465.249 206.067 465.668 201.351C466.084 197.539 466.931 190.247 472.828 186.8C474.843 185.781 476.78 185.362 479.033 185.362C490.031 185.362 491.028 196.902 491.288 201.352C491.585 204.505 491.743 207.676 491.743 210.757L491.747 210.758ZM512.583 211.123C512.583 204.736 512.583 192.782 505.48 184.668C496.909 174.434 484.64 174.434 480.295 174.434C475.255 174.434 463.667 174.632 454.57 182.885C444.28 192.059 444.28 206.708 444.28 214.12C444.28 228.187 447.453 243.06 465.246 248.254C470.426 249.834 473.178 250.114 478.393 250.114C483.271 250.114 495.47 250.114 504.532 240.042C512.583 231.128 512.583 217.764 512.583 211.124" fill="#046148"/>
<path d="M158.074 73.3784H347.14L179.455 21.9468L158.074 33.4331L85.5098 52.1578L158.074 73.3784Z" fill="#EF9826"/>
<path d="M0.000976562 -0.000131032V73.3774H158.099V33.4318L0.000976562 -0.000131032V-0.000131032Z" fill="#EB712D"/>
<path d="M347.22 73.3784L158.076 0.00120404L158.106 33.4331L347.221 73.3784H347.22Z" fill="#FEC02B"/>
<path d="M999 211.313V73.3322H744.347L691.418 111.49L744.347 157.47L999 211.313Z" fill="#EF9826"/>
<path d="M744.346 157.47L675.123 97.7897L347.241 73.4309L744.346 211.398V157.47Z" fill="#FEC02B"/>
<path d="M347.157 73.3305V73.3963L744.346 157.45V73.3472H347.157V73.3305Z" fill="#EB712D"/>
</svg>
