<svg width="34" height="24" viewBox="0 0 34 24" fill="none" xmlns="http://www.w3.org/2000/svg">
<path d="M32.3887 10.5184H5.2652L13.4288 2.57893C13.5761 2.44056 13.6936 2.27504 13.7744 2.09204C13.8553 1.90903 13.8978 1.7122 13.8996 1.51303C13.9014 1.31387 13.8623 1.11635 13.7848 0.932001C13.7072 0.747657 13.5927 0.580179 13.4479 0.43934C13.3031 0.2985 13.1309 0.187121 12.9413 0.111699C12.7518 0.0362782 12.5487 -0.00167409 12.3439 5.66356e-05C12.1391 0.00178736 11.9367 0.0431668 11.7486 0.12178C11.5604 0.200394 11.3902 0.314667 11.2479 0.457933L0.451575 10.9579C0.162432 11.2392 0 11.6207 0 12.0184C0 12.4162 0.162432 12.7976 0.451575 13.0789L11.2479 23.5789C11.5388 23.8522 11.9284 24.0034 12.3328 23.9999C12.7372 23.9965 13.124 23.8388 13.41 23.5607C13.696 23.2825 13.8582 22.9063 13.8617 22.513C13.8652 22.1197 13.7097 21.7408 13.4288 21.4579L5.2652 13.5184H32.3887C32.7978 13.5184 33.1901 13.3604 33.4793 13.0791C33.7685 12.7978 33.931 12.4163 33.931 12.0184C33.931 11.6206 33.7685 11.2391 33.4793 10.9578C33.1901 10.6765 32.7978 10.5184 32.3887 10.5184Z" fill="white"/>
</svg>
