<svg width="23" height="16" viewBox="0 0 23 16" fill="none" xmlns="http://www.w3.org/2000/svg">
<path d="M21.9545 7.01229H3.56899L9.10264 1.71929C9.20249 1.62704 9.28214 1.5167 9.33693 1.39469C9.39172 1.27269 9.42056 1.14147 9.42177 1.00869C9.42297 0.87591 9.39652 0.744231 9.34395 0.621334C9.29139 0.498438 9.21376 0.386786 9.1156 0.292893C9.01744 0.199 8.90071 0.124747 8.77222 0.0744663C8.64374 0.0241854 8.50607 -0.00111606 8.36726 3.77571e-05C8.22844 0.00119157 8.09126 0.0287779 7.9637 0.0811869C7.83615 0.133596 7.72079 0.209778 7.62435 0.305288L0.306098 7.30529C0.110104 7.49282 0 7.74712 0 8.01229C0 8.27745 0.110104 8.53176 0.306098 8.71929L7.62435 15.7193C7.82153 15.9014 8.08561 16.0022 8.35973 16C8.63385 15.9977 8.89607 15.8925 9.0899 15.7071C9.28374 15.5217 9.39369 15.2709 9.39607 15.0087C9.39845 14.7465 9.29308 14.4939 9.10264 14.3053L3.56899 9.01229H21.9545C22.2318 9.01229 22.4977 8.90693 22.6938 8.71939C22.8899 8.53186 23 8.2775 23 8.01229C23 7.74707 22.8899 7.49272 22.6938 7.30518C22.4977 7.11765 22.2318 7.01229 21.9545 7.01229Z" fill="black"/>
</svg>
