<svg width="60" height="57" viewBox="0 0 60 57" fill="none" xmlns="http://www.w3.org/2000/svg">
<rect width="60" height="57" rx="4" fill="#F4B13E"/>
<path d="M16.623 7C16.623 5.89543 17.5185 5 18.623 5H40.0906C41.1951 5 42.0906 5.89543 42.0906 7V17.974H16.623V7Z" fill="white"/>
<path d="M42.0908 40C42.0908 41.1046 41.1954 42 40.0908 42L18.6233 42C17.5187 42 16.6233 41.1046 16.6233 40L16.6233 18.6147L42.0908 18.6147L42.0908 40Z" fill="white"/>
<rect x="18.8652" y="7.24219" width="21.303" height="8.9697" fill="#F4B13E"/>
<rect x="18.5459" y="20.0566" width="4.80519" height="3.68398" rx="1.84199" fill="#F4B13E"/>
<rect x="18.5459" y="30.6279" width="4.80519" height="3.68398" rx="1.84199" fill="#F4B13E"/>
<rect x="24.4717" y="20.0566" width="4.80519" height="3.68398" rx="1.84199" fill="#F4B13E"/>
<rect x="24.4717" y="30.6279" width="4.80519" height="3.68398" rx="1.84199" fill="#F4B13E"/>
<rect x="30.3975" y="20.0566" width="4.80519" height="3.68398" rx="1.84199" fill="#F4B13E"/>
<rect x="36.3242" y="20.0566" width="4.80519" height="3.68398" rx="1.84199" fill="#F4B13E"/>
<rect x="30.3975" y="30.6279" width="4.80519" height="3.68398" rx="1.84199" fill="#F4B13E"/>
<rect x="30.3975" y="25.3418" width="4.80519" height="3.68398" rx="1.84199" fill="#F4B13E"/>
<rect x="36.3242" y="25.3418" width="4.80519" height="3.68398" rx="1.84199" fill="#F4B13E"/>
<rect x="36.3242" y="30.6279" width="4.80519" height="8.64935" rx="2.4026" fill="#F4B13E"/>
<rect x="30.3975" y="35.7534" width="4.80519" height="3.68398" rx="1.84199" fill="#F4B13E"/>
<rect x="24.4717" y="25.3418" width="4.80519" height="3.68398" rx="1.84199" fill="#F4B13E"/>
<rect x="24.4717" y="35.7534" width="4.80519" height="3.68398" rx="1.84199" fill="#F4B13E"/>
<rect x="18.5459" y="25.3418" width="4.80519" height="3.68398" rx="1.84199" fill="#F4B13E"/>
<rect x="18.5459" y="35.7534" width="4.80519" height="3.68398" rx="1.84199" fill="#F4B13E"/>
<rect x="38.4072" y="21.0166" width="0.640693" height="1.92208" fill="white"/>
<rect x="37.7666" y="22.2979" width="0.640693" height="1.92208" transform="rotate(-90 37.7666 22.2979)" fill="white"/>
<rect x="37.7666" y="27.584" width="0.640693" height="1.92208" transform="rotate(-90 37.7666 27.584)" fill="white"/>
<rect x="37.7666" y="34.792" width="0.640693" height="1.92208" transform="rotate(-90 37.7666 34.792)" fill="white"/>
<rect x="37.7666" y="35.7534" width="0.640693" height="1.92208" transform="rotate(-90 37.7666 35.7534)" fill="white"/>
<path d="M20.9328 11L21.6468 12.086L22.3608 11H23.0988L22.0248 12.47L23.1168 14H22.3548L21.6048 12.872L20.8308 14H20.0988L21.2268 12.488L20.1588 11H20.9328ZM25.5196 14V13.526C25.8996 13.262 26.2176 13.026 26.4736 12.818C26.7336 12.606 26.9416 12.414 27.0976 12.242C27.2536 12.066 27.3656 11.898 27.4336 11.738C27.5056 11.578 27.5416 11.416 27.5416 11.252C27.5416 11.044 27.4736 10.874 27.3376 10.742C27.2056 10.606 27.0236 10.538 26.7916 10.538C26.5436 10.538 26.3456 10.622 26.1976 10.79C26.0536 10.954 25.9716 11.18 25.9516 11.468L25.3936 11.21C25.4296 10.834 25.5736 10.536 25.8256 10.316C26.0776 10.092 26.4116 9.98 26.8276 9.98C27.1196 9.98 27.3676 10.036 27.5716 10.148C27.7756 10.26 27.9316 10.41 28.0396 10.598C28.1476 10.786 28.2016 10.996 28.2016 11.228C28.2016 11.48 28.1396 11.724 28.0156 11.96C27.8916 12.192 27.6956 12.43 27.4276 12.674C27.1596 12.918 26.8076 13.18 26.3716 13.46V13.472C26.4196 13.468 26.4856 13.464 26.5696 13.46C26.6536 13.456 26.7376 13.454 26.8216 13.454C26.9056 13.45 26.9736 13.448 27.0256 13.448H28.2736V14H25.5196ZM29.4371 13.19C29.6011 13.19 29.7271 13.25 29.8151 13.37C29.9031 13.486 29.9471 13.634 29.9471 13.814C29.9471 14.038 29.8851 14.248 29.7611 14.444C29.6371 14.64 29.4631 14.792 29.2391 14.9L28.9391 14.642C29.0991 14.582 29.2331 14.494 29.3411 14.378C29.4531 14.266 29.5271 14.148 29.5631 14.024L29.5391 14.012C29.5191 14.024 29.4951 14.034 29.4671 14.042C29.4431 14.05 29.4071 14.054 29.3591 14.054C29.2751 14.054 29.1911 14.02 29.1071 13.952C29.0231 13.884 28.9811 13.78 28.9811 13.64C28.9811 13.508 29.0251 13.4 29.1131 13.316C29.2051 13.232 29.3131 13.19 29.4371 13.19ZM31.9837 14.06C31.6317 14.06 31.3417 13.984 31.1137 13.832C30.8897 13.68 30.7117 13.46 30.5797 13.172L31.1797 12.86C31.2357 13.056 31.3257 13.214 31.4497 13.334C31.5737 13.454 31.7557 13.514 31.9957 13.514C32.2437 13.514 32.4377 13.446 32.5777 13.31C32.7217 13.174 32.7937 12.986 32.7937 12.746C32.7937 12.498 32.7277 12.31 32.5957 12.182C32.4637 12.05 32.2737 11.984 32.0257 11.984C31.8497 11.984 31.6917 12.012 31.5517 12.068C31.4157 12.12 31.3057 12.206 31.2217 12.326L30.6937 12.224L30.9337 10.04H33.2377V10.592H31.4437L31.2997 11.708L31.2877 11.774H31.2997C31.3917 11.678 31.5097 11.602 31.6537 11.546C31.8017 11.486 31.9757 11.456 32.1757 11.456C32.4317 11.456 32.6517 11.51 32.8357 11.618C33.0237 11.722 33.1677 11.868 33.2677 12.056C33.3717 12.244 33.4237 12.462 33.4237 12.71C33.4237 13.002 33.3597 13.248 33.2317 13.448C33.1077 13.648 32.9357 13.8 32.7157 13.904C32.4997 14.008 32.2557 14.06 31.9837 14.06ZM34.9779 9.98C35.2819 9.98 35.5239 10.08 35.7039 10.28C35.8879 10.48 35.9799 10.748 35.9799 11.084C35.9799 11.416 35.8879 11.684 35.7039 11.888C35.5239 12.088 35.2819 12.188 34.9779 12.188C34.6739 12.188 34.4299 12.088 34.2459 11.888C34.0659 11.684 33.9759 11.416 33.9759 11.084C33.9759 10.748 34.0659 10.48 34.2459 10.28C34.4299 10.08 34.6739 9.98 34.9779 9.98ZM34.8219 14L37.4139 10.04H37.9659L35.3799 14H34.8219ZM34.9779 10.448C34.8259 10.448 34.7079 10.504 34.6239 10.616C34.5439 10.728 34.5039 10.884 34.5039 11.084C34.5039 11.284 34.5439 11.44 34.6239 11.552C34.7079 11.66 34.8259 11.714 34.9779 11.714C35.1339 11.714 35.2519 11.66 35.3319 11.552C35.4159 11.44 35.4579 11.284 35.4579 11.084C35.4579 10.884 35.4159 10.728 35.3319 10.616C35.2519 10.504 35.1339 10.448 34.9779 10.448ZM37.8099 11.852C38.1139 11.852 38.3559 11.954 38.5359 12.158C38.7199 12.358 38.8119 12.624 38.8119 12.956C38.8119 13.292 38.7199 13.56 38.5359 13.76C38.3559 13.96 38.1139 14.06 37.8099 14.06C37.5059 14.06 37.2619 13.96 37.0779 13.76C36.8979 13.56 36.8079 13.292 36.8079 12.956C36.8079 12.624 36.8979 12.358 37.0779 12.158C37.2619 11.954 37.5059 11.852 37.8099 11.852ZM37.8099 12.326C37.6579 12.326 37.5399 12.382 37.4559 12.494C37.3759 12.602 37.3359 12.756 37.3359 12.956C37.3359 13.156 37.3759 13.312 37.4559 13.424C37.5399 13.536 37.6579 13.592 37.8099 13.592C37.9659 13.592 38.0839 13.536 38.1639 13.424C38.2479 13.312 38.2899 13.156 38.2899 12.956C38.2899 12.756 38.2479 12.602 38.1639 12.494C38.0839 12.382 37.9659 12.326 37.8099 12.326Z" fill="white"/>
</svg>
