<svg width="23" height="26" viewBox="0 0 23 26" fill="none" xmlns="http://www.w3.org/2000/svg">
<path d="M19.9923 2.81636H19.2153V1.96175C19.2153 0.879579 18.3682 0 17.3257 0C16.2826 0 15.4362 0.879579 15.4362 1.96175V2.81565H13.4971V1.96175C13.4971 0.879579 12.65 0 11.6076 0C10.5651 0 9.71803 0.879579 9.71803 1.96175V2.81565H7.77895V1.96175C7.77895 0.879579 6.93185 0 5.88942 0C4.84698 0 3.99988 0.879579 3.99988 1.96175V2.81565H3.00769C1.34957 2.81565 0 4.17604 0 5.84745V22.9682C0 24.6396 1.34957 26 3.00769 26H19.9923C21.6511 26 23 24.6396 23 22.9682V5.84745C23 4.17675 21.6504 2.81636 19.9923 2.81636ZM16.4977 1.96175C16.4977 1.47024 16.8693 1.07005 17.3257 1.07005C17.7829 1.07005 18.1537 1.47024 18.1537 1.96175V5.45439C18.1537 5.94589 17.7829 6.34609 17.3257 6.34609C16.8693 6.34609 16.4977 5.94589 16.4977 5.45439V1.96175ZM10.7796 1.96175C10.7796 1.47024 11.1511 1.07005 11.6076 1.07005C12.064 1.07005 12.4356 1.47024 12.4356 1.96175V5.45439C12.4356 5.94589 12.064 6.34609 11.6076 6.34609C11.1511 6.34609 10.7796 5.94589 10.7796 5.45439V1.96175ZM5.06071 1.96175C5.06071 1.47024 5.43225 1.07005 5.88871 1.07005C6.34517 1.07005 6.71671 1.47024 6.71671 1.96175V5.45439C6.71671 5.94589 6.34517 6.34609 5.88871 6.34609C5.43225 6.34609 5.06071 5.94589 5.06071 5.45439V1.96175ZM21.2308 22.9689C21.2308 23.6573 20.6752 24.2173 19.9923 24.2173H3.00769C2.32477 24.2173 1.76923 23.6573 1.76923 22.9689V7.27489H21.2308V22.9689Z" fill="black"/>
<path d="M6.61317 10.4336H3.36133V13.3505H6.61317V10.4336Z" fill="black"/>
<path d="M10.9542 10.4336H7.70166V13.3505H10.9542V10.4336Z" fill="black"/>
<path d="M15.2977 10.4336H12.0459V13.3505H15.2977V10.4336Z" fill="black"/>
<path d="M19.6388 10.4336H16.3862V13.3505H19.6388V10.4336Z" fill="black"/>
<path d="M6.61317 14.3271H3.36133V17.242H6.61317V14.3271Z" fill="black"/>
<path d="M10.9542 14.3271H7.70166V17.242H10.9542V14.3271Z" fill="black"/>
<path d="M15.2977 14.3271H12.0459V17.242H15.2977V14.3271Z" fill="black"/>
<path d="M19.6388 14.3271H16.3862V17.242H19.6388V14.3271Z" fill="black"/>
<path d="M6.61317 18.2197H3.36133V21.1345H6.61317V18.2197Z" fill="black"/>
<path d="M10.9542 18.2197H7.70166V21.1345H10.9542V18.2197Z" fill="black"/>
<path d="M15.2977 18.2197H12.0459V21.1345H15.2977V18.2197Z" fill="black"/>
<path d="M19.6388 18.2197H16.3862V21.1345H19.6388V18.2197Z" fill="black"/>
</svg>
