<svg width="26" height="26" viewBox="0 0 26 26" fill="none" xmlns="http://www.w3.org/2000/svg">
<g clip-path="url(#clip0)">
<path d="M8.92064 20.1488C9.11563 20.1488 9.31062 20.0745 9.4592 19.9257L11.5438 17.8411H15.0398C16.5844 17.8411 17.8413 16.5844 17.8413 15.0396V2.8013C17.8413 1.25664 16.5844 0 15.0398 0H2.8015C1.25684 0 0 1.25664 0 2.8013V15.0396C0 16.5844 1.25684 17.8411 2.8015 17.8411H6.29747L8.38208 19.9257C8.53085 20.0745 8.72565 20.1488 8.92064 20.1488ZM4.02541 4.89523H13.8159C14.2366 4.89523 14.5776 5.23622 14.5776 5.65695C14.5776 6.07768 14.2366 6.41867 13.8159 6.41867H4.02541C3.60468 6.41867 3.26369 6.07768 3.26369 5.65695C3.26369 5.23622 3.60468 4.89523 4.02541 4.89523ZM4.02541 8.15872H13.8159C14.2366 8.15872 14.5776 8.49991 14.5776 8.92044C14.5776 9.34117 14.2366 9.68216 13.8159 9.68216H4.02541C3.60468 9.68216 3.26369 9.34117 3.26369 8.92044C3.26369 8.49991 3.60468 8.15872 4.02541 8.15872ZM4.02541 12.9458C3.60468 12.9458 3.26369 12.6049 3.26369 12.1841C3.26369 11.7634 3.60468 11.4224 4.02541 11.4224H8.92064C9.34137 11.4224 9.68236 11.7634 9.68236 12.1841C9.68236 12.6049 9.34137 12.9458 8.92064 12.9458H4.02541Z" fill="#F59500"/>
<path d="M23.1987 5.85107H19.3648V15.0395C19.3648 17.4244 17.4246 19.3644 15.0398 19.3644H12.1749L10.5366 21.0029C10.1049 21.4344 9.53105 21.6722 8.92068 21.6722C8.68741 21.6722 8.45949 21.6373 8.24268 21.5701C8.54717 22.7876 9.64987 23.6924 10.9605 23.6924H14.4564L16.5408 25.7768C16.6896 25.9255 16.8846 25.9999 17.0796 25.9999C17.2744 25.9999 17.4694 25.9255 17.6182 25.7768L19.7028 23.6924H23.1987C24.7434 23.6924 26 22.4355 26 20.8909V8.65257C26 7.10791 24.7434 5.85107 23.1987 5.85107Z" fill="#F59500"/>
</g>
<defs>
<clipPath id="clip0">
<rect width="26" height="26" fill="white"/>
</clipPath>
</defs>
</svg>
