<svg width="108" height="108" viewBox="0 0 108 108" fill="none" xmlns="http://www.w3.org/2000/svg">
<g clip-path="url(#clip0)">
<path d="M71.7958 34.6217C91.5159 34.3205 107.611 49.8415 107.993 69.5601C108.049 72.4552 107.76 75.2731 107.164 77.9761C106.154 82.5528 105.554 87.2101 105.554 91.8969V100.956C105.554 102.344 104.429 103.469 103.041 103.469H93.9816C89.2948 103.469 84.6375 104.069 80.0608 105.079C77.3581 105.675 74.5401 105.964 71.645 105.908C51.9266 105.527 36.4057 89.4319 36.7064 69.7122C36.9999 50.4642 52.548 34.9158 71.7958 34.6217Z" fill="url(#paint0_linear)"/>
<path d="M71.7958 34.6217C91.5159 34.3205 107.611 49.8415 107.993 69.5601C108.049 72.4552 107.76 75.2731 107.164 77.9761C106.154 82.5528 105.554 87.2101 105.554 91.8969V100.956C105.554 102.344 104.429 103.469 103.041 103.469H93.9816C89.2948 103.469 84.6375 104.069 80.0608 105.079C77.3581 105.675 74.5401 105.964 71.645 105.908C51.9266 105.527 36.4057 89.4319 36.7064 69.7122C36.9999 50.4642 52.548 34.9158 71.7958 34.6217Z" fill="url(#paint1_linear)"/>
<path d="M44.1066 2.09021C20.0821 1.72318 0.47363 20.6318 0.00830234 44.6546C-0.0598304 48.1812 0.292646 51.6147 1.01911 54.9074C2.24888 60.4829 2.97998 66.1569 2.97998 71.8667V82.9034C2.97998 84.5942 4.35065 85.9651 6.04174 85.9651H17.0784C22.788 85.9651 28.462 86.6962 34.0377 87.926C37.3305 88.6523 40.7637 89.005 44.2903 88.9366C68.3127 88.4715 87.2213 68.8636 86.8551 44.8396C86.4974 21.3903 67.5556 2.44818 44.1066 2.09021Z" fill="url(#paint2_linear)"/>
<path d="M27.8845 43.1872C26.6576 41.8836 24.9212 41.0649 22.9894 41.0649C19.2742 41.0649 16.2625 44.0767 16.2625 47.7919C16.2625 49.7235 17.0809 51.4599 18.3847 52.6869L32.8959 67.1981C34.1229 68.5017 35.8594 69.3204 37.7909 69.3204C41.5061 69.3204 44.5179 66.3086 44.5179 62.5934C44.5179 60.6618 43.6993 58.9254 42.3957 57.6984L27.8845 43.1872Z" fill="url(#paint3_linear)"/>
<path d="M22.9892 54.518C26.7044 54.518 29.7162 51.5062 29.7162 47.791C29.7162 44.0757 26.7044 41.064 22.9892 41.064C19.274 41.064 16.2622 44.0757 16.2622 47.791C16.2622 51.5062 19.274 54.518 22.9892 54.518Z" fill="white"/>
<path d="M46.9089 43.1872C45.6821 41.8836 43.9456 41.0649 42.0139 41.0649C38.2986 41.0649 35.2869 44.0767 35.2869 47.7919C35.2869 49.7235 36.1053 51.4599 37.4091 52.6869L51.9203 67.1981C53.1473 68.5017 54.8838 69.3204 56.8153 69.3204C60.5305 69.3204 63.5423 66.3086 63.5423 62.5934C63.5423 60.6618 62.7237 58.9254 61.4201 57.6984L46.9089 43.1872Z" fill="url(#paint4_linear)"/>
<path d="M42.0139 54.518C45.7291 54.518 48.7409 51.5062 48.7409 47.791C48.7409 44.0757 45.7291 41.064 42.0139 41.064C38.2986 41.064 35.2869 44.0757 35.2869 47.791C35.2869 51.5062 38.2986 54.518 42.0139 54.518Z" fill="white"/>
<path d="M65.933 43.1872C64.7062 41.8836 62.9698 41.0649 61.038 41.0649C57.3228 41.0649 54.311 44.0767 54.311 47.7919C54.311 49.7235 55.1297 51.4599 56.4333 52.6869L70.9445 67.1981C72.1715 68.5017 73.9079 69.3204 75.8395 69.3204C79.5547 69.3204 82.5665 66.3086 82.5665 62.5934C82.5665 60.6618 81.7478 58.9254 80.4443 57.6984L65.933 43.1872Z" fill="url(#paint5_linear)"/>
<path d="M61.039 54.518C64.7542 54.518 67.766 51.5062 67.766 47.791C67.766 44.0757 64.7542 41.064 61.039 41.064C57.3238 41.064 54.312 44.0757 54.312 47.791C54.312 51.5062 57.3238 54.518 61.039 54.518Z" fill="white"/>
</g>
<defs>
<linearGradient id="paint0_linear" x1="65.1548" y1="63.0724" x2="117.493" y2="115.411" gradientUnits="userSpaceOnUse">
<stop stop-color="#A7F3CE"/>
<stop offset="1" stop-color="#61DB99"/>
</linearGradient>
<linearGradient id="paint1_linear" x1="82.2877" y1="80.2043" x2="60.0572" y2="57.9759" gradientUnits="userSpaceOnUse">
<stop stop-color="#F59500"/>
<stop offset="1" stop-color="#FFA100" stop-opacity="0.8"/>
</linearGradient>
<linearGradient id="paint2_linear" x1="27.563" y1="38.4937" x2="82.8217" y2="93.7524" gradientUnits="userSpaceOnUse">
<stop stop-color="#0CB0A7"/>
<stop offset="1" stop-color="#13E0D4"/>
</linearGradient>
<linearGradient id="paint3_linear" x1="37.9537" y1="62.7576" x2="8.8592" y2="33.6639" gradientUnits="userSpaceOnUse">
<stop stop-color="#00A2F3" stop-opacity="0"/>
<stop offset="1" stop-color="#0075CD"/>
</linearGradient>
<linearGradient id="paint4_linear" x1="56.9768" y1="62.7569" x2="27.8832" y2="33.6632" gradientUnits="userSpaceOnUse">
<stop stop-color="#00A2F3" stop-opacity="0"/>
<stop offset="1" stop-color="#0075CD"/>
</linearGradient>
<linearGradient id="paint5_linear" x1="76.001" y1="62.7572" x2="46.9073" y2="33.6635" gradientUnits="userSpaceOnUse">
<stop stop-color="#00A2F3" stop-opacity="0"/>
<stop offset="1" stop-color="#0075CD"/>
</linearGradient>
<clipPath id="clip0">
<rect width="108" height="108" fill="white"/>
</clipPath>
</defs>
</svg>
