<svg width="32" height="32" viewBox="0 0 32 32" fill="none" xmlns="http://www.w3.org/2000/svg">
<g opacity="0.4">
<path opacity="0.4" d="M25 13.0519H23.5V16.8019C23.5 18.8727 21.8207 20.5519 19.75 20.5519H13V22.0519C13 23.7087 14.3432 25.0519 16 25.0519H20.5L23.77 27.7744C24.088 28.0392 24.5612 27.9964 24.826 27.6784C24.9385 27.5434 25 27.3732 25 27.1969V25.0519C26.6568 25.0519 28 23.7087 28 22.0519V16.0519C28 14.3952 26.6568 13.0519 25 13.0519Z" fill="white"/>
</g>
<path d="M19 4.05194H7C5.34325 4.05194 4 5.39519 4 7.05194V16.0519C4 17.7087 5.34325 19.0519 7 19.0519V21.9244C7 22.3384 7.336 22.6744 7.75 22.6744C7.9285 22.6744 8.10175 22.6107 8.2375 22.4944L12.25 19.0519H19C20.6568 19.0519 22 17.7087 22 16.0519V7.05194C22 5.39519 20.6568 4.05194 19 4.05194ZM9.5575 12.6094C9.4915 12.6822 9.41575 12.7452 9.3325 12.7969C9.2515 12.8517 9.16675 12.8997 9.0775 12.9394C8.9845 12.9739 8.88925 13.0017 8.7925 13.0219C8.6965 13.0429 8.59825 13.0527 8.5 13.0519C7.67125 13.0519 7 12.3807 7 11.5519C6.98425 10.7239 7.64275 10.0392 8.47075 10.0234C8.57875 10.0212 8.68675 10.0309 8.7925 10.0519C8.88925 10.0722 8.9845 10.0999 9.0775 10.1344C9.16825 10.1719 9.25375 10.2192 9.3325 10.2769C9.41425 10.3287 9.48925 10.3887 9.5575 10.4569C9.8485 10.7464 10.0082 11.1417 10 11.5519C9.9985 11.9494 9.8395 12.3297 9.5575 12.6094ZM14.0575 12.6094C13.7777 12.8914 13.3975 13.0504 13 13.0519C12.9025 13.0632 12.805 13.0632 12.7075 13.0519C12.6107 13.0317 12.5155 13.0039 12.4225 12.9694C12.3332 12.9297 12.2485 12.8817 12.1675 12.8269C12.0835 12.7729 12.0055 12.7107 11.935 12.6394C11.6485 12.3507 11.4918 11.9584 11.5 11.5519C11.4888 11.4544 11.4888 11.3569 11.5 11.2594C11.5203 11.1627 11.548 11.0674 11.5825 10.9744C11.62 10.8837 11.6673 10.7982 11.725 10.7194C11.7783 10.6369 11.839 10.5589 11.905 10.4869C11.977 10.4209 12.055 10.3602 12.1375 10.3069C12.2163 10.2492 12.3017 10.2019 12.3925 10.1644C12.4945 10.1179 12.5995 10.0804 12.7075 10.0519C13.5197 9.88994 14.3095 10.4179 14.4715 11.2302C14.4925 11.3359 14.5023 11.4439 14.5 11.5519C14.5 11.9479 14.344 12.3282 14.065 12.6094H14.0575ZM18.5575 12.6094C18.4915 12.6822 18.4158 12.7452 18.3325 12.7969C18.2515 12.8517 18.1668 12.8997 18.0775 12.9394C17.9845 12.9739 17.8892 13.0017 17.7925 13.0219C17.6965 13.0429 17.5982 13.0527 17.5 13.0519C16.6712 13.0519 16 12.3807 16 11.5519C15.9843 10.7239 16.6428 10.0392 17.4708 10.0234C17.5788 10.0212 17.6867 10.0309 17.7925 10.0519C17.8892 10.0722 17.9845 10.0999 18.0775 10.1344C18.1683 10.1719 18.2538 10.2192 18.3325 10.2769C18.4143 10.3287 18.4892 10.3887 18.5575 10.4569C18.8485 10.7464 19.0082 11.1417 19 11.5519C18.9985 11.9494 18.8395 12.3297 18.5575 12.6094Z" fill="white"/>
</svg>
