<svg width="33" height="33" viewBox="0 0 33 33" fill="none" xmlns="http://www.w3.org/2000/svg">
<circle cx="16.5" cy="16.5" r="16.5" fill="#E8E8E8"/>
<path d="M23.7033 21.4646L19.416 16.9099C19.2768 16.7619 19.2838 16.529 19.4318 16.3898L23.9865 12.1024C24.7263 11.4061 24.7615 10.2417 24.0651 9.50186C23.3687 8.76206 22.2043 8.72685 21.4645 9.42321L16.9098 13.7105C16.7619 13.8498 16.529 13.8428 16.3897 13.6948L12.1024 9.14009C11.406 8.40029 10.2416 8.36508 9.5018 9.06145C8.76201 9.75781 8.72679 10.9222 9.42316 11.662L13.7105 16.2167C13.8497 16.3647 13.8427 16.5976 13.6947 16.7369L9.14004 21.0242C8.40024 21.7205 8.36502 22.885 9.06139 23.6248C9.75776 24.3646 10.9222 24.3998 11.662 23.7034L16.2167 19.4161C16.3646 19.2768 16.5975 19.2839 16.7368 19.4318L21.0241 23.9865C21.7205 24.7263 22.8849 24.7615 23.6247 24.0652C24.3645 23.3688 24.3997 22.2044 23.7033 21.4646Z" fill="white"/>
</svg>
