<svg width="165" height="165" viewBox="0 0 165 165" fill="none" xmlns="http://www.w3.org/2000/svg">
<g clip-path="url(#clip0)">
<path d="M22.6369 60.4297L18.3387 54.1523C15.2698 49.6723 11.4835 45.7851 7.08537 42.5988L0 37.4656L7.36069 32.0615C11.7789 28.8175 15.568 24.8653 18.6224 20.3139L22.6514 14.3105L26.6618 20.3262C29.7088 24.8659 33.4976 28.8182 37.9158 32.0615L45.2758 37.4653L38.1908 42.5985C33.7916 45.7854 30.0054 49.6726 26.9361 54.1533L22.6369 60.4297Z" fill="#FFD17B"/>
<path d="M142.363 100.723L138.064 94.4464C134.994 89.9654 131.208 86.0779 126.81 82.8923L119.725 77.7584L127.085 72.3547C131.503 69.111 135.292 65.1587 138.347 60.6071L142.376 54.604L146.386 60.6196C149.432 65.1594 153.221 69.1116 157.64 72.355L164.999 77.7587L157.914 82.892C153.515 86.0789 149.729 89.966 146.66 94.4467L142.363 100.723Z" fill="#F5A86C"/>
<path d="M82.5003 19.3323L85.7243 64.7487H58.4268V33.7339L70.4651 0.46875C77.113 0.46875 82.5003 12.6845 82.5003 19.3323Z" fill="#FFEEE4"/>
<path d="M82.5002 64.7485L85.7242 84.618L82.5002 105.874C82.5002 119.95 51.9658 151.093 51.9658 151.093C44.5216 159.515 34.5401 164.531 26.6155 164.531H6.54297V152.947C6.54297 146.889 8.77075 141.041 12.8007 136.515L58.4267 85.2757V64.7485C58.4267 61.4246 59.7743 58.4166 61.9537 56.2404C64.1299 54.061 67.1411 52.7134 70.465 52.7134C77.1129 52.7134 82.5002 58.1007 82.5002 64.7485Z" fill="#FFDECF"/>
<path d="M70.5008 129.553C61.9521 140.911 51.9668 151.094 51.9668 151.094C44.5203 159.513 34.5382 164.53 26.6139 164.53H6.54395V152.947C6.54395 146.89 8.76914 141.04 12.7995 136.515L48.9736 95.8945V95.8981L70.5008 129.553Z" fill="#017D76"/>
<path d="M82.5 19.3323V64.7487H106.574V33.7339L94.5352 0.46875C87.8873 0.46875 82.5 12.6845 82.5 19.3323Z" fill="#FFDECF"/>
<path d="M82.5 64.7485V105.874C82.5 119.95 113.034 151.093 113.034 151.093C120.479 159.515 130.46 164.531 138.385 164.531H158.457V152.947C158.457 146.889 156.229 141.041 152.199 136.515L106.574 85.2757V64.7485C106.574 61.4246 105.226 58.4166 103.046 56.2404C100.87 54.061 97.8591 52.7134 94.5352 52.7134C87.8873 52.7134 82.5 58.1007 82.5 64.7485Z" fill="#FFCDBE"/>
<path d="M94.499 129.553C103.048 140.911 113.033 151.094 113.033 151.094C120.48 159.513 130.462 164.53 138.386 164.53H158.456V152.947C158.456 146.89 156.231 141.04 152.2 136.515L116.026 95.8945V95.8981L94.499 129.553Z" fill="#017D76"/>
</g>
<defs>
<clipPath id="clip0">
<rect width="165" height="165" fill="white"/>
</clipPath>
</defs>
</svg>
