<svg width="45" height="45" viewBox="0 0 45 45" fill="none" xmlns="http://www.w3.org/2000/svg">
<g clip-path="url(#clip0)">
<path d="M40.7165 35.749C39.1665 34.3381 38.0269 32.8337 37.1892 31.3923C36.8933 30.8832 37.0419 30.2366 37.5177 29.8896C41.646 26.8788 44.3261 22.0014 44.3167 16.4985C44.301 7.35513 36.9325 -8.78898e-05 27.7892 7.87674e-10C21.5554 8.78914e-05 16.1286 3.45173 13.3135 8.54763L31.2106 33.4004C34.3655 35.5529 37.8855 36.4941 40.1468 36.9005C40.8058 37.0189 41.2116 36.1997 40.7165 35.749Z" fill="#10B2A9"/>
<path d="M14.0176 9.52543L31.2107 33.4004C32.0435 33.9687 32.9018 34.4517 33.7557 34.8636C35.985 32.0467 37.3165 28.4867 37.3165 24.6154C37.3165 15.4876 29.917 8.08798 20.7891 8.08789C18.3738 8.08798 16.0825 8.60152 14.0176 9.52543Z" fill="#23C7BE"/>
<path d="M17.2103 8.08789C8.06686 8.0878 0.698374 15.4429 0.682642 24.5864C0.673238 30.0893 3.35337 34.9667 7.48168 37.9775C7.95744 38.3245 8.10606 38.9711 7.81013 39.4802C6.97236 40.9215 5.83286 42.426 4.28282 43.8369C3.78773 44.2876 4.19352 45.1067 4.85252 44.9883C7.17899 44.5703 10.8378 43.5865 14.0605 41.2996C14.3913 41.0648 14.8002 40.9722 15.2028 41.0211C15.8608 41.1011 16.5306 41.1428 17.2102 41.1428C26.3381 41.1428 33.7377 33.7432 33.7377 24.6153C33.7376 15.4875 26.3381 8.08798 17.2103 8.08789Z" fill="#FEE55A"/>
<path d="M7.86172 43.8369C9.41176 42.426 10.5514 40.9215 11.389 39.4802C11.685 38.9711 11.5363 38.3245 11.0606 37.9775C6.93228 34.9667 4.25214 30.0893 4.26155 24.5864C4.27623 16.0492 10.7013 9.07191 18.9958 8.18422C18.4091 8.1212 17.8136 8.08789 17.2101 8.08789C8.06686 8.0878 0.698374 15.4429 0.682642 24.5864C0.673238 30.0893 3.35337 34.9667 7.48168 37.9775C7.95744 38.3245 8.10606 38.9711 7.81013 39.4802C6.97245 40.9215 5.83286 42.426 4.28282 43.8369C3.78773 44.2876 4.19352 45.1067 4.85244 44.9883C5.64952 44.8451 6.60313 44.6354 7.64182 44.3297C7.6398 44.156 7.70642 43.9783 7.86172 43.8369Z" fill="#FFD301"/>
<path d="M26.2982 27.4536H8.12085C7.42203 27.4536 6.94276 28.166 7.21346 28.8103C8.85306 32.7137 12.7102 35.4556 17.2095 35.4556C21.7088 35.4556 25.566 32.7137 27.2056 28.8103C27.4763 28.166 26.997 27.4536 26.2982 27.4536Z" fill="#099A92"/>
<path d="M11.1008 28.8103C10.8302 28.166 11.3093 27.4536 12.0082 27.4536H8.12085C7.42203 27.4536 6.94276 28.166 7.21346 28.8103C8.85306 32.7137 12.7102 35.4556 17.2095 35.4556C17.8733 35.4556 18.5224 35.3944 19.1531 35.2802C15.5084 34.62 12.4985 32.1379 11.1008 28.8103Z" fill="#10B2A9"/>
<path d="M14.3823 21.3953C14.0072 21.3953 13.7032 21.0913 13.7032 20.7163C13.7032 19.37 12.6079 18.2747 11.2616 18.2747C9.91529 18.2747 8.82 19.37 8.82 20.7163C8.82 21.0913 8.51599 21.3953 8.14096 21.3953C7.76593 21.3953 7.46191 21.0913 7.46191 20.7163C7.46191 18.6211 9.16647 16.9165 11.2616 16.9165C13.3567 16.9165 15.0614 18.6211 15.0614 20.7163C15.0613 21.0913 14.7573 21.3953 14.3823 21.3953Z" fill="#FFC20C"/>
<path d="M26.2787 21.3953C25.9037 21.3953 25.5997 21.0913 25.5997 20.7163C25.5997 19.37 24.5044 18.2747 23.1581 18.2747C21.8118 18.2747 20.7165 19.37 20.7165 20.7163C20.7165 21.0913 20.4125 21.3953 20.0374 21.3953C19.6624 21.3953 19.3584 21.0913 19.3584 20.7163C19.3584 18.6211 21.0629 16.9165 23.1582 16.9165C25.2534 16.9165 26.958 18.6211 26.958 20.7163C26.9579 21.0913 26.6538 21.3953 26.2787 21.3953Z" fill="#FFC20C"/>
</g>
<defs>
<clipPath id="clip0">
<rect width="45" height="45" fill="white"/>
</clipPath>
</defs>
</svg>
