<svg width="33" height="33" viewBox="0 0 33 33" fill="none" xmlns="http://www.w3.org/2000/svg">
<circle cx="16.5" cy="16.5" r="16.5" fill="#ECECEC"/>
<path d="M22.7988 19.0497C21.9273 19.0497 21.0716 18.9134 20.2606 18.6454C19.8633 18.5099 19.3748 18.6342 19.1323 18.8833L17.5316 20.0916C15.6754 19.1007 14.532 17.9577 13.5546 16.1153L14.7274 14.5564C15.0321 14.2521 15.1413 13.8077 15.0104 13.3906C14.7413 12.5754 14.6046 11.7201 14.6046 10.8482C14.6046 10.2183 14.0922 9.70587 13.4623 9.70587H10.8481C10.2182 9.70587 9.70581 10.2183 9.70581 10.8481C9.70581 18.0677 15.5793 23.9411 22.7988 23.9411C23.4287 23.9411 23.9411 23.4287 23.9411 22.7989V20.1919C23.9411 19.5621 23.4286 19.0497 22.7988 19.0497Z" fill="#C2C2C2"/>
</svg>
