<svg width="23" height="28" viewBox="0 0 23 28" fill="none" xmlns="http://www.w3.org/2000/svg">
<path d="M17.5156 5.90723H9.81879C9.21958 5.90723 8.73389 6.39695 8.73389 7.00114C8.73389 7.60532 9.21958 8.09505 9.81879 8.09505H17.5156C18.1148 8.09505 18.6005 7.60532 18.6005 7.00114C18.6005 6.39695 18.1148 5.90723 17.5156 5.90723Z" fill="black"/>
<path d="M17.5156 10.2827H9.81879C9.21958 10.2827 8.73389 10.7724 8.73389 11.3766C8.73389 11.9808 9.21958 12.4705 9.81879 12.4705H17.5156C18.1148 12.4705 18.6005 11.9808 18.6005 11.3766C18.6005 10.7724 18.1148 10.2827 17.5156 10.2827Z" fill="black"/>
<path d="M13.1278 14.6582H9.81879C9.21958 14.6582 8.73389 15.1479 8.73389 15.7521C8.73389 16.3563 9.21958 16.846 9.81879 16.846H13.1278C13.727 16.846 14.2127 16.3563 14.2127 15.7521C14.2127 15.1479 13.727 14.6582 13.1278 14.6582Z" fill="black"/>
<path d="M21.9151 14.8771C22.5143 14.8771 23 14.3874 23 13.7832V4.37565C23 1.96289 21.0532 0 18.6604 0H8.67926C6.28772 0 4.34185 1.96071 4.33963 4.3716C1.94679 4.3716 0 6.3345 0 8.74725V23.6244C0 26.0371 1.94674 28 4.33963 28H14.8632C17.256 28 19.2028 26.0371 19.2028 23.6244V23.5911C21.3405 23.3211 22.9999 21.4768 22.9999 19.2495C22.9999 18.6453 22.5143 18.1556 21.915 18.1556C21.3158 18.1556 20.8301 18.6453 20.8301 19.2495C20.8301 20.4556 19.857 21.4371 18.6609 21.4373L8.67975 21.4398H8.67926C8.09973 21.4398 7.55492 21.2123 7.14516 20.7991C6.73523 20.3859 6.50944 19.8364 6.50944 19.252V4.37565C6.50944 3.1693 7.48284 2.18782 8.67926 2.18782H18.6604C19.8568 2.18782 20.8302 3.1693 20.8302 4.37565V13.7832C20.8302 14.3874 21.3159 14.8771 21.9151 14.8771ZM8.67926 23.6275H8.68034L17.033 23.6254C17.0323 24.8312 16.0592 25.8121 14.8632 25.8121H4.33968C3.14326 25.8121 2.16987 24.8306 2.16987 23.6242V8.74714C2.16987 7.54079 3.14326 6.55932 4.33968 6.55932V19.2519C4.33968 20.4209 4.79121 21.5199 5.61106 22.3463C6.43074 23.1726 7.52021 23.6275 8.67926 23.6275Z" fill="black"/>
</svg>
