<svg width="20" height="23" viewBox="0 0 20 23" fill="none" xmlns="http://www.w3.org/2000/svg">
<path d="M14.5068 4.85205H8.13197C7.63567 4.85205 7.2334 5.25432 7.2334 5.75062C7.2334 6.24691 7.63567 6.64919 8.13197 6.64919H14.5068C15.0031 6.64919 15.4054 6.24691 15.4054 5.75062C15.4054 5.25432 15.0031 4.85205 14.5068 4.85205Z" fill="white"/>
<path d="M14.5068 8.44629H8.13197C7.63567 8.44629 7.2334 8.84856 7.2334 9.34486C7.2334 9.84116 7.63567 10.2434 8.13197 10.2434H14.5068C15.0031 10.2434 15.4054 9.84116 15.4054 9.34486C15.4054 8.84856 15.0031 8.44629 14.5068 8.44629Z" fill="white"/>
<path d="M10.8726 12.041H8.13197C7.63567 12.041 7.2334 12.4433 7.2334 12.9396C7.2334 13.4359 7.63567 13.8382 8.13197 13.8382H10.8726C11.3689 13.8382 11.7712 13.4359 11.7712 12.9396C11.7712 12.4433 11.3689 12.041 10.8726 12.041Z" fill="white"/>
<path d="M18.1511 12.2205C18.6474 12.2205 19.0497 11.8182 19.0497 11.3219V3.59428C19.0497 1.61238 17.4372 0 15.4554 0H7.18857C5.20778 0 3.59612 1.61058 3.59428 3.59096C1.61242 3.59096 0 5.20334 0 7.18524V19.4057C0 21.3876 1.61238 23 3.59428 23H12.3104C14.2922 23 15.9047 21.3876 15.9047 19.4057V19.3784C17.6752 19.1566 19.0496 17.6416 19.0496 15.8121C19.0496 15.3158 18.6474 14.9135 18.1511 14.9135C17.6548 14.9135 17.2525 15.3158 17.2525 15.8121C17.2525 16.8028 16.4465 17.609 15.4558 17.6093L7.18897 17.6113H7.18857C6.70858 17.6113 6.25734 17.4244 5.91795 17.085C5.57843 16.7456 5.39142 16.2942 5.39142 15.8141V3.59428C5.39142 2.60335 6.19764 1.79714 7.18857 1.79714H15.4554C16.4464 1.79714 17.2526 2.60335 17.2526 3.59428V11.322C17.2525 11.8182 17.6548 12.2205 18.1511 12.2205ZM7.18857 19.4083H7.18946L14.1075 19.4066C14.107 20.3971 13.301 21.2028 12.3104 21.2028H3.59433C2.6034 21.2028 1.79719 20.3966 1.79719 19.4056V7.18515C1.79719 6.19422 2.6034 5.38801 3.59433 5.38801V15.8141C3.59433 16.7743 3.9683 17.677 4.64734 18.3559C5.32624 19.0347 6.22859 19.4083 7.18857 19.4083Z" fill="white"/>
</svg>
