<svg width="33" height="32" viewBox="0 0 33 32" fill="none" xmlns="http://www.w3.org/2000/svg">
<path d="M26.2157 13.5413H24.6323V17.5168C24.6323 19.7121 22.8597 21.4924 20.6739 21.4924H13.5488V23.0826C13.5488 24.839 14.9667 26.263 16.7155 26.263H21.4656L24.9173 29.1493C25.253 29.4299 25.7525 29.3846 26.032 29.0475C26.1507 28.9044 26.2157 28.7239 26.2157 28.537V26.263C27.9645 26.263 29.3824 24.839 29.3824 23.0826V16.7217C29.3824 14.9653 27.9645 13.5413 26.2157 13.5413Z" fill="#C2C2C2"/>
<path d="M20.2557 4H7.81131C6.0932 4 4.7002 5.34644 4.7002 7.00711V16.0285C4.7002 17.6891 6.0932 19.0356 7.81131 19.0356V21.9149C7.81131 22.3299 8.15975 22.6667 8.58908 22.6667C8.7742 22.6667 8.95386 22.6028 9.09464 22.4862L13.2558 19.0356H20.2557C21.9739 19.0356 23.3669 17.6891 23.3669 16.0285V7.00711C23.3669 5.34644 21.9739 4 20.2557 4ZM10.4635 12.5778C10.3951 12.6507 10.3165 12.7139 10.2302 12.7657C10.1462 12.8206 10.0583 12.8687 9.96575 12.9086C9.86931 12.9432 9.77053 12.971 9.6702 12.9913C9.57064 13.0123 9.46875 13.0221 9.36686 13.0213C8.50742 13.0213 7.81131 12.3485 7.81131 11.5178C7.79497 10.6878 8.47786 10.0014 9.33653 9.98566C9.44853 9.98341 9.56053 9.99318 9.6702 10.0142C9.77053 10.0345 9.86931 10.0623 9.96575 10.0969C10.0599 10.1345 10.1485 10.1819 10.2302 10.2398C10.315 10.2916 10.3928 10.3518 10.4635 10.4202C10.7653 10.7104 10.931 11.1066 10.9224 11.5178C10.9209 11.9162 10.756 12.2974 10.4635 12.5778ZM15.1302 12.5778C14.8401 12.8605 14.4458 13.0198 14.0335 13.0213C13.9324 13.0326 13.8313 13.0326 13.7302 13.0213C13.6299 13.001 13.5311 12.9732 13.4346 12.9386C13.3421 12.8988 13.2542 12.8507 13.1702 12.7958C13.0831 12.7417 13.0022 12.6793 12.9291 12.6079C12.632 12.3184 12.4694 11.9253 12.478 11.5178C12.4663 11.4201 12.4663 11.3223 12.478 11.2246C12.499 11.1276 12.5278 11.0321 12.5635 10.9389C12.6024 10.848 12.6514 10.7622 12.7113 10.6833C12.7665 10.6006 12.8295 10.5224 12.898 10.4503C12.9726 10.3841 13.0535 10.3232 13.1391 10.2698C13.2208 10.2119 13.3094 10.1646 13.4035 10.127C13.5093 10.0804 13.6182 10.0428 13.7302 10.0142C14.5725 9.85185 15.3915 10.3811 15.5595 11.1953C15.5813 11.3013 15.5914 11.4095 15.5891 11.5178C15.5891 11.9147 15.4273 12.2959 15.138 12.5778H15.1302ZM19.7969 12.5778C19.7284 12.6507 19.6499 12.7139 19.5635 12.7657C19.4795 12.8206 19.3916 12.8687 19.2991 12.9086C19.2026 12.9432 19.1039 12.971 19.0035 12.9913C18.904 13.0123 18.8021 13.0221 18.7002 13.0213C17.8407 13.0213 17.1446 12.3485 17.1446 11.5178C17.1283 10.6878 17.8112 10.0014 18.6699 9.98566C18.7819 9.98341 18.8939 9.99318 19.0035 10.0142C19.1039 10.0345 19.2026 10.0623 19.2991 10.0969C19.3932 10.1345 19.4819 10.1819 19.5635 10.2398C19.6483 10.2916 19.7261 10.3518 19.7969 10.4202C20.0986 10.7104 20.2643 11.1066 20.2557 11.5178C20.2542 11.9162 20.0893 12.2974 19.7969 12.5778Z" fill="#C2C2C2"/>
</svg>
