<svg width="35" height="23" viewBox="0 0 35 23" fill="none" xmlns="http://www.w3.org/2000/svg">
<path d="M30.9897 0H12.207C11.0972 0 10.0283 0.458562 9.27289 1.25925L0.29421 10.7654C-0.0980699 11.1794 -0.0980699 11.8206 0.29421 12.2346L9.27289 21.7393C10.0283 22.5414 11.0972 23 12.207 23H30.9897C33.2019 23 35 21.2276 35 19.0469V3.95312C35 1.77244 33.2019 0 30.9897 0ZM28.4115 15.5523C28.9598 16.1345 28.9262 17.0444 28.3356 17.5849C28.0556 17.8422 27.6984 17.9688 27.3425 17.9688C26.9503 17.9688 26.5609 17.8149 26.2751 17.5102L22.6046 13.6117L18.9326 17.5088C18.6468 17.8135 18.2559 17.9673 17.8651 17.9673C17.5093 17.9673 17.1535 17.8408 16.872 17.5835C16.2829 17.043 16.2479 16.1331 16.7962 15.5509L20.6154 11.5L16.7977 7.44769C16.2493 6.8655 16.2829 5.95556 16.8735 5.41506C17.4612 4.87456 18.3872 4.90619 18.934 5.48981L22.606 9.38687L26.278 5.48981C26.8234 4.90619 27.7494 4.87456 28.3385 5.41506C28.9277 5.95556 28.9627 6.8655 28.4144 7.44769L24.5937 11.5L28.4115 15.5523Z" fill="white"/>
</svg>
