<svg width="34" height="26" viewBox="0 0 34 26" fill="none" xmlns="http://www.w3.org/2000/svg">
<path d="M27.1487 9.79491C26.7185 4.32191 22.1272 0 16.5455 0C11.7709 0 7.67236 3.10109 6.34991 7.62391C2.57755 8.93336 0 12.5072 0 16.5455C0 21.7585 4.24155 26 9.45455 26H24.8182C29.38 26 33.0909 22.2891 33.0909 17.7273C33.0909 14.0057 30.6445 10.8113 27.1487 9.79491ZM24.8182 23.6364H9.45455C5.54391 23.6364 2.36364 20.4561 2.36364 16.5455C2.36364 13.3404 4.52991 10.5253 7.631 9.70036C8.05645 9.58691 8.38382 9.24655 8.48073 8.81755C9.31982 5.07827 12.7116 2.36364 16.5455 2.36364C20.9111 2.36364 24.8135 5.81927 24.8135 10.7415C24.8135 11.3195 25.2306 11.8123 25.8003 11.9068C28.6555 12.3855 30.7273 14.833 30.7273 17.7273C30.7273 20.9855 28.0765 23.6364 24.8182 23.6364Z" fill="#00A79D"/>
<path d="M22.1089 14.528C22.571 14.9901 22.571 15.737 22.1089 16.1991L17.3817 20.9264C17.163 21.145 16.8546 21.2726 16.5461 21.2726C16.2377 21.2726 15.9292 21.145 15.7106 20.9264L10.9833 16.1991C10.5212 15.737 10.5212 14.9901 10.9833 14.528C11.4454 14.0659 12.1923 14.0659 12.6544 14.528L15.3643 17.2379V8.27264C15.3643 7.62027 15.8937 7.09082 16.5461 7.09082C17.1985 7.09082 17.7279 7.62027 17.7279 8.27264V17.2379L20.4378 14.528C20.8999 14.0659 21.6468 14.0659 22.1089 14.528Z" fill="#00A79D"/>
</svg>
