<svg width="12" height="10" viewBox="0 0 12 10" fill="none" xmlns="http://www.w3.org/2000/svg">
<path d="M9.84514 3.552C9.68914 1.56729 8.02414 0 6 0C4.26857 0 2.78229 1.12457 2.30271 2.76471C0.934714 3.23957 0 4.53557 0 6C0 7.89043 1.53814 9.42857 3.42857 9.42857H9C10.6543 9.42857 12 8.08286 12 6.42857C12 5.079 11.1129 3.92057 9.84514 3.552ZM9 8.57143H3.42857C2.01043 8.57143 0.857143 7.41814 0.857143 6C0.857143 4.83771 1.64271 3.81686 2.76729 3.51771C2.92157 3.47657 3.04029 3.35314 3.07543 3.19757C3.37971 1.84157 4.60971 0.857143 6 0.857143C7.58314 0.857143 8.99829 2.11029 8.99829 3.89529C8.99829 4.10486 9.14957 4.28357 9.35614 4.31786C10.3916 4.49143 11.1429 5.379 11.1429 6.42857C11.1429 7.61014 10.1816 8.57143 9 8.57143Z" fill="black"/>
<path d="M8.01767 5.26829C8.18524 5.43586 8.18524 5.70672 8.01767 5.87429L6.30339 7.58857C6.2241 7.66786 6.11224 7.71415 6.00039 7.71415C5.88853 7.71415 5.77667 7.66786 5.69739 7.58857L3.9831 5.87429C3.81553 5.70672 3.81553 5.43586 3.9831 5.26829C4.15067 5.10072 4.42153 5.10072 4.5891 5.26829L5.57181 6.251V2.99986C5.57181 2.76329 5.76381 2.57129 6.00039 2.57129C6.23696 2.57129 6.42896 2.76329 6.42896 2.99986V6.251L7.41167 5.26829C7.57924 5.10072 7.8501 5.10072 8.01767 5.26829Z" fill="black"/>
</svg>
