<svg width="30" height="24" viewBox="0 0 30 24" fill="none" xmlns="http://www.w3.org/2000/svg">
<path d="M14.629 19.4287C14.3136 19.4287 14.0576 19.6847 14.0576 20.0001C14.0576 20.3156 14.3136 20.5716 14.629 20.5716C14.9445 20.5716 15.2005 20.3156 15.2005 20.0001C15.2005 19.6847 14.9445 19.4287 14.629 19.4287Z" fill="black"/>
<path d="M26.805 0.878286C25.3988 0.311943 23.5706 0 21.6571 0C19.7437 0 17.9155 0.311943 16.5093 0.878286C15.6783 1.21297 15.0439 1.622 14.6286 2.08097C14.2133 1.622 13.5788 1.21303 12.7478 0.878343C11.3417 0.311943 9.51343 0 7.6 0C5.68657 0 3.85834 0.311943 2.45217 0.878286C0.870857 1.5152 0 2.42091 0 3.42857V17.1429C0 18.1505 0.870857 19.0562 2.45217 19.6931C3.76 20.2199 5.43303 20.5262 7.2 20.5665V20.5714C7.2 22.5261 10.3936 24 14.6286 24C18.8635 24 22.0571 22.5261 22.0571 20.5714V20.5665C23.8241 20.5262 25.4971 20.2199 26.805 19.6931C28.3863 19.0562 29.2571 18.1505 29.2571 17.1429V3.42857C29.2571 2.42091 28.3863 1.5152 26.805 0.878286ZM28.1143 13.7143C28.1143 14.2021 27.449 14.7731 26.378 15.2045C25.2189 15.6713 23.6626 15.9538 22.0571 15.9943V13.7143C22.0571 13.7126 22.057 13.711 22.057 13.7094C23.8241 13.6691 25.4971 13.3628 26.805 12.836C27.3183 12.6293 27.7562 12.3941 28.1143 12.1363L28.1143 13.7143ZM14.0571 6.85714C14.0571 7.34497 13.3918 7.91594 12.3209 8.34731C11.0656 8.85291 9.34491 9.14286 7.6 9.14286C5.85509 9.14286 4.1344 8.85291 2.87914 8.34731C1.80817 7.91594 1.14286 7.34497 1.14286 6.85714V5.2792C1.50097 5.53691 1.93886 5.77211 2.45217 5.97886C3.85834 6.5452 5.68657 6.85714 7.6 6.85714C9.51343 6.85714 11.3417 6.5452 12.7478 5.97886C13.2611 5.77211 13.699 5.53691 14.0571 5.2792V6.85714ZM2.45217 9.40743C3.85834 9.97377 5.68657 10.2857 7.6 10.2857C9.51343 10.2857 11.3417 9.97377 12.7478 9.40743C13.2611 9.20069 13.699 8.96549 14.0571 8.70777V10.2958C12.5789 10.3459 11.1611 10.5885 10.0145 10.9923C8.86434 11.3974 8.03674 11.9376 7.58669 12.5713C5.84634 12.5698 4.1312 12.2802 2.87914 11.7759C1.80817 11.3445 1.14286 10.7735 1.14286 10.2857V8.70777C1.50097 8.96549 1.93886 9.20069 2.45217 9.40743ZM1.14286 12.1363C1.50097 12.3941 1.93886 12.6293 2.45217 12.836C3.76006 13.3627 5.43314 13.669 7.20017 13.7094C7.20017 13.711 7.20006 13.7127 7.20006 13.7143V15.9943C5.59451 15.9538 4.03834 15.6713 2.8792 15.2045C1.80817 14.7731 1.14286 14.2021 1.14286 13.7143V12.1363ZM8.40331 13.4335C8.8268 12.448 11.2711 11.4286 14.6286 11.4286C17.9861 11.4286 20.4303 12.448 20.8534 13.4324C20.8944 13.5285 20.9143 13.6206 20.9143 13.7143C20.9143 14.2167 20.2949 14.7747 19.2574 15.207C18.0302 15.7184 16.3863 16 14.6286 16C12.8708 16 11.2269 15.7184 9.99971 15.207C8.96223 14.7747 8.34286 14.2167 8.34286 13.7143C8.34286 13.6206 8.3628 13.5285 8.40331 13.4335ZM28.1143 10.2857C28.1143 10.7735 27.449 11.3445 26.378 11.7759C25.126 12.2802 23.4109 12.5698 21.6706 12.5713C21.2209 11.9379 20.3932 11.3975 19.2427 10.9923C18.096 10.5885 16.6783 10.3459 15.2 10.2958V8.70777C15.5581 8.96549 15.996 9.20069 16.5093 9.40743C17.9155 9.97377 19.7437 10.2857 21.6571 10.2857C23.5706 10.2857 25.3988 9.97377 26.805 9.40743C27.3183 9.20069 27.7562 8.96549 28.1143 8.70777V10.2857ZM28.1143 6.85714C28.1143 7.34497 27.449 7.91594 26.378 8.34731C25.1227 8.85291 23.4021 9.14286 21.6571 9.14286C19.9122 9.14286 18.1915 8.85291 16.9363 8.34731C15.8653 7.91594 15.2 7.34497 15.2 6.85714V5.2792C15.5581 5.53691 15.996 5.77211 16.5093 5.97886C17.9155 6.5452 19.7437 6.85714 21.6571 6.85714C23.5706 6.85714 25.3988 6.5452 26.805 5.97886C27.3183 5.77211 27.7562 5.53691 28.1143 5.2792V6.85714ZM16.9363 1.9384C18.1915 1.4328 19.9122 1.14286 21.6571 1.14286C23.4021 1.14286 25.1227 1.4328 26.378 1.9384C27.449 2.36977 28.1143 2.94074 28.1143 3.42857C28.1143 3.9164 27.449 4.48737 26.378 4.91874C25.1227 5.42434 23.4021 5.71429 21.6571 5.71429C19.9122 5.71429 18.1915 5.42434 16.9363 4.91874C15.8653 4.48737 15.2 3.9164 15.2 3.42857C15.2 2.94074 15.8653 2.36977 16.9363 1.9384ZM2.87914 1.9384C4.1344 1.4328 5.85509 1.14286 7.6 1.14286C9.34491 1.14286 11.0656 1.4328 12.3209 1.9384C13.3918 2.36977 14.0571 2.94074 14.0571 3.42857C14.0571 3.9164 13.3918 4.48737 12.3209 4.91874C11.0656 5.42434 9.34491 5.71429 7.6 5.71429C5.85509 5.71429 4.1344 5.42434 2.87914 4.91874C1.80817 4.48737 1.14286 3.9164 1.14286 3.42857C1.14286 2.94074 1.80817 2.36977 2.87914 1.9384ZM2.87914 18.633C1.80817 18.2017 1.14286 17.6307 1.14286 17.1429V15.5649C1.50097 15.8226 1.93886 16.0578 2.45217 16.2646C3.76 16.7913 5.43303 17.0976 7.2 17.1379V19.423C5.59446 19.3823 4.03829 19.0999 2.87914 18.633ZM19.2574 22.0642C18.0302 22.5755 16.3863 22.8571 14.6286 22.8571C12.8708 22.8571 11.2269 22.5755 9.99971 22.0642C8.96223 21.6319 8.34286 21.0738 8.34286 20.5714V19.0268C8.47229 19.1205 8.61531 19.2135 8.77394 19.3053C9.66131 19.8188 10.8687 20.1986 12.2656 20.4037C12.2938 20.4078 12.3217 20.4098 12.3493 20.4098C12.6282 20.4098 12.8722 20.2054 12.9139 19.9213C12.9598 19.609 12.7438 19.3187 12.4316 19.2729C9.77589 18.883 8.34286 17.8845 8.34286 17.1429V15.5931C9.63623 16.5395 11.9193 17.1429 14.6286 17.1429C17.3379 17.1429 19.6209 16.5395 20.9143 15.5931V17.1429C20.9143 17.8845 19.4813 18.883 16.8255 19.2729C16.5133 19.3187 16.2973 19.609 16.3432 19.9213C16.3849 20.2054 16.629 20.4098 16.9078 20.4098C16.9354 20.4098 16.9634 20.4078 16.9915 20.4037C18.3884 20.1986 19.5958 19.8189 20.4832 19.3053C20.6418 19.2135 20.7849 19.1205 20.9143 19.0268V20.5714C20.9143 21.0738 20.2949 21.6319 19.2574 22.0642ZM26.378 18.633C25.2189 19.0999 23.6626 19.3823 22.0571 19.4229V17.1379C23.8241 17.0975 25.4971 16.7913 26.805 16.2645C27.3183 16.0578 27.7562 15.8226 28.1143 15.5649V17.1429C28.1143 17.6307 27.449 18.2017 26.378 18.633Z" fill="black"/>
</svg>
