<svg width="177" height="177" viewBox="0 0 177 177" fill="none" xmlns="http://www.w3.org/2000/svg">
<path d="M94.1825 176.807L142.184 157.813C161.117 142.281 173.197 118.703 173.197 92.3027C173.197 45.5261 135.277 7.60547 88.5 7.60547C41.7234 7.60547 3.80273 45.5261 3.80273 92.3027C3.80273 139.081 41.7234 177 88.5 177C90.4108 177 92.3041 176.931 94.1825 176.807Z" fill="#F2F2F2"/>
<path d="M138.192 110.262C138.867 102.088 137.622 93.8975 134.003 86.5365C124.654 67.5187 126.799 66.1386 126.509 47.2641C126.509 43.4073 123.382 40.2825 119.527 40.2825C115.67 40.2825 112.545 43.4073 112.545 47.2641C112.545 49.7542 112.545 117.729 112.545 117.463C112.545 118.552 112.429 119.615 112.215 120.64V130.689C112.215 139.158 105.325 146.049 96.8564 146.049C91.232 146.049 71.8362 146.049 58.6387 146.049C64.5089 154.213 72.5411 160.607 81.8629 164.479C81.921 164.502 81.979 164.526 82.0371 164.551C87.6453 166.921 91.9275 171.389 94.1826 176.807C112.344 175.604 128.942 168.68 142.184 157.815L136.981 138.7C136.238 135.968 135.976 133.128 136.207 130.307L138.192 110.262Z" fill="#F9CFA9"/>
<path d="M32.7069 40.527L30.58 38.5568C27.3026 35.5184 22.1346 35.7155 19.0975 38.9943C16.0605 42.2717 16.2576 47.4397 19.5351 50.4768L32.7069 62.6817V40.527Z" fill="#F9CFA9"/>
<path d="M102.543 0H42.8347C37.0415 0 32.3286 4.71426 32.3286 10.5075V136.337C32.3286 142.13 37.0415 146.844 42.8347 146.844H102.543C108.336 146.844 113.05 142.13 113.05 136.337V10.5075C113.05 4.71426 108.336 0 102.543 0V0Z" fill="#E0E0E0"/>
<path d="M52.5594 7.79182C51.9909 6.94647 51.6587 5.92962 51.6587 4.83444C51.6587 2.6846 52.9388 0.83725 54.7754 0H42.8351C37.0324 0 32.3276 4.7048 32.3276 10.5075V136.337C32.3276 142.139 37.0324 146.843 42.8351 146.843H55.5289V17.0002C55.5289 13.6958 54.404 10.5345 52.5594 7.79182Z" fill="#E0E0E0"/>
<path d="M38.4111 66.3669V136.337C38.4111 138.781 40.3922 140.762 42.8351 140.762H102.543C104.986 140.762 106.967 138.781 106.967 136.337C106.967 133.936 106.967 98.8846 106.967 66.3669H38.4111Z" fill="#BDBDBD"/>
<path d="M38.4111 66.3669V136.337C38.4111 138.781 40.3922 140.762 42.8351 140.762H53.3007V66.3669H38.4111Z" fill="#BDBDBD"/>
<path d="M62.4604 87.4735C62.4604 91.3019 59.3572 94.4051 55.5288 94.4051C51.7004 94.4051 48.5972 91.3019 48.5972 87.4735C48.5972 83.6451 51.7004 80.5405 55.5288 80.5405C59.3572 80.5405 62.4604 83.6451 62.4604 87.4735Z" fill="white"/>
<path d="M62.4604 113.177C62.4604 117.005 59.3572 120.11 55.5288 120.11C51.7004 120.11 48.5972 117.005 48.5972 113.177C48.5972 109.349 51.7004 106.245 55.5288 106.245C59.3572 106.245 62.4604 109.349 62.4604 113.177Z" fill="white"/>
<path d="M54.7456 80.5879C51.2858 80.9782 48.5972 83.9099 48.5972 87.4736C48.5972 91.302 51.7004 94.4052 55.5288 94.4052C57.9163 94.4052 60.0202 93.198 61.2666 91.3614C55.2898 92.0353 51.4843 85.3913 54.7456 80.5879Z" fill="white"/>
<path d="M54.7456 106.293C51.2858 106.682 48.5972 109.615 48.5972 113.177C48.5972 117.007 51.7004 120.11 55.5288 120.11C57.9163 120.11 60.0202 118.903 61.2666 117.066C55.3262 117.735 51.4627 111.127 54.7456 106.293Z" fill="white"/>
<path d="M83.8559 84.592H74.0142C72.5827 84.592 71.4214 83.4307 71.4214 81.9993C71.4214 80.5665 72.5827 79.4065 74.0142 79.4065H83.8559C85.2873 79.4065 86.4487 80.5665 86.4487 81.9993C86.4487 83.4307 85.2873 84.592 83.8559 84.592Z" fill="white"/>
<path d="M93.6976 95.541H74.0142C72.5814 95.541 71.4214 94.3797 71.4214 92.9482C71.4214 91.5155 72.5814 90.3555 74.0142 90.3555H93.6976C95.1291 90.3555 96.2904 91.5155 96.2904 92.9482C96.2904 94.3797 95.1291 95.541 93.6976 95.541Z" fill="white"/>
<path d="M83.8559 110.296H74.0142C72.5827 110.296 71.4214 109.136 71.4214 107.703C71.4214 106.27 72.5827 105.11 74.0142 105.11H83.8559C85.2873 105.11 86.4487 106.27 86.4487 107.703C86.4487 109.136 85.2873 110.296 83.8559 110.296Z" fill="white"/>
<path d="M93.6976 121.245H74.0142C72.5814 121.245 71.4214 120.085 71.4214 118.652C71.4214 117.22 72.5814 116.059 74.0142 116.059H93.6976C95.1291 116.059 96.2904 117.22 96.2904 118.652C96.2904 120.085 95.1291 121.245 93.6976 121.245Z" fill="white"/>
<path d="M102.508 6.0835H93.6345C92.7972 6.0835 92.1193 6.7614 92.1193 7.5973C92.1193 9.60535 90.4772 11.2474 88.4705 11.2474H56.84C54.832 11.2474 53.1899 9.60535 53.1899 7.5973C53.1899 6.7614 52.512 6.0835 51.6747 6.0835H42.8012C40.357 6.0835 38.376 8.06454 38.376 10.5074V67.0582H106.933V10.5074C106.933 8.06454 104.952 6.0835 102.508 6.0835Z" fill="#BDBDBD"/>
<path d="M44.5322 83.3806C41.8598 86.2637 37.3548 86.4365 34.4704 83.7641L22.545 72.7137C19.6605 70.0413 19.489 65.5363 22.1614 62.6519C24.8339 59.7674 29.3388 59.5959 32.2233 62.2684L44.1487 73.3187C47.0318 75.9912 47.2047 80.4961 44.5322 83.3806Z" fill="#F9CFA9"/>
<path d="M44.1489 73.3188L38.4758 68.063C39.2226 70.7678 38.6028 73.7819 36.5569 75.9899C34.5097 78.1991 31.5509 79.0458 28.7988 78.5084L34.4705 83.7641C37.355 86.4366 41.8586 86.2637 44.5324 83.3806C47.2048 80.4961 47.032 75.9912 44.1489 73.3188Z" fill="#FBBC8D"/>
<path d="M44.5322 102.799C41.8598 105.684 37.3548 105.855 34.4704 103.183L22.545 92.1323C19.6605 89.4599 19.489 84.9549 22.1614 82.0718C24.8339 79.1873 29.3388 79.0158 32.2233 81.6883L44.1487 92.7386C47.0318 95.4111 47.2047 99.9147 44.5322 102.799Z" fill="#F9CFA9"/>
<path d="M44.5322 122.219C41.8598 125.104 37.3548 125.275 34.4704 122.603L22.545 111.553C19.6605 108.88 19.489 104.375 22.1614 101.491C24.8339 98.6063 29.3388 98.4348 32.2233 101.107L44.1487 112.158C47.0318 114.83 47.2047 119.335 44.5322 122.219Z" fill="#F9CFA9"/>
<path d="M136.981 138.698C136.612 137.34 136.362 135.956 136.231 134.559C123.038 156.22 97.4234 166.279 73.3633 160.024C76.0465 161.748 78.8891 163.242 81.8627 164.478C81.9208 164.502 81.9789 164.526 82.0369 164.55C87.6451 166.919 91.9273 171.388 94.1824 176.807C112.344 175.603 128.942 168.679 142.184 157.813L136.981 138.698Z" fill="#FBBC8D"/>
<path d="M44.1489 92.7387L38.4758 87.4829C39.2226 90.1864 38.6028 93.2005 36.5569 95.4098C34.5097 97.619 31.5509 98.4657 28.7988 97.9283L34.4705 103.183C37.355 105.855 41.8599 105.684 44.5324 102.799C47.2048 99.9147 47.032 95.4111 44.1489 92.7387Z" fill="#FBBC8D"/>
<path d="M44.1489 112.157L38.4758 106.902C39.2226 109.606 38.6028 112.621 36.5569 114.828C34.5097 117.038 31.5509 117.886 28.7988 117.347L34.4705 122.603C37.355 125.275 41.8599 125.104 44.5324 122.219C47.2048 119.335 47.032 114.83 44.1489 112.157Z" fill="#FBBC8D"/>
<path d="M56.5399 30.1957C55.2205 28.8894 55.2099 26.7607 56.5163 25.4413C57.8227 24.1218 59.9513 24.1112 61.2708 25.4176L88.9839 52.8565C90.3034 54.1628 90.314 56.2915 89.0076 57.6109C87.7012 58.9304 85.5725 58.941 84.2531 57.6346L56.5399 30.1957Z" fill="white"/>
<path d="M89.1088 30.1691C90.4426 28.8774 90.4768 26.749 89.1852 25.4152C87.8935 24.0813 85.7651 24.0471 84.4312 25.3388L56.4153 52.4684C55.0815 53.7601 55.0473 55.8885 56.3389 57.2223C57.6306 58.5562 59.759 58.5904 61.0929 57.2987L89.1088 30.1691Z" fill="white"/>
</svg>
