<svg width="22" height="22" viewBox="0 0 22 22" fill="none" xmlns="http://www.w3.org/2000/svg">
<path d="M21.2905 2.53857H13.5381V5.0635H16.1028V6.78204H13.5381V8.46165H16.0765V10.154H13.5381V11.8463H16.0765V13.5386H13.5381V15.2309H16.0765V16.9232H13.5381V19.4617H21.2905C21.6806 19.4617 21.9996 19.1308 21.9996 18.7255V3.27473C21.9996 2.86942 21.6806 2.53857 21.2905 2.53857ZM20.3073 16.9232H16.9227V15.2309H20.3073V16.9232ZM20.3073 13.5386H16.9227V11.8463H20.3073V13.5386ZM20.3073 10.154H16.9227V8.46165H20.3073V10.154ZM20.3073 6.76934H16.9227V5.07704H20.3073V6.76934Z" fill="white"/>
<path d="M0 2.44454V19.5563L12.6923 22V0L0 2.44454ZM8.02831 15.2985L6.55177 12.507C6.49592 12.4029 6.43839 12.2117 6.37831 11.9333H6.35546C6.32754 12.0645 6.26154 12.2642 6.15746 12.5315L4.67585 15.2985H2.37515L5.10654 11.0135L2.60785 6.72777H4.95677L6.182 9.29754C6.27762 9.50062 6.36308 9.74177 6.43923 10.0202H6.46292C6.51115 9.85262 6.60085 9.60385 6.732 9.273L8.09431 6.72692H10.2452L7.67546 10.9763L10.3172 15.2976L8.02831 15.2985Z" fill="white"/>
</svg>
