<svg width="9" height="12" viewBox="0 0 9 12" fill="none" xmlns="http://www.w3.org/2000/svg">
<path d="M7.875 4.875V3.375C7.875 1.5 6.375 0 4.5 0C2.625 0 1.125 1.5 1.125 3.375V4.875C0.4875 4.875 0 5.3625 0 6V10.875C0 11.475 0.4875 12 1.125 12H7.875C8.5125 12 9 11.475 9 10.875V6C9 5.3625 8.5125 4.875 7.875 4.875ZM1.875 3.375C1.875 1.9125 3.0375 0.75 4.5 0.75C5.9625 0.75 7.125 1.9125 7.125 3.375V4.875H1.875V3.375ZM4.875 8.925V9.75C4.875 9.975 4.725 10.125 4.5 10.125C4.275 10.125 4.125 9.975 4.125 9.75V8.925C3.675 8.775 3.375 8.3625 3.375 7.875C3.375 7.2375 3.8625 6.75 4.5 6.75C5.1375 6.75 5.625 7.2375 5.625 7.875C5.625 8.3625 5.325 8.775 4.875 8.925Z" fill="white"/>
</svg>
