<svg width="14" height="19" viewBox="0 0 14 19" fill="none" xmlns="http://www.w3.org/2000/svg">
<path d="M12.25 7.58333V5.25C12.25 2.33333 9.91667 0 7 0C4.08333 0 1.75 2.33333 1.75 5.25V7.58333C0.758333 7.58333 0 8.34167 0 9.33333V16.9167C0 17.85 0.758333 18.6667 1.75 18.6667H12.25C13.2417 18.6667 14 17.85 14 16.9167V9.33333C14 8.34167 13.2417 7.58333 12.25 7.58333ZM2.91667 5.25C2.91667 2.975 4.725 1.16667 7 1.16667C9.275 1.16667 11.0833 2.975 11.0833 5.25V7.58333H2.91667V5.25ZM7.58333 13.8833V15.1667C7.58333 15.5167 7.35 15.75 7 15.75C6.65 15.75 6.41667 15.5167 6.41667 15.1667V13.8833C5.71667 13.65 5.25 13.0083 5.25 12.25C5.25 11.2583 6.00833 10.5 7 10.5C7.99167 10.5 8.75 11.2583 8.75 12.25C8.75 13.0083 8.28333 13.65 7.58333 13.8833Z" fill="#FF0000"/>
</svg>
