<svg width="137" height="70" viewBox="0 0 137 70" fill="none" xmlns="http://www.w3.org/2000/svg">
<path d="M65 0C29.5881 4.24113 1.857 33.6788 0 70H16.5794C18.3695 42.8881 38.7471 20.8941 65 16.8137V0Z" fill="#01B6AB"/>
<path d="M81.7222 43.4444C84.3302 43.4444 86.4444 41.3302 86.4444 38.7222C86.4444 36.1142 84.3302 34 81.7222 34C79.1142 34 77 36.1142 77 38.7222C77 41.3302 79.1142 43.4444 81.7222 43.4444Z" fill="#F4B13E"/>
<path d="M102.5 43.4444C105.108 43.4444 107.222 41.3302 107.222 38.7222C107.222 36.1142 105.108 34 102.5 34C99.8916 34 97.7773 36.1142 97.7773 38.7222C97.7773 41.3302 99.8916 43.4444 102.5 43.4444Z" fill="#03D1C4"/>
<path d="M123.278 43.4444C125.886 43.4444 128 41.3302 128 38.7222C128 36.1142 125.886 34 123.278 34C120.67 34 118.556 36.1142 118.556 38.7222C118.556 41.3302 120.67 43.4444 123.278 43.4444Z" fill="#01B6AB"/>
<path d="M81.7222 62.8058C84.3302 62.8058 86.4444 60.6916 86.4444 58.0835C86.4444 55.4755 84.3302 53.3613 81.7222 53.3613C79.1142 53.3613 77 55.4755 77 58.0835C77 60.6916 79.1142 62.8058 81.7222 62.8058Z" fill="#01B6AB"/>
<path d="M102.5 62.8058C105.108 62.8058 107.222 60.6916 107.222 58.0835C107.222 55.4755 105.108 53.3613 102.5 53.3613C99.8916 53.3613 97.7773 55.4755 97.7773 58.0835C97.7773 60.6916 99.8916 62.8058 102.5 62.8058Z" fill="#01B6AB"/>
<path d="M123.278 62.8058C125.886 62.8058 128 60.6916 128 58.0835C128 55.4755 125.886 53.3613 123.278 53.3613C120.67 53.3613 118.556 55.4755 118.556 58.0835C118.556 60.6916 120.67 62.8058 123.278 62.8058Z" fill="#F4B13E"/>
<path d="M61.7222 43.4444C64.3302 43.4444 66.4444 41.3302 66.4444 38.7222C66.4444 36.1142 64.3302 34 61.7222 34C59.1142 34 57 36.1142 57 38.7222C57 41.3302 59.1142 43.4444 61.7222 43.4444Z" fill="#01B6AB"/>
<path d="M61.7222 62.8058C64.3302 62.8058 66.4444 60.6916 66.4444 58.0835C66.4444 55.4755 64.3302 53.3613 61.7222 53.3613C59.1142 53.3613 57 55.4755 57 58.0835C57 60.6916 59.1142 62.8058 61.7222 62.8058Z" fill="#01B6AB"/>
<path d="M122.5 12C130.508 12 137 5.50813 137 -2.5C137 -10.5081 130.508 -17 122.5 -17C114.492 -17 108 -10.5081 108 -2.5C108 5.50813 114.492 12 122.5 12Z" fill="#F4B13E"/>
</svg>
