<svg width="18" height="18" viewBox="0 0 18 18" fill="none" xmlns="http://www.w3.org/2000/svg">
<path d="M16.5604 2.9329C16.5645 2.91558 16.5645 2.89753 16.5604 2.88021L16.0511 1.49287C15.888 1.05058 15.5919 0.669647 15.2036 0.402374C14.8153 0.135101 14.3537 -0.0054022 13.8823 0.000158931H3.60895C3.13757 -0.0054022 2.67602 0.135101 2.28768 0.402374C1.89935 0.669647 1.60328 1.05058 1.44013 1.49287L0.939634 2.88021C0.935526 2.89753 0.935526 2.91558 0.939634 2.9329C0.648138 3.12315 0.409263 3.38376 0.245058 3.69069C0.0808536 3.99761 -0.00338954 4.34096 0.000104416 4.68903V5.18952C-0.000721357 5.64582 0.116996 6.09451 0.341725 6.49164C0.566454 6.88876 0.890487 7.2207 1.28208 7.45493V15.3575C1.26798 15.6918 1.32037 16.0256 1.4362 16.3395C1.55203 16.6534 1.72901 16.9412 1.95687 17.1862C2.18474 17.4312 2.45896 17.6286 2.76365 17.7669C3.06834 17.9051 3.39744 17.9816 3.73188 17.9917H13.7594C14.0938 17.9816 14.4229 17.9051 14.7276 17.7669C15.0323 17.6286 15.3065 17.4312 15.5344 17.1862C15.7623 16.9412 15.9392 16.6534 16.0551 16.3395C16.1709 16.0256 16.2233 15.6918 16.2092 15.3575V7.45493C16.605 7.22028 16.9324 6.88604 17.1589 6.4855C17.3853 6.08496 17.5029 5.63208 17.4999 5.17196V4.67147C17.5005 4.32636 17.4148 3.98658 17.2508 3.68297C17.0867 3.37936 16.8494 3.12154 16.5604 2.9329ZM2.26551 1.73873C2.37402 1.47343 2.56062 1.24738 2.80055 1.09057C3.04048 0.933751 3.32241 0.853572 3.60895 0.860663H13.8823C14.1689 0.853572 14.4508 0.933751 14.6907 1.09057C14.9307 1.24738 15.1172 1.47343 15.2258 1.73873L15.5243 2.61679H1.96697L2.26551 1.73873ZM6.40998 3.49486H11.0813V5.17196C11.079 5.6525 10.8864 6.11256 10.5458 6.45153C10.2052 6.79049 9.74423 6.98078 9.26369 6.98078H8.22758C7.74704 6.98078 7.28605 6.79049 6.94544 6.45153C6.60482 6.11256 6.4123 5.6525 6.40998 5.17196V3.49486ZM0.869389 4.67147C0.869389 4.35242 0.996128 4.04645 1.22172 3.82085C1.44732 3.59526 1.7533 3.46852 2.07234 3.46852H5.53192V5.17196C5.53192 5.4095 5.48513 5.64471 5.39423 5.86417C5.30333 6.08362 5.17009 6.28302 5.00213 6.45099C4.83416 6.61895 4.63476 6.75219 4.4153 6.84309C4.19585 6.93399 3.96064 6.98078 3.7231 6.98078H2.6782C2.19848 6.98078 1.7384 6.79021 1.39918 6.45099C1.05996 6.11177 0.869389 5.65169 0.869389 5.17196V4.67147ZM7.42854 17.0785V12.6882C7.42854 12.3389 7.5673 12.0039 7.81431 11.7569C8.06131 11.5099 8.39632 11.3711 8.74564 11.3711C9.09495 11.3711 9.42996 11.5099 9.67696 11.7569C9.92397 12.0039 10.0627 12.3389 10.0627 12.6882V17.0785H7.42854ZM15.3311 15.3224C15.3454 15.5414 15.3158 15.761 15.2442 15.9684C15.1725 16.1758 15.0602 16.3669 14.9139 16.5304C14.7676 16.6939 14.5901 16.8266 14.3918 16.9207C14.1936 17.0148 13.9786 17.0685 13.7594 17.0785H10.9408V12.6882C10.9408 12.106 10.7095 11.5477 10.2978 11.136C9.88618 10.7243 9.32783 10.493 8.74564 10.493C8.16344 10.493 7.60509 10.7243 7.19342 11.136C6.78175 11.5477 6.55047 12.106 6.55047 12.6882V17.0785H3.73188C3.51267 17.0685 3.29766 17.0148 3.09943 16.9207C2.9012 16.8266 2.72372 16.6939 2.57737 16.5304C2.43103 16.3669 2.31875 16.1758 2.24711 15.9684C2.17547 15.761 2.14591 15.5414 2.16015 15.3224V7.77104C2.33056 7.80638 2.50416 7.82403 2.6782 7.82372H3.7231C4.1705 7.82217 4.61044 7.70892 5.00298 7.49425C5.39552 7.27958 5.72824 6.97028 5.97095 6.59443C6.21505 6.97097 6.54929 7.28061 6.94335 7.49528C7.33742 7.70994 7.77884 7.82284 8.22758 7.82372H9.26369C9.71243 7.82284 10.1539 7.70994 10.5479 7.49528C10.942 7.28061 11.2762 6.97097 11.5203 6.59443C11.763 6.97028 12.0957 7.27958 12.4883 7.49425C12.8808 7.70892 13.3208 7.82217 13.7682 7.82372H14.8131C14.9871 7.82403 15.1607 7.80638 15.3311 7.77104V15.3224ZM16.6219 5.13684C16.6219 5.61657 16.4313 6.07665 16.0921 6.41587C15.7529 6.75508 15.2928 6.94566 14.8131 6.94566H13.7682C13.2884 6.94566 12.8284 6.75508 12.4891 6.41587C12.1499 6.07665 11.9594 5.61657 11.9594 5.13684V3.46852H15.4189C15.738 3.46852 16.0439 3.59526 16.2695 3.82085C16.4951 4.04645 16.6219 4.35242 16.6219 4.67147V5.13684Z" fill="white"/>
</svg>
