<svg width="637" height="637" viewBox="0 0 637 637" fill="none" xmlns="http://www.w3.org/2000/svg">
<path d="M560.837 152.326H494.367L457.671 96.935C443.823 76.1632 419.589 63.7002 394.663 63.7002H242.337C217.411 63.7002 193.177 76.1632 179.329 96.935L142.633 152.326H76.163C33.9272 152.326 0 186.253 0 228.489V497.137C0 539.373 33.9272 573.3 76.163 573.3H560.837C603.073 573.3 637 539.373 637 497.137V228.489C637 186.253 603.073 152.326 560.837 152.326ZM318.5 510.985C223.642 510.985 146.787 434.13 146.787 339.272C146.787 244.414 223.642 168.251 318.5 168.251C413.358 168.251 490.213 245.107 490.213 339.964C490.213 434.13 413.358 510.985 318.5 510.985ZM551.143 259.647C550.451 259.647 549.759 259.647 548.374 259.647H520.678C508.215 258.955 498.522 248.569 499.214 236.106C499.907 224.335 508.908 215.334 520.678 214.641H548.374C560.837 213.949 571.223 223.643 571.915 236.106C572.608 248.569 563.607 258.955 551.143 259.647Z" fill="#D7D7D7"/>
<path d="M318.5 244.414C265.878 244.414 222.95 287.342 222.95 339.964C222.95 392.586 265.878 434.822 318.5 434.822C371.122 434.822 414.05 391.893 414.05 339.272C414.05 286.65 371.122 244.414 318.5 244.414Z" fill="#D7D7D7"/>
</svg>
