<svg width="12" height="10" viewBox="0 0 12 10" fill="none" xmlns="http://www.w3.org/2000/svg">
<path d="M1.78125 2.14287C1.58709 2.14287 1.42969 1.98296 1.42969 1.78572V1.07144C1.42969 0.874199 1.58709 0.714294 1.78125 0.714294C1.97541 0.714294 2.13281 0.874199 2.13281 1.07144V1.78572C2.13281 1.98296 1.97541 2.14287 1.78125 2.14287Z" fill="#BDBDBD"/>
<path d="M11.6484 10H0.351562C0.157406 10 0 9.8401 0 9.64286V1.78571C0 1.58848 0.157406 1.42857 0.351562 1.42857H2.97021L3.57616 0.197429C3.63572 0.0764286 3.75745 0 3.89062 0H8.10938C8.24255 0 8.36428 0.0764286 8.42381 0.197429L9.02979 1.42857H11.6484C11.8426 1.42857 12 1.58848 12 1.78571V9.64286C12 9.8401 11.8426 10 11.6484 10Z" fill="#BDBDBD"/>
<path d="M6 8.57146C4.25534 8.57146 2.83594 7.12953 2.83594 5.35717C2.83594 3.58481 4.25534 2.14288 6 2.14288C7.74466 2.14288 9.16406 3.58481 9.16406 5.35717C9.16406 7.12953 7.74466 8.57146 6 8.57146Z" fill="white"/>
<path d="M6 7.14284C5.03074 7.14284 4.24219 6.34177 4.24219 5.35713C4.24219 4.37248 5.03074 3.57141 6 3.57141C6.96926 3.57141 7.75781 4.37248 7.75781 5.35713C7.75781 6.34177 6.96926 7.14284 6 7.14284Z" fill="#BDBDBD"/>
<path d="M10.2188 3.5714C10.4129 3.5714 10.5703 3.4115 10.5703 3.21426C10.5703 3.01702 10.4129 2.85712 10.2188 2.85712C10.0246 2.85712 9.86719 3.01702 9.86719 3.21426C9.86719 3.4115 10.0246 3.5714 10.2188 3.5714Z" fill="white"/>
</svg>
