<svg width="24" height="24" viewBox="0 0 24 24" fill="none" xmlns="http://www.w3.org/2000/svg">
<path d="M24 12C24 18.6275 18.6275 24 12 24C5.3725 24 0 18.6275 0 12C0 5.3725 5.3725 0 12 0C18.6275 0 24 5.3725 24 12Z" fill="#6982FF"/>
<path d="M17.4445 10.4445H14.318C13.897 10.4445 13.5556 10.103 13.5556 9.68204V6.55564C13.5556 5.69643 12.8592 5 12 5C11.1409 5 10.4445 5.69643 10.4445 6.55564V9.68204C10.4445 10.103 10.103 10.4445 9.68204 10.4445H6.55564C5.69643 10.4445 5 11.1409 5 12C5 12.8591 5.69643 13.5555 6.55564 13.5555H9.68204C10.103 13.5555 10.4445 13.897 10.4445 14.318V17.4444C10.4445 18.3036 11.1409 19 12 19C12.8592 19 13.5556 18.3036 13.5556 17.4444V14.318C13.5556 13.897 13.897 13.5555 14.318 13.5555H17.4445C18.3036 13.5555 19 12.8591 19 12C19 11.1409 18.3036 10.4445 17.4445 10.4445Z" fill="white"/>
</svg>
