<svg width="25" height="24" viewBox="0 0 25 24" fill="none" xmlns="http://www.w3.org/2000/svg">
<path d="M24.5 12C24.5 18.6275 19.1275 24 12.5 24C5.8725 24 0.5 18.6275 0.5 12C0.5 5.3725 5.8725 0 12.5 0C19.1275 0 24.5 5.3725 24.5 12Z" fill="#6982FF"/>
<path d="M19.5 14.1882V15.218C19.5 15.7867 19.0674 16.2477 18.5338 16.2477H11.1666C11.0332 16.2477 10.925 16.363 10.925 16.5052V18.2262C10.925 18.9168 10.1394 19.2601 9.68439 18.7684L5.71002 14.473C5.25863 13.9848 5.58291 13.1584 6.22603 13.1584H18.5338C19.0674 13.1584 19.5 13.6195 19.5 14.1882Z" fill="white"/>
<path d="M19.29 9.52696C19.7414 10.0151 19.4171 10.8415 18.774 10.8415H6.46619C5.93258 10.8415 5.5 10.3805 5.5 9.81176V8.78199C5.5 8.21327 5.93258 7.75223 6.46619 7.75223H13.8334C13.9668 7.75223 14.075 7.63696 14.075 7.49478V5.77379C14.075 5.0832 14.8606 4.73984 15.3156 5.23155L19.29 9.52696Z" fill="white"/>
</svg>
