<svg width="36" height="36" viewBox="0 0 36 36" fill="none" xmlns="http://www.w3.org/2000/svg">
<circle cx="18" cy="18" r="18" fill="#AAE5E1"/>
<path d="M29.8125 14.3596V27.7306C29.8149 28.0641 29.6739 28.3827 29.4253 28.605L29.3902 28.6402C29.1758 28.8229 28.903 28.9229 28.6212 28.9219H7.37915C7.09938 28.9218 6.82881 28.8219 6.6161 28.6402C6.60159 28.6316 6.58952 28.6195 6.58098 28.605C6.33052 28.3834 6.18725 28.065 6.18755 27.7306V14.3596C6.18477 14.0623 6.29853 13.7758 6.50446 13.5614C6.5884 13.4623 6.68928 13.3788 6.80227 13.3148C6.9786 13.2183 7.1764 13.1678 7.37738 13.168H28.6209C28.9544 13.174 29.2715 13.3135 29.5013 13.5551C29.701 13.7755 29.812 14.0622 29.8125 14.3596Z" fill="#F6B863"/>
<path d="M29.5025 13.5538C29.4188 13.6571 18.0063 22.7332 18.0063 22.7332L6.50391 13.5639L6.50896 13.5592V13.5541L17.355 4.7309C17.7336 4.42303 18.2762 4.42303 18.6548 4.7309L29.5025 13.5538Z" fill="#EAA14E"/>
<path d="M27.0757 7.40137V15.5077L18.0047 22.733L8.92871 15.4979V7.40137H27.0757Z" fill="#EEEFEE"/>
<path d="M29.4244 28.6041C29.4141 28.6168 29.4025 28.6284 29.3898 28.6386L19.1719 21.8225L20.1071 21.0693L29.4244 28.6041Z" fill="#EAA14E"/>
<path d="M16.8335 21.8176L6.61562 28.6379C6.60061 28.6305 6.58843 28.6184 6.58105 28.6033L15.8936 21.0596L16.8335 21.8176Z" fill="#EAA14E"/>
<path d="M10.9395 9.5293H25.0604V10.1419H10.9395V9.5293Z" fill="#DBD8DD"/>
<path d="M10.9395 11.8926H25.0604V12.5052H10.9395V11.8926Z" fill="#DBD8DD"/>
<path d="M10.9395 14.2554H25.0604V14.868H10.9395V14.2554Z" fill="#DBD8DD"/>
<path d="M13.3105 16.6187H22.6886V17.2313H13.3105V16.6187Z" fill="#DBD8DD"/>
<circle cx="26.4" cy="8.7999" r="2.4" fill="#BE3F45"/>
</svg>
