<svg width="40" height="39" viewBox="0 0 40 39" fill="none" xmlns="http://www.w3.org/2000/svg">
<path d="M0 37.7067V1.89031C0 1.32203 0.460703 0.861328 1.02898 0.861328H22.5626C23.1309 0.861328 23.5916 1.32203 23.5916 1.89031V37.7067C23.5916 38.275 23.1309 38.7357 22.5626 38.7357H1.02898C0.460703 38.7357 0 38.275 0 37.7067H0Z" fill="#4980AC"/>
<path d="M16.8163 4.07439L15.1723 5.85846C14.9774 6.06986 14.703 6.19018 14.4155 6.19018H9.17547C8.88797 6.19018 8.61359 6.06994 8.41875 5.85846L6.77469 4.07439C6.57984 3.86299 6.30547 3.74268 6.01797 3.74268H3.39539C3.11125 3.74268 2.88086 3.97299 2.88086 4.25721V35.3402C2.88086 35.6243 3.11125 35.8547 3.39539 35.8547H20.7101V3.74275H17.573C17.2855 3.74275 17.0112 3.86299 16.8163 4.07439Z" fill="#EDF6FF"/>
<path d="M2.88086 32.6255V35.3404C2.88086 35.6245 3.11117 35.8549 3.39539 35.8549H20.7101V33.14H3.39531C3.11117 33.1399 2.88086 32.9096 2.88086 32.6255Z" fill="#DDEBFD"/>
<path d="M11.8471 4.15445H11.7442C11.4109 4.15445 11.1406 3.88422 11.1406 3.55086C11.1406 3.2175 11.4109 2.94727 11.7442 2.94727H11.8471C12.1805 2.94727 12.4507 3.2175 12.4507 3.55086C12.4507 3.88422 12.1805 4.15445 11.8471 4.15445Z" fill="#62A4FB"/>
<path d="M38.7817 33.5197C33.1017 31.051 26.1983 31.8293 20.71 35.8547V3.74269C26.4375 -0.458088 33.7061 -1.1227 39.5172 1.74902C39.8136 1.89551 39.9995 2.19957 39.9995 2.53019V32.7189C39.9996 33.3461 39.357 33.7697 38.7817 33.5197Z" fill="#DDEBFD"/>
<path d="M38.7817 30.8047C33.1017 28.336 26.1983 29.1143 20.71 33.1397V35.8546C26.1982 31.8292 33.1016 31.0509 38.7817 33.5196C39.357 33.7696 39.9996 33.3461 39.9996 32.7188V30.0039C39.9996 30.6312 39.357 31.0548 38.7817 30.8047Z" fill="#BED9FD"/>
<path d="M24.0329 8.91727C23.8057 8.91727 23.588 8.78837 23.4855 8.56884C23.3445 8.2668 23.4751 7.90758 23.7771 7.76649C27.9526 5.81688 32.5932 5.40813 36.8438 6.61563C37.1645 6.70673 37.3506 7.04063 37.2595 7.36126C37.1683 7.68188 36.8344 7.86774 36.5139 7.77696C32.5425 6.64868 28.2007 7.03344 24.2879 8.8604C24.2052 8.89899 24.1183 8.91727 24.0329 8.91727Z" fill="#80B6FC"/>
<path d="M24.0329 13.3734C23.8057 13.3734 23.5879 13.2444 23.4855 13.0249C23.3445 12.7228 23.4751 12.3636 23.7771 12.2226C27.9533 10.2736 32.5936 9.86543 36.8438 11.0727C37.1645 11.1638 37.3506 11.4977 37.2595 11.8183C37.1683 12.139 36.8344 12.3248 36.5139 12.234C32.5431 11.1059 28.2011 11.4904 24.2878 13.3165C24.2051 13.3551 24.1183 13.3734 24.0329 13.3734Z" fill="#80B6FC"/>
<path d="M24.0329 17.8301C23.8057 17.8301 23.5879 17.7011 23.4855 17.4815C23.3445 17.1794 23.4751 16.8202 23.7772 16.6793C27.9526 14.7305 32.5931 14.3224 36.8438 15.5301C37.1645 15.6213 37.3506 15.9551 37.2595 16.2758C37.1683 16.5964 36.8344 16.7824 36.5139 16.6915C32.5423 15.5629 28.2004 15.9472 24.2878 17.7732C24.2051 17.8118 24.1183 17.8301 24.0329 17.8301Z" fill="#80B6FC"/>
<path d="M11.7963 26.1644C15.3119 26.1644 18.1619 23.3144 18.1619 19.7987C18.1619 16.2831 15.3119 13.4331 11.7963 13.4331C8.28065 13.4331 5.43066 16.2831 5.43066 19.7987C5.43066 23.3144 8.28065 26.1644 11.7963 26.1644Z" fill="#F5DE46"/>
<path d="M24.0329 22.2874C23.8057 22.2874 23.5879 22.1584 23.4855 21.9389C23.3445 21.6368 23.4751 21.2775 23.7771 21.1366C25.8607 20.1643 28.0563 19.5723 30.3031 19.3772C30.6338 19.3489 30.9279 19.5942 30.9566 19.9264C30.9854 20.2585 30.7396 20.5511 30.4075 20.5799C28.3018 20.7628 26.2428 21.3182 24.2877 22.2305C24.2051 22.2692 24.1183 22.2874 24.0329 22.2874Z" fill="#80B6FC"/>
<path d="M11.6817 17.0866H11.9095C12.2428 17.0866 12.513 16.8163 12.513 16.483C12.513 16.1496 12.2428 15.8794 11.9095 15.8794H11.6817C11.3484 15.8794 11.0781 16.1496 11.0781 16.483C11.0781 16.8163 11.3484 17.0866 11.6817 17.0866Z" fill="#365F7E"/>
<path d="M12.6915 22.5109H12.3995V18.837C12.3995 18.5036 12.1293 18.2334 11.7959 18.2334H11.0049C10.6716 18.2334 10.4013 18.5036 10.4013 18.837C10.4013 19.1704 10.6716 19.4406 11.0049 19.4406H11.1923V22.5109H10.9005C10.5671 22.5109 10.2969 22.7811 10.2969 23.1145C10.2969 23.4479 10.5671 23.7181 10.9005 23.7181H12.6916C13.0249 23.7181 13.2952 23.4479 13.2952 23.1145C13.2952 22.7811 13.0248 22.5109 12.6915 22.5109Z" fill="#365F7E"/>
<path d="M36.5262 35.718L33.0132 32.205C32.8969 32.0886 32.8969 31.9 33.0132 31.7836L34.8853 29.9115C35.1291 29.6678 34.9564 29.251 34.6117 29.251H28.1041C27.6173 29.251 27.2227 29.6457 27.2227 30.1325V36.64C27.2227 36.9847 27.6395 37.1573 27.8832 36.9136L29.7553 35.0414C29.8716 34.9251 30.0603 34.9251 30.1766 35.0414L33.6896 38.5545C33.9315 38.7964 34.3236 38.7964 34.5654 38.5545L36.526 36.5939C36.768 36.3519 36.768 35.9598 36.5262 35.718Z" fill="#62A4FB"/>
</svg>
