<svg width="38" height="38" viewBox="0 0 38 38" fill="none" xmlns="http://www.w3.org/2000/svg">
<path d="M23.2531 0H1.26726C0.567392 0 0 0.567392 0 1.26726V31.9269C0 33.0012 0.87087 33.8721 1.94515 33.8721H19.2745C22.1717 33.8721 24.5204 31.5234 24.5204 28.6261V1.26726C24.5204 0.567392 23.953 0 23.2531 0V0Z" fill="url(#paint0_linear)"/>
<path d="M0 19.6337V31.9269C0 33.0012 0.87087 33.8721 1.94515 33.8721H19.2745C22.1717 33.8721 24.5204 31.5234 24.5204 28.6261V19.6337H0Z" fill="url(#paint1_linear)"/>
<path d="M23.3292 38H5.9999C4.92562 38 4.05475 37.1291 4.05475 36.0548V5.39525C4.05475 4.69538 4.62214 4.12799 5.32201 4.12799H27.3078C28.0077 4.12799 28.5751 4.69538 28.5751 5.39525V32.7541C28.5752 35.6513 26.2265 38 23.3292 38Z" fill="url(#paint2_linear)"/>
<path d="M14.4084 21.5305L14.2805 22.5742C14.2219 23.0522 14.4524 23.4852 14.8199 23.7216L27.29 36.1916C28.0898 35.2708 28.5752 34.0694 28.5752 32.754V5.39524C28.5752 5.27476 28.5573 5.15867 28.5259 5.04825L16.6588 16.9151C15.4147 18.1594 14.6225 19.784 14.4084 21.5305Z" fill="url(#paint3_linear)"/>
<path d="M4.05475 28.962V36.0548C4.05475 37.1291 4.92562 38 5.9999 38H23.3292C26.2265 38 28.5752 35.6513 28.5752 32.7541V28.962H4.05475Z" fill="url(#paint4_linear)"/>
<path d="M7.94503 31.8213V36.0548C7.94503 37.1291 7.07416 38 5.99988 38H27.2194C30.1167 38 32.4654 35.6513 32.4654 32.7541V31.8213C32.4654 31.1215 31.898 30.5541 31.1981 30.5541H9.21229C8.51235 30.5541 7.94503 31.1215 7.94503 31.8213Z" fill="url(#paint5_linear)"/>
<path d="M7.94503 31.8213V36.0548C7.94503 37.1291 7.07416 38 5.99988 38H27.2194C30.1167 38 32.4654 35.6513 32.4654 32.7541V31.8213C32.4654 31.1215 31.898 30.5541 31.1981 30.5541H9.21229C8.51235 30.5541 7.94503 31.1215 7.94503 31.8213Z" fill="url(#paint6_linear)"/>
<path d="M25.0257 19.8277V20.4215H8.47181V19.8277H25.0257Z" fill="url(#paint7_linear)" stroke="#FF931C" stroke-width="1.00392"/>
<path d="M25.0258 23.2501V23.8439H8.47187V23.2501H25.0258Z" fill="url(#paint8_linear)" stroke="#FF931C" stroke-width="1.00392"/>
<path d="M20.7939 26.6726V27.2663H8.47187V26.6726H20.7939Z" fill="url(#paint9_linear)" stroke="#FF931C" stroke-width="1.00392"/>
<path d="M16.0295 7.77286H9.22774C8.53301 7.77286 7.96979 8.33608 7.96979 9.03081V15.8326C7.96979 16.5273 8.53301 17.0905 9.22774 17.0905H16.0295C16.7242 17.0905 17.2875 16.5273 17.2875 15.8326V9.03081C17.2875 8.33608 16.7242 7.77286 16.0295 7.77286Z" fill="url(#paint10_linear)"/>
<path opacity="0.8" d="M25.053 19.3256H15.0128C14.7885 19.8367 14.6186 20.3725 14.5068 20.9231H25.053C25.3152 20.9231 25.5276 20.7107 25.5276 20.4485V19.801C25.5276 19.5387 25.3153 19.3256 25.053 19.3256Z" fill="url(#paint11_linear)"/>
<path opacity="0.8" d="M25.0528 22.7478H14.272C14.2809 23.1554 14.497 23.5145 14.8196 23.7217L15.444 24.3461H25.0528C25.3151 24.3461 25.5274 24.133 25.5274 23.8707V23.2232C25.5274 22.9609 25.3151 22.7478 25.0528 22.7478Z" fill="url(#paint12_linear)"/>
<path opacity="0.8" d="M20.8207 26.1708H17.2688L18.8663 27.7683H20.8207C21.083 27.7683 21.2961 27.556 21.2961 27.2929V26.6454C21.2961 26.3832 21.083 26.1708 20.8207 26.1708Z" fill="url(#paint13_linear)"/>
<path d="M37.5914 0.645577L37.328 0.382185C36.8185 -0.127313 35.9924 -0.127313 35.4828 0.382185L31.5582 4.30676L33.6667 6.41524L37.5913 2.49066C38.1009 1.98116 38.1009 1.15507 37.5914 0.645577Z" fill="url(#paint14_linear)"/>
<path d="M16.5469 23.6689L15.5032 23.7969C14.7349 23.891 14.0824 23.2386 14.1766 22.4703L14.3046 21.4266C14.5186 19.68 15.3108 18.0554 16.555 16.8112L17.0225 16.3437L31.8483 2.33745C32.2417 1.94404 32.8797 1.94404 33.2731 2.33745L35.785 4.7003C36.1784 5.09371 36.1784 5.73167 35.785 6.12508L21.6377 20.943L21.1622 21.4184C19.918 22.6627 18.2934 23.4549 16.5469 23.6689Z" fill="url(#paint15_linear)"/>
<path d="M16.5469 23.6689L15.5032 23.7969C14.7349 23.891 14.0824 23.2386 14.1766 22.4703L14.3046 21.4266C14.5186 19.6801 15.3108 18.0554 16.555 16.8112L17.021 16.3453L19.3773 18.7016L21.6283 20.9526L21.1624 21.4185C19.918 22.6627 18.2934 23.4549 16.5469 23.6689Z" fill="url(#paint16_linear)"/>
<path d="M36.4556 4.70031L33.2731 1.51785C32.8797 1.12444 32.2418 1.12444 31.8484 1.51785L20.6374 12.7288L25.2447 17.3361L36.4556 6.12509C36.8491 5.73168 36.8491 5.0938 36.4556 4.70031Z" fill="url(#paint17_linear)"/>
<path d="M21.6282 20.9525L17.0209 16.3452L21.0694 12.2968L25.6767 16.9041L21.6282 20.9525Z" fill="url(#paint18_linear)"/>
<path d="M34.4577 2.19805L27.2666 9.38914C26.9027 9.75305 26.9027 10.343 27.2666 10.7069C27.6305 11.0708 28.2205 11.0708 28.5843 10.7069L35.7754 3.51576C36.1393 3.15185 36.1393 2.56189 35.7754 2.19805C35.4115 1.83415 34.8216 1.83415 34.4577 2.19805Z" fill="url(#paint19_linear)"/>
<defs>
<linearGradient id="paint0_linear" x1="12.2602" y1="0" x2="12.2602" y2="33.8721" gradientUnits="userSpaceOnUse">
<stop stop-color="#FFA23A"/>
<stop offset="1" stop-color="#E97D05"/>
</linearGradient>
<linearGradient id="paint1_linear" x1="12.2602" y1="21.4039" x2="12.2602" y2="32.2589" gradientUnits="userSpaceOnUse">
<stop stop-color="#F16500" stop-opacity="0"/>
<stop offset="1" stop-color="#FF5C00"/>
</linearGradient>
<linearGradient id="paint2_linear" x1="1.11176" y1="5.66222" x2="32.4323" y2="36.9828" gradientUnits="userSpaceOnUse">
<stop stop-color="#EEF4FF"/>
<stop offset="1" stop-color="#CFE7FD"/>
</linearGradient>
<linearGradient id="paint3_linear" x1="31.4236" y1="24.155" x2="24.307" y2="17.0385" gradientUnits="userSpaceOnUse">
<stop stop-color="#8AAADC" stop-opacity="0"/>
<stop offset="1" stop-color="#8AAADC"/>
</linearGradient>
<linearGradient id="paint4_linear" x1="16.315" y1="29.3411" x2="16.315" y2="38.7316" gradientUnits="userSpaceOnUse">
<stop stop-color="#8AAADC" stop-opacity="0"/>
<stop offset="1" stop-color="#8AAADC"/>
</linearGradient>
<linearGradient id="paint5_linear" x1="19.2326" y1="30.5541" x2="19.2326" y2="37.8003" gradientUnits="userSpaceOnUse">
<stop stop-color="#EEF4FF"/>
<stop offset="1" stop-color="#CFE7FD"/>
</linearGradient>
<linearGradient id="paint6_linear" x1="19.2326" y1="33.9765" x2="19.2326" y2="39.1263" gradientUnits="userSpaceOnUse">
<stop stop-color="#8AAADC" stop-opacity="0"/>
<stop offset="1" stop-color="#8AAADC"/>
</linearGradient>
<linearGradient id="paint7_linear" x1="7.96985" y1="20.1246" x2="25.5276" y2="20.1246" gradientUnits="userSpaceOnUse">
<stop stop-color="#5A5A5A"/>
<stop offset="1" stop-color="#464646"/>
</linearGradient>
<linearGradient id="paint8_linear" x1="7.96991" y1="23.547" x2="25.5277" y2="23.547" gradientUnits="userSpaceOnUse">
<stop stop-color="#5A5A5A"/>
<stop offset="1" stop-color="#464646"/>
</linearGradient>
<linearGradient id="paint9_linear" x1="7.96991" y1="26.9694" x2="21.2958" y2="26.9694" gradientUnits="userSpaceOnUse">
<stop stop-color="#5A5A5A"/>
<stop offset="1" stop-color="#464646"/>
</linearGradient>
<linearGradient id="paint10_linear" x1="12.6286" y1="7.77286" x2="12.6286" y2="17.0905" gradientUnits="userSpaceOnUse">
<stop stop-color="#FFA23A"/>
<stop offset="0.633391" stop-color="#E97D05"/>
</linearGradient>
<linearGradient id="paint11_linear" x1="24.5742" y1="24.8204" x2="21.9869" y2="22.2331" gradientUnits="userSpaceOnUse">
<stop stop-color="#464646" stop-opacity="0"/>
<stop offset="1" stop-color="#202020"/>
</linearGradient>
<linearGradient id="paint12_linear" x1="23.0874" y1="26.3071" x2="20.5001" y2="23.7197" gradientUnits="userSpaceOnUse">
<stop stop-color="#464646" stop-opacity="0"/>
<stop offset="1" stop-color="#202020"/>
</linearGradient>
<linearGradient id="paint13_linear" x1="21.1835" y1="28.211" x2="18.5962" y2="25.6237" gradientUnits="userSpaceOnUse">
<stop stop-color="#7B2509" stop-opacity="0"/>
<stop offset="1" stop-color="#202020"/>
</linearGradient>
<linearGradient id="paint14_linear" x1="34.7659" y1="6.10352e-05" x2="34.7659" y2="6.41524" gradientUnits="userSpaceOnUse">
<stop stop-color="#FFA23A"/>
<stop offset="0.490425" stop-color="#E97D05"/>
</linearGradient>
<linearGradient id="paint15_linear" x1="22.218" y1="11.144" x2="26.8246" y2="15.7505" gradientUnits="userSpaceOnUse">
<stop stop-color="#EEF4FF"/>
<stop offset="1" stop-color="#CFE7FD"/>
</linearGradient>
<linearGradient id="paint16_linear" x1="14.6169" y1="18.7451" x2="19.2235" y2="23.3517" gradientUnits="userSpaceOnUse">
<stop stop-color="#8AAADC" stop-opacity="0"/>
<stop offset="1" stop-color="#8AAADC"/>
</linearGradient>
<linearGradient id="paint17_linear" x1="37" y1="1" x2="28.6941" y2="17.3361" gradientUnits="userSpaceOnUse">
<stop offset="0.315625" stop-color="#FFA23A"/>
<stop offset="0.652224" stop-color="#E97D05"/>
</linearGradient>
<linearGradient id="paint18_linear" x1="19.0445" y1="14.3175" x2="23.6511" y2="18.9241" gradientUnits="userSpaceOnUse">
<stop stop-color="#5A5A5A"/>
<stop offset="1" stop-color="#464646"/>
</linearGradient>
<linearGradient id="paint19_linear" x1="30.8757" y1="5.80716" x2="31.8471" y2="6.77862" gradientUnits="userSpaceOnUse">
<stop stop-color="#EEF4FF"/>
<stop offset="1" stop-color="#CFE7FD"/>
</linearGradient>
</defs>
</svg>
