<svg width="21" height="23" viewBox="0 0 21 23" fill="none" xmlns="http://www.w3.org/2000/svg">
<path d="M8.60327 18.2445C6.41112 18.2445 4.62687 16.4603 4.62687 14.2681V4.67822H2.98961C1.57026 4.67822 0.416626 5.83169 0.416626 7.25104V19.8818C0.416626 21.3011 1.57026 22.4548 2.98961 22.4548H14.6846C16.104 22.4548 17.2576 21.3011 17.2576 19.8818V18.2445H8.60327Z" fill="#00A79D"/>
<path d="M21 2.57298C21 1.15175 19.8482 0 18.4272 0H8.60327C7.18204 0 6.03029 1.15175 6.03029 2.57298V14.268C6.03029 15.6892 7.18204 16.841 8.60327 16.841H18.4272C19.8482 16.841 21 15.6892 21 14.268V2.57298Z" fill="#00A79D"/>
</svg>
