<svg width="21" height="21" viewBox="0 0 21 21" fill="none" xmlns="http://www.w3.org/2000/svg">
<path d="M5.00811 10.5C5.00811 10.9462 4.6466 11.3077 4.20042 11.3077H2.58504C2.13886 11.3077 1.77734 10.9462 1.77734 10.5C1.77734 10.0538 2.13886 9.69231 2.58504 9.69231H4.20042C4.64665 9.69231 5.00811 10.0538 5.00811 10.5ZM5.00811 5.33077C5.00811 4.88459 4.6466 4.52308 4.20042 4.52308H2.58504C2.13886 4.52308 1.77734 4.88459 1.77734 5.33077C1.77734 5.77695 2.13886 6.13846 2.58504 6.13846H4.20042C4.64665 6.13846 5.00811 5.77695 5.00811 5.33077ZM5.00811 15.6693C5.00811 15.223 4.6466 14.8616 4.20042 14.8616H2.58504C2.13886 14.8616 1.77734 15.223 1.77734 15.6693C1.77734 16.1155 2.13886 16.477 2.58504 16.477H4.20042C4.64665 16.477 5.00811 16.1154 5.00811 15.6693ZM19.2235 2.58462V18.4154C19.2235 19.8428 18.0663 21 16.639 21H5.33129C3.90395 21 2.74667 19.8428 2.74667 18.4154V17.1231H4.20052C5.00208 17.1231 5.65436 16.4707 5.65436 15.6692C5.65436 14.8677 5.00208 14.2153 4.20052 14.2153H2.74657V11.9538H4.20042C5.00198 11.9538 5.65427 11.3015 5.65427 10.4999C5.65427 9.69834 5.00198 9.04606 4.20042 9.04606H2.74657V6.78452H4.20042C5.00198 6.78452 5.65427 6.13224 5.65427 5.33067C5.65427 4.52911 5.00198 3.87683 4.20042 3.87683H2.74657V2.58462C2.74657 1.15728 3.90386 0 5.33119 0H16.6389C18.0662 0 19.2235 1.15723 19.2235 2.58462ZM8.97745 7.66144C8.97745 9.03774 10.0933 10.1536 11.4697 10.1536C12.846 10.1536 13.9619 9.03774 13.9619 7.66144C13.9619 6.28513 12.846 5.16918 11.4697 5.16918C10.0934 5.16923 8.97745 6.28513 8.97745 7.66144ZM15.3466 13.7537C15.3466 12.2246 14.1066 10.9846 12.5775 10.9846H10.3622C8.83273 10.9846 7.59273 12.2246 7.59273 13.7537V14.8615H15.3466V13.7537Z" fill="#4F6CFF"/>
</svg>
