<svg width="36" height="36" viewBox="0 0 36 36" fill="none" xmlns="http://www.w3.org/2000/svg">
<circle cx="18" cy="18" r="18" fill="#27B9B1"/>
<path fill-rule="evenodd" clip-rule="evenodd" d="M15.7934 12.7929H20.7589C21.2157 12.7929 21.5865 12.4221 21.5865 11.9653C21.5865 11.5085 21.2157 11.1377 20.7589 11.1377H15.7934C15.3366 11.1377 14.9658 11.5085 14.9658 11.9653C14.9658 12.4221 15.3366 12.7929 15.7934 12.7929Z" fill="white"/>
<path fill-rule="evenodd" clip-rule="evenodd" d="M14.1381 16.1034H22.414C22.8708 16.1034 23.2416 15.7327 23.2416 15.2758C23.2416 14.819 22.8708 14.4482 22.414 14.4482H14.1381C13.6813 14.4482 13.3105 14.819 13.3105 15.2758C13.3105 15.7327 13.6813 16.1034 14.1381 16.1034Z" fill="white"/>
<path fill-rule="evenodd" clip-rule="evenodd" d="M14.1381 19.414H22.414C22.8708 19.414 23.2416 19.0432 23.2416 18.5864C23.2416 18.1295 22.8708 17.7588 22.414 17.7588H14.1381C13.6813 17.7588 13.3105 18.1295 13.3105 18.5864C13.3105 19.0432 13.6813 19.414 14.1381 19.414Z" fill="white"/>
<path fill-rule="evenodd" clip-rule="evenodd" d="M14.1381 22.7245H22.414C22.8708 22.7245 23.2416 22.3537 23.2416 21.8969C23.2416 21.4401 22.8708 21.0693 22.414 21.0693H14.1381C13.6813 21.0693 13.3105 21.4401 13.3105 21.8969C13.3105 22.3537 13.6813 22.7245 14.1381 22.7245Z" fill="white"/>
<path fill-rule="evenodd" clip-rule="evenodd" d="M26.5517 27.8609C26.5517 23.9804 26.5517 13.5495 26.5517 9.48275C26.5517 8.82399 26.2902 8.19255 25.8242 7.72745C25.3591 7.26152 24.7277 7 24.0689 7C21.203 7 15.3487 7 12.4828 7C11.824 7 11.1925 7.26152 10.7274 7.72745C10.2615 8.19255 10 8.82399 10 9.48275V27.8609C10 28.4443 10.3517 28.9699 10.8905 29.1933C11.4292 29.4168 12.0499 29.2934 12.4621 28.8805L13.7879 27.5547C14.0221 27.3205 14.3953 27.2998 14.6535 27.5067C15.5374 28.2135 16.7605 29.1925 17.3746 29.6841C17.9018 30.1053 18.6499 30.1053 19.1771 29.6841C19.7911 29.1925 21.0143 28.2135 21.8982 27.5067C22.1564 27.2998 22.5296 27.3205 22.7638 27.5547L24.0896 28.8805C24.5017 29.2934 25.1224 29.4168 25.6612 29.1933C26.2 28.9699 26.5517 28.4443 26.5517 27.8609ZM24.8965 27.347V9.48275C24.8965 9.26344 24.8096 9.05241 24.654 8.89765C24.4993 8.74206 24.2882 8.65517 24.0689 8.65517C21.203 8.65517 15.3487 8.65517 12.4828 8.65517C12.2634 8.65517 12.0524 8.74206 11.8976 8.89765C11.7421 9.05241 11.6552 9.26344 11.6552 9.48275V27.347L12.6176 26.3845C13.4485 25.5536 14.7702 25.4808 15.6872 26.214L18.2758 28.2846L20.8645 26.214C21.7815 25.4808 23.1031 25.5536 23.934 26.3845L24.8965 27.347Z" fill="white"/>
</svg>
