<svg width="37" height="37" viewBox="0 0 37 37" fill="none" xmlns="http://www.w3.org/2000/svg">
<circle cx="18.5" cy="18.5" r="18.5" fill="#EAEAEA"/>
<g clip-path="url(#clip0)">
<path d="M29 19.0001C29 19.7954 28.5438 20.4791 27.809 20.7838L11.6724 27.4797C11.0069 27.7558 10.2362 27.6475 9.66798 27.1559C9.11169 26.6743 8.87888 25.9317 9.06091 25.2187L10.4973 19.5861L10.6465 19.0001L10.4973 18.4141L9.06091 12.7815C8.87888 12.0686 9.11169 11.3259 9.66798 10.8443C10.2181 10.3683 10.9854 10.2355 11.6724 10.5205L27.809 17.2165C28.5438 17.5211 29 18.2048 29 19.0001Z" fill="#00A79D"/>
<path d="M10.4973 19.586L9.06091 25.2186C8.87888 25.9316 9.11169 26.6741 9.66798 27.1558C10.2362 27.6475 11.0069 27.7558 11.6724 27.4796L27.809 20.7837C28.5438 20.479 29 19.7954 29 19H10.6465L10.4973 19.586Z" fill="#00A79D"/>
<path d="M18.1152 19C18.1152 19.3235 17.8531 19.586 17.5292 19.586H10.4973L10.6465 19L10.4973 18.4141H17.5292C17.8531 18.4141 18.1152 18.6766 18.1152 19Z" fill="#EFEFEF"/>
<path d="M10.4973 19.586H17.5292C17.8531 19.586 18.1152 19.3235 18.1152 19H10.6465L10.4973 19.586Z" fill="#C5D8DF"/>
</g>
<defs>
<clipPath id="clip0">
<rect width="20" height="20" fill="white" transform="translate(9 9)"/>
</clipPath>
</defs>
</svg>
