<svg width="59" height="40" viewBox="0 0 59 40" fill="none" xmlns="http://www.w3.org/2000/svg">
<path d="M53.9004 0H5.09912C2.28758 0 0 2.31034 0 5.15031V34.8497C0 37.6897 2.28758 40 5.09912 40H53.9004C56.7124 40 59 37.6897 59 34.8497V5.15031C59 2.31034 56.7124 0 53.9004 0V0ZM57.2476 34.8497C57.2476 36.7136 55.746 38.2302 53.9004 38.2302H5.09912C3.25402 38.2302 1.75237 36.7136 1.75237 34.8497V5.15031C1.75237 3.28639 3.25402 1.76981 5.09912 1.76981H53.9004C55.746 1.76981 57.2476 3.28639 57.2476 5.15031V34.8497Z" fill="#757575"/>
<path d="M26.2289 7.07959H5.90034C5.41644 7.07959 5.02393 7.47556 5.02393 7.96472V10.0882C5.02393 10.5769 5.41644 10.9729 5.90034 10.9729C6.38423 10.9729 6.77675 10.5769 6.77675 10.0882V8.8494H25.3529V30.4426H6.77675V13.6283C6.77675 13.1396 6.38423 12.7432 5.90034 12.7432C5.41644 12.7432 5.02393 13.1396 5.02393 13.6283V31.3273C5.02393 31.816 5.41644 32.2124 5.90034 32.2124H26.2289C26.7127 32.2124 27.1053 31.816 27.1053 31.3273V7.96472C27.1053 7.47556 26.7127 7.07959 26.2289 7.07959Z" fill="#757575"/>
<path d="M53.3344 9.13184H31.3701C30.8862 9.13184 30.4937 9.52826 30.4937 10.017C30.4937 10.5057 30.8862 10.9016 31.3701 10.9016H53.3344C53.8183 10.9016 54.2103 10.5057 54.2103 10.017C54.2103 9.52826 53.8183 9.13184 53.3344 9.13184V9.13184Z" fill="#757575"/>
<path d="M53.3341 15.5513H48.4272C47.9433 15.5513 47.5513 15.9472 47.5513 16.4359C47.5513 16.9247 47.9433 17.3211 48.4272 17.3211H53.3341C53.818 17.3211 54.2101 16.9247 54.2101 16.4359C54.2101 15.9472 53.818 15.5513 53.3341 15.5513V15.5513Z" fill="#757575"/>
<path d="M31.3701 17.3211H44.9223C45.4062 17.3211 45.7987 16.9247 45.7987 16.4359C45.7987 15.9472 45.4062 15.5513 44.9223 15.5513H31.3701C30.8862 15.5513 30.4937 15.9472 30.4937 16.4359C30.4937 16.9247 30.8862 17.3211 31.3701 17.3211V17.3211Z" fill="#757575"/>
<path d="M53.3344 21.9712H31.3701C30.8862 21.9712 30.4937 22.3672 30.4937 22.8559C30.4937 23.3446 30.8862 23.741 31.3701 23.741H53.3344C53.8183 23.741 54.2103 23.3446 54.2103 22.8559C54.2103 22.3672 53.8183 21.9712 53.3344 21.9712V21.9712Z" fill="#757575"/>
<path d="M43.2869 28.3906H31.3701C30.8862 28.3906 30.4937 28.7866 30.4937 29.2753C30.4937 29.764 30.8862 30.1604 31.3701 30.1604H43.2869C43.7708 30.1604 44.1629 29.764 44.1629 29.2753C44.1629 28.7866 43.7708 28.3906 43.2869 28.3906V28.3906Z" fill="#757575"/>
<path d="M9.93115 28.4955C9.93115 28.9842 10.3237 29.3801 10.8076 29.3801C11.2915 29.3801 11.684 28.9842 11.684 28.4955C11.684 26.0555 13.6493 24.0707 16.0651 24.0707C18.481 24.0707 20.4463 26.0555 20.4463 28.4955C20.4463 28.9842 20.8384 29.3801 21.3223 29.3801C21.8061 29.3801 22.1987 28.9842 22.1987 28.4955C22.1987 26.2442 21.0036 24.2703 19.2206 23.1856C21.0036 22.1009 22.1987 20.1269 22.1987 17.8757C22.1987 14.4602 19.447 11.6812 16.0651 11.6812C12.6828 11.6812 9.93115 14.4602 9.93115 17.8757C9.93115 20.1269 11.1267 22.1009 12.9097 23.1856C11.1267 24.2703 9.93115 26.2442 9.93115 28.4955ZM11.684 17.8757C11.684 15.4358 13.6493 13.451 16.0651 13.451C18.481 13.451 20.4463 15.4358 20.4463 17.8757C20.4463 20.3156 18.481 22.3004 16.0651 22.3004C13.6493 22.3004 11.684 20.3156 11.684 17.8757Z" fill="#757575"/>
</svg>
