<svg width="294" height="107" viewBox="0 0 294 107" fill="none" xmlns="http://www.w3.org/2000/svg">
<g clip-path="url(#clip0)">
<path d="M0.492969 49.7402C0.447221 49.7399 0.402184 49.7515 0.362357 49.774C0.322529 49.7964 0.289304 49.8289 0.265999 49.8682C0.243972 49.9082 0.232422 49.953 0.232422 49.9986C0.232422 50.0442 0.243972 50.0891 0.265999 50.129L24.1274 91.365C26.8759 96.1187 30.831 100.067 35.5949 102.811C40.3588 105.556 45.7635 107.002 51.2651 107.002C56.7668 107.002 62.1715 105.556 66.9354 102.811C71.6993 100.067 75.6544 96.1187 78.4028 91.365V91.365L102.269 50.129C102.291 50.0891 102.303 50.0442 102.303 49.9986C102.303 49.953 102.291 49.9082 102.269 49.8682C102.246 49.8293 102.212 49.797 102.173 49.7746C102.133 49.7522 102.088 49.7404 102.042 49.7402H75.3388C71.9821 49.7397 68.7142 50.8152 66.017 52.808C63.3198 54.8008 61.3362 57.6055 60.3587 60.8084L52.5135 86.5569C52.4333 86.825 52.2686 87.0602 52.0436 87.2274C51.8187 87.3946 51.5457 87.485 51.2651 87.485C50.9846 87.485 50.7116 87.3946 50.4867 87.2274C50.2617 87.0602 50.0969 86.825 50.0168 86.5569L42.1765 60.8084C41.1974 57.6055 39.2126 54.8012 36.5148 52.8085C33.8169 50.8158 30.5486 49.7402 27.1915 49.7402H0.492969Z" fill="url(#paint0_linear)"/>
<path d="M102.284 18.209C102.321 18.1995 102.361 18.201 102.397 18.2132C102.434 18.2254 102.467 18.2479 102.491 18.2779C102.513 18.3098 102.524 18.3476 102.524 18.3862C102.524 18.4249 102.513 18.4626 102.491 18.4945L89.0453 41.7725C89.0131 41.8278 88.9616 41.8694 88.9007 41.8894C88.8397 41.9094 88.7735 41.9063 88.7147 41.8807C76.8959 36.7638 64.149 34.1235 51.2647 34.1235C38.3804 34.1235 25.6335 36.7638 13.8147 41.8807C13.7558 41.9063 13.6896 41.9094 13.6287 41.8894C13.5677 41.8694 13.5163 41.8278 13.4841 41.7725L0.0237742 18.5043C0.00192392 18.4724 -0.00976562 18.4347 -0.00976562 18.3961C-0.00976563 18.3574 0.00192392 18.3197 0.0237742 18.2878C0.0483851 18.2537 0.082814 18.2279 0.122478 18.2139C0.162143 18.1998 0.205162 18.1981 0.24581 18.209C4.30286 19.3315 8.49425 19.8977 12.7045 19.8922C20.2178 19.8986 27.6227 18.105 34.2961 14.6622C40.9695 11.2193 46.7162 6.22805 51.0525 0.108322C51.0768 0.0748005 51.1086 0.047503 51.1455 0.028679C51.1824 0.00985492 51.2233 4.3164e-05 51.2647 5.22317e-05C51.3063 -0.00079393 51.3474 0.00865246 51.3844 0.0275465C51.4215 0.0464405 51.4532 0.0741931 51.4769 0.108322C55.8124 6.22957 61.5586 11.2225 68.2321 14.6671C74.9055 18.1116 82.3108 19.907 89.8249 19.902C94.0356 19.9049 98.2271 19.3354 102.284 18.209V18.209Z" fill="url(#paint1_linear)"/>
<path d="M131.148 68.9727C131.148 63.7905 134.854 60.1143 140.188 60.1143C145.522 60.1143 149.232 63.8102 149.232 68.9727C149.232 74.1352 145.522 77.8311 140.188 77.8311C134.854 77.8311 131.148 74.1499 131.148 68.9727ZM145.275 68.9727C145.275 65.8033 143.262 63.7216 140.188 63.7216C137.114 63.7216 135.14 65.8033 135.14 68.9727C135.14 72.142 137.114 74.2188 140.188 74.2188C143.262 74.2188 145.275 72.1076 145.275 68.9727Z" fill="url(#paint2_linear)"/>
<path d="M155.554 76.1581V84.1553H151.705V60.4492H155.554V61.7829C156.982 60.6607 158.754 60.0645 160.572 60.0949C165.476 60.0949 169.152 63.7908 169.152 68.9533C169.152 74.1158 165.476 77.8117 160.572 77.8117C158.758 77.8519 156.986 77.268 155.554 76.1581V76.1581ZM165.16 68.973C165.16 65.8036 163.147 63.7219 159.935 63.7219C158.455 63.7219 157.108 64.1796 155.554 65.4493V72.4917C157.108 73.7614 158.45 74.2191 159.935 74.2191C163.147 74.2191 165.16 72.1079 165.16 68.973Z" fill="url(#paint3_linear)"/>
<path d="M171.13 54.9861C171.138 54.4999 171.29 54.0269 171.567 53.6269C171.844 53.2269 172.234 52.9177 172.687 52.7384C173.14 52.5591 173.637 52.5177 174.113 52.6194C174.59 52.7212 175.026 52.9615 175.366 53.3101C175.705 53.6587 175.934 54.0999 176.023 54.5781C176.112 55.0562 176.056 55.5498 175.864 55.9966C175.671 56.4434 175.351 56.8233 174.942 57.0884C174.533 57.3535 174.055 57.4919 173.568 57.4861C173.241 57.4876 172.918 57.4234 172.617 57.2975C172.316 57.1715 172.044 56.9863 171.816 56.7529C171.589 56.5195 171.411 56.2427 171.293 55.9392C171.175 55.6356 171.12 55.3114 171.13 54.9861V54.9861ZM171.658 60.4488H175.507V77.4619H171.658V60.4488Z" fill="url(#paint4_linear)"/>
<path d="M183.135 65.0951V77.4624H179.286V60.4493H183.135V61.8568C184.644 60.7004 186.497 60.0802 188.399 60.095C192.07 60.095 194.755 62.2062 194.755 67.1374V77.4723H190.906V67.8461C190.906 64.7112 189.564 63.722 187.452 63.722C185.909 63.7491 184.408 64.2264 183.135 65.0951Z" fill="url(#paint5_linear)"/>
<path d="M210.894 76.158C209.457 77.2794 207.671 77.8644 205.847 77.8116C200.972 77.8116 197.301 74.1501 197.301 68.9532C197.301 63.7562 200.972 60.0947 205.847 60.0947C207.675 60.0546 209.46 60.6516 210.894 61.7827V52.8013H214.782V77.4622H210.894V76.158ZM210.894 72.4916V65.4541C209.687 64.3568 208.116 63.7418 206.483 63.7267C203.34 63.7267 201.327 65.8084 201.327 68.9778C201.327 72.1471 203.34 74.2239 206.483 74.2239C208.117 74.2074 209.688 73.5906 210.894 72.4916V72.4916Z" fill="url(#paint6_linear)"/>
<path d="M217.254 68.9727C217.254 63.7905 220.959 60.1143 226.293 60.1143C231.627 60.1143 235.337 63.8102 235.337 68.9727C235.337 74.1352 231.627 77.8311 226.293 77.8311C220.959 77.8311 217.254 74.1499 217.254 68.9727ZM231.38 68.9727C231.38 65.8033 229.367 63.7216 226.293 63.7216C223.219 63.7216 221.246 65.8033 221.246 68.9727C221.246 72.142 223.219 74.2188 226.293 74.2188C229.367 74.2188 231.38 72.1076 231.38 68.9727Z" fill="url(#paint7_linear)"/>
<path d="M271.115 76.1578C269.675 77.2792 267.888 77.8641 266.063 77.8114C261.188 77.8114 257.517 74.1499 257.517 68.9529C257.517 63.756 261.188 60.0945 266.063 60.0945C267.892 60.0562 269.678 60.6528 271.115 61.7825V60.4489H274.998V77.462H271.115V76.1578ZM271.115 72.4914V65.4539C269.9 64.3498 268.318 63.7344 266.674 63.7265C263.531 63.7265 261.518 65.8082 261.518 68.9776C261.518 72.1469 263.531 74.2237 266.674 74.2237C268.319 74.2145 269.901 73.5972 271.115 72.4914V72.4914Z" fill="url(#paint8_linear)"/>
<path d="M283.218 84.1554H279.227L283.396 75.5578L276.488 60.4492H280.973L285.414 71.473L289.855 60.4492H294.019L283.218 84.1554Z" fill="url(#paint9_linear)"/>
<path d="M237.978 55.3946C240.362 55.0092 242.775 54.8216 245.191 54.8335C248.907 54.8335 251.606 55.6948 253.352 57.2499C254.951 58.623 255.903 60.7392 255.903 63.3229C255.903 65.9066 255.124 68.0178 253.658 69.5287C251.685 71.635 248.433 72.7128 244.777 72.7128C243.76 72.7475 242.743 72.6599 241.747 72.452V84.0861H237.992L237.978 55.3946ZM241.732 69.3909C242.754 69.6196 243.8 69.7204 244.846 69.6911C249.38 69.6911 252.148 67.4962 252.148 63.4902C252.148 59.6565 249.425 57.8011 245.275 57.8011C244.087 57.7683 242.898 57.869 241.732 58.1013V69.3909Z" fill="url(#paint10_linear)"/>
<path d="M122.638 59.1844H114.743V56.3398H133.947V59.1844H126.023V82.2114H122.638V59.1844Z" fill="url(#paint11_linear)"/>
</g>
<defs>
<linearGradient id="paint0_linear" x1="51.354" y1="40.6604" x2="50.5735" y2="123.147" gradientUnits="userSpaceOnUse">
<stop stop-color="#00D3C8"/>
<stop offset="1" stop-color="#008F8E"/>
</linearGradient>
<linearGradient id="paint1_linear" x1="-0.000896453" y1="20.9502" x2="102.535" y2="20.9502" gradientUnits="userSpaceOnUse">
<stop stop-color="#FF7800"/>
<stop offset="1" stop-color="#FFB000"/>
</linearGradient>
<linearGradient id="paint2_linear" x1="5285.7" y1="1875.74" x2="5243.87" y2="3627.62" gradientUnits="userSpaceOnUse">
<stop stop-color="#00D3C8"/>
<stop offset="1" stop-color="#008F8E"/>
</linearGradient>
<linearGradient id="paint3_linear" x1="5836.31" y1="2549.75" x2="5756.38" y2="4927.92" gradientUnits="userSpaceOnUse">
<stop stop-color="#00D3C8"/>
<stop offset="1" stop-color="#008F8E"/>
</linearGradient>
<linearGradient id="paint4_linear" x1="1908.33" y1="2644.58" x2="1608.76" y2="5071.13" gradientUnits="userSpaceOnUse">
<stop stop-color="#00D3C8"/>
<stop offset="1" stop-color="#008F8E"/>
</linearGradient>
<linearGradient id="paint5_linear" x1="6055.77" y1="1881.09" x2="6008.72" y2="3599.28" gradientUnits="userSpaceOnUse">
<stop stop-color="#00D3C8"/>
<stop offset="1" stop-color="#008F8E"/>
</linearGradient>
<linearGradient id="paint6_linear" x1="7515.62" y1="2697.74" x2="7429.41" y2="5169.55" gradientUnits="userSpaceOnUse">
<stop stop-color="#00D3C8"/>
<stop offset="1" stop-color="#008F8E"/>
</linearGradient>
<linearGradient id="paint7_linear" x1="8525.76" y1="1951.03" x2="8483.93" y2="3703.1" gradientUnits="userSpaceOnUse">
<stop stop-color="#00D3C8"/>
<stop offset="1" stop-color="#008F8E"/>
</linearGradient>
<linearGradient id="paint8_linear" x1="9708.09" y1="1986.64" x2="9664.79" y2="3739.13" gradientUnits="userSpaceOnUse">
<stop stop-color="#00D3C8"/>
<stop offset="1" stop-color="#008F8E"/>
</linearGradient>
<linearGradient id="paint9_linear" x1="10416.2" y1="2659.35" x2="10338.7" y2="5002.49" gradientUnits="userSpaceOnUse">
<stop stop-color="#00D3C8"/>
<stop offset="1" stop-color="#008F8E"/>
</linearGradient>
<linearGradient id="paint10_linear" x1="9215" y1="3206.56" x2="9100.06" y2="6096.25" gradientUnits="userSpaceOnUse">
<stop stop-color="#00D3C8"/>
<stop offset="1" stop-color="#008F8E"/>
</linearGradient>
<linearGradient id="paint11_linear" x1="4961.94" y1="2686.96" x2="4877.63" y2="5244.15" gradientUnits="userSpaceOnUse">
<stop stop-color="#00D3C8"/>
<stop offset="1" stop-color="#008F8E"/>
</linearGradient>
<clipPath id="clip0">
<rect width="294" height="107" fill="white"/>
</clipPath>
</defs>
</svg>
