<svg width="44" height="18" viewBox="0 0 44 18" fill="none" xmlns="http://www.w3.org/2000/svg">
<path d="M14.4201 2.93854L25.7671 2.93854L25.7671 10.2857L21.0068 10.2857L25.7671 14.9877L21.7232 14.9877L17.0548 10.2857L17.0548 14.9877L14.4201 14.9877L14.4201 7.51862L22.7397 7.51863L22.7396 5.73075L14.4201 5.73074L14.4201 2.93854Z" fill="white"/>
<path d="M26.9453 14.9877L29.7185 14.9877L29.7185 2.91412L26.9453 2.91412L26.9453 14.9877Z" fill="white"/>
<path d="M4.7375 12.0734L4.73749 2.93852L2.56517 2.93852C2.17233 2.93852 1.87186 3.25713 1.87186 3.64847C1.87187 5.80432 1.84879 12.1469 1.84879 14.253C1.84879 14.6448 2.14926 14.9877 2.51901 14.9877C4.0211 14.9877 8.34247 14.9877 8.96617 14.9877L8.96617 12.0734L4.7375 12.0734Z" fill="white"/>
<path d="M10.3989 18C10.6534 18 12.5945 18 13.2417 18C13.2417 18 13.2417 12.0489 13.2417 11.951C12.3171 11.951 11.347 11.951 10.3989 11.951C10.3989 13.9591 10.3989 15.9673 10.3989 18Z" fill="white"/>
<path d="M6.12394 2.93852C6.12394 2.98787 6.12395 5.95064 6.12395 5.95064C7.39502 5.95064 9.01242 5.95064 10.3989 5.95064C10.3989 8.0329 10.3989 10.4571 10.3989 10.4571C11.0462 10.4571 12.9872 10.4571 13.2417 10.4571L13.2417 3.67359C13.2417 3.28138 12.9409 2.96277 12.5717 2.93853C11.1852 2.93852 7.90324 2.93852 6.12394 2.93852Z" fill="white"/>
<path d="M6.12395 7.41989C6.12395 8.42422 6.12395 9.42854 6.12395 10.4814C6.35506 10.4814 6.60926 10.4814 6.84036 10.4814C7.48773 10.4814 8.29602 10.4814 8.94331 10.4814C8.94331 10.4814 8.9433 7.46924 8.9433 7.41989C8.01872 7.41989 7.07146 7.41989 6.12395 7.41989ZM8.11143 9.55062C7.83414 9.55062 7.5105 9.55062 7.25597 9.55062C7.16392 9.55062 7.07146 9.55062 6.95591 9.55062C6.95591 9.13417 6.95591 8.74283 6.95591 8.32638C7.34867 8.32638 7.71866 8.32638 8.11143 8.32638C8.11143 8.35062 8.11143 9.55062 8.11143 9.55062Z" fill="white"/>
<path d="M43.3299 11.951L43.3299 16.4571C43.3299 16.8489 43.0063 17.1674 42.6371 17.1674H38.385L38.385 17.902L43.3535 17.902C43.6999 17.902 44 17.5836 44 17.1918L44 11.951H43.3299Z" fill="white"/>
<path d="M0.693321 5.92641L0.693313 1.41991C0.693312 1.02857 0.970603 0.7342 1.34035 0.7342L5.59252 0.734202C5.61561 0.734202 5.61561 0.70996 5.61561 0.70996L5.61561 0.0242442C5.61561 0.0242442 5.61561 1.90439e-06 5.59252 1.89545e-06L0.69331 0C0.300466 -1.51987e-07 -7.74251e-07 0.318616 0 0.7342L9.67332e-06 5.9264C9.71848e-06 5.95065 0.0231038 5.95065 0.0231038 5.95065L0.670227 5.95065C0.670227 5.95065 0.693321 5.95065 0.693321 5.92641Z" fill="white"/>
<path d="M42.1282 5.92642L42.1282 2.93854L30.9202 2.93854L30.9202 10.4329L38.3851 10.4329L38.3852 11.9265L30.9202 11.9265L30.9202 14.9387L42.1282 14.9387L42.1282 7.44503L34.6641 7.44503V5.92641L42.1282 5.92642Z" fill="white"/>
</svg>
