<svg width="601" height="202" viewBox="0 0 601 202" fill="none" xmlns="http://www.w3.org/2000/svg">
<g clip-path="url(#clip0)">
<path d="M0.910087 93.5499C0.825298 93.5502 0.742024 93.5724 0.668406 93.6145C0.594788 93.6565 0.533346 93.717 0.490086 93.7899C0.446077 93.8641 0.422852 93.9487 0.422852 94.0349C0.422852 94.1211 0.446077 94.2058 0.490086 94.2799L45.2601 171.83C50.4143 180.773 57.8335 188.201 66.7707 193.365C75.708 198.53 85.848 201.249 96.1701 201.249C106.492 201.249 116.632 198.53 125.569 193.365C134.507 188.201 141.926 180.773 147.08 171.83V171.83L191.85 94.2799C191.894 94.2058 191.917 94.1211 191.917 94.0349C191.917 93.9487 191.894 93.8641 191.85 93.7899C191.808 93.7156 191.747 93.654 191.673 93.6117C191.599 93.5695 191.515 93.5481 191.43 93.5499H141.33C135.034 93.5511 128.904 95.575 123.845 99.3235C118.786 103.072 115.065 108.347 113.23 114.37L98.5201 162.8C98.3678 163.303 98.0575 163.744 97.6352 164.058C97.2129 164.371 96.701 164.54 96.1751 164.54C95.6492 164.54 95.1372 164.371 94.7149 164.058C94.2926 163.744 93.9824 163.303 93.8301 162.8L79.1201 114.37C77.2846 108.343 73.5605 103.066 68.4973 99.3175C63.4341 95.5688 57.3 93.5468 51.0001 93.5499H0.910087Z" fill="white"/>
<path d="M191.88 34.2699C191.951 34.2506 192.026 34.2526 192.095 34.2758C192.165 34.2989 192.226 34.3421 192.27 34.3999C192.31 34.4611 192.33 34.5322 192.33 34.6049C192.33 34.6776 192.31 34.7487 192.27 34.8099L167 78.5599C166.941 78.6652 166.845 78.7449 166.731 78.7836C166.616 78.8224 166.491 78.8175 166.38 78.7699C144.21 69.1459 120.299 64.1799 96.1304 64.1799C71.9616 64.1799 48.0505 69.1459 25.8804 78.7699C25.7693 78.8175 25.6446 78.8224 25.5302 78.7836C25.4157 78.7449 25.3197 78.6652 25.2604 78.5599L0.0503974 34.8099C0.00867953 34.7497 -0.0136719 34.6782 -0.0136719 34.6049C-0.0136719 34.5316 0.00867953 34.4601 0.0503974 34.3999C0.0943645 34.341 0.1553 34.297 0.225017 34.2738C0.294734 34.2505 0.369893 34.2492 0.440397 34.2699C8.05087 36.3791 15.9131 37.4422 23.8104 37.4299C37.9093 37.4442 51.8053 34.0707 64.3283 27.5934C76.8513 21.1161 87.6347 11.7247 95.7704 0.20991C95.8157 0.145938 95.8756 0.0937551 95.9452 0.0577403C96.0148 0.0217256 96.092 0.00292969 96.1704 0.00292969C96.2488 0.00292969 96.326 0.0217256 96.3956 0.0577403C96.4652 0.0937551 96.5251 0.145938 96.5704 0.20991C104.704 11.7219 115.484 21.1117 128.004 27.5888C140.523 34.066 154.415 37.441 168.51 37.4299C176.408 37.4412 184.27 36.3781 191.88 34.2699Z" fill="url(#paint0_linear)"/>
<path d="M253.23 117.8C253.23 106.72 261.14 98.7998 272.52 98.7998C283.9 98.7998 291.82 106.72 291.82 117.8C291.82 128.88 283.9 136.72 272.52 136.72C261.14 136.72 253.23 128.88 253.23 117.8ZM283.38 117.8C283.38 111.01 279.08 106.57 272.52 106.57C265.96 106.57 261.74 111 261.74 117.8C261.74 124.6 266 129 272.52 129C279.04 129 283.38 124.51 283.38 117.8Z" fill="white"/>
<path d="M305.311 133.17V150.28H297.091V99.5598H305.311V102.42C308.353 100.022 312.128 98.7442 316.001 98.7998C326.471 98.7998 334.311 106.72 334.311 117.8C334.311 128.88 326.471 136.72 316.001 136.72C312.135 136.801 308.36 135.547 305.311 133.17ZM325.811 117.8C325.811 111.01 321.521 106.57 314.661 106.57C311.491 106.57 308.661 107.57 305.311 110.26V125.33C308.631 128.05 311.491 129.03 314.661 129.03C321.521 129 325.811 124.51 325.811 117.8V117.8Z" fill="white"/>
<path d="M338.55 87.8699C338.574 86.8372 338.902 85.8346 339.494 84.988C340.086 84.1414 340.915 83.4886 341.876 83.1116C342.838 82.7345 343.89 82.6501 344.899 82.8689C345.908 83.0877 346.831 83.6 347.55 84.3413C348.269 85.0827 348.753 86.0201 348.941 87.0357C349.129 88.0513 349.013 89.0999 348.607 90.0496C348.201 90.9994 347.524 91.808 346.659 92.3738C345.795 92.9397 344.783 93.2375 343.75 93.2299C343.053 93.2344 342.361 93.0976 341.718 92.8278C341.074 92.558 340.492 92.1607 340.006 91.6599C339.52 91.1591 339.141 90.5651 338.891 89.9138C338.64 89.2624 338.525 88.5671 338.55 87.8699ZM339.68 99.5599H347.9V136H339.68V99.5599Z" fill="white"/>
<path d="M364.18 109.51V136H356V99.56H364.22V102.56C367.436 100.083 371.39 98.7553 375.45 98.79C383.29 98.79 389.01 103.32 389.01 113.87V136H380.8V115.39C380.8 108.68 377.94 106.57 373.49 106.57C370.165 106.61 366.925 107.633 364.18 109.51V109.51Z" fill="white"/>
<path d="M423.42 133.17C420.352 135.575 416.538 136.831 412.64 136.72C402.24 136.72 394.4 128.88 394.4 117.8C394.4 106.72 402.24 98.8 412.64 98.8C416.546 98.7135 420.359 99.9939 423.42 102.42V83.2H431.71V136H423.42V133.17ZM423.42 125.33V110.26C420.1 107.55 417.17 106.57 414 106.57C407.29 106.57 403 111.01 403 117.8C403 124.59 407.29 129 414 129C417.17 129 420.1 128.05 423.42 125.33V125.33Z" fill="white"/>
<path d="M437 117.8C437 106.72 444.91 98.7998 456.29 98.7998C467.67 98.7998 475.59 106.72 475.59 117.8C475.59 128.88 467.67 136.72 456.29 136.72C444.91 136.72 437 128.88 437 117.8ZM467.15 117.8C467.15 111.01 462.85 106.57 456.29 106.57C449.73 106.57 445.5 111 445.5 117.8C445.5 124.6 449.73 129 456.28 129C462.83 129 467.14 124.51 467.14 117.8H467.15Z" fill="white"/>
<path d="M551.93 133.17C548.862 135.577 545.048 136.833 541.15 136.72C530.75 136.72 522.91 128.88 522.91 117.8C522.91 106.72 530.75 98.7999 541.15 98.7999C545.056 98.7117 548.869 99.9923 551.93 102.42V99.5599H560.22V136H551.93V133.17ZM551.93 125.33V110.26C548.62 107.55 545.68 106.57 542.51 106.57C535.8 106.57 531.51 111.01 531.51 117.8C531.51 124.59 535.8 129.03 542.51 129.03C545.68 129 548.62 128.05 551.93 125.33V125.33Z" fill="white"/>
<path d="M577.71 150.28H569.2L578.09 131.89L563.32 99.5598H572.89L582.38 123.15L591.88 99.5598H600.78L577.71 150.28Z" fill="white"/>
<path d="M481.221 88.7499C486.308 87.9212 491.456 87.5198 496.611 87.5499C504.541 87.5499 510.351 89.3899 514.031 92.7099C517.441 95.7099 519.471 100.18 519.471 105.71C519.471 111.24 517.811 115.71 514.681 118.99C510.441 123.5 503.531 125.8 495.681 125.8C493.513 125.869 491.345 125.685 489.221 125.25V150.14H481.221V88.7499ZM489.221 118.75C491.399 119.236 493.629 119.451 495.861 119.39C505.541 119.39 511.441 114.69 511.441 106.12C511.441 97.9099 505.631 93.9499 496.781 93.9499C494.245 93.8789 491.709 94.0936 489.221 94.5899V118.75Z" fill="white"/>
<path d="M235.07 96.8598H218.23V90.7798H259.23V96.8598H242.29V146.13H235.07V96.8598Z" fill="white"/>
</g>
<defs>
<linearGradient id="paint0_linear" x1="0.00039739" y1="39.3999" x2="192.35" y2="39.3999" gradientUnits="userSpaceOnUse">
<stop stop-color="#FF7800"/>
<stop offset="1" stop-color="#FFB000"/>
</linearGradient>
<clipPath id="clip0">
<rect width="600.78" height="201.25" fill="white"/>
</clipPath>
</defs>
</svg>
