<svg width="309" height="323" viewBox="0 0 309 323" fill="none" xmlns="http://www.w3.org/2000/svg">
<g clip-path="url(#clip0)">
<path d="M1.47001 149.88C1.33242 149.881 1.19753 149.918 1.07871 149.988C0.95988 150.057 0.861233 150.156 0.792532 150.276C0.723831 150.395 0.687459 150.53 0.687016 150.667C0.686573 150.805 0.722075 150.94 0.790007 151.06L72.52 275.31C80.7775 289.639 92.6638 301.539 106.983 309.814C121.301 318.088 137.547 322.445 154.085 322.445C170.623 322.445 186.869 318.088 201.187 309.814C215.506 301.539 227.393 289.639 235.65 275.31V275.31L307.38 151.06C307.448 150.94 307.483 150.805 307.483 150.667C307.483 150.53 307.446 150.395 307.377 150.276C307.309 150.156 307.21 150.057 307.091 149.988C306.972 149.918 306.838 149.881 306.7 149.88H226.44C216.355 149.885 206.538 153.129 198.436 159.135C190.334 165.141 184.376 173.592 181.44 183.24L157.87 260.82C157.622 261.622 157.124 262.324 156.448 262.823C155.772 263.321 154.955 263.59 154.115 263.59C153.275 263.59 152.458 263.321 151.782 262.823C151.106 262.324 150.608 261.622 150.36 260.82L126.79 183.24C123.853 173.592 117.894 165.143 109.793 159.137C101.691 153.131 91.8749 149.886 81.79 149.88H1.47001Z" fill="white"/>
<path d="M307.19 55C307.321 54.9604 307.461 54.9614 307.592 55.003C307.723 55.0445 307.838 55.1246 307.922 55.2328C308.007 55.341 308.056 55.4721 308.065 55.609C308.073 55.746 308.04 55.8823 307.97 56L267.63 125.9C267.533 126.068 267.377 126.195 267.193 126.256C267.008 126.317 266.808 126.308 266.63 126.23C231.111 110.808 192.802 102.85 154.08 102.85C115.358 102.85 77.0484 110.808 41.5299 126.23C41.3521 126.31 41.1509 126.32 40.9658 126.259C40.7807 126.198 40.6252 126.07 40.5299 125.9L0.0798799 55.77C0.0165717 55.6716 -0.0170898 55.557 -0.0170898 55.44C-0.0170898 55.323 0.0165717 55.2084 0.0798799 55.11C0.153383 55.0179 0.251996 54.949 0.363799 54.9118C0.475601 54.8745 0.595806 54.8704 0.70988 54.9C12.9134 58.2953 25.5228 60.0111 38.1899 60C60.7748 60.0112 83.0319 54.597 103.088 44.213C123.144 33.829 140.413 18.7791 153.44 0.329994C153.513 0.228211 153.609 0.145211 153.72 0.0878359C153.831 0.0304605 153.955 0.000352464 154.08 -6.3152e-06C154.206 -0.00219928 154.33 0.0267972 154.441 0.0843875C154.553 0.141978 154.649 0.226365 154.72 0.329994C167.75 18.7833 185.023 33.8357 205.085 44.2199C225.147 54.6041 247.41 60.016 270 60C282.565 60.0181 295.075 58.3361 307.19 55V55Z" fill="url(#paint0_linear)"/>
</g>
<defs>
<linearGradient id="paint0_linear" x1="-0.000120058" y1="63.13" x2="308.06" y2="63.13" gradientUnits="userSpaceOnUse">
<stop stop-color="#FF7800"/>
<stop offset="1" stop-color="#FFB000"/>
</linearGradient>
<clipPath id="clip0">
<rect width="308.06" height="322.43" fill="white"/>
</clipPath>
</defs>
</svg>
