<svg width="43" height="43" viewBox="0 0 43 43" fill="none" xmlns="http://www.w3.org/2000/svg">
<circle cx="21.5" cy="21.5" r="21.5" fill="#AAE5E1"/>
<path d="M35.6093 17.1513V33.1223C35.6123 33.5207 35.4438 33.9011 35.1469 34.1667L35.1049 34.2087C34.8488 34.427 34.523 34.5464 34.1864 34.5452H8.81398C8.47981 34.5452 8.15663 34.4258 7.90256 34.2087C7.88524 34.1985 7.87081 34.1841 7.86061 34.1667C7.56145 33.902 7.39032 33.5217 7.39068 33.1223V17.1513C7.38736 16.7963 7.52324 16.454 7.76922 16.198C7.86948 16.0796 7.98997 15.9799 8.12494 15.9034C8.33555 15.7881 8.57181 15.7278 8.81187 15.728H34.1861C34.5844 15.7352 34.9632 15.9018 35.2377 16.1905C35.4762 16.4537 35.6087 16.7961 35.6093 17.1513Z" fill="#F6B863"/>
<path d="M35.2391 16.1893C35.1392 16.3127 21.5076 27.1535 21.5076 27.1535L7.76855 16.2013L7.77459 16.1957V16.1896L20.7296 5.6508C21.1817 5.28307 21.8299 5.28307 22.2821 5.6508L35.2391 16.1893Z" fill="#EAA14E"/>
<path d="M32.3411 8.84082V18.5233L21.5063 27.1536L10.6655 18.5116V8.84082H32.3411Z" fill="#EEEFEE"/>
<path d="M35.1449 34.1663C35.1327 34.1815 35.1189 34.1953 35.1037 34.2076L22.8989 26.0662L24.0159 25.1665L35.1449 34.1663Z" fill="#EAA14E"/>
<path d="M20.1064 26.0597L7.90164 34.2062C7.88371 34.1973 7.86916 34.1829 7.86035 34.1649L18.9836 25.1543L20.1064 26.0597Z" fill="#EAA14E"/>
<path d="M13.0664 11.3823H29.9331V12.1141H13.0664V11.3823Z" fill="#DBD8DD"/>
<path d="M13.0664 14.2046H29.9331V14.9364H13.0664V14.2046Z" fill="#DBD8DD"/>
<path d="M13.0664 17.0273H29.9331V17.7591H13.0664V17.0273Z" fill="#DBD8DD"/>
<path d="M15.8994 19.8501H27.101V20.5819H15.8994V19.8501Z" fill="#DBD8DD"/>
</svg>
