<svg width="14" height="22" viewBox="0 0 14 22" fill="none" xmlns="http://www.w3.org/2000/svg">
<path d="M13.3636 9.94775C13.1948 9.94775 13.0329 10.021 12.9136 10.1514C12.7943 10.2817 12.7272 10.4585 12.7272 10.6429C12.7272 12.3021 12.1238 13.8934 11.0498 15.0666C9.9757 16.2399 8.51895 16.899 7 16.899C5.48105 16.899 4.0243 16.2399 2.95024 15.0666C1.87618 13.8934 1.27278 12.3021 1.27278 10.6429C1.27278 10.4585 1.20573 10.2817 1.08639 10.1514C0.967051 10.021 0.805191 9.94775 0.636418 9.94775C0.467646 9.94775 0.305786 10.021 0.186445 10.1514C0.0671049 10.2817 6.00562e-05 10.4585 6.00562e-05 10.6429C-0.00719055 12.5559 0.642321 14.4025 1.8204 15.818C2.99849 17.2336 4.61955 18.1153 6.36364 18.2892V20.3746C6.36364 20.559 6.43069 20.7358 6.55003 20.8661C6.66937 20.9965 6.83123 21.0697 7 21.0697C7.16877 21.0697 7.33063 20.9965 7.44997 20.8661C7.56931 20.7358 7.63636 20.559 7.63636 20.3746V18.2892C9.38045 18.1153 11.0015 17.2336 12.1796 15.818C13.3577 14.4025 14.0072 12.5559 13.9999 10.6429C13.9999 10.4585 13.9329 10.2817 13.8136 10.1514C13.6942 10.021 13.5324 9.94775 13.3636 9.94775Z" fill="white"/>
<path d="M7.10135 14.1188C8.11398 14.1188 9.08514 13.6793 9.80119 12.8972C10.5172 12.115 10.9195 11.0542 10.9195 9.94803V4.38704C10.9195 3.2809 10.5172 2.22005 9.80119 1.43789C9.08514 0.655724 8.11398 0.216309 7.10135 0.216309C6.08871 0.216309 5.11755 0.655724 4.40151 1.43789C3.68547 2.22005 3.2832 3.2809 3.2832 4.38704V9.94803C3.2832 11.0542 3.68547 12.115 4.40151 12.8972C5.11755 13.6793 6.08871 14.1188 7.10135 14.1188Z" fill="white"/>
</svg>
