<svg width="37" height="36" viewBox="0 0 37 36" fill="none" xmlns="http://www.w3.org/2000/svg">
<path d="M36.5 18C36.5 27.9411 28.4411 36 18.5 36C8.55887 36 0.5 27.9411 0.5 18C0.5 8.05887 8.55887 0 18.5 0C28.4411 0 36.5 8.05887 36.5 18Z" fill="#E1B7B7" fill-opacity="0.58"/>
<path d="M19.4251 28.1863L21.1276 13.0648L23.418 14.3851C24.1156 14.7858 24.8457 13.9207 24.3216 13.3169L19.0438 7.24584C18.7582 6.91805 18.243 6.91805 17.9579 7.24584L12.6796 13.3169C12.1527 13.9207 12.8856 14.7853 13.5804 14.3851L15.8736 13.0675L17.5742 28.1863C17.6933 29.271 19.3061 29.2715 19.4251 28.1863Z" fill="#E14949"/>
</svg>
