<svg width="36" height="36" viewBox="0 0 36 36" fill="none" xmlns="http://www.w3.org/2000/svg">
<path d="M0 18C0 27.9411 8.05887 36 18 36C27.9411 36 36 27.9411 36 18C36 8.05887 27.9411 0 18 0C8.05887 0 0 8.05887 0 18Z" fill="#CDF1DF"/>
<path d="M18.9251 7.81367L20.6276 22.9352L22.918 21.6149C23.6156 21.2142 24.3457 22.0793 23.8216 22.6831L18.5438 28.7542C18.2582 29.0819 17.743 29.0819 17.4579 28.7542L12.1796 22.6831C11.6527 22.0793 12.3856 21.2147 13.0804 21.6149L15.3736 22.9325L17.0742 7.81367C17.1933 6.72901 18.8061 6.72855 18.9251 7.81367Z" fill="#16CD75"/>
</svg>
