<svg width="19" height="23" viewBox="0 0 19 23" fill="none" xmlns="http://www.w3.org/2000/svg">
<path d="M18.0153 15.8071L17.2664 15.1939C16.9847 14.9637 16.7957 14.6232 16.7391 14.244L15.8007 8.02083C15.5722 6.40135 14.8209 4.92461 13.6824 3.8576C12.544 2.79058 11.0936 2.20373 9.59357 2.20313C8.09351 2.20253 6.64276 2.78823 5.50361 3.85433C4.36446 4.92043 3.61211 6.39657 3.38257 8.01586L2.44317 14.2442C2.38659 14.6232 2.19772 14.9634 1.91626 15.1934L1.16654 15.8071C0.8867 16.0364 0.680008 16.3561 0.575745 16.7208C0.471483 17.0856 0.474936 17.477 0.585617 17.8395C0.696297 18.202 0.908593 18.5173 1.19243 18.7406C1.47626 18.964 1.81725 19.0842 2.16708 19.0841H17.0152C17.365 19.0841 17.7059 18.9638 17.9897 18.7404C18.2734 18.517 18.4856 18.2017 18.5963 17.8392C18.7069 17.4767 18.7103 17.0854 18.606 16.7207C18.5017 16.356 18.295 16.0363 18.0152 15.8071H18.0153Z" fill="white"/>
<path d="M10.9552 3.37416C10.8347 3.37416 10.7191 3.32185 10.6338 3.22873C10.5486 3.13562 10.5007 3.00933 10.5007 2.87764V2.20238C10.5007 1.93901 10.4049 1.68643 10.2344 1.5002C10.0639 1.31397 9.83272 1.20934 9.59161 1.20934C9.35051 1.20934 9.11928 1.31397 8.94879 1.5002C8.7783 1.68643 8.68253 1.93901 8.68253 2.20238V2.87764C8.68253 3.00933 8.63464 3.13562 8.54939 3.22873C8.46415 3.32185 8.34853 3.37416 8.22798 3.37416C8.10743 3.37416 7.99181 3.32185 7.90657 3.22873C7.82133 3.13562 7.77344 3.00933 7.77344 2.87764V2.20238C7.77344 1.67564 7.965 1.17048 8.30597 0.798015C8.64694 0.425555 9.1094 0.216309 9.59161 0.216309C10.0738 0.216309 10.5363 0.425555 10.8773 0.798015C11.2182 1.17048 11.4098 1.67564 11.4098 2.20238V2.87764C11.4098 3.00933 11.3619 3.13562 11.2767 3.22873C11.1914 3.32185 11.0758 3.37416 10.9552 3.37416Z" fill="white"/>
<path d="M6.7207 20.0771C6.97774 20.6713 7.38401 21.1734 7.8922 21.525C8.40039 21.8767 8.98957 22.0634 9.59114 22.0634C10.1927 22.0634 10.7819 21.8767 11.2901 21.525C11.7983 21.1734 12.2045 20.6713 12.4616 20.0771H6.7207Z" fill="white"/>
</svg>
