<svg width="36" height="20" viewBox="0 0 36 20" fill="none" xmlns="http://www.w3.org/2000/svg">
<rect width="36" height="20" rx="10" fill="#DADFDF"/>
<rect width="20" height="20" rx="10" fill="#757575"/>
<path d="M5.618 7.31C6.05667 7.31 6.43467 7.408 6.752 7.604C7.074 7.79533 7.32133 8.06833 7.494 8.423C7.67133 8.77767 7.76 9.2 7.76 9.69C7.76 10.18 7.67133 10.6023 7.494 10.957C7.32133 11.3117 7.074 11.587 6.752 11.783C6.43467 11.9743 6.05667 12.07 5.618 12.07C5.17933 12.07 4.799 11.9743 4.477 11.783C4.15967 11.587 3.91233 11.3117 3.735 10.957C3.56233 10.6023 3.476 10.18 3.476 9.69C3.476 9.2 3.56233 8.77767 3.735 8.423C3.91233 8.06833 4.15967 7.79533 4.477 7.604C4.799 7.408 5.17933 7.31 5.618 7.31ZM5.618 7.835C5.13733 7.835 4.757 7.99833 4.477 8.325C4.20167 8.65167 4.064 9.10667 4.064 9.69C4.064 10.2687 4.20167 10.7237 4.477 11.055C4.757 11.3817 5.13733 11.545 5.618 11.545C6.09867 11.545 6.47667 11.3817 6.752 11.055C7.032 10.7237 7.172 10.2687 7.172 9.69C7.172 9.10667 7.032 8.65167 6.752 8.325C6.47667 7.99833 6.09867 7.835 5.618 7.835ZM12.2263 7.905H9.55233V9.396H11.6383V9.921H9.55233V12H8.99233V7.38H12.2263V7.905ZM16.4988 7.905H13.8248V9.396H15.9108V9.921H13.8248V12H13.2648V7.38H16.4988V7.905Z" fill="white"/>
</svg>
