<svg width="36" height="20" viewBox="0 0 36 20" fill="none" xmlns="http://www.w3.org/2000/svg">
<rect width="36" height="20" rx="10" fill="#DADFDF"/>
<rect x="16" width="20" height="20" rx="10" fill="#00A79D"/>
<path d="M23.618 7.31C24.0567 7.31 24.4347 7.408 24.752 7.604C25.074 7.79533 25.3213 8.06833 25.494 8.423C25.6713 8.77767 25.76 9.2 25.76 9.69C25.76 10.18 25.6713 10.6023 25.494 10.957C25.3213 11.3117 25.074 11.587 24.752 11.783C24.4347 11.9743 24.0567 12.07 23.618 12.07C23.1793 12.07 22.799 11.9743 22.477 11.783C22.1597 11.587 21.9123 11.3117 21.735 10.957C21.5623 10.6023 21.476 10.18 21.476 9.69C21.476 9.2 21.5623 8.77767 21.735 8.423C21.9123 8.06833 22.1597 7.79533 22.477 7.604C22.799 7.408 23.1793 7.31 23.618 7.31ZM23.618 7.835C23.1373 7.835 22.757 7.99833 22.477 8.325C22.2017 8.65167 22.064 9.10667 22.064 9.69C22.064 10.2687 22.2017 10.7237 22.477 11.055C22.757 11.3817 23.1373 11.545 23.618 11.545C24.0987 11.545 24.4767 11.3817 24.752 11.055C25.032 10.7237 25.172 10.2687 25.172 9.69C25.172 9.10667 25.032 8.65167 24.752 8.325C24.4767 7.99833 24.0987 7.835 23.618 7.835ZM30.6183 7.38V12H29.9253L27.9933 8.906L27.5033 8.038H27.4963L27.5243 8.738V12H26.9923V7.38H27.6853L29.6103 10.46L30.1073 11.349H30.1143L30.0863 10.642V7.38H30.6183Z" fill="white"/>
</svg>
