<svg width="28" height="26" viewBox="0 0 28 26" fill="none" xmlns="http://www.w3.org/2000/svg">
<path d="M2.38251 25.5939C1.0972 25.5939 0.0625 24.5592 0.0625 23.2739V11.2097C0.0625 9.92438 1.0972 8.88965 2.38251 8.88965H25.583C26.8682 8.88965 27.903 9.92438 27.903 11.2097V23.2739C27.903 24.5592 26.8682 25.5939 25.583 25.5939H2.38251Z" fill="#8A9FFF"/>
<path d="M4.39123 8.88965C4.25365 11.1854 2.36225 12.9827 0.0625 13.0032V21.4804C2.36225 21.5008 4.25365 23.2982 4.39123 25.5939H23.5741C23.7118 23.2982 25.6032 21.5008 27.903 21.4804V13.0032C25.6032 12.9828 23.7118 11.1854 23.5741 8.88965H4.39123Z" fill="url(#paint0_linear)"/>
<path d="M13.9806 13.1707C11.7322 13.1706 9.90958 14.9933 9.90967 17.2416C9.90958 19.4899 11.7322 21.3126 13.9806 21.3125C16.2288 21.3123 18.0511 19.4898 18.0511 17.2416C18.0511 14.9801 16.221 13.1708 13.9806 13.1707Z" fill="#8A9FFF"/>
<path d="M9.6984 10.9281L10.3272 5.55737C11.5903 6.28663 12.8376 5.2488 12.1238 4.02465L9.95509 0.780609C9.63805 0.283041 9.09647 0.0621147 8.61003 0.0625005C8.1236 0.0621235 7.58258 0.283023 7.2655 0.780609L5.09624 4.02465C4.38946 5.24881 5.64206 6.2792 6.89231 5.55737L7.49841 10.8614C7.72632 12.1526 9.39081 12.1343 9.6984 10.9281V10.9281Z" fill="#FFB038"/>
<path d="M20.4274 10.9281L21.0562 5.55737C22.3193 6.28663 23.5666 5.2488 22.8528 4.02465L20.6841 0.780609C20.367 0.283041 19.8255 0.0621147 19.339 0.0625005C18.8526 0.0621235 18.3116 0.283023 17.9945 0.780609L15.8252 4.02465C15.1185 5.24881 16.3711 6.2792 17.6213 5.55737L18.2274 10.8614C18.4553 12.1526 20.1198 12.1343 20.4274 10.9281V10.9281Z" fill="#FFB038"/>
<defs>
<linearGradient id="paint0_linear" x1="14.0061" y1="30.695" x2="14.0061" y2="6.57085" gradientUnits="userSpaceOnUse">
<stop stop-color="#6982FF"/>
<stop offset="1" stop-color="#304BD2"/>
</linearGradient>
</defs>
</svg>
