<svg width="22" height="26" viewBox="0 0 22 26" fill="none" xmlns="http://www.w3.org/2000/svg">
<path d="M5.24237 16.7283C5.24237 16.2966 4.94275 16.0391 4.41411 16.0391C4.19825 16.0391 4.05205 16.0604 3.97559 16.0807V17.4661C4.06613 17.4865 4.17743 17.4933 4.33085 17.4933C4.89433 17.4933 5.24237 17.2086 5.24237 16.7283Z" fill="white"/>
<path d="M8.51439 16.0527C8.27766 16.0527 8.12467 16.0732 8.03418 16.0944V19.1625C8.12472 19.1838 8.27092 19.1838 8.40309 19.1838C9.36346 19.1906 9.98982 18.662 9.98982 17.5418C9.99661 16.5677 9.42586 16.0527 8.51439 16.0527Z" fill="white"/>
<path d="M14.5953 0H4.1526C2.62702 0 1.38537 1.24252 1.38537 2.76723V13H1.11509C0.499358 13 0 13.4988 0 14.1151V20.8777C0 21.4939 0.499304 21.9927 1.11509 21.9927H1.38537V23.2328C1.38537 24.7592 2.62702 26 4.1526 26H18.4012C19.9258 26 21.1676 24.7591 21.1676 23.2328V6.5493L14.5953 0ZM2.92534 15.3355C3.25214 15.2803 3.71148 15.2387 4.35865 15.2387C5.01267 15.2387 5.47881 15.3635 5.79201 15.6143C6.0912 15.8506 6.2931 16.2406 6.2931 16.6996C6.2931 17.1586 6.14011 17.5487 5.86174 17.813C5.49968 18.1538 4.96424 18.3068 4.33789 18.3068C4.19849 18.3068 4.07354 18.2999 3.97583 18.2864V19.9633H2.92534V15.3355ZM18.4012 24.3053H4.1526C3.56189 24.3053 3.08087 23.8243 3.08087 23.2328V21.9927H16.3635C16.9793 21.9927 17.4786 21.4939 17.4786 20.8777V14.1151C17.4786 13.4988 16.9793 13 16.3635 13H3.08087V2.76723C3.08087 2.17738 3.56194 1.69636 4.1526 1.69636L13.9613 1.68612V5.31175C13.9613 6.37075 14.8205 7.23082 15.8803 7.23082L19.432 7.22063L19.472 23.2327C19.472 23.8243 18.9918 24.3053 18.4012 24.3053ZM6.97047 19.942V15.3355C7.36008 15.2735 7.86791 15.2387 8.40383 15.2387C9.29448 15.2387 9.87203 15.3985 10.3246 15.7392C10.8116 16.1013 11.1175 16.6784 11.1175 17.507C11.1175 18.4045 10.7907 19.0241 10.3381 19.4065C9.84431 19.817 9.09263 20.0116 8.17432 20.0116C7.62438 20.0116 7.23476 19.9768 6.97047 19.942ZM14.5648 17.2147V18.0773H12.8806V19.9633H11.8161V15.2735H14.6829V16.1429H12.8806V17.2147H14.5648Z" fill="white"/>
</svg>
