<svg width="35" height="35" viewBox="0 0 35 35" fill="none" xmlns="http://www.w3.org/2000/svg">
<circle cx="17.5" cy="17.5" r="17.5" fill="#00A79D"/>
<rect x="13.0784" y="17.6416" width="6.41654" height="2.28846" rx="1.14423" transform="rotate(-17.7416 13.0784 17.6416)" fill="#F4B13E"/>
<path d="M12.1156 22.7879L12.1174 22.7884C13.1717 23.0825 14.4786 23.4092 15.8423 23.55C15.7184 23.5114 15.5949 23.4717 15.4725 23.4303C14.1153 23.0174 12.8378 22.7651 11.5992 22.666C11.7716 22.702 11.9434 22.7419 12.1138 22.7875L12.1156 22.7879Z" fill="white"/>
<path d="M17.1556 23.9939C15.451 23.9939 13.7223 23.6231 12.0172 23.1475C11.2542 22.943 10.4698 22.8403 9.68772 22.8403C7.88218 22.8404 6.09061 23.388 4.61597 24.4942C6.04472 23.8907 7.43661 23.6148 8.838 23.6149C10.0608 23.6149 11.2909 23.825 12.5579 24.2109C13.6995 24.598 14.9682 24.8186 16.2349 24.8186C17.3594 24.8186 18.4822 24.6442 19.5127 24.2581C18.8594 24.2061 18.205 24.1149 17.5589 23.9866C17.4246 23.9914 17.2902 23.9939 17.1556 23.9939Z" fill="white"/>
<path d="M7.70138 21.0888C8.95095 20.688 10.2622 20.4847 11.5991 20.4847C12.7482 20.4847 13.8949 20.6359 15.0075 20.9341L15.0101 20.9348L15.0127 20.9356C16.966 21.4805 19.5361 22.106 22.0931 22.106C23.4844 22.106 24.7732 21.9239 25.983 21.5545L30.4628 12.9475C30.4628 12.9475 21.0543 11.9985 4.61597 20.0739V22.4293H4.8557C5.73434 21.8638 6.68807 21.4139 7.70138 21.0888ZM18.3366 16.2804C18.7206 16.2804 19.032 16.5918 19.032 16.9758C19.032 17.3599 18.7206 17.6712 18.3366 17.6712C17.9526 17.6712 17.6412 17.3599 17.6412 16.9758C17.6412 16.5917 17.9526 16.2804 18.3366 16.2804ZM16.1345 16.9758C16.5185 16.9758 16.8299 17.2872 16.8299 17.6712C16.8299 18.0553 16.5185 18.3666 16.1345 18.3666C15.7505 18.3666 15.4391 18.0553 15.4391 17.6712C15.4391 17.2872 15.7505 16.9758 16.1345 16.9758ZM14.0193 17.6712C14.4034 17.6712 14.7147 17.9826 14.7147 18.3666C14.7147 18.7506 14.4034 19.062 14.0193 19.062C13.6353 19.062 13.3239 18.7506 13.3239 18.3666C13.3239 17.9826 13.6353 17.6712 14.0193 17.6712Z" fill="white"/>
<path d="M14.8728 21.4386C13.8009 21.1513 12.6984 21.0071 11.5995 21.0071C9.06202 21.007 6.54469 21.7765 4.47241 23.3312C6.48014 22.4831 8.43599 22.0954 10.4054 22.0955C12.1236 22.0956 13.8522 22.3908 15.6326 22.9331C17.2369 23.477 19.0196 23.7871 20.7996 23.7871C23.7463 23.7871 26.6846 22.9368 28.7876 20.8896C26.6239 22.1561 24.3738 22.6282 22.0936 22.6282C19.698 22.6282 17.2693 22.1071 14.8728 21.4386Z" fill="white"/>
<path d="M10.0688 12.843L10.2809 13.5408C10.6705 13.3764 11.7429 12.9472 12.9548 12.6633C13.1884 12.6087 13.4223 12.7537 13.4771 12.9874C13.5318 13.2211 13.3867 13.4549 13.153 13.5097C11.9043 13.8021 10.7864 14.2693 10.5352 14.3775L11.1509 16.4033C11.1509 16.4033 16.5849 13.8466 22.966 12.9128L16.8138 11.5373C16.8138 11.5373 12.2282 10.9617 8.14368 12.8476C8.14368 12.8476 9.0117 13.1157 10.0688 12.843Z" fill="white"/>
</svg>
