<svg width="46" height="46" viewBox="0 0 46 46" fill="none" xmlns="http://www.w3.org/2000/svg">
<circle cx="23" cy="23" r="23" fill="white"/>
<path d="M23.5 22.161C26.9466 22.161 29.741 18.7672 29.741 14.5806C29.741 10.3939 28.8236 7 23.5 7C18.1764 7 17.2588 10.3939 17.2588 14.5806C17.2588 18.7672 20.0531 22.161 23.5 22.161Z" fill="#00A79D"/>
<path d="M35.2743 33.4294C35.1587 26.1363 34.2062 24.0581 26.9174 22.7427C26.9174 22.7427 25.8914 24.0501 23.5 24.0501C21.1085 24.0501 20.0824 22.7427 20.0824 22.7427C12.8731 24.0438 11.8627 26.0911 11.7298 33.1925C11.7189 33.7724 11.7139 33.8029 11.7119 33.7355C11.7124 33.8617 11.7129 34.095 11.7129 34.5018C11.7129 34.5018 13.4482 38 23.5 38C33.5516 38 35.2871 34.5018 35.2871 34.5018C35.2871 34.2404 35.2872 34.0587 35.2875 33.935C35.2856 33.9766 35.2817 33.8959 35.2743 33.4294Z" fill="#00A79D"/>
<path fill-rule="evenodd" clip-rule="evenodd" d="M23.3478 37.9997C23.1204 37.0368 23 36.0324 23 35C23 29.9853 25.8394 25.6337 29.9982 23.4653C34.4943 24.8734 35.1775 27.3241 35.2743 33.4294C35.2817 33.8959 35.2856 33.9766 35.2875 33.935C35.2872 34.0587 35.2871 34.2404 35.2871 34.5018C35.2871 34.5018 33.5516 38 23.5 38C23.449 38 23.3983 37.9999 23.3478 37.9997Z" fill="url(#paint0_linear)"/>
<defs>
<linearGradient id="paint0_linear" x1="29.1438" y1="23.4653" x2="29.1438" y2="38" gradientUnits="userSpaceOnUse">
<stop stop-color="#00A79D"/>
<stop offset="1" stop-color="#09C4BA"/>
</linearGradient>
</defs>
</svg>
