<svg width="21" height="21" viewBox="0 0 21 21" fill="none" xmlns="http://www.w3.org/2000/svg">
<path d="M1.47063 21C1.26116 20.9995 1.05421 20.9544 0.863553 20.8676C0.672899 20.7809 0.502924 20.6545 0.364953 20.4969C0.226983 20.3392 0.124186 20.154 0.0634109 19.9536C0.00263621 19.7531 -0.0147201 19.542 0.0124983 19.3343L0.539148 15.3099C0.587271 14.9456 0.753886 14.6074 1.0133 14.3472L14.8887 0.47196C15.1918 0.169723 15.6024 0 16.0304 0C16.4584 0 16.869 0.169723 17.1721 0.47196L20.528 3.82788C20.8303 4.13097 21 4.54153 21 4.96956C21 5.39758 20.8303 5.80815 20.528 6.11123L6.65263 19.9865C6.39253 20.246 6.05423 20.4126 5.68998 20.4606L1.66546 20.9873C1.60086 20.9958 1.53578 21 1.47063 21ZM2.55551 15.7053L2.1433 18.8565L5.29458 18.4443L18.7693 4.96976L16.0302 2.23072L2.55551 15.7053Z" fill="black"/>
<path d="M16.688 9.527C16.5535 9.5274 16.4201 9.50123 16.2957 9.44999C16.1712 9.39875 16.0581 9.32345 15.9629 9.22841L11.7718 5.03741C11.5795 4.84486 11.4715 4.58381 11.4717 4.31167C11.4718 4.03952 11.5801 3.77859 11.7726 3.58626C11.9652 3.39394 12.2262 3.28598 12.4984 3.28613C12.7705 3.28629 13.0315 3.39454 13.2238 3.58708L17.4132 7.77645C17.5566 7.91985 17.6543 8.10258 17.6939 8.30151C17.7335 8.50044 17.7132 8.70665 17.6356 8.89404C17.5579 9.08143 17.4265 9.24159 17.2578 9.35425C17.0892 9.46692 16.8909 9.52704 16.688 9.527Z" fill="black"/>
</svg>
