<svg width="14" height="14" viewBox="0 0 14 14" fill="none" xmlns="http://www.w3.org/2000/svg">
<path d="M12.0515 0.961393C11.3459 0.257009 10.2032 0.257009 9.4976 0.961393L8.8583 1.6042L2.05298 8.4059L2.03852 8.42047C2.03502 8.42398 2.03502 8.42771 2.03129 8.42771C2.02406 8.43855 2.01321 8.44929 2.00609 8.46013C2.00609 8.46375 2.00236 8.46375 2.00236 8.46737C1.99513 8.47821 1.99163 8.48544 1.98428 8.49629C1.98078 8.49991 1.98078 8.50341 1.97717 8.50714C1.97355 8.51799 1.96993 8.52522 1.96621 8.53606C1.96621 8.53957 1.9627 8.53957 1.9627 8.54329L0.452809 13.0837C0.408516 13.213 0.442188 13.3561 0.539473 13.4521C0.607832 13.5195 0.700032 13.5573 0.795961 13.5569C0.835169 13.5562 0.874038 13.5501 0.911551 13.5388L5.44847 12.0253C5.45197 12.0253 5.45197 12.0253 5.4557 12.0218C5.46711 12.0184 5.47807 12.0136 5.48813 12.0073C5.49095 12.0069 5.49344 12.0057 5.49547 12.0037C5.50621 11.9965 5.52067 11.9892 5.53152 11.9819C5.54225 11.9748 5.55321 11.964 5.56406 11.9567C5.56767 11.953 5.57117 11.953 5.57117 11.9495C5.5749 11.9459 5.58213 11.9424 5.58575 11.9351L13.0304 4.49043C13.7348 3.78481 13.7348 2.64213 13.0304 1.93662L12.0515 0.961393ZM5.33288 11.1764L2.81883 8.6625L9.11117 2.37016L11.6252 4.88409L5.33288 11.1764ZM2.46472 9.33073L4.66103 11.5269L1.36306 12.625L2.46472 9.33073ZM12.5211 3.98469L12.1382 4.37123L9.62404 1.85707L10.0107 1.47064C10.4336 1.04806 11.1191 1.04806 11.5422 1.47064L12.5246 2.4531C12.9444 2.87794 12.9428 3.56187 12.5211 3.98469Z" fill="white"/>
</svg>
