<svg width="46" height="46" viewBox="0 0 46 46" fill="none" xmlns="http://www.w3.org/2000/svg">
<circle cx="23" cy="23" r="23" fill="white"/>
<path d="M22.7881 22.161C26.2347 22.161 29.0291 18.7672 29.0291 14.5806C29.0291 10.3939 28.1116 7 22.7881 7C17.4645 7 16.5469 10.3939 16.5469 14.5806C16.5469 18.7672 19.3412 22.161 22.7881 22.161Z" fill="#BDBDBD"/>
<path d="M34.5624 33.4294C34.4468 26.1363 33.4943 24.0581 26.2055 22.7427C26.2055 22.7427 25.1795 24.0501 22.7881 24.0501C20.3966 24.0501 19.3704 22.7427 19.3704 22.7427C12.1612 24.0438 11.1507 26.0911 11.0179 33.1925C11.007 33.7724 11.0019 33.8029 11 33.7355C11.0004 33.8617 11.001 34.095 11.001 34.5018C11.001 34.5018 12.7363 38 22.7881 38C32.8397 38 34.5751 34.5018 34.5751 34.5018C34.5751 34.2404 34.5753 34.0587 34.5756 33.935C34.5736 33.9766 34.5697 33.8959 34.5624 33.4294Z" fill="#BDBDBD"/>
<path fill-rule="evenodd" clip-rule="evenodd" d="M22.6359 37.9997C22.4084 37.0368 22.2881 36.0324 22.2881 35C22.2881 29.9853 25.1275 25.6337 29.2863 23.4653C33.7824 24.8734 34.4656 27.3241 34.5624 33.4294C34.5697 33.8959 34.5736 33.9766 34.5756 33.935C34.5753 34.0587 34.5751 34.2404 34.5751 34.5018C34.5751 34.5018 32.8397 38 22.7881 38C22.7371 38 22.6864 37.9999 22.6359 37.9997Z" fill="#BDBDBD"/>
</svg>
