<svg width="22" height="20" viewBox="0 0 22 20" fill="none" xmlns="http://www.w3.org/2000/svg">
<path d="M21.522 2.77309C21.4284 2.08915 21.1135 1.46449 20.6344 1.01237C20.1554 0.560236 19.5439 0.310558 18.9108 0.308594H2.65126C2.01817 0.310558 1.40668 0.560236 0.927631 1.01237C0.448586 1.46449 0.133694 2.08915 0.0400391 2.77309L10.781 10.3652L21.522 2.77309Z" fill="white"/>
<path d="M11.1715 11.9601C11.0552 12.0422 10.9197 12.0859 10.7812 12.0859C10.6428 12.0859 10.5072 12.0422 10.391 11.9601L0 4.61602V16.2555C0.000761007 17.0234 0.280356 17.7596 0.777438 18.3026C1.27452 18.8455 1.94849 19.151 2.65147 19.1518H18.911C19.614 19.151 20.288 18.8455 20.7851 18.3026C21.2821 17.7596 21.5617 17.0234 21.5625 16.2555V4.61523L11.1715 11.9601Z" fill="white"/>
</svg>
