<svg width="444.31" height="437.85001" xmlns="http://www.w3.org/2000/svg">

 <g>
  <title>background</title>
  <rect fill="none" id="canvas_background" height="402" width="582" y="-1" x="-1"/>
 </g>
 <g>
  <title>Layer 1</title>
  <path fill="black" id="path1962" d="m341.680328,435.722534c-0.473846,-0.743408 -23.329285,-44.656006 -50.789917,-97.583496c-27.460602,-52.927551 -50.355118,-96.666107 -50.876709,-97.196838c-0.608948,-0.619598 -15.142105,13.225464 -40.609146,38.686523c-37.204681,37.195923 -39.659836,39.866791 -39.645477,43.128387c0.008408,1.912323 1.537476,15.977173 3.397919,31.255219l3.382629,27.778259l-16.077087,16.147736l-16.077072,16.147705l-18.656975,-35.515747l-18.656944,-35.515747l-35.111629,-18.331055c-19.311378,-10.082092 -35.121408,-18.559509 -35.133369,-18.838715c-0.011959,-0.279236 7.078579,-7.597595 15.756771,-16.263062l15.77853,-15.755402l30.950283,3.756531l30.950264,3.756531l40.08857,-40.073761c31.261887,-31.250366 39.78334,-40.292191 38.702484,-41.065842c-0.762329,-0.545639 -45.411209,-24.204819 -99.219742,-52.575928l-97.83371,-51.583847l20.204069,-20.204063l20.204092,-20.204063l120.762142,32.003487l120.762192,32.003471l55.219299,-55.109344c38.704346,-38.627264 56.554535,-55.778983 59.683716,-57.348323c2.881866,-1.44532 6.940155,-2.40072 11.448822,-2.69529c8.870361,-0.57953 15.471344,2.01317 21.342743,8.38288c5.456055,5.919101 7.224182,10.384049 7.199829,18.181211c-0.037598,12.043259 0.643402,11.22855 -61.36615,73.414001l-55.894043,56.052567l24.143463,93.255615c13.27887,51.290588 27.03714,104.476288 30.573883,118.19046l6.43045,24.934814l-20.086334,20.06839c-14.924255,14.910919 -20.307739,19.721039 -20.947845,18.716736z"/>
 </g>
</svg>