<svg width="25" height="23" viewBox="0 0 25 23" fill="none" xmlns="http://www.w3.org/2000/svg">
<path d="M24.1518 10.4293C23.5856 9.86506 22.907 9.58311 22.1158 9.58311H21.1545V5.74979C21.1545 5.35061 21.054 4.91116 20.8535 4.43221C20.6532 3.95305 20.413 3.57375 20.1326 3.29421L17.8486 1.01811C17.5683 0.738824 17.1877 0.49914 16.7072 0.299369C16.2263 0.0998071 15.7858 0 15.3849 0H5.28861C4.88793 0 4.54731 0.139667 4.26683 0.419211C3.9865 0.698597 3.84616 1.03804 3.84616 1.43742V9.58311H2.88468C2.09339 9.58311 1.41482 9.86522 0.848808 10.4293C0.282901 10.9932 0 11.6696 0 12.4583V18.6876C0 18.8175 0.0476237 18.9293 0.142713 19.0246C0.237908 19.1192 0.350627 19.1666 0.480711 19.1666H3.84616V21.5624C3.84616 21.9619 3.98635 22.3013 4.26683 22.5807C4.54731 22.86 4.88793 23 5.28861 23H19.7117C20.1122 23 20.4533 22.86 20.7335 22.5807C21.0139 22.3011 21.1542 21.9619 21.1542 21.5624V19.1666H24.5196C24.6496 19.1666 24.7623 19.1192 24.8574 19.0246C24.9525 18.9294 25 18.8175 25 18.6876V12.4583C25.0002 11.6696 24.7174 10.9932 24.1518 10.4293ZM19.231 21.0833H5.76937V17.2501H19.231V21.0833V21.0833ZM19.231 11.4999H5.76937V1.91668H15.3849V4.31242C15.3849 4.71175 15.5254 5.05104 15.8055 5.33063C16.0858 5.61018 16.4264 5.74984 16.8272 5.74984H19.231V11.4999V11.4999ZM22.7918 13.132C22.6017 13.3215 22.3762 13.4167 22.1158 13.4167C21.8554 13.4167 21.6299 13.3216 21.4397 13.132C21.2496 12.9427 21.1545 12.7178 21.1545 12.4582C21.1545 12.1987 21.2496 11.974 21.4397 11.7844C21.6299 11.5947 21.8553 11.4998 22.1158 11.4998C22.3762 11.4998 22.6016 11.5947 22.7918 11.7844C22.982 11.974 23.0774 12.1987 23.0774 12.4582C23.0774 12.7178 22.9822 12.9427 22.7918 13.132Z" fill="white"/>
</svg>
