<svg width="54" height="54" viewBox="0 0 54 54" fill="none" xmlns="http://www.w3.org/2000/svg">
<circle cx="27" cy="27" r="27" fill="white"/>
<path d="M34.4195 17.6551V18.6764C34.4205 20.149 33.8952 21.5734 32.9384 22.6927C31.9816 23.8121 30.6562 24.5526 29.2015 24.7808C27.7456 24.5539 26.4189 23.8139 25.4609 22.6944C24.5029 21.575 23.9768 20.1498 23.9775 18.6764V17.6551C23.9768 16.1817 24.5029 14.7566 25.4609 13.6371C26.4189 12.5177 27.7456 11.7777 29.2015 11.5508C30.6562 11.7789 31.9816 12.5195 32.9384 13.6388C33.8952 14.7582 34.4205 16.1826 34.4195 17.6551Z" fill="#F4B13E"/>
<path d="M39.8257 35.7979V39.7247H18.6953V35.7979C18.6953 33.1033 19.7658 30.519 21.6712 28.6136C23.5766 26.7081 26.1609 25.6377 28.8555 25.6377H29.6655C32.3602 25.6377 34.9445 26.7081 36.8499 28.6136C38.7553 30.519 39.8257 33.1033 39.8257 35.7979Z" fill="#F4B13E"/>
<path d="M39.8257 35.7979V39.7247H18.6953V35.7979C18.6953 33.1033 19.7658 30.519 21.6712 28.6136C23.5766 26.7081 26.1609 25.6377 28.8555 25.6377H29.6655C32.3602 25.6377 34.9445 26.7081 36.8499 28.6136C38.7553 30.519 39.8257 33.1033 39.8257 35.7979Z" fill="#F4B13E"/>
<path d="M32.677 24.8919C33.5524 24.1451 34.2556 23.2174 34.7379 22.1727C35.2202 21.128 35.4703 19.9911 35.4709 18.8404V17.7604C35.4145 15.683 34.5497 13.7097 33.0605 12.2603C31.5712 10.811 29.5752 10 27.4971 10C25.419 10 23.4229 10.811 21.9337 12.2603C20.4444 13.7097 19.5796 15.683 19.5233 17.7604V18.8404C19.5249 19.9915 19.7761 21.1285 20.2594 22.1732C20.7428 23.2179 21.4468 24.1454 22.323 24.8919C19.9321 25.5599 17.825 26.9909 16.3225 28.967C14.82 30.9432 14.0044 33.3562 14 35.8386V39.7243C14 40.0356 14.1237 40.3342 14.3438 40.5544C14.564 40.7745 14.8626 40.8982 15.1739 40.8982H39.8261C40.1374 40.8982 40.436 40.7745 40.6562 40.5544C40.8763 40.3342 41 40.0356 41 39.7243V35.8386C40.9956 33.3562 40.18 30.9432 38.6775 28.967C37.175 26.9909 35.0679 25.5599 32.677 24.8919ZM21.8711 17.7604C21.9183 16.2997 22.5317 14.9147 23.5816 13.8981C24.6315 12.8816 26.0357 12.3132 27.4971 12.3132C28.9585 12.3132 30.3626 12.8816 31.4125 13.8981C32.4624 14.9147 33.0759 16.2997 33.123 17.7604V18.8404C33.0759 20.301 32.4624 21.6861 31.4125 22.7026C30.3626 23.7192 28.9585 24.2876 27.4971 24.2876C26.0357 24.2876 24.6315 23.7192 23.5816 22.7026C22.5317 21.6861 21.9183 20.301 21.8711 18.8404V17.7604ZM38.6522 38.5504H16.3478V35.8386C16.3509 33.4454 17.303 31.151 18.9953 29.4587C20.6876 27.7665 22.982 26.8144 25.3752 26.8113H29.6307C32.0229 26.8159 34.3157 27.7687 36.0068 29.4608C37.6978 31.1529 38.6491 33.4464 38.6522 35.8386V38.5504Z" fill="#00A79D"/>
</svg>
