<svg width="13" height="16" viewBox="0 0 13 16" fill="none" xmlns="http://www.w3.org/2000/svg">
<path d="M11.8921 6.5107C11.836 6.4047 11.836 6.2781 11.892 6.17213L12.0793 5.81847C12.3673 5.27431 12.2108 4.5885 11.7152 4.22322L11.3931 3.98581C11.2965 3.91463 11.2416 3.80061 11.2462 3.68082L11.2614 3.28091C11.2848 2.66571 10.8462 2.11573 10.2412 2.00165L9.84798 1.9275C9.73012 1.90528 9.63119 1.82638 9.58332 1.71642L9.42353 1.34953C9.17768 0.785086 8.54396 0.479801 7.94932 0.639591L7.56284 0.743423C7.44706 0.774507 7.32362 0.746365 7.2328 0.66809L6.92966 0.406846C6.46331 0.00500977 5.75984 0.00500977 5.29343 0.406846L4.99025 0.66809C4.89941 0.746365 4.77605 0.774507 4.66025 0.743423L4.27377 0.639591C3.6791 0.479861 3.04541 0.785086 2.79956 1.34953L2.63974 1.71645C2.59187 1.82638 2.49294 1.90528 2.37508 1.9275L1.98183 2.00165C1.37682 2.11573 0.938226 2.66571 0.961643 3.28091L0.976858 3.68082C0.981435 3.80064 0.926517 3.91466 0.829996 3.98581L0.507861 4.22325C0.0122678 4.58853 -0.144253 5.27434 0.143766 5.8185L0.330985 6.17216C0.387091 6.27813 0.387091 6.4047 0.330985 6.5107L0.143766 6.86436C-0.144253 7.40848 0.0122678 8.0943 0.507861 8.45961L0.829966 8.69702C0.926517 8.7682 0.981405 8.88219 0.976829 9.00207L0.961613 9.40194C0.938196 10.0172 1.37679 10.5672 1.9818 10.6812L2.1881 10.7201L2.21856 11.6727L4.41763 12.7901L5.37147 12.3376C5.59019 12.4973 5.85081 12.5774 6.11151 12.5774C6.36824 12.5774 6.62491 12.4999 6.84155 12.3451L7.62709 12.8792L9.82616 11.7573L10.0221 10.7225L10.2413 10.6812C10.8463 10.5671 11.2849 10.0171 11.2614 9.40189L11.2462 9.00204C11.2417 8.88219 11.2965 8.76817 11.3931 8.69702L11.7152 8.45961C12.2108 8.09433 12.3673 7.40851 12.0793 6.86436L11.8921 6.5107Z" fill="url(#paint0_linear)"/>
<path d="M10.1233 6.34141C10.1233 4.12929 8.32362 2.32959 6.1115 2.32959C3.89938 2.32959 2.09968 4.12929 2.09968 6.34141C2.09968 8.55353 3.89938 10.3532 6.1115 10.3532C8.32362 10.3532 10.1233 8.55353 10.1233 6.34141ZM8.11842 6.10962L7.43835 6.77252L7.59888 7.70855C7.62756 7.87577 7.55879 8.0448 7.42153 8.14453C7.28548 8.24337 7.10364 8.25811 6.95208 8.17847L6.11147 7.73655L5.27086 8.17847C5.12067 8.25743 4.93871 8.24429 4.80142 8.14453C4.66416 8.0448 4.59539 7.8758 4.6241 7.70855L4.78463 6.77252L4.10455 6.10962C3.98307 5.99119 3.93932 5.81405 3.99178 5.65269C4.0442 5.49132 4.18369 5.3737 4.35162 5.3493L5.29146 5.21275L5.71175 4.36112C5.78684 4.20896 5.94182 4.11262 6.11147 4.11262C6.28113 4.11262 6.4361 4.20894 6.5112 4.36109L6.93152 5.21272L7.87136 5.34927C8.03926 5.37367 8.17875 5.49129 8.23117 5.65266C8.28359 5.81402 8.23991 5.99119 8.11842 6.10962ZM4.99024 12.0147C4.89943 11.9364 4.77604 11.9083 4.6602 11.9394L4.27373 12.0432C3.67909 12.203 3.04537 11.8977 2.79952 11.3332L2.63973 10.9664C2.59183 10.8564 2.4929 10.7775 2.37504 10.7553L2.18809 10.72L0.76731 13.2874C0.688411 13.43 0.693612 13.6042 0.780832 13.7419C0.868051 13.8795 1.02353 13.9587 1.18603 13.9481L2.49076 13.8639L3.07241 15.0646C3.14513 15.2147 3.29556 15.3116 3.4623 15.3159C3.46608 15.3159 3.46985 15.316 3.47363 15.316C3.63603 15.316 3.78598 15.2275 3.86438 15.0847L5.37146 12.3376C5.34483 12.3182 5.31871 12.2977 5.29339 12.2759L4.99024 12.0147ZM11.4415 13.2874L10.0221 10.7225L9.84797 10.7553C9.73014 10.7775 9.63118 10.8564 9.58333 10.9664L9.42352 11.3332C9.22165 11.7967 8.75812 12.0854 8.26963 12.0854C8.16321 12.0854 8.05569 12.0717 7.9493 12.0432L7.56283 11.9394C7.44705 11.9083 7.32361 11.9364 7.23282 12.0147L6.92965 12.2759C6.90115 12.3005 6.87173 12.3235 6.84157 12.3451L8.34445 15.0846C8.42288 15.2276 8.57283 15.316 8.7352 15.316C8.73898 15.316 8.74278 15.316 8.74656 15.3159C8.91327 15.3116 9.0637 15.2147 9.13642 15.0646L9.7181 13.864L11.0228 13.9481C11.185 13.9587 11.3407 13.8795 11.428 13.7419C11.5152 13.6042 11.5204 13.43 11.4415 13.2874Z" fill="url(#paint1_linear)"/>
<defs>
<linearGradient id="paint0_linear" x1="6.11145" y1="12.8792" x2="6.11145" y2="0.105454" gradientUnits="userSpaceOnUse">
<stop stop-color="#FD5900"/>
<stop offset="1" stop-color="#FFDE00"/>
</linearGradient>
<linearGradient id="paint1_linear" x1="6.1044" y1="15.316" x2="6.1044" y2="2.32959" gradientUnits="userSpaceOnUse">
<stop stop-color="#FFE59A"/>
<stop offset="1" stop-color="#FFFFD5"/>
</linearGradient>
</defs>
</svg>
