<svg width="33" height="32" viewBox="0 0 33 32" fill="none" xmlns="http://www.w3.org/2000/svg">
<path d="M10.0111 0H0.588875C0.539812 0 0.5 0.0398124 0.5 0.0888747V9.51116C0.5 9.56022 0.539812 9.60003 0.588875 9.60003H10.0111C10.0602 9.60003 10.1 9.56028 10.1 9.51116V0.0888747C10.1 0.0398124 10.0602 0 10.0111 0V0ZM8.49997 7.9111C8.49997 7.96016 8.46015 7.99998 8.41109 7.99998H2.18887C2.13981 7.99998 2.09999 7.96016 2.09999 7.9111V1.68887C2.09999 1.63981 2.13974 1.6 2.18887 1.6H8.41115C8.46022 1.6 8.50003 1.63981 8.50003 1.68887V7.9111H8.49997Z" fill="#4F4F4F"/>
<path d="M32.4115 0H22.9893C22.9402 0 22.9004 0.0398124 22.9004 0.0888747V9.51116C22.9004 9.56022 22.9402 9.60003 22.9893 9.60003H32.4115C32.4606 9.60003 32.5004 9.56028 32.5004 9.51116V0.0888747C32.5004 0.0398124 32.4606 0 32.4115 0V0ZM30.9004 7.9111C30.9004 7.96016 30.8606 7.99998 30.8115 7.99998H24.5893C24.5402 7.99998 24.5004 7.96016 24.5004 7.9111V1.68887C24.5004 1.63981 24.5402 1.6 24.5893 1.6H30.8115C30.8606 1.6 30.9004 1.63981 30.9004 1.68887V7.9111Z" fill="#4F4F4F"/>
<path d="M6.90018 3.28889V6.31119C6.90018 6.36025 6.86043 6.40007 6.81131 6.40007H3.78907C3.74001 6.40007 3.7002 6.36032 3.7002 6.31119V3.28889C3.7002 3.23982 3.73995 3.20001 3.78907 3.20001H6.81137C6.86043 3.20001 6.90018 3.23976 6.90018 3.28889V3.28889Z" fill="#4F4F4F"/>
<path d="M29.2997 3.28889V6.31119C29.2997 6.36025 29.2598 6.40007 29.2108 6.40007H26.1885C26.1394 6.40007 26.0996 6.36032 26.0996 6.31119V3.28889C26.0996 3.23982 26.1394 3.20001 26.1885 3.20001H29.2108C29.2599 3.20001 29.2997 3.23976 29.2997 3.28889V3.28889Z" fill="#4F4F4F"/>
<path d="M21.2113 4.79999H18.189C18.1399 4.79999 18.1001 4.76017 18.1001 4.71111V3.28887C18.1001 3.2398 18.1399 3.19999 18.189 3.19999H19.6113C19.6604 3.19999 19.7002 3.16018 19.7002 3.11112V0.0888747C19.7002 0.0398124 19.6604 0 19.6113 0H11.7891C11.74 0 11.7002 0.0398124 11.7002 0.0888747V3.11118C11.7002 3.16024 11.74 3.20005 11.7891 3.20005H13.2114C13.2604 3.20005 13.3003 3.23987 13.3003 3.28893V6.31123C13.3003 6.36029 13.3401 6.40011 13.3891 6.40011H14.8114C14.8605 6.40011 14.9003 6.36036 14.9003 6.31123V4.88886C14.9003 4.8398 14.9401 4.79999 14.9892 4.79999H16.4115C16.4606 4.79999 16.5004 4.8398 16.5004 4.88886V6.31117C16.5004 6.36023 16.5402 6.40004 16.5892 6.40004H19.6115C19.6606 6.40004 19.7004 6.43979 19.7004 6.48892V7.99998H21.2115C21.2606 7.99998 21.3004 7.96016 21.3004 7.9111V4.88886C21.3002 4.8398 21.2603 4.79999 21.2113 4.79999V4.79999ZM16.5002 3.11112C16.5002 3.16018 16.4604 3.19999 16.4113 3.19999H14.989C14.9399 3.19999 14.9001 3.16018 14.9001 3.11112V1.68887C14.9001 1.63981 14.9399 1.6 14.989 1.6H16.4113C16.4604 1.6 16.5002 1.63981 16.5002 1.68887V3.11112Z" fill="#4F4F4F"/>
<path d="M10.1 11.2888V12.7111C10.1 12.7602 10.0602 12.8 10.0111 12.8H8.5V11.2889C8.5 11.2398 8.53975 11.2 8.58887 11.2H10.0112C10.0602 11.1999 10.1 11.2397 10.1 11.2888Z" fill="#4F4F4F"/>
<path d="M16.5004 8.08881V9.51112C16.5004 9.56018 16.4607 9.6 16.4116 9.6H14.9893C14.9402 9.6 14.9004 9.56018 14.9004 9.51112V8.08881C14.9004 8.03975 14.9402 7.99994 14.9893 7.99994H16.4116C16.4607 8 16.5004 8.03975 16.5004 8.08881Z" fill="#4F4F4F"/>
<path d="M19.6997 8V9.51112C19.6997 9.56018 19.6599 9.6 19.6108 9.6H18.1885C18.1394 9.6 18.0996 9.56018 18.0996 9.51112V8.08881C18.0996 8.03975 18.1394 7.99994 18.1885 7.99994H19.6997V8Z" fill="#4F4F4F"/>
<path d="M21.3002 14.4889V16H19.7891C19.74 16 19.7002 15.9602 19.7002 15.9111V14.4888C19.7002 14.4397 19.74 14.3999 19.7891 14.3999H21.2114C21.2604 14.4 21.3002 14.4397 21.3002 14.4889Z" fill="#4F4F4F"/>
<path d="M18.1004 12.8V15.9111C18.1004 15.9602 18.0606 16 18.0115 16H16.5892C16.5402 16 16.5004 16.0398 16.5004 16.0889V20.7111C16.5004 20.7602 16.4606 20.8 16.4115 20.8H14.9892C14.9401 20.8 14.9003 20.7602 14.9003 20.7111V16.0889C14.9003 16.0398 14.8606 16 14.8114 16H13.3891C13.3401 16 13.3003 16.0398 13.3003 16.0889V17.5112C13.3003 17.5602 13.2605 17.6 13.2114 17.6H11.7891C11.74 17.6 11.7002 17.5602 11.7002 17.5112V8.08887C11.7002 8.03981 11.7399 8 11.7891 8H13.2114C13.2604 8 13.3003 8.03975 13.3003 8.08887V11.1112C13.3003 11.1602 13.34 11.2001 13.3891 11.2001H14.8114C14.8605 11.2001 14.9003 11.2398 14.9003 11.2889V12.7112C14.9003 12.7603 14.9401 12.8001 14.9892 12.8001H18.1004V12.8Z" fill="#4F4F4F"/>
<path d="M21.2996 11.2888V12.7111C21.2996 12.7602 21.2598 12.8 21.2107 12.8H18.0996V11.2889C18.0996 11.2398 18.1394 11.2 18.1885 11.2H21.2108C21.2598 11.1999 21.2996 11.2397 21.2996 11.2888Z" fill="#4F4F4F"/>
<path d="M30.9892 12.7999H32.4115C32.4606 12.7999 32.5004 12.7601 32.5004 12.7111V11.2888C32.5004 11.2397 32.4606 11.1999 32.4115 11.1999H24.5893C24.5403 11.1999 24.5004 11.2397 24.5004 11.2888V12.7111C24.5004 12.7601 24.4606 12.7999 24.4116 12.7999H22.9893C22.9402 12.7999 22.9004 12.8398 22.9004 12.8888V14.3111C22.9004 14.3602 22.9402 14.4 22.9893 14.4H24.4116C24.4606 14.4 24.5004 14.4398 24.5004 14.4889V15.9112C24.5004 15.9603 24.5403 16.0001 24.5893 16.0001H29.2116C29.2607 16.0001 29.3005 16.0399 29.3005 16.0889V17.5999H32.4116C32.4607 17.5999 32.5005 17.5602 32.5005 17.5111V16.0888C32.5005 16.0397 32.4607 15.9999 32.4116 15.9999H30.9893C30.9402 15.9999 30.9004 15.9601 30.9004 15.911V12.8887C30.9004 12.8398 30.9402 12.7999 30.9892 12.7999V12.7999ZM29.3004 14.3111C29.3004 14.3601 29.2606 14.3999 29.2116 14.3999H27.7892C27.7402 14.3999 27.7004 14.3602 27.7004 14.3111V12.8888C27.7004 12.8397 27.7402 12.7999 27.7892 12.7999H29.2116C29.2606 12.7999 29.3004 12.8397 29.3004 12.8888V14.3111Z" fill="#4F4F4F"/>
<path d="M3.69999 19.2V20.7111C3.69999 20.7602 3.66024 20.8 3.61111 20.8H0.588875C0.53975 20.8 0.5 20.7602 0.5 20.7111V17.6888C0.5 17.6397 0.53975 17.5999 0.588875 17.5999H2.01118C2.06024 17.5999 2.10006 17.6397 2.10006 17.6888V19.1111C2.10006 19.1602 2.13981 19.2 2.18893 19.2H3.69999Z" fill="#4F4F4F"/>
<path d="M5.30019 17.6889V19.1112C5.30019 19.1602 5.26044 19.2001 5.21131 19.2001H3.7002V17.6889C3.7002 17.6399 3.73995 17.6001 3.78907 17.6001H5.21138C5.26044 17.6 5.30019 17.6398 5.30019 17.6889V17.6889Z" fill="#4F4F4F"/>
<path d="M10.1889 17.5999H11.7V19.111C11.7 19.1601 11.6601 19.1999 11.611 19.1999H10.1888C10.1397 19.1999 10.0999 19.2397 10.0999 19.2889V20.711C10.0999 20.7602 10.0601 20.8 10.011 20.8H6.98878C6.93966 20.8 6.89985 20.7602 6.89985 20.711V16.0889C6.89985 16.0398 6.86004 15.9999 6.81091 15.9999H5.38892C5.33979 15.9999 5.29998 15.9601 5.29998 15.911V12.8888C5.29998 12.8397 5.26017 12.7999 5.21104 12.7999H2.18893C2.13981 12.7999 2.09999 12.8397 2.09999 12.8888V15.9111C2.09999 15.9601 2.06024 15.9999 2.01112 15.9999H0.588937C0.539812 15.9999 0.5 15.9601 0.5 15.911V11.2888C0.5 11.2397 0.539812 11.1999 0.588937 11.1999H6.8111C6.86022 11.1999 6.90004 11.2397 6.90004 11.2888V12.711C6.90004 12.7601 6.93985 12.7999 6.98897 12.7999H8.49997V15.911C8.49997 15.9601 8.53978 15.9999 8.5889 15.9999H10.0111C10.0602 15.9999 10.1 16.0398 10.1 16.0889V17.5111C10.1 17.5601 10.1398 17.5999 10.1889 17.5999V17.5999Z" fill="#4F4F4F"/>
<path d="M29.2997 17.6V19.1111C29.2997 19.1602 29.2598 19.2 29.2108 19.2H26.1885C26.1394 19.2 26.0996 19.1602 26.0996 19.1111V17.6888C26.0996 17.6397 26.1394 17.5999 26.1885 17.5999H29.2997V17.6Z" fill="#4F4F4F"/>
<path d="M30.8996 20.8888V23.9111C30.8996 23.9602 30.8597 24 30.8107 24H29.3884C29.3393 24 29.2995 23.9602 29.2995 23.9111V22.4888C29.2995 22.4397 29.2597 22.3999 29.2106 22.3999H26.1883C26.1393 22.3999 26.0995 22.4397 26.0995 22.4888V23.9111C26.0995 23.9602 26.0596 24 26.0106 24H19.7883C19.7392 24 19.6994 24.0398 19.6994 24.0889V25.5112C19.6994 25.5602 19.6596 25.6 19.6105 25.6H18.0996V17.6888C18.0996 17.6397 18.1394 17.5999 18.1885 17.5999H19.6108C19.6599 17.5999 19.6997 17.6397 19.6997 17.6888V20.7111C19.6997 20.7602 19.7395 20.8 19.7885 20.8H21.2108C21.2599 20.8 21.2997 20.7602 21.2997 20.7111V15.9999H22.8108C22.8599 15.9999 22.8997 16.0398 22.8997 16.0888V17.5111C22.8997 17.5602 22.9395 17.6 22.9886 17.6H24.4109C24.46 17.6 24.4998 17.6398 24.4998 17.6889V20.7112C24.4998 20.7602 24.5396 20.8001 24.5886 20.8001H30.8109C30.8597 20.7999 30.8996 20.8397 30.8996 20.8888V20.8888Z" fill="#4F4F4F"/>
<path d="M32.5004 24.0888V25.5111C32.5004 25.5601 32.4606 25.5999 32.4115 25.5999H30.9004V23.9999H32.4115C32.4606 23.9999 32.5004 24.0397 32.5004 24.0888V24.0888Z" fill="#4F4F4F"/>
<path d="M19.7002 27.2888V30.3111C19.7002 30.3601 19.6604 30.3999 19.6114 30.3999H16.5002V27.2888C16.5002 27.2398 16.4605 27.1999 16.4114 27.1999H13.3003V22.4888C13.3003 22.4398 13.2605 22.4 13.2114 22.4H11.7891C11.74 22.4 11.7002 22.3601 11.7002 22.3111V20.8888C11.7002 20.8397 11.7399 20.7999 11.7891 20.7999H14.8114C14.8604 20.7999 14.9002 20.8397 14.9002 20.8888V25.5111C14.9002 25.5601 14.94 25.5999 14.9891 25.5999H18.1002V27.1111C18.1002 27.1601 18.14 27.1999 18.1891 27.1999H19.6114C19.6604 27.1999 19.7002 27.2396 19.7002 27.2888Z" fill="#4F4F4F"/>
<path d="M22.8998 25.6888V28.7999H21.3887C21.3396 28.7999 21.2998 28.7601 21.2998 28.7111V25.6888C21.2998 25.6397 21.3396 25.5999 21.3887 25.5999H22.811C22.86 25.5999 22.8998 25.6397 22.8998 25.6888V25.6888Z" fill="#4F4F4F"/>
<path d="M16.5002 30.3999V31.9111C16.5002 31.9601 16.4605 31.9999 16.4114 31.9999H11.7891C11.74 31.9999 11.7002 31.9601 11.7002 31.9111V27.2888C11.7002 27.2397 11.7399 27.1999 11.7891 27.1999H13.3003V28.711C13.3003 28.7601 13.34 28.7999 13.3891 28.7999H14.8114C14.8605 28.7999 14.9003 28.8397 14.9003 28.8888V30.3111C14.9003 30.3601 14.9401 30.3999 14.9892 30.3999H16.5002Z" fill="#4F4F4F"/>
<path d="M10.0111 22.4H0.588875C0.539812 22.4 0.5 22.4397 0.5 22.4889V31.9112C0.5 31.9602 0.539812 32 0.588875 32H10.0111C10.0602 32 10.1 31.9602 10.1 31.9111V22.4889C10.1 22.4397 10.0602 22.4 10.0111 22.4ZM8.49997 30.3111C8.49997 30.3602 8.46015 30.4 8.41109 30.4H2.18887C2.13981 30.4 2.09999 30.3602 2.09999 30.3111V24.0888C2.09999 24.0397 2.13974 23.9999 2.18887 23.9999H8.41115C8.46022 23.9999 8.50003 24.0397 8.50003 24.0888V30.3111H8.49997Z" fill="#4F4F4F"/>
<path d="M6.90018 25.6889V28.7112C6.90018 28.7602 6.86043 28.8 6.81131 28.8H3.78907C3.74001 28.8 3.7002 28.7602 3.7002 28.7112V25.6889C3.7002 25.6398 3.73995 25.6 3.78907 25.6H6.81137C6.86043 25.6 6.90018 25.6397 6.90018 25.6889V25.6889Z" fill="#4F4F4F"/>
<path d="M30.9005 25.5999V27.1111C30.9005 27.1601 30.8607 27.1999 30.8116 27.1999H27.7893C27.7402 27.1999 27.7004 27.2398 27.7004 27.2888V28.7999H26.1893C26.1403 28.7999 26.1004 28.8397 26.1004 28.8888V31.9111C26.1004 31.9602 26.0606 32 26.0116 32H22.9893C22.9402 32 22.9004 31.9602 22.9004 31.9111V28.7999H24.4115C24.4606 28.7999 24.5004 28.7601 24.5004 28.7111V25.6888C24.5004 25.6397 24.5402 25.5999 24.5893 25.5999H30.9005V25.5999Z" fill="#4F4F4F"/>
<path d="M32.5003 28.8888V31.9111C32.5003 31.9601 32.4605 31.9999 32.4114 31.9999H29.3891C29.3401 31.9999 29.3003 31.9601 29.3003 31.9111V30.4888C29.3003 30.4397 29.2604 30.3999 29.2114 30.3999H27.7891C27.74 30.3999 27.7002 30.3601 27.7002 30.311V28.7999H32.4113C32.4605 28.7999 32.5003 28.8397 32.5003 28.8888V28.8888Z" fill="#4F4F4F"/>
</svg>
