<svg width="18" height="18" viewBox="0 0 18 18" fill="none" xmlns="http://www.w3.org/2000/svg">
<path d="M9 0C4.03754 0 0 4.03754 0 9C0 13.9625 4.03754 18 9 18C13.9625 18 18 13.9625 18 9C18 4.03754 13.9625 0 9 0ZM9 13.8462C8.61715 13.8462 8.30769 13.536 8.30769 13.1538C8.30769 12.7717 8.61715 12.4615 9 12.4615C9.38285 12.4615 9.69231 12.7717 9.69231 13.1538C9.69231 13.536 9.38285 13.8462 9 13.8462ZM9.69231 9.60508V10.3846C9.69231 10.7668 9.38285 11.0769 9 11.0769C8.61715 11.0769 8.30769 10.7668 8.30769 10.3846V9C8.30769 8.61785 8.61715 8.30769 9 8.30769C9.76362 8.30769 10.3846 7.68669 10.3846 6.92308C10.3846 6.15946 9.76362 5.53846 9 5.53846C8.23638 5.53846 7.61539 6.15946 7.61539 6.92308C7.61539 7.30523 7.30592 7.61539 6.92308 7.61539C6.54023 7.61539 6.23077 7.30523 6.23077 6.92308C6.23077 5.39585 7.47277 4.15385 9 4.15385C10.5272 4.15385 11.7692 5.39585 11.7692 6.92308C11.7692 8.21077 10.8858 9.29631 9.69231 9.60508Z" fill="#DBDBDB"/>
</svg>
