<svg width="16" height="16" xmlns="http://www.w3.org/2000/svg">
 <title/>
 <desc/>

 <g>
  <title>background</title>
  <rect fill="none" id="canvas_background" height="402" width="582" y="-1" x="-1"/>
 </g>
 <g>
  <title>Layer 1</title>
  <path fill="#ffffff" id="Shape" d="m13.600006,2.399994c-1.399994,-1.5 -3.399994,-2.399994 -5.600006,-2.399994c-4.399994,0 -8,3.600006 -8,8c0,4.399994 3.600006,8 8,8c3.700012,0 6.799988,-2.600006 7.700012,-6l-2.100006,0c-0.800018,2.299988 -3,4 -5.600006,4c-3.299988,0 -6,-2.700012 -6,-6c0,-3.299988 2.700012,-6 6,-6c1.700012,0 3.100006,0.700012 4.200012,1.799988l-3.200012,3.200012l7,0l0,-7l-2.399994,2.399994l0,0z"/>
 </g>
</svg>