<svg width="23" height="16" viewBox="0 0 23 16" fill="none" xmlns="http://www.w3.org/2000/svg">
<path d="M1.04546 8.98771H19.431L13.8974 14.2807C13.7975 14.373 13.7179 14.4833 13.6631 14.6053C13.6083 14.7273 13.5794 14.8585 13.5782 14.9913C13.577 15.1241 13.6035 15.2558 13.656 15.3787C13.7086 15.5016 13.7862 15.6132 13.8844 15.7071C13.9826 15.801 14.0993 15.8753 14.2278 15.9255C14.3563 15.9758 14.4939 16.0011 14.6327 16C14.7716 15.9988 14.9087 15.9712 15.0363 15.9188C15.1638 15.8664 15.2792 15.7902 15.3756 15.6947L22.6939 8.69471C22.8899 8.50718 23 8.25288 23 7.98771C23 7.72255 22.8899 7.46824 22.6939 7.28071L15.3756 0.280711C15.1785 0.0985527 14.9144 -0.00224113 14.6403 3.71933e-05C14.3662 0.00231552 14.1039 0.107485 13.9101 0.292893C13.7163 0.478302 13.6063 0.729115 13.6039 0.991311C13.6015 1.25351 13.7069 1.50611 13.8974 1.69471L19.431 6.98771H1.04546C0.768188 6.98771 0.50227 7.09307 0.306208 7.28061C0.110146 7.46814 -1.90735e-06 7.7225 -1.90735e-06 7.98771C-1.90735e-06 8.25293 0.110146 8.50728 0.306208 8.69482C0.50227 8.88235 0.768188 8.98771 1.04546 8.98771Z" fill="#040404"/>
</svg>
