<svg width="31" height="21" viewBox="0 0 31 21" fill="none" xmlns="http://www.w3.org/2000/svg">
<path d="M1.40911 11.7964L26.1896 11.7964L18.7312 18.7434C18.5966 18.8645 18.4893 19.0093 18.4154 19.1695C18.3416 19.3296 18.3027 19.5018 18.3011 19.6761C18.2995 19.8504 18.3351 20.0232 18.406 20.1845C18.4768 20.3458 18.5815 20.4923 18.7138 20.6156C18.8461 20.7388 19.0034 20.8363 19.1766 20.9023C19.3497 20.9683 19.5353 21.0015 19.7224 21C19.9095 20.9984 20.0944 20.9622 20.2663 20.8934C20.4382 20.8247 20.5937 20.7247 20.7237 20.5993L30.5874 11.4118C30.8516 11.1657 31 10.8319 31 10.4839C31 10.1358 30.8516 9.80206 30.5874 9.55593L20.7237 0.368432C20.4579 0.12935 20.102 -0.00294256 19.7325 4.78939e-05C19.3631 0.00303835 19.0097 0.141074 18.7484 0.384422C18.4871 0.62777 18.3389 0.956962 18.3357 1.3011C18.3325 1.64523 18.4745 1.97677 18.7312 2.22431L26.1896 9.17137L1.40911 9.17137C1.03539 9.17137 0.676976 9.30965 0.412718 9.5558C0.14846 9.80194 1.80577e-06 10.1358 1.8362e-06 10.4839C1.86663e-06 10.832 0.14846 11.1658 0.412718 11.412C0.676976 11.6581 1.03539 11.7964 1.40911 11.7964Z" fill="white"/>
</svg>
