<svg width="10" height="15" viewBox="0 0 10 15" fill="none" xmlns="http://www.w3.org/2000/svg">
<path d="M1.13418 0.000257583C0.913089 -0.00460514 0.695977 0.0594857 0.513028 0.183718C0.330079 0.307951 0.190383 0.486185 0.113362 0.693482C0.0363403 0.900778 0.0258212 1.12689 0.0832663 1.34044C0.140711 1.55399 0.263266 1.74425 0.433893 1.88493L6.94425 7.46227L0.433893 13.0376C0.315862 13.1244 0.217014 13.2345 0.143539 13.3612C0.0700644 13.488 0.0235458 13.6285 0.00689602 13.7741C-0.00975378 13.9196 0.0038243 14.067 0.0467798 14.207C0.0897353 14.347 0.161142 14.4767 0.25653 14.5879C0.351918 14.6991 0.469231 14.7893 0.601123 14.853C0.733015 14.9167 0.876645 14.9525 1.02302 14.9581C1.16939 14.9638 1.31535 14.9392 1.45176 14.8859C1.58817 14.8325 1.71209 14.7515 1.81576 14.648L9.26953 8.2706C9.38658 8.17071 9.48058 8.04672 9.54503 7.90699C9.60948 7.76726 9.64286 7.61517 9.64286 7.46129C9.64286 7.3074 9.60948 7.15531 9.54503 7.01558C9.48058 6.87585 9.38658 6.75174 9.26953 6.65185L1.81576 0.26827C1.62747 0.101022 1.38595 0.0059375 1.13418 1.21504e-05V0.000257583Z" fill="white"/>
</svg>
