<svg width="39" height="39" viewBox="0 0 39 39" fill="none" xmlns="http://www.w3.org/2000/svg">
<circle cx="19.5" cy="19.5" r="19.5" fill="#F2F2F2"/>
<path fill-rule="evenodd" clip-rule="evenodd" d="M5.23129 14.2416C5.06556 14.3293 5.02936 14.3699 4.99497 14.5065C4.9741 14.5894 4.96387 15.1593 4.96387 16.2387V17.8474H5.18942H5.41498V16.4979C5.41498 15.698 5.42671 15.0866 5.44377 14.9966C5.48197 14.7949 5.57667 14.7002 5.77829 14.662C5.86804 14.645 6.47069 14.6332 7.25145 14.6332H8.57276V14.4077V14.1821H6.9582C5.37012 14.1821 5.34181 14.1831 5.23129 14.2416ZM6.40435 16.0373C6.35149 16.0637 6.29439 16.1106 6.27748 16.1416C6.26056 16.1727 6.23727 16.2051 6.22571 16.2137C6.15689 16.2651 6.14569 16.8277 6.1537 19.8351C6.16185 22.8846 6.16399 22.9967 6.21632 23.1021C6.32033 23.3116 6.21029 23.3021 8.6221 23.3109L10.7719 23.3188V22.4454V21.5721L9.42091 21.5635C8.67787 21.5588 8.05934 21.5444 8.04642 21.5315C8.03354 21.5186 8.01922 20.2657 8.01462 18.7473L8.00628 15.9866L7.25337 15.9879C6.60267 15.9891 6.48741 15.9958 6.40435 16.0373ZM8.91109 16.8875V17.7885L10.2489 17.7968C11.2998 17.8033 11.5947 17.813 11.6234 17.8417C11.6522 17.8705 11.6618 18.1654 11.6684 19.2162L11.6767 20.5541H12.5777H13.4786V18.4029V16.2518L13.3729 16.1489C13.3045 16.0823 13.2223 16.0358 13.1403 16.017C13.0596 15.9985 12.2657 15.9877 10.9622 15.9873L8.91109 15.9866V16.8875ZM14.268 16.8324V17.6782H16.9465H19.625V18.2139V18.7496H16.9465H14.268V21.0334V23.3171H15.1139H15.9597V21.9215C15.9597 21.1539 15.967 20.5259 15.976 20.5259C16.0211 20.5259 16.4647 20.9374 17.71 22.1345C18.0577 22.4687 18.4839 22.8715 18.6571 23.0296L18.9721 23.3171H20.2631H21.5542L21.4143 23.1732C21.3373 23.0941 21.1602 22.927 21.0206 22.8021C20.8811 22.677 20.6068 22.4214 20.411 22.234C20.2153 22.0466 19.8285 21.684 19.5514 21.4281C18.8772 20.8056 18.5818 20.5151 18.5818 20.4747C18.5818 20.4494 18.9459 20.4413 20.0902 20.4413H21.5986V18.2139V15.9866H17.9333H14.268V16.8324ZM22.3317 19.6519V23.3171H23.2339H24.1361V19.6519V15.9866H23.2339H22.3317V19.6519ZM24.9256 18.2703V20.5541H27.3221H29.7186V21.0052V21.4563H27.3221H24.9256V22.3585V23.2607H28.5344H32.1433V20.977V18.6932H29.7186H27.2939V18.3039C27.2939 18.0122 27.3039 17.9008 27.3339 17.8598C27.3729 17.8065 27.4355 17.8049 29.7586 17.7969L32.1433 17.7886V16.8876V15.9866H28.5344H24.9256V18.2703ZM8.91109 19.6237V20.5541H9.81332H10.7155V19.6237V18.6932H9.81332H8.91109V19.6237ZM10.208 19.6237V19.9902H9.84151H9.47498V19.6237V19.2571H9.84151H10.208V19.6237ZM11.6742 23.3171V25.178H12.5764H13.4786V23.3171V21.4563H12.5764H11.6742V23.3171ZM32.9328 22.7126C32.9328 24.2402 32.9098 24.4457 32.7253 24.5666C32.5935 24.653 32.3107 24.67 31.0085 24.6702L29.7186 24.6705V24.896V25.1216H31.2679C33.1744 25.1216 33.2 25.1179 33.285 24.8314C33.3207 24.7113 33.3275 24.4295 33.3275 23.0724V21.4563H33.1301H32.9328V22.7126Z" fill="#00A79D"/>
<path fill-rule="evenodd" clip-rule="evenodd" d="M10.7156 18.6929H8.91113V20.5537H10.7156V18.6929ZM10.2083 19.2565H9.47524V19.9896H10.2083V19.2565Z" fill="#F4B13E"/>
</svg>
