<svg width="39" height="39" viewBox="0 0 39 39" fill="none" xmlns="http://www.w3.org/2000/svg">
<circle cx="19.5" cy="19.5" r="19.5" fill="#F2F2F2"/>
<path d="M32.3093 15.7329V28.2645C32.3093 29.8082 31.038 31.0796 29.4942 31.0796H13.1486C11.6957 31.0796 10.4244 30.6255 9.33465 29.8082C7.7909 28.7185 6.88281 26.9023 6.88281 24.9046V13.8259C6.88281 9.55786 10.606 7.65088 13.0578 7.65088H25.771C27.3148 7.65088 28.5861 8.9222 28.5861 10.466V14.734H31.3104C32.1277 14.734 32.3093 15.3696 32.3093 15.7329Z" fill="#02C1B6"/>
<path d="M25.9528 24.722C27.4574 24.722 28.677 23.5023 28.677 21.9977C28.677 20.4931 27.4574 19.2734 25.9528 19.2734C24.4482 19.2734 23.2285 20.4931 23.2285 21.9977C23.2285 23.5023 24.4482 24.722 25.9528 24.722Z" fill="#F1F2F2"/>
<path d="M25.953 22.906C26.4545 22.906 26.8611 22.4995 26.8611 21.9979C26.8611 21.4964 26.4545 21.0898 25.953 21.0898C25.4515 21.0898 25.0449 21.4964 25.0449 21.9979C25.0449 22.4995 25.4515 22.906 25.953 22.906Z" fill="#00A79D"/>
<path d="M28.677 10.4652V14.7332H11.4234C9.42557 14.7332 7.79102 13.0986 7.79102 11.01C7.79102 9.46627 10.6969 7.55929 13.0579 7.6501H25.7712C27.4057 7.6501 28.677 8.92142 28.677 10.4652Z" fill="#00A79D"/>
<path d="M32.3088 22.27V28.2634C32.3088 29.8072 31.0375 31.0785 29.4938 31.0785H13.1482C11.6952 31.0785 28.9489 30.2612 32.3088 22.27Z" fill="#00A79D"/>
</svg>
