<svg width="36" height="36" viewBox="0 0 36 36" fill="none" xmlns="http://www.w3.org/2000/svg">
<circle cx="18" cy="18" r="18" fill="#00A79D"/>
<path fill-rule="evenodd" clip-rule="evenodd" d="M4.82888 13.1457C4.67591 13.2267 4.64249 13.2641 4.61074 13.3902C4.59148 13.4667 4.58203 13.9929 4.58203 14.9892V16.4742H4.79024H4.99844V15.2285C4.99844 14.4901 5.00927 13.9257 5.02501 13.8426C5.06028 13.6565 5.1477 13.5691 5.33381 13.5338C5.41665 13.5181 5.97295 13.5072 6.69365 13.5072H7.91332V13.299V13.0908H6.42296C4.95704 13.0908 4.93091 13.0917 4.82888 13.1457ZM5.91171 14.8033C5.86291 14.8276 5.81021 14.871 5.79459 14.8996C5.77898 14.9282 5.75748 14.9582 5.74681 14.9661C5.68328 15.0135 5.67295 15.5329 5.68034 18.309C5.68786 21.1238 5.68984 21.2273 5.73814 21.3246C5.83415 21.5181 5.73257 21.5092 7.95886 21.5174L9.94332 21.5247V20.7185V19.9123L8.69622 19.9044C8.01034 19.9001 7.43939 19.8868 7.42747 19.8749C7.41558 19.8629 7.40235 18.7064 7.39811 17.3048L7.39041 14.7565L6.69542 14.7577C6.09477 14.7588 5.98838 14.765 5.91171 14.8033ZM8.22562 15.5881V16.4197L9.46057 16.4274C10.4305 16.4335 10.7028 16.4424 10.7293 16.4689C10.7559 16.4955 10.7648 16.7677 10.7708 17.7377L10.7785 18.9726H11.6102H12.4418V16.9869V15.0013L12.3442 14.9063C12.281 14.8448 12.2052 14.8019 12.1295 14.7845C12.055 14.7675 11.3222 14.7575 10.119 14.7571L8.22562 14.7565V15.5881ZM13.1705 15.5372V16.318H15.6429H18.1154V16.8125V17.307H15.6429H13.1705V19.4151V21.5231H13.9513H14.732V20.2349C14.732 19.5263 14.7388 18.9466 14.7471 18.9466C14.7887 18.9466 15.1982 19.3264 16.3477 20.4314C16.6686 20.7399 17.062 21.1118 17.2219 21.2578L17.5127 21.5231H18.7044H19.8962L19.767 21.3903C19.696 21.3172 19.5325 21.163 19.4036 21.0477C19.2748 20.9323 19.0216 20.6963 18.8409 20.5234C18.6603 20.3504 18.3032 20.0156 18.0474 19.7794C17.4252 19.2048 17.1524 18.9366 17.1524 18.8994C17.1524 18.876 17.4885 18.8685 18.5448 18.8685H19.9372V16.8125V14.7565H16.5538H13.1705V15.5372ZM20.6138 18.1398V21.5231H21.4467H22.2795V18.1398V14.7565H21.4467H20.6138V18.1398ZM23.0082 16.8645V18.9726H25.2204H27.4326V19.389V19.8054H25.2204H23.0082V20.6383V21.4711H26.3395H29.6708V19.363V17.2549H27.4326H25.1944V16.8955C25.1944 16.6263 25.2036 16.5235 25.2313 16.4856C25.2673 16.4364 25.3251 16.4349 27.4695 16.4275L29.6708 16.4199V15.5882V14.7565H26.3395H23.0082V16.8645ZM8.22562 18.1138V18.9726H9.05845H9.89127V18.1138V17.2549H9.05845H8.22562V18.1138ZM9.4228 18.1138V18.4521H9.08447H8.74614V18.1138V17.7754H9.08447H9.4228V18.1138ZM10.7761 21.5231V23.2408H11.609H12.4418V21.5231V19.8054H11.609H10.7761V21.5231ZM30.3995 20.9651C30.3995 22.3752 30.3783 22.5649 30.208 22.6765C30.0863 22.7562 29.8253 22.772 28.6232 22.7722L27.4326 22.7724V22.9806V23.1888H28.8627C30.6226 23.1888 30.6461 23.1854 30.7247 22.9209C30.7576 22.8101 30.7638 22.5499 30.7638 21.2972V19.8054H30.5817H30.3995V20.9651Z" fill="white"/>
<path fill-rule="evenodd" clip-rule="evenodd" d="M9.89123 17.2549H8.22559V18.9726H9.89123V17.2549ZM9.42322 17.7753H8.74656V18.452H9.42322V17.7753Z" fill="#F4B13E"/>
</svg>
