<svg width="512" height="512" viewBox="0 0 512 512" fill="none" xmlns="http://www.w3.org/2000/svg">
<g clip-path="url(#clip0)">
<path d="M490.667 170.667C478.891 170.667 469.333 161.131 469.333 149.333V64C469.333 52.224 459.755 42.6667 448 42.6667H362.667C350.891 42.6667 341.333 33.1307 341.333 21.3333C341.333 9.536 350.891 0 362.667 0H448C483.286 0 512 28.7147 512 64V149.333C512 161.131 502.443 170.667 490.667 170.667Z" fill="#5C76F5"/>
<path d="M448 512H362.667C350.891 512 341.333 502.464 341.333 490.667C341.333 478.869 350.891 469.333 362.667 469.333H448C459.755 469.333 469.333 459.776 469.333 448V362.667C469.333 350.869 478.891 341.333 490.667 341.333C502.443 341.333 512 350.869 512 362.667V448C512 483.285 483.286 512 448 512Z" fill="#5C76F5"/>
<path d="M149.333 512H64C28.7147 512 0 483.285 0 448V362.667C0 350.869 9.55733 341.333 21.3333 341.333C33.1093 341.333 42.6667 350.869 42.6667 362.667V448C42.6667 459.776 52.2453 469.333 64 469.333H149.333C161.109 469.333 170.667 478.869 170.667 490.667C170.667 502.464 161.109 512 149.333 512Z" fill="#5C76F5"/>
<path d="M21.3333 170.667C9.55733 170.667 0 161.131 0 149.333V64C0 28.7147 28.7147 0 64 0H149.333C161.109 0 170.667 9.536 170.667 21.3333C170.667 33.1307 161.109 42.6667 149.333 42.6667H64C52.2453 42.6667 42.6667 52.224 42.6667 64V149.333C42.6667 161.131 33.1093 170.667 21.3333 170.667Z" fill="#5C76F5"/>
<path d="M384 234.667C372.224 234.667 362.667 225.131 362.667 213.333V149.333H149.333V213.333C149.333 225.131 139.776 234.667 128 234.667C116.224 234.667 106.667 225.131 106.667 213.333V149.333C106.667 125.803 125.803 106.667 149.333 106.667H362.667C386.197 106.667 405.333 125.803 405.333 149.333V213.333C405.333 225.131 395.776 234.667 384 234.667Z" fill="#5C76F5"/>
<path d="M448 298.667C448 310.464 438.443 320 426.667 320H405.333V362.667C405.333 386.197 386.197 405.333 362.667 405.333H149.333C125.803 405.333 106.667 386.197 106.667 362.667V320H85.3333C73.5573 320 64 310.464 64 298.667C64 286.869 73.5573 277.333 85.3333 277.333H426.667C438.443 277.333 448 286.869 448 298.667Z" fill="#5C76F5"/>
</g>
<defs>
<clipPath id="clip0">
<rect width="512" height="512" fill="white"/>
</clipPath>
</defs>
</svg>
