<svg width="22" height="22" viewBox="0 0 22 22" fill="none" xmlns="http://www.w3.org/2000/svg">
<path d="M6.07437 5.00671C5.75709 4.68917 5.24232 4.68917 4.92503 5.00671C3.74699 6.18475 3.16798 7.82583 3.33625 9.50944C3.37823 9.92886 3.73157 10.2415 4.1442 10.2415C4.17131 10.2415 4.19864 10.2401 4.22575 10.2374C4.67255 10.1927 4.99847 9.79416 4.95378 9.34766C4.83402 8.15119 5.24262 6.9878 6.07437 6.15601C6.39191 5.83876 6.39191 5.32395 6.07437 5.00671Z" fill="#DFDFDF"/>
<path d="M9.29318 0C4.1689 0 0 4.1689 0 9.29318C0 14.4175 4.1689 18.5864 9.29318 18.5864C14.4175 18.5864 18.5864 14.4175 18.5864 9.29318C18.5864 4.1689 14.4174 0 9.29318 0ZM9.29318 16.9607C5.0652 16.9607 1.62565 13.5212 1.62565 9.29318C1.62565 5.0652 5.0652 1.62565 9.29318 1.62565C13.5209 1.62565 16.9607 5.0652 16.9607 9.29318C16.9607 13.5212 13.5212 16.9607 9.29318 16.9607Z" fill="#DFDFDF"/>
<path d="M21.762 20.6124L15.8555 14.7059C15.538 14.3884 15.0237 14.3884 14.7062 14.7059C14.3886 15.0232 14.3886 15.538 14.7062 15.8553L20.6127 21.7617C20.7714 21.9205 20.9792 21.9998 21.1873 21.9998C21.3954 21.9998 21.6032 21.9205 21.762 21.7617C22.0795 21.4444 22.0795 20.9297 21.762 20.6124Z" fill="#DFDFDF"/>
</svg>
