<svg width="21" height="21" viewBox="0 0 21 21" fill="none" xmlns="http://www.w3.org/2000/svg">
<path d="M12.5481 16.8974C10.6711 16.8974 8.84781 16.2711 7.36699 15.1175L1.78031 20.7051C1.36296 21.1082 0.697947 21.0966 0.294888 20.6792C-0.0982971 20.272 -0.0982971 19.6265 0.294888 19.2194L5.88157 13.6319C3.01952 9.94711 3.68599 4.63951 7.37022 1.77703C11.0544 -1.08545 16.3612 -0.418879 19.2232 3.26591C22.0853 6.95069 21.4188 12.2583 17.7346 15.1208C16.2514 16.2732 14.4264 16.8984 12.5481 16.8974ZM17.037 3.96038C14.5578 1.48081 10.5384 1.48076 8.05917 3.96029C5.57998 6.43981 5.57993 10.4599 8.05908 12.9395C10.5382 15.419 14.5577 15.4191 17.0369 12.9396C17.0369 12.9395 17.0369 12.9395 17.037 12.9395C19.5161 10.478 19.5307 6.47257 17.0697 3.99305C17.0588 3.98213 17.0479 3.97125 17.037 3.96038Z" fill="white"/>
</svg>
