<svg width="19" height="19" viewBox="0 0 19 19" fill="none" xmlns="http://www.w3.org/2000/svg">
<g clip-path="url(#clip0)">
<path d="M7.6469 15.2887C9.34515 15.2888 10.9948 14.7222 12.3346 13.6786L17.3892 18.7332C17.7668 19.0979 18.3685 19.0874 18.7332 18.7098C19.0889 18.3415 19.0889 17.7576 18.7332 17.3893L13.6786 12.3347C16.268 9.00132 15.665 4.19994 12.3317 1.61047C8.99835 -0.978996 4.19701 -0.375998 1.60754 2.95735C-0.981925 6.29069 -0.378928 11.0921 2.95442 13.6815C4.29639 14.7241 5.94754 15.2896 7.6469 15.2887ZM3.58557 3.58558C5.82861 1.34251 9.46528 1.34246 11.7084 3.5855C13.9514 5.82853 13.9515 9.46521 11.7084 11.7083C9.46541 13.9514 5.82873 13.9514 3.58566 11.7084C3.58562 11.7083 3.58562 11.7083 3.58557 11.7083C1.34254 9.48159 1.32932 5.85817 3.55602 3.61514C3.56585 3.60526 3.57569 3.59542 3.58557 3.58558Z" fill="black"/>
</g>
<defs>
<clipPath id="clip0">
<rect width="19" height="19" fill="white"/>
</clipPath>
</defs>
</svg>
