<svg width="63" height="63" viewBox="0 0 63 63" fill="none" xmlns="http://www.w3.org/2000/svg">
<path d="M55.118 61.3893L44.3849 50.6561C39.7752 44.7821 47.4791 41.2548 41.7543 28.8299C40.7521 25.9805 39.4411 22.2556 39.4342 22.2361C38.7023 20.1569 37.3153 18.358 35.5019 17.1172L35.5031 6.06717V6.0668C35.5031 3.39653 33.452 1.22412 30.9307 1.22412H12.1881C9.66683 1.22412 7.61572 3.39653 7.61572 6.0668V13.0241C7.61572 13.5408 8.03448 13.9595 8.55117 13.9595C9.06785 13.9595 9.48661 13.5408 9.48661 13.0241V9.98462H33.631V39.8255L29.3321 37.1462V31.9851C29.3321 28.9338 27.5638 26.2887 24.9987 25.0174C26.3588 24.0849 27.3241 22.6166 27.5865 20.9189H30.7301C31.2468 20.9189 31.6655 20.5001 31.6655 19.9834C31.6655 19.4668 31.2468 19.048 30.7301 19.048H27.5865C27.1351 16.1269 24.6038 13.8834 21.5582 13.8834C18.5126 13.8834 15.9813 16.1269 15.5298 19.048H12.3863C11.8696 19.048 11.4509 19.4668 11.4509 19.9834C11.4509 20.5001 11.8696 20.9189 12.3863 20.9189H15.5298C15.7924 22.617 16.7581 24.0858 18.1189 25.0183C15.5548 26.2898 13.7873 28.9344 13.7873 31.9851V41.6003H9.48661V18.148C9.48661 17.6313 9.06785 17.2125 8.55117 17.2125C8.03448 17.2125 7.61572 17.6313 7.61572 18.148V45.685C7.61572 48.3553 9.66683 50.5277 12.1881 50.5277H15.7787C16.6638 52.3971 18.1735 53.8796 20.0907 54.7395C26.1343 57.2832 26.9492 59.4577 30.9583 62.7459C31.1111 63.1508 34.2559 62.9377 34.5678 62.9861C35.0844 62.9861 35.5032 62.5673 35.5032 62.0506C35.5032 61.5339 35.0845 61.1152 34.5678 61.1152H31.9433L26.1248 55.877C26.3942 55.4042 19.03 52.8304 17.9162 50.5277C17.9162 50.5277 31.216 50.5197 31.3567 50.5059L33.3573 52.3576C34.2404 53.175 35.5147 51.8053 34.6282 50.9847L32.2964 48.8263C32.2962 48.8262 32.296 48.8261 32.2959 48.826L21.9472 39.2512C21.2025 38.4943 21.2203 37.2632 21.9654 36.5181C22.7453 35.738 23.7411 35.8637 24.6024 36.4029L33.9291 42.2157C34.5144 42.7619 35.502 42.3328 35.502 41.5325V19.5144C36.4724 20.4369 37.221 21.5829 37.6695 22.8572C38.4534 25.3262 41.6635 33.4624 41.9145 35.8769C43.1567 42.8777 38.3646 47.2402 43.0621 51.9791L52.1984 61.1153H38.9904C38.4738 61.1153 38.0549 61.534 38.0549 62.0507C38.0549 62.5674 38.4737 62.9862 38.9904 62.9862H54.4566C55.271 62.9862 55.6943 61.9656 55.118 61.3893ZM9.48661 8.11373V6.06668C9.48661 4.42793 10.6985 3.09489 12.1881 3.09489H30.9307C32.4202 3.09489 33.6321 4.42805 33.6322 6.06643L33.6314 8.11373H9.48661ZM21.5583 15.7543C23.5688 15.7543 25.2549 17.1648 25.6819 19.048H17.4346C17.8616 17.1648 19.5478 15.7543 21.5583 15.7543ZM25.6819 20.9189C25.2549 22.8021 23.5688 24.2126 21.5583 24.2126C19.5478 24.2126 17.8617 22.8021 17.4346 20.9189H25.6819ZM12.1881 48.6569C10.6985 48.6569 9.48661 47.3238 9.48661 45.6851V43.4711L23.7531 43.4714L29.3583 48.6569H12.1881ZM23.3348 34.0707C21.3082 34.0707 19.5751 35.7676 19.5205 37.7902C19.4737 39.5202 20.5754 40.5308 21.7309 41.6003H15.658V31.9851C15.658 28.731 18.3054 26.0836 21.5595 26.0836C24.8135 26.0836 27.4611 28.731 27.4611 31.9851V35.9802C26.2069 35.1983 24.8732 34.0707 23.3348 34.0707Z" fill="#757575"/>
<path d="M19.2108 45.0894C18.6942 45.0894 18.2754 45.5081 18.2754 46.0248C18.2754 46.5415 18.6942 46.9602 19.2108 46.9602H23.9087C24.4254 46.9602 24.8442 46.5415 24.8442 46.0248C24.8442 45.5081 24.4254 45.0894 23.9087 45.0894H19.2108Z" fill="#757575"/>
<path d="M23.2367 4.66895H19.8803C19.3636 4.66895 18.9448 5.08771 18.9448 5.60439C18.9448 6.12107 19.3636 6.53983 19.8803 6.53983H23.2367C23.7534 6.53983 24.1722 6.12107 24.1722 5.60439C24.1722 5.08771 23.7533 4.66895 23.2367 4.66895Z" fill="#757575"/>
<path d="M28.3966 4.61035C27.8478 4.61035 27.4028 5.05519 27.4028 5.60398C27.4028 6.15278 27.8477 6.59774 28.3966 6.59774C28.9454 6.59774 29.3903 6.15278 29.3903 5.60398C29.3903 5.05519 28.9454 4.61035 28.3966 4.61035Z" fill="#757575"/>
<path d="M38.5595 3.4035C38.8005 3.4035 39.0415 3.31099 39.2244 3.12609L40.7413 1.59338C41.1047 1.22617 41.1016 0.633949 40.7344 0.270548C40.3673 -0.0927296 39.7749 -0.0899001 39.4115 0.277438L37.8947 1.81014C37.3233 2.38735 37.7464 3.4035 38.5595 3.4035Z" fill="#757575"/>
<path d="M39.4114 10.9309C40.2603 11.7888 41.5897 10.4724 40.7413 9.61496L39.2243 8.08213C38.8609 7.71479 38.2686 7.71196 37.9015 8.07524C37.5342 8.43864 37.5312 9.03086 37.8946 9.39807L39.4114 10.9309Z" fill="#757575"/>
<path d="M39.1406 5.60439C39.1406 6.12107 39.5594 6.53983 40.0761 6.53983H42.2568C42.7735 6.53983 43.1923 6.12107 43.1923 5.60439C43.1923 5.08771 42.7735 4.66895 42.2568 4.66895H40.0761C39.5595 4.66895 39.1406 5.08771 39.1406 5.60439Z" fill="#757575"/>
</svg>
