<svg width="16" height="16" viewBox="0 0 16 16" fill="none" xmlns="http://www.w3.org/2000/svg">
<path d="M8 16C12.4183 16 16 12.4183 16 8C16 3.58172 12.4183 0 8 0C3.58172 0 0 3.58172 0 8C0 12.4183 3.58172 16 8 16Z" fill="url(#paint0_linear)"/>
<path d="M9.875 11.2812C9.61681 11.2812 9.40625 11.0711 9.40625 10.8125V8C9.40625 7.74137 9.61681 7.53125 9.875 7.53125C10.1341 7.53125 10.3438 7.32159 10.3438 7.0625C10.3438 6.80341 10.1341 6.59375 9.875 6.59375H6.125C5.86591 6.59375 5.65625 6.80341 5.65625 7.0625C5.65625 7.32159 5.86591 7.53125 6.125 7.53125C6.38319 7.53125 6.59375 7.74137 6.59375 8V10.8125C6.59375 11.0711 6.38319 11.2812 6.125 11.2812C5.86591 11.2812 5.65625 11.4909 5.65625 11.75C5.65625 12.0091 5.86591 12.2188 6.125 12.2188H9.875C10.1341 12.2188 10.3438 12.0091 10.3438 11.75C10.3438 11.4909 10.1341 11.2812 9.875 11.2812ZM8 5.65625C8.77544 5.65625 9.40625 5.02544 9.40625 4.25C9.40625 3.47456 8.77544 2.84375 8 2.84375C7.22456 2.84375 6.59375 3.47456 6.59375 4.25C6.59375 5.02544 7.22456 5.65625 8 5.65625Z" fill="url(#paint1_linear)"/>
<defs>
<linearGradient id="paint0_linear" x1="8" y1="16" x2="8" y2="0" gradientUnits="userSpaceOnUse">
<stop stop-color="#FD5900"/>
<stop offset="1" stop-color="#FFDE00"/>
</linearGradient>
<linearGradient id="paint1_linear" x1="8" y1="12.2188" x2="8" y2="2.84375" gradientUnits="userSpaceOnUse">
<stop stop-color="#FFE59A"/>
<stop offset="1" stop-color="#FFFFD5"/>
</linearGradient>
</defs>
</svg>
