<svg width="28" height="28" viewBox="0 0 28 28" fill="none" xmlns="http://www.w3.org/2000/svg">
<path d="M22 16C20.0152 16 18.2662 16.9797 17.1734 18.4688L11.713 15.738C11.8821 15.1841 12 14.6083 12 13.9999C12 13.3916 11.8821 12.8156 11.713 12.2619L17.1734 9.53106C18.2662 11.0202 20.0152 11.9999 22 11.9999C25.3086 11.9999 28 9.3085 28 5.99993C28 2.69137 25.3086 0 22 0C18.6914 0 16 2.69142 16 5.99999C16 6.60837 16.118 7.18417 16.2871 7.73792L10.8265 10.4689C9.73371 8.97975 7.9847 8.00001 5.99995 8.00001C2.69137 8.00001 0 10.6914 0 14C0 17.3086 2.69137 20 6 20C7.98475 20 9.73377 19.0202 10.8266 17.5311L16.287 20.2621C16.1179 20.8158 16 21.3916 16 22C16 25.3086 18.6914 28 22 28C25.3086 28 28 25.3086 28 22C28 18.6914 25.3086 16 22 16ZM22 2.00002C24.2061 2.00002 26 3.79496 26 5.99999C26 8.20508 24.206 9.99997 22 9.99997C19.7939 9.99997 18 8.20503 18 5.99999C18 3.79496 19.794 2.00002 22 2.00002ZM6 18C3.79392 18 2.00002 16.205 2.00002 14C2.00002 11.7949 3.79398 10 6 10C8.20609 10 9.99999 11.795 9.99999 14C9.99999 16.205 8.20609 18 6 18ZM22 25.9999C19.7939 25.9999 18 24.205 18 22C18 19.7949 19.794 18 22 18C24.2061 18 26 19.7949 26 22C26 24.205 24.2061 25.9999 22 25.9999Z" fill="black"/>
</svg>
