<svg width="40" height="38" viewBox="0 0 40 38" fill="none" xmlns="http://www.w3.org/2000/svg">
<path d="M39.8956 14.3597C39.6338 13.5568 38.9154 12.9865 38.0655 12.9106L26.5204 11.8714L21.9552 1.27881C21.6185 0.502508 20.8519 0 20.0002 0C19.1484 0 18.3818 0.502508 18.0452 1.28062L13.4799 11.8714L1.93302 12.9106C1.08462 12.9884 0.368046 13.5568 0.104673 14.3597C-0.1587 15.1627 0.0845306 16.0433 0.72633 16.5985L9.45304 24.1854L6.87973 35.4224C6.69144 36.2486 7.01493 37.1027 7.70647 37.5982C8.07819 37.8645 8.51307 38 8.95162 38C9.32974 38 9.70481 37.899 10.0414 37.6993L20.0002 31.799L29.9552 37.6993C30.6837 38.1337 31.602 38.0941 32.292 37.5982C32.9839 37.1012 33.3071 36.2468 33.1188 35.4224L30.5455 24.1854L39.2722 16.6C39.914 16.0433 40.159 15.1642 39.8956 14.3597Z" fill="#FFC107"/>
</svg>
