<svg width="32" height="32" xmlns="http://www.w3.org/2000/svg">

 <title/>
 <g>
  <title>background</title>
  <rect fill="none" id="canvas_background" height="402" width="582" y="-1" x="-1"/>
 </g>
 <g>
  <title>Layer 1</title>
  <path fill="#00a79d" id="svg_1" d="m16,31.047562a15,15 0 1 1 15,-15a15,15 0 0 1 -15,15zm0,-28a13,13 0 1 0 13,13a13,13 0 0 0 -13,-13z" class="cls-1"/>
  <path fill="#00a79d" id="svg_2" d="m16,24.047562a2,2 0 1 1 2,-2a2,2 0 0 1 -2,2zm0,-2z" class="cls-1"/>
  <path fill="#00a79d" id="svg_3" d="m16,18.047562a1,1 0 0 1 -1,-1l0,-8.999999a1,1 0 0 1 2,0l0,8.999999a1,1 0 0 1 -1,1z" class="cls-1"/>
 </g>
</svg>