<svg width="26" height="26" viewBox="0 0 26 26" fill="none" xmlns="http://www.w3.org/2000/svg">
<path d="M13 0C5.832 0 0 5.832 0 13C0 20.168 5.832 26 13 26C20.168 26 26 20.168 26 13C26 5.832 20.168 0 13 0ZM13 20C12.447 20 12 19.552 12 19C12 18.448 12.447 18 13 18C13.553 18 14 18.448 14 19C14 19.552 13.553 20 13 20ZM14 13.874V15C14 15.552 13.553 16 13 16C12.447 16 12 15.552 12 15V13C12 12.448 12.447 12 13 12C14.103 12 15 11.103 15 10C15 8.897 14.103 8 13 8C11.897 8 11 8.897 11 10C11 10.552 10.553 11 10 11C9.447 11 9 10.552 9 10C9 7.794 10.794 6 13 6C15.206 6 17 7.794 17 10C17 11.86 15.724 13.428 14 13.874Z" fill="white"/>
</svg>
