<svg width="36" height="36" viewBox="0 0 36 36" fill="none" xmlns="http://www.w3.org/2000/svg">
<circle cx="18" cy="18" r="18" fill="#27B9B1"/>
<path d="M13.7124 20.4473H9.12569C8.78669 20.4473 8.50941 20.7171 8.50023 21.0561V28.5616C8.50023 28.9068 8.78044 29.187 9.12569 29.187H13.7124C14.0576 29.187 14.3378 28.9068 14.3378 28.5616V21.0561C14.3287 20.7171 14.0514 20.4473 13.7124 20.4473ZM13.0869 27.9528H9.75115V21.6982H13.0869V27.9528ZM20.6883 17.1115H16.1016C15.7626 17.1115 15.4853 17.3813 15.4762 17.7203V28.5616C15.4762 28.9068 15.7564 29.187 16.1016 29.187H20.6883C21.0335 29.187 21.3138 28.9068 21.3138 28.5616V17.7203C21.3046 17.3813 21.0273 17.1115 20.6883 17.1115ZM20.0628 27.9528H16.7271V18.3625H20.0628V27.9528ZM27.6642 13.7758H23.0775C22.7323 13.7758 22.4521 14.056 22.4521 14.4012V28.5616C22.4521 28.9068 22.7323 29.187 23.0775 29.187H27.6642C28.0095 29.187 28.2897 28.9068 28.2897 28.5616V14.3846C28.2805 14.0456 28.0032 13.7758 27.6642 13.7758ZM27.0388 27.9528H23.703V15.0267H27.0388V27.9528ZM10.5434 16.0524C10.7748 16.3089 10.7548 16.7042 10.4984 16.936C10.4979 16.936 10.4979 16.9364 10.4975 16.9364L9.08399 18.2123C8.84882 18.4655 8.45312 18.4805 8.20001 18.2453C7.94691 18.0101 7.9319 17.6144 8.16707 17.3613C8.19251 17.3338 8.22003 17.3092 8.25005 17.2867L9.63856 16.0066C9.88916 15.7689 10.2849 15.7789 10.523 16.0295C10.53 16.037 10.5367 16.0445 10.5434 16.0524ZM25.8212 7H22.7023C22.357 7 22.0768 7.2802 22.0772 7.62587C22.0772 7.97113 22.357 8.25091 22.7023 8.25091H24.0574L16.7771 14.3846L14.6672 12.2747C14.4316 12.0412 14.0547 12.032 13.8083 12.2538L11.2147 14.6014C10.9795 14.8545 10.9946 15.2502 11.2477 15.4854C11.4695 15.6913 11.8068 15.7089 12.0487 15.5271L14.2002 13.5798L16.2851 15.6647C16.514 15.8869 16.873 15.9011 17.119 15.698L25.1374 8.92641V10.5568C25.1374 10.902 25.4176 11.1822 25.7628 11.1822C26.1081 11.1822 26.3883 10.902 26.3883 10.5568V7.57542C26.3883 7.29438 26.1898 7 25.8212 7Z" fill="white"/>
</svg>
