<svg width="8" height="7" viewBox="0 0 8 7" fill="none" xmlns="http://www.w3.org/2000/svg">
<path d="M7.02567 3.34205L6.23032 2.459L6.35485 1.2768L5.19182 1.0306L4.59857 0L3.51277 0.485278L3.36621 3.34205L3.51277 6.1988L4.59858 6.68408L5.19182 5.6535L6.35485 5.40728L6.23032 4.22509L7.02567 3.34205Z" fill="#0ED678"/>
<path d="M2.42709 0L1.83385 1.0306L0.670825 1.27682L0.795356 2.459L0 3.34205L0.795356 4.22509L0.670825 5.40728L1.83385 5.6535L2.42711 6.68408L3.51292 6.1988V0.485278L2.42709 0Z" fill="#0ED678"/>
<path d="M4.98546 2.57281L4.67797 2.29834L3.51277 3.60377L3.36621 3.92819L3.51277 4.22275L4.98546 2.57281Z" fill="white"/>
<path d="M2.2885 3.03174L1.99707 3.32319L3.2224 4.54852L3.51305 4.22289V3.60392L3.20539 3.94861L2.2885 3.03174Z" fill="white"/>
</svg>
