<svg width="58" height="58" viewBox="0 0 58 58" fill="none" xmlns="http://www.w3.org/2000/svg">
<path d="M36.583 7.09642L56.8306 42.1664C57.5731 43.4525 58.0001 44.9435 58.0001 46.5352C58.0001 51.3689 54.0814 55.2877 49.2475 55.2877H29.0001L21.998 29.0003L29.0001 2.71289C32.2422 2.71289 35.0705 4.47702 36.583 7.09642Z" fill="#3B4145"/>
<path d="M21.4171 7.09642L1.1694 42.1664C0.426957 43.4525 0 44.9435 0 46.5352C0 51.3689 3.91862 55.2877 8.75256 55.2877H29V2.71289C25.7579 2.71289 22.9296 4.47702 21.4171 7.09642Z" fill="#525A61"/>
<path d="M53.7986 43.9168L33.5511 8.84719C32.6385 7.26589 30.9628 6.26811 29.1504 6.2168L46.4676 51.787H49.2474C52.1427 51.787 54.4989 49.431 54.4989 46.5355C54.4989 45.6159 54.2561 44.7103 53.7986 43.9168Z" fill="#FFB751"/>
<path d="M50.3934 43.9169C50.789 44.7104 50.9979 45.616 50.9979 46.5356C50.9979 49.431 48.9662 51.7871 46.4675 51.7871H8.75247C5.85711 51.7871 3.50098 49.431 3.50098 46.5356C3.50098 45.616 3.74374 44.7104 4.20117 43.9169L24.4486 8.84728C25.3869 7.22283 27.1304 6.21338 28.9999 6.21338C29.0501 6.21338 29.1003 6.21451 29.1505 6.21689C30.706 6.27761 32.1427 7.27301 32.9257 8.84728L50.3934 43.9169Z" fill="#FFD764"/>
<path d="M29 40.1162V45.9512C30.6117 45.9512 31.9176 44.6453 31.9176 43.0337C31.9176 41.4221 30.6117 40.1162 29 40.1162Z" fill="#3B4145"/>
<path d="M29.0006 40.1162C29.3226 40.1162 29.5841 41.4221 29.5841 43.0338C29.5841 44.6454 29.3226 45.9513 29.0006 45.9513C27.3889 45.9513 26.083 44.6454 26.083 43.0338C26.083 41.4221 27.3889 40.1162 29.0006 40.1162Z" fill="#525A61"/>
<path d="M29 15.0264V36.616C30.6117 36.616 31.9176 35.3089 31.9176 33.6984V17.9439C31.9176 16.3323 30.6117 15.0264 29 15.0264Z" fill="#3B4145"/>
<path d="M29.0006 15.0264C29.3226 15.0264 29.5841 16.3323 29.5841 17.9439V33.6984C29.5841 35.3088 29.3226 36.616 29.0006 36.616C27.3889 36.616 26.083 35.3089 26.083 33.6984V17.9439C26.083 16.3323 27.3889 15.0264 29.0006 15.0264Z" fill="#525A61"/>
</svg>
