<svg width="43" height="40" viewBox="0 0 43 40" fill="none" xmlns="http://www.w3.org/2000/svg">
<path d="M36.7255 39.9917H6.27422C1.61611 39.9917 -1.41355 35.4316 0.669601 31.556L15.8952 3.22902C18.2044 -1.06723 24.7952 -1.06723 27.1044 3.22902L42.3301 31.5559C44.4134 35.4316 41.3837 39.9917 36.7255 39.9917Z" fill="url(#paint0_linear)"/>
<path d="M36.7255 39.9917H6.27422C1.61611 39.9917 -1.41355 35.4316 0.669601 31.556L15.8952 3.22902C18.2044 -1.06723 24.7952 -1.06723 27.1044 3.22902L42.3301 31.5559C44.4134 35.4316 41.3837 39.9917 36.7255 39.9917Z" fill="url(#paint1_linear)"/>
<path d="M40.8221 32.2581L25.5965 3.93125C24.8039 2.45656 23.2725 1.57617 21.5002 1.57617C19.7278 1.57617 18.1965 2.45656 17.4038 3.93125L2.17813 32.2581C1.46309 33.5884 1.538 35.1381 2.3786 36.4032C3.2192 37.6684 4.67566 38.4238 6.27447 38.4238H36.7259C38.3247 38.4238 39.7811 37.6684 40.6217 36.4032C41.4622 35.1381 41.5372 33.5885 40.8221 32.2581ZM39.1874 35.5785C38.6562 36.3779 37.7361 36.8552 36.7259 36.8552H6.27447C5.2643 36.8552 4.34409 36.3779 3.81305 35.5785C3.28194 34.7792 3.23457 33.8002 3.6864 32.9596L18.912 4.63281C19.4203 3.68719 20.3635 3.14484 21.5001 3.14484C22.6366 3.14484 23.58 3.68719 24.0881 4.63281L39.3138 32.9597C39.7657 33.8002 39.7184 34.7792 39.1874 35.5785Z" fill="url(#paint2_linear)"/>
<path d="M36.7247 39.9921H34.3268L20.4665 27.0988C20.0568 26.9122 19.851 26.5898 19.851 26.1295C19.851 24.3898 19.7743 23.1491 19.6208 19.2118C19.4674 15.2753 19.3906 14.4667 19.3906 12.7271C19.3906 12.1718 19.5938 11.7436 20.0002 11.4416C20.4057 11.1389 20.9318 10.9883 21.5777 10.9883C22.2235 10.9883 22.6982 11.1452 23 11.4597C23.0582 11.5193 35.6934 23.2691 40.0549 27.3247L42.3297 31.5568C44.4132 35.4321 41.383 39.9921 36.7247 39.9921Z" fill="url(#paint3_linear)"/>
<path d="M33.3392 39.9922H27.068L19.8786 33.3044C19.4006 32.9122 19.1611 32.455 19.1611 31.9318C19.1611 31.3867 19.4006 30.9232 19.8786 30.542C20.3567 30.1608 20.9376 29.9702 21.6205 29.9702C22.2217 29.9702 22.7419 30.1608 23.1803 30.542L33.3392 39.9922Z" fill="url(#paint4_linear)"/>
<path d="M19.1611 31.9316C19.1611 31.3865 19.4002 30.9235 19.8781 30.5424C20.3561 30.1612 20.9372 29.9701 21.62 29.9701C22.2214 29.9701 22.7413 30.1612 23.1797 30.5424C23.6182 30.9235 23.8382 31.3865 23.8382 31.9316C23.8382 32.4547 23.6184 32.9123 23.1797 33.3045C22.7413 33.6968 22.2214 33.8929 21.62 33.8929C20.9371 33.8929 20.3561 33.6967 19.8781 33.3045C19.4002 32.9123 19.1611 32.4548 19.1611 31.9316ZM19.3912 12.7273C19.3912 12.1723 19.5942 11.7435 20.0004 11.4415C20.4065 11.1395 20.9324 10.9883 21.5781 10.9883C22.2239 10.9883 22.6983 11.1455 23.0008 11.4598C23.3033 11.774 23.4548 12.1964 23.4548 12.7273C23.4548 14.4671 23.4224 15.2752 23.359 19.2123C23.2949 23.1496 23.2633 24.3902 23.2633 26.1293C23.2633 26.4922 23.0806 26.7762 22.7158 26.9812C22.3504 27.1863 21.9712 27.289 21.5782 27.289C20.427 27.289 19.8513 26.9027 19.8513 26.1293C19.8513 24.3902 19.7746 23.1496 19.6213 19.2123C19.4678 15.2752 19.3912 14.467 19.3912 12.7273Z" fill="white"/>
<defs>
<linearGradient id="paint0_linear" x1="10.7845" y1="17.1084" x2="56.2943" y2="66.0314" gradientUnits="userSpaceOnUse">
<stop stop-color="#FFB92D"/>
<stop offset="1" stop-color="#F59500"/>
</linearGradient>
<linearGradient id="paint1_linear" x1="17.296" y1="23.1655" x2="31.0144" y2="37.9119" gradientUnits="userSpaceOnUse">
<stop stop-color="#FFB92D"/>
<stop offset="1" stop-color="#F59500"/>
</linearGradient>
<linearGradient id="paint2_linear" x1="1.6904" y1="20.0004" x2="41.3091" y2="20.0004" gradientUnits="userSpaceOnUse">
<stop stop-color="#FFF465"/>
<stop offset="1" stop-color="#FFE600"/>
</linearGradient>
<linearGradient id="paint3_linear" x1="35.5384" y1="32.1641" x2="13.3155" y2="8.27443" gradientUnits="userSpaceOnUse">
<stop stop-color="#BE3F45" stop-opacity="0"/>
<stop offset="1" stop-color="#BE3F45"/>
</linearGradient>
<linearGradient id="paint4_linear" x1="27.7834" y1="37.745" x2="20.5343" y2="29.9514" gradientUnits="userSpaceOnUse">
<stop stop-color="#BE3F45" stop-opacity="0"/>
<stop offset="1" stop-color="#BE3F45"/>
</linearGradient>
</defs>
</svg>
