<svg width="26" height="27" viewBox="0 0 26 27" fill="none" xmlns="http://www.w3.org/2000/svg">
<path fill-rule="evenodd" clip-rule="evenodd" d="M13 27H6.5C4.77612 26.9999 3.12286 26.2887 1.90389 25.0229C0.684919 23.757 7.5415e-05 22.0402 0 20.25L0 6.75C7.5415e-05 4.95981 0.684919 3.24297 1.90389 1.97712C3.12286 0.711262 4.77612 7.83156e-05 6.5 0L19.5 0C21.2239 0 22.8772 0.711159 24.0962 1.97703C25.3152 3.2429 26 4.95979 26 6.75V20.25C26 22.0402 25.3152 23.7571 24.0962 25.023C22.8772 26.2888 21.2239 27 19.5 27H17.0625C17.0625 26.4406 16.8485 25.904 16.4676 25.5084C16.0866 25.1129 15.57 24.8906 15.0312 24.8906C14.4925 24.8906 13.9759 25.1129 13.5949 25.5084C13.214 25.904 13 26.4406 13 27Z" fill="#3764B9"/>
<path fill-rule="evenodd" clip-rule="evenodd" d="M12.1875 7.59375H19.5C20.4373 7.59369 21.3388 7.21982 22.0184 6.54936C22.6979 5.8789 23.1035 4.96304 23.1515 3.99094C23.1994 3.01883 22.8861 2.06472 22.2761 1.32564C21.6662 0.586562 20.8062 0.118961 19.8737 0.0194062C19.7494 0.0122344 19.6263 0 19.5 0H6.5C4.77612 7.83156e-05 3.12286 0.711262 1.90389 1.97712C0.684919 3.24297 7.5415e-05 4.95981 0 6.75L0 20.25C7.54178e-05 16.8934 1.28414 13.6743 3.56972 11.3008C5.8553 8.92728 8.9552 7.59383 12.1875 7.59375Z" fill="#507DD2"/>
<path fill-rule="evenodd" clip-rule="evenodd" d="M19.5 13.5C18.2144 13.5 16.9577 13.8959 15.8888 14.6376C14.8199 15.3793 13.9868 16.4335 13.4948 17.6669C13.0028 18.9003 12.8741 20.2575 13.1249 21.5669C13.3757 22.8762 13.9948 24.079 14.9038 25.023C15.8129 25.967 16.971 26.6099 18.2319 26.8703C19.4928 27.1308 20.7997 26.9971 21.9874 26.4862C23.1752 25.9753 24.1903 25.1101 24.9046 24.0001C25.6188 22.8901 26 21.585 26 20.25V6.75C26 8.54021 25.3152 10.2571 24.0962 11.523C22.8772 12.7888 21.2239 13.5 19.5 13.5Z" fill="#1E4BA0"/>
<path fill-rule="evenodd" clip-rule="evenodd" d="M21.125 7.59375C21.125 7.81753 21.0394 8.03214 20.887 8.19037C20.7347 8.34861 20.528 8.4375 20.3125 8.4375H17.875C17.6595 8.4375 17.4528 8.52639 17.3005 8.68463C17.1481 8.84286 17.0625 9.05747 17.0625 9.28125V12.6562H20.1338C20.254 12.6563 20.3727 12.6839 20.4813 12.7373C20.59 12.7907 20.6858 12.8685 20.7621 12.965C20.8383 13.0616 20.8929 13.1744 20.922 13.2956C20.9512 13.4167 20.954 13.543 20.9305 13.6654C20.7796 14.4488 20.5747 15.5128 20.443 16.1966C20.4062 16.3879 20.3067 16.56 20.1614 16.6837C20.0161 16.8074 19.8341 16.875 19.6462 16.875H17.0625V27H13V16.875H10.5625C10.347 16.875 10.1403 16.7861 9.98798 16.6279C9.8356 16.4696 9.75 16.255 9.75 16.0312V13.5C9.75 13.2762 9.8356 13.0616 9.98798 12.9034C10.1403 12.7451 10.347 12.6562 10.5625 12.6562H13V9.28125C13 7.93859 13.5136 6.65092 14.4279 5.70152C15.3421 4.75212 16.5821 4.21875 17.875 4.21875H20.3125C20.528 4.21875 20.7347 4.30765 20.887 4.46588C21.0394 4.62411 21.125 4.83872 21.125 5.0625V7.59375Z" fill="white"/>
</svg>
