<svg width="27" height="27" viewBox="0 0 27 27" fill="none" xmlns="http://www.w3.org/2000/svg">
<path fill-rule="evenodd" clip-rule="evenodd" d="M20.25 27H6.75C4.95981 26.9999 3.24297 26.2887 1.97712 25.0229C0.711262 23.757 7.83156e-05 22.0402 0 20.25L0 6.75C7.83156e-05 4.95981 0.711262 3.24297 1.97712 1.97712C3.24297 0.711262 4.95981 7.83156e-05 6.75 0L20.25 0C22.0402 0 23.7571 0.711159 25.023 1.97703C26.2888 3.2429 27 4.95979 27 6.75V20.25C27 22.0402 26.2888 23.7571 25.023 25.023C23.7571 26.2888 22.0402 27 20.25 27Z" fill="#FF3A55"/>
<path fill-rule="evenodd" clip-rule="evenodd" d="M12.6562 7.59375H20.25C21.2234 7.59369 22.1596 7.21982 22.8652 6.54936C23.5709 5.8789 23.9921 4.96304 24.0419 3.99094C24.0917 3.01883 23.7663 2.06472 23.1329 1.32564C22.4995 0.586562 21.6064 0.118961 20.6381 0.0194062C20.509 0.0122344 20.3812 0 20.25 0H6.75C4.95981 7.83156e-05 3.24297 0.711262 1.97712 1.97712C0.711262 3.24297 7.83156e-05 4.95981 0 6.75L0 20.25C7.83184e-05 16.8934 1.33353 13.6743 3.70702 11.3008C6.08051 8.92728 9.29963 7.59383 12.6562 7.59375Z" fill="#FF796C"/>
<path fill-rule="evenodd" clip-rule="evenodd" d="M20.25 13.5C18.915 13.5 17.6099 13.8959 16.4999 14.6376C15.3899 15.3793 14.5247 16.4335 14.0138 17.6669C13.5029 18.9003 13.3693 20.2575 13.6297 21.5669C13.8902 22.8762 14.533 24.079 15.477 25.023C16.421 25.967 17.6238 26.6099 18.9331 26.8703C20.2425 27.1308 21.5997 26.9971 22.8331 26.4862C24.0665 25.9753 25.1207 25.1101 25.8624 24.0001C26.6041 22.8901 27 21.585 27 20.25V6.75C27 8.54021 26.2888 10.2571 25.023 11.523C23.7571 12.7888 22.0402 13.5 20.25 13.5Z" fill="#E00047"/>
<path d="M18.7734 9.28125C19.3559 9.28125 19.8281 8.80905 19.8281 8.22656C19.8281 7.64407 19.3559 7.17188 18.7734 7.17188C18.1909 7.17188 17.7188 7.64407 17.7188 8.22656C17.7188 8.80905 18.1909 9.28125 18.7734 9.28125Z" fill="white"/>
<path fill-rule="evenodd" clip-rule="evenodd" d="M13.5 10.125C14.1675 10.125 14.82 10.3229 15.375 10.6938C15.9301 11.0646 16.3626 11.5917 16.6181 12.2084C16.8735 12.8251 16.9404 13.5037 16.8101 14.1584C16.6799 14.8131 16.3585 15.4145 15.8865 15.8865C15.4145 16.3585 14.8131 16.6799 14.1584 16.8101C13.5037 16.9404 12.8251 16.8735 12.2084 16.6181C11.5917 16.3626 11.0646 15.9301 10.6938 15.375C10.3229 14.82 10.125 14.1675 10.125 13.5C10.1255 12.605 10.4812 11.7469 11.114 11.114C11.7469 10.4812 12.605 10.1255 13.5 10.125ZM13.5 8.4375C14.5013 8.4375 15.48 8.73441 16.3126 9.29069C17.1451 9.84696 17.794 10.6376 18.1771 11.5627C18.5603 12.4877 18.6606 13.5056 18.4652 14.4876C18.2699 15.4697 17.7877 16.3717 17.0797 17.0797C16.3717 17.7877 15.4697 18.2699 14.4876 18.4652C13.5056 18.6606 12.4877 18.5603 11.5627 18.1771C10.6376 17.794 9.84696 17.1451 9.29069 16.3126C8.73441 15.48 8.4375 14.5013 8.4375 13.5C8.43814 12.1575 8.97171 10.8702 9.92098 9.92098C10.8702 8.97171 12.1575 8.43814 13.5 8.4375Z" fill="white"/>
<path fill-rule="evenodd" clip-rule="evenodd" d="M21.9375 9.28125C21.9375 8.16237 21.493 7.08931 20.7019 6.29814C19.9107 5.50697 18.8376 5.0625 17.7188 5.0625H9.28125C8.16237 5.0625 7.08931 5.50697 6.29814 6.29814C5.50697 7.08931 5.0625 8.16237 5.0625 9.28125V17.7188C5.0625 18.8376 5.50697 19.9107 6.29814 20.7019C7.08931 21.493 8.16237 21.9375 9.28125 21.9375H17.7188C18.8376 21.9375 19.9107 21.493 20.7019 20.7019C21.493 19.9107 21.9375 18.8376 21.9375 17.7188V9.28125ZM23.625 9.28125C23.625 7.71482 23.0027 6.21254 21.8951 5.1049C20.7875 3.99726 19.2852 3.375 17.7188 3.375H9.28125C7.71482 3.375 6.21254 3.99726 5.1049 5.1049C3.99726 6.21254 3.375 7.71482 3.375 9.28125V17.7188C3.375 19.2852 3.99726 20.7875 5.1049 21.8951C6.21254 23.0027 7.71482 23.625 9.28125 23.625H17.7188C19.2852 23.625 20.7875 23.0027 21.8951 21.8951C23.0027 20.7875 23.625 19.2852 23.625 17.7188V9.28125Z" fill="white"/>
</svg>
