<svg width="27" height="27" viewBox="0 0 27 27" fill="none" xmlns="http://www.w3.org/2000/svg">
<g clip-path="url(#clip0)">
<path fill-rule="evenodd" clip-rule="evenodd" d="M20.25 27H6.75C4.95981 26.9999 3.24297 26.2887 1.97712 25.0229C0.711262 23.757 7.83156e-05 22.0402 0 20.25L0 6.75C7.83156e-05 4.95981 0.711262 3.24297 1.97712 1.97712C3.24297 0.711262 4.95981 7.83156e-05 6.75 0L20.25 0C22.0402 0 23.7571 0.711159 25.023 1.97703C26.2888 3.2429 27 4.95979 27 6.75V20.25C27 22.0402 26.2888 23.7571 25.023 25.023C23.7571 26.2888 22.0402 27 20.25 27Z" fill="#2864B4"/>
<path fill-rule="evenodd" clip-rule="evenodd" d="M12.6562 7.59375H20.25C21.2234 7.59369 22.1596 7.21982 22.8652 6.54936C23.5709 5.8789 23.9921 4.96304 24.0419 3.99094C24.0917 3.01883 23.7663 2.06472 23.1329 1.32564C22.4995 0.586562 21.6064 0.118961 20.6381 0.0194062C20.509 0.0122344 20.3812 0 20.25 0H6.75C4.95981 7.83156e-05 3.24297 0.711262 1.97712 1.97712C0.711262 3.24297 7.83156e-05 4.95981 0 6.75L0 20.25C7.83184e-05 16.8934 1.33353 13.6743 3.70702 11.3008C6.08051 8.92728 9.29963 7.59383 12.6562 7.59375Z" fill="#417DCD"/>
<path fill-rule="evenodd" clip-rule="evenodd" d="M20.25 13.5C18.915 13.5 17.6099 13.8959 16.4999 14.6376C15.3899 15.3793 14.5247 16.4335 14.0138 17.6669C13.5029 18.9003 13.3693 20.2575 13.6297 21.5669C13.8902 22.8762 14.533 24.079 15.477 25.023C16.421 25.967 17.6238 26.6099 18.9331 26.8703C20.2425 27.1308 21.5997 26.9971 22.8331 26.4862C24.0665 25.9753 25.1207 25.1101 25.8624 24.0001C26.6041 22.8901 27 21.585 27 20.25V6.75C27 8.54021 26.2888 10.2571 25.023 11.523C23.7571 12.7888 22.0402 13.5 20.25 13.5Z" fill="#0F4B9B"/>
<path d="M7.59375 10.5469H5.90625C5.44026 10.5469 5.0625 10.9246 5.0625 11.3906V21.0938C5.0625 21.5597 5.44026 21.9375 5.90625 21.9375H7.59375C8.05974 21.9375 8.4375 21.5597 8.4375 21.0938V11.3906C8.4375 10.9246 8.05974 10.5469 7.59375 10.5469Z" fill="white"/>
<path d="M6.75 8.85938C7.91498 8.85938 8.85938 7.91498 8.85938 6.75C8.85938 5.58502 7.91498 4.64062 6.75 4.64062C5.58502 4.64062 4.64062 5.58502 4.64062 6.75C4.64062 7.91498 5.58502 8.85938 6.75 8.85938Z" fill="white"/>
<path fill-rule="evenodd" clip-rule="evenodd" d="M14.3438 12.0825C14.684 11.4878 15.1753 10.9935 15.7679 10.6498C16.3606 10.306 17.0336 10.125 17.7188 10.125C19.8648 10.125 21.9375 11.3906 21.9375 14.7656V21.0938C21.9375 21.2046 21.9157 21.3143 21.8733 21.4167C21.831 21.5191 21.7688 21.6121 21.6904 21.6904C21.6121 21.7688 21.5191 21.831 21.4167 21.8733C21.3143 21.9157 21.2046 21.9375 21.0938 21.9375H19.4062C19.2954 21.9375 19.1857 21.9157 19.0833 21.8733C18.9809 21.831 18.8879 21.7688 18.8096 21.6904C18.7312 21.6121 18.669 21.5191 18.6267 21.4167C18.5843 21.3143 18.5625 21.2046 18.5625 21.0938V15.1875C18.5625 14.6281 18.3403 14.0915 17.9447 13.6959C17.5491 13.3004 17.0126 13.0781 16.4531 13.0781C15.8937 13.0781 15.3572 13.3004 14.9616 13.6959C14.566 14.0915 14.3438 14.6281 14.3438 15.1875V21.0938C14.3438 21.2046 14.322 21.3143 14.2796 21.4167C14.2372 21.5191 14.1751 21.6121 14.0967 21.6904C14.0183 21.7688 13.9253 21.831 13.8229 21.8733C13.7205 21.9157 13.6108 21.9375 13.5 21.9375H11.8125C11.7017 21.9375 11.592 21.9157 11.4896 21.8733C11.3872 21.831 11.2942 21.7688 11.2158 21.6904C11.1374 21.6121 11.0753 21.5191 11.0329 21.4167C10.9905 21.3143 10.9687 21.2046 10.9688 21.0938V11.3906C10.9687 11.2798 10.9905 11.1701 11.0329 11.0677C11.0753 10.9653 11.1374 10.8723 11.2158 10.7939C11.2942 10.7156 11.3872 10.6534 11.4896 10.611C11.592 10.5686 11.7017 10.5468 11.8125 10.5469H13.5C13.6108 10.5468 13.7205 10.5686 13.8229 10.611C13.9253 10.6534 14.0183 10.7156 14.0967 10.7939C14.1751 10.8723 14.2372 10.9653 14.2796 11.0677C14.322 11.1701 14.3438 11.2798 14.3438 11.3906V12.0825Z" fill="white"/>
</g>
<defs>
<clipPath id="clip0">
<rect width="27" height="27" fill="white"/>
</clipPath>
</defs>
</svg>
