<svg width="23" height="22" viewBox="0 0 23 22" fill="none" xmlns="http://www.w3.org/2000/svg">
<path d="M22.9996 2.875V16.8393C22.9993 16.9204 22.975 16.9996 22.9297 17.0669C22.8843 17.1342 22.82 17.1864 22.745 17.2171C22.6961 17.2398 22.6427 17.251 22.5889 17.25C22.535 17.2507 22.4816 17.2401 22.4321 17.2189C22.3825 17.1977 22.338 17.1663 22.3014 17.1268L19.1307 13.9643H14.3746C14.3205 13.9648 14.2669 13.9546 14.2168 13.9341C14.1667 13.9137 14.1212 13.8834 14.083 13.8452C14.0447 13.8069 14.0145 13.7615 13.9941 13.7114C13.9736 13.6613 13.9633 13.6077 13.9639 13.5536V6.98214C13.9637 6.43756 13.7473 5.91534 13.3622 5.53026C12.9771 5.14519 12.4549 4.92877 11.9103 4.92857H8.6246C8.57052 4.92911 8.51687 4.91885 8.46679 4.8984C8.41672 4.87795 8.37123 4.84772 8.33298 4.80947C8.29474 4.77123 8.2645 4.72574 8.24406 4.67566C8.22361 4.62559 8.21335 4.57194 8.21389 4.51786V2.875C8.21471 2.11276 8.51788 1.38197 9.05687 0.84298C9.59586 0.303992 10.3266 0.000826234 11.0889 0H20.1246C20.8868 0.000826234 21.6176 0.303992 22.1566 0.84298C22.6956 1.38197 22.9988 2.11276 22.9996 2.875Z" fill="#4294FF"/>
<path d="M15.6067 6.98207V13.9642H14.3746C14.3205 13.9648 14.2669 13.9545 14.2168 13.934C14.1667 13.9136 14.1212 13.8834 14.083 13.8451C14.0447 13.8069 14.0145 13.7614 13.9941 13.7113C13.9736 13.6612 13.9633 13.6076 13.9639 13.5535V6.98207C13.9637 6.43749 13.7473 5.91527 13.3622 5.53019C12.9771 5.14512 12.4549 4.9287 11.9103 4.9285H8.6246C8.57052 4.92904 8.51687 4.91878 8.46679 4.89833C8.41672 4.87788 8.37123 4.84765 8.33298 4.8094C8.29474 4.77116 8.2645 4.72567 8.24406 4.6756C8.22361 4.62552 8.21335 4.57187 8.21389 4.51779V3.28564H11.9103C12.8902 3.28712 13.8296 3.67704 14.5225 4.36994C15.2153 5.06283 15.6053 6.00217 15.6067 6.98207Z" fill="#376CFB"/>
<path d="M14.7857 6.98193V15.1962C14.7859 15.6533 14.6763 16.1038 14.4662 16.5098C14.256 16.9157 13.9515 17.2653 13.5782 17.5291C13.0944 17.883 12.5101 18.0729 11.9107 18.0712H3.86893L0.698216 21.2337C0.661572 21.2732 0.617052 21.3046 0.567531 21.3258C0.51801 21.347 0.464589 21.3576 0.410717 21.3569C0.356877 21.3579 0.303514 21.3467 0.254645 21.3241C0.179558 21.2934 0.115274 21.2411 0.0699406 21.1738C0.0246074 21.1065 0.000266261 21.0273 2.40556e-06 20.9462V6.98193C-0.000833886 6.34042 0.216404 5.71767 0.616074 5.21586C0.882964 4.87084 1.22531 4.59152 1.61687 4.3993C2.00843 4.20708 2.43881 4.10707 2.875 4.10693H11.9107C12.673 4.10776 13.4037 4.41093 13.9427 4.94991C14.4817 5.4889 14.7849 6.21969 14.7857 6.98193Z" fill="#E6ECFF"/>
<path d="M13.5782 17.529C13.0944 17.8829 12.5101 18.0729 11.9107 18.0712H3.86893L0.698216 21.2337C0.661572 21.2732 0.617052 21.3045 0.567531 21.3258C0.51801 21.347 0.464589 21.3576 0.410717 21.3569C0.356877 21.3579 0.303514 21.3466 0.254645 21.324C0.179558 21.2933 0.115274 21.241 0.0699406 21.1738C0.0246074 21.1065 0.000266261 21.0273 2.40556e-06 20.9462V6.98189C-0.000833886 6.34037 0.216404 5.71763 0.616074 5.21582C2.76822 9.52832 6.7275 14.999 13.5782 17.529Z" fill="#C5D1ED"/>
<path d="M10.679 9.41352V14.375C10.6796 14.6677 10.5756 14.951 10.3859 15.1738C10.1961 15.3967 9.93304 15.5445 9.64399 15.5907C9.57868 15.6002 9.51284 15.6057 9.44685 15.6071H4.51828C4.35641 15.6073 4.19609 15.5756 4.0465 15.5137C3.89691 15.4519 3.761 15.3611 3.64654 15.2467C3.53208 15.1322 3.44133 14.9963 3.37948 14.8467C3.31764 14.6971 3.28592 14.5368 3.28613 14.375V9.41352L6.72792 6.66174C6.79934 6.60204 6.88947 6.56934 6.98256 6.56934C7.07565 6.56934 7.16578 6.60204 7.23721 6.66174L10.679 9.41352Z" fill="#4294FF"/>
<path d="M9.64399 15.5907C9.57868 15.6002 9.51284 15.6057 9.44685 15.6071H4.51828C4.35641 15.6073 4.19609 15.5756 4.0465 15.5137C3.89691 15.4519 3.761 15.3611 3.64654 15.2467C3.53208 15.1322 3.44133 14.9963 3.37948 14.8467C3.31764 14.6971 3.28592 14.5368 3.28613 14.375V9.59424C5.01404 11.9711 7.17021 14.0047 9.64399 15.5907Z" fill="#376CFB"/>
<path d="M11.4099 10.5225C11.3767 10.5649 11.3354 10.6002 11.2884 10.6265C11.2414 10.6528 11.1896 10.6695 11.1361 10.6756C11.0826 10.6817 11.0284 10.6772 10.9767 10.6621C10.925 10.6471 10.8768 10.622 10.8349 10.5882C10.5967 10.3992 7.22881 7.70495 6.98238 7.50781C6.813 7.64745 3.15452 10.5708 3.12988 10.5882C3.08783 10.6218 3.03955 10.6469 2.98781 10.6618C2.93607 10.6768 2.88188 10.6814 2.82835 10.6754C2.77482 10.6694 2.723 10.6529 2.67588 10.6268C2.62875 10.6007 2.58724 10.5655 2.55372 10.5234C2.5202 10.4812 2.49534 10.4328 2.48056 10.381C2.46577 10.3292 2.46136 10.275 2.46758 10.2215C2.47379 10.168 2.4905 10.1163 2.51676 10.0692C2.54302 10.0222 2.57831 9.98081 2.62059 9.94745C3.73092 9.05308 5.82835 7.37958 6.72774 6.66174C6.79916 6.60204 6.88929 6.56934 6.98238 6.56934C7.07547 6.56934 7.1656 6.60204 7.23702 6.66174C11.1963 9.83245 10.4817 9.25745 11.3442 9.94745C11.3865 9.98072 11.4218 10.022 11.448 10.069C11.4742 10.116 11.4909 10.1678 11.497 10.2212C11.5031 10.2747 11.4986 10.3289 11.4836 10.3806C11.4686 10.4323 11.4436 10.4805 11.4099 10.5225Z" fill="#376CFB"/>
<path d="M8.21428 13.5534V15.607H5.75V13.5534C5.75168 13.2272 5.88204 12.9147 6.11275 12.684C6.34345 12.4533 6.65588 12.323 6.98214 12.3213C7.14401 12.3211 7.30433 12.3528 7.45392 12.4146C7.60351 12.4765 7.73942 12.5672 7.85388 12.6817C7.96834 12.7962 8.05909 12.9321 8.12093 13.0817C8.18278 13.2312 8.2145 13.3916 8.21428 13.5534Z" fill="#376CFB"/>
<path d="M8.21433 14.6133V15.6072H5.75005V13.5536C5.74748 13.2607 5.85274 12.9771 6.04576 12.7568C6.72939 13.4201 7.45365 14.0401 8.21433 14.6133Z" fill="#173ECC"/>
<path d="M3.69667 10.1366C3.40095 10.3831 3.18738 10.5473 3.12988 10.5884C3.08783 10.6221 3.03955 10.6471 2.98781 10.6621C2.93607 10.6771 2.88188 10.6817 2.82835 10.6757C2.77482 10.6696 2.723 10.6531 2.67588 10.627C2.62875 10.6009 2.58724 10.5658 2.55372 10.5236C2.5202 10.4815 2.49534 10.4331 2.48056 10.3813C2.46577 10.3295 2.46136 10.2753 2.46758 10.2218C2.47379 10.1683 2.4905 10.1165 2.51676 10.0695C2.54302 10.0225 2.57831 9.98107 2.62059 9.94771C2.91631 9.70949 3.03131 9.62735 3.20381 9.47949C3.36809 9.70128 3.53238 9.92306 3.69667 10.1366Z" fill="#173ECC"/>
</svg>
