<svg width="23" height="27" viewBox="0 0 23 27" fill="none" xmlns="http://www.w3.org/2000/svg">
<path d="M11.0776 27C16.6595 27 21.1845 26.027 21.1845 24.8267C21.1845 23.6264 16.6595 22.6533 11.0776 22.6533C5.49571 22.6533 0.970703 23.6264 0.970703 24.8267C0.970703 26.027 5.49571 27 11.0776 27Z" fill="url(#paint0_linear)"/>
<path d="M21.1851 24.8267C21.1851 23.6264 16.6601 22.6533 11.0782 22.6533C10.1496 22.6533 9.25064 22.6804 8.39648 22.7308L10.2883 25.5141C10.3411 25.5917 10.4027 25.6582 10.4703 25.7142L11.7512 26.9951C17.0192 26.9206 21.1851 25.9783 21.1851 24.8267Z" fill="url(#paint1_linear)"/>
<path d="M22.1551 11.0775C22.1551 4.95958 17.1955 0 11.0776 0C4.9863 0 0.0616636 4.87286 0.00056948 10.9639C-0.0455423 15.5642 2.71306 19.5252 6.67095 21.2431C7.33324 21.5305 7.89976 22.0011 8.30566 22.5982L10.2877 25.514C10.6667 26.0716 11.4884 26.0716 11.8674 25.514L13.8493 22.5983C14.254 22.003 14.8175 21.5319 15.478 21.2458C19.4065 19.5434 22.1551 15.6317 22.1551 11.0775Z" fill="url(#paint2_linear)"/>
<path d="M11.0782 25.3804C11.0141 25.3804 10.8531 25.3632 10.7449 25.204L8.76291 22.2881C8.29682 21.6024 7.64967 21.066 6.89144 20.737C2.99857 19.0472 0.510707 15.2134 0.553272 10.9696C0.581331 8.17032 1.68706 5.54968 3.66674 3.59038C5.64621 1.63129 8.27861 0.552246 11.0782 0.552246H11.0783C16.8821 0.552246 21.6038 5.27402 21.6038 11.0778C21.6038 15.2769 19.1134 19.0694 15.2592 20.7395C14.5053 21.0662 13.8602 21.6017 13.3936 22.2882L11.4116 25.204C11.3033 25.3632 11.1424 25.3804 11.0782 25.3804Z" fill="url(#paint3_linear)"/>
<path d="M11.0775 18.0408C14.9232 18.0408 18.0408 14.9232 18.0408 11.0775C18.0408 7.23181 14.9232 4.11426 11.0775 4.11426C7.23181 4.11426 4.11426 7.23181 4.11426 11.0775C4.11426 14.9232 7.23181 18.0408 11.0775 18.0408Z" fill="url(#paint4_linear)"/>
<path d="M21.8095 13.8355L15.1938 7.2199C14.1646 6.12243 12.7018 5.43652 11.0785 5.43652C7.96306 5.43652 5.4375 7.96208 5.4375 11.0775C5.4375 12.7008 6.12341 14.1637 7.22088 15.1928L14.193 22.165C14.5513 21.7732 14.9883 21.4583 15.479 21.2458C18.586 19.8993 20.9546 17.1708 21.8095 13.8355Z" fill="url(#paint5_linear)"/>
<path d="M11.0785 16.7185C14.1939 16.7185 16.7195 14.1929 16.7195 11.0775C16.7195 7.96208 14.1939 5.43652 11.0785 5.43652C7.96306 5.43652 5.4375 7.96208 5.4375 11.0775C5.4375 14.1929 7.96306 16.7185 11.0785 16.7185Z" fill="url(#paint6_linear)"/>
<defs>
<linearGradient id="paint0_linear" x1="10.855" y1="23.8888" x2="12.1105" y2="29.1799" gradientUnits="userSpaceOnUse">
<stop stop-color="#FFDA45"/>
<stop offset="1" stop-color="#FFA425"/>
</linearGradient>
<linearGradient id="paint1_linear" x1="16.3263" y1="25.8324" x2="12.9835" y2="21.5674" gradientUnits="userSpaceOnUse">
<stop stop-color="#FFDA45" stop-opacity="0"/>
<stop offset="1" stop-color="#B53759"/>
</linearGradient>
<linearGradient id="paint2_linear" x1="4.39178" y1="4.39137" x2="26.4947" y2="26.4943" gradientUnits="userSpaceOnUse">
<stop stop-color="#FF7044"/>
<stop offset="1" stop-color="#F92814"/>
</linearGradient>
<linearGradient id="paint3_linear" x1="8.70267" y1="8.70836" x2="0.935455" y2="0.941151" gradientUnits="userSpaceOnUse">
<stop stop-color="#FF7044" stop-opacity="0"/>
<stop offset="1" stop-color="#FFA425"/>
</linearGradient>
<linearGradient id="paint4_linear" x1="15.2763" y1="15.2763" x2="1.38832" y2="1.38831" gradientUnits="userSpaceOnUse">
<stop stop-color="#FF7044"/>
<stop offset="1" stop-color="#F92814"/>
</linearGradient>
<linearGradient id="paint5_linear" x1="18.3227" y1="18.3218" x2="12.1674" y2="12.1665" gradientUnits="userSpaceOnUse">
<stop stop-color="#F92814" stop-opacity="0"/>
<stop offset="1" stop-color="#C1272D"/>
</linearGradient>
<linearGradient id="paint6_linear" x1="9.69757" y1="8.97162" x2="13.031" y2="14.055" gradientUnits="userSpaceOnUse">
<stop stop-color="#F9F7FC"/>
<stop offset="1" stop-color="#F0DDFC"/>
</linearGradient>
</defs>
</svg>
