<svg width="26" height="27" viewBox="0 0 26 27" fill="none" xmlns="http://www.w3.org/2000/svg">
<path fill-rule="evenodd" clip-rule="evenodd" d="M19.5 27H6.5C4.77612 26.9999 3.12286 26.2887 1.90389 25.0229C0.684919 23.757 7.5415e-05 22.0402 0 20.25L0 6.75C7.5415e-05 4.95981 0.684919 3.24297 1.90389 1.97712C3.12286 0.711262 4.77612 7.83156e-05 6.5 0L19.5 0C21.2239 0 22.8772 0.711159 24.0962 1.97703C25.3152 3.2429 26 4.95979 26 6.75V20.25C26 22.0402 25.3152 23.7571 24.0962 25.023C22.8772 26.2888 21.2239 27 19.5 27Z" fill="#0091FF"/>
<path fill-rule="evenodd" clip-rule="evenodd" d="M12.1875 7.59375H19.5C20.4373 7.59369 21.3388 7.21982 22.0184 6.54936C22.6979 5.8789 23.1035 4.96304 23.1515 3.99094C23.1994 3.01883 22.8861 2.06472 22.2761 1.32564C21.6662 0.586562 20.8062 0.118961 19.8737 0.0194062C19.7494 0.0122344 19.6263 0 19.5 0H6.5C4.77612 7.83156e-05 3.12286 0.711262 1.90389 1.97712C0.684919 3.24297 7.5415e-05 4.95981 0 6.75L0 20.25C7.54178e-05 16.8934 1.28414 13.6743 3.56972 11.3008C5.8553 8.92728 8.9552 7.59383 12.1875 7.59375Z" fill="#00B4FF"/>
<path fill-rule="evenodd" clip-rule="evenodd" d="M19.5 13.5C18.2144 13.5 16.9577 13.8959 15.8888 14.6376C14.8199 15.3793 13.9868 16.4335 13.4948 17.6669C13.0028 18.9003 12.8741 20.2575 13.1249 21.5669C13.3757 22.8762 13.9948 24.079 14.9038 25.023C15.8129 25.967 16.971 26.6099 18.2319 26.8703C19.4928 27.1308 20.7997 26.9971 21.9874 26.4862C23.1752 25.9753 24.1903 25.1101 24.9046 24.0001C25.6188 22.8901 26 21.585 26 20.25V6.75C26 8.54021 25.3152 10.2571 24.0962 11.523C22.8772 12.7888 21.2239 13.5 19.5 13.5Z" fill="#006EFF"/>
<path fill-rule="evenodd" clip-rule="evenodd" d="M18.3454 11.1999C18.3957 11.1163 18.4162 11.0172 18.4035 10.9196C18.3908 10.8221 18.3456 10.7322 18.2758 10.6656C18.2059 10.5989 18.1158 10.5598 18.0211 10.5549C17.9264 10.55 17.833 10.5797 17.7572 10.6388C16.8114 11.3754 15.7133 12.2305 15.1007 12.7076C14.9627 12.8151 14.7953 12.8742 14.6228 12.8762C14.4502 12.8783 14.2816 12.8233 14.1412 12.7192C13.6216 12.3339 12.8005 11.725 12.2769 11.3364C11.9546 11.0972 11.5684 10.9687 11.1723 10.9688H11.1719C10.9854 10.9688 10.802 11.018 10.6389 11.1119C10.4758 11.2057 10.3384 11.3411 10.2395 11.5053L7.65456 15.8C7.6043 15.8835 7.58376 15.9826 7.59649 16.0802C7.60921 16.1778 7.65441 16.2677 7.72425 16.3343C7.79409 16.4009 7.88416 16.44 7.97887 16.4449C8.07358 16.4498 8.16695 16.4202 8.24281 16.3611C9.18856 15.6245 10.2867 14.7693 10.8993 14.2923C11.0373 14.1848 11.2047 14.1257 11.3772 14.1236C11.5498 14.1215 11.7184 14.1765 11.8588 14.2807C12.3784 14.666 13.1995 15.2749 13.7231 15.6635C14.0454 15.9026 14.4316 16.0312 14.8277 16.0312H14.8281C15.0146 16.0312 15.198 15.982 15.3611 15.8881C15.5242 15.7943 15.6616 15.6589 15.7605 15.4947L18.3454 11.1999ZM7.3125 19.9103C6.3067 19.1026 5.49129 18.0675 4.92817 16.8837C4.36504 15.6999 4.069 14.3985 4.0625 13.0781C4.0625 8.18859 8.06731 4.21875 13 4.21875C17.9327 4.21875 21.9375 8.18859 21.9375 13.0781C21.9375 17.9677 17.9327 21.9375 13 21.9375C12.2012 21.9382 11.4056 21.8325 10.6328 21.6228L8.46341 22.6553C8.33963 22.7142 8.20359 22.7398 8.06778 22.7298C7.93197 22.7199 7.80075 22.6747 7.68617 22.5983C7.57158 22.5219 7.47732 22.4169 7.41203 22.2928C7.34674 22.1688 7.31251 22.0297 7.3125 21.8883V19.9103Z" fill="white"/>
</svg>
