<svg width="26" height="27" viewBox="0 0 26 27" fill="none" xmlns="http://www.w3.org/2000/svg">
<path fill-rule="evenodd" clip-rule="evenodd" d="M19.5 27H6.5C4.77612 26.9999 3.12286 26.2887 1.90389 25.0229C0.684919 23.757 7.5415e-05 22.0402 0 20.25L0 6.75C7.5415e-05 4.95981 0.684919 3.24297 1.90389 1.97712C3.12286 0.711262 4.77612 7.83156e-05 6.5 0L19.5 0C21.2239 0 22.8772 0.711159 24.0962 1.97703C25.3152 3.2429 26 4.95979 26 6.75V20.25C26 22.0402 25.3152 23.7571 24.0962 25.023C22.8772 26.2888 21.2239 27 19.5 27Z" fill="#199BDF"/>
<path fill-rule="evenodd" clip-rule="evenodd" d="M12.1875 7.59375H19.5C20.4373 7.59369 21.3388 7.21982 22.0184 6.54936C22.6979 5.8789 23.1035 4.96304 23.1515 3.99094C23.1994 3.01883 22.8861 2.06472 22.2761 1.32564C21.6662 0.586562 20.8062 0.118961 19.8737 0.0194062C19.7494 0.0122344 19.6263 0 19.5 0H6.5C4.77612 7.83156e-05 3.12286 0.711262 1.90389 1.97712C0.684919 3.24297 7.5415e-05 4.95981 0 6.75L0 20.25C7.54178e-05 16.8934 1.28414 13.6743 3.56972 11.3008C5.8553 8.92728 8.9552 7.59383 12.1875 7.59375Z" fill="#32B4FF"/>
<path fill-rule="evenodd" clip-rule="evenodd" d="M19.5 13.5C18.2144 13.5 16.9577 13.8959 15.8888 14.6376C14.8199 15.3793 13.9868 16.4335 13.4948 17.6669C13.0028 18.9003 12.8741 20.2575 13.1249 21.5669C13.3757 22.8762 13.9948 24.079 14.9038 25.023C15.8129 25.967 16.971 26.6099 18.2319 26.8703C19.4928 27.1308 20.7997 26.9971 21.9874 26.4862C23.1752 25.9753 24.1903 25.1101 24.9046 24.0001C25.6188 22.8901 26 21.585 26 20.25V6.75C26 8.54021 25.3152 10.2571 24.0962 11.523C22.8772 12.7888 21.2239 13.5 19.5 13.5Z" fill="#0082BE"/>
<path fill-rule="evenodd" clip-rule="evenodd" d="M18.3138 7.18563C18.5135 7.1 18.7315 7.07105 18.9456 7.10174C19.1596 7.13242 19.3619 7.22164 19.5318 7.36025C19.7017 7.49886 19.8331 7.68189 19.9124 7.89057C19.9918 8.09926 20.0163 8.3261 19.9835 8.54786C19.51 11.7453 18.642 17.6043 18.1813 20.7143C18.1494 20.9295 18.0646 21.1326 17.935 21.3038C17.8055 21.475 17.6356 21.6086 17.4418 21.6917C17.248 21.7748 17.0368 21.8046 16.8287 21.7781C16.6206 21.7517 16.4225 21.6699 16.2537 21.5408C14.6238 20.2937 12.18 18.424 10.9393 17.4743C10.8435 17.401 10.7645 17.3068 10.7076 17.1983C10.6508 17.0898 10.6176 16.9697 10.6103 16.8464C10.6031 16.7231 10.622 16.5997 10.6657 16.4849C10.7095 16.37 10.7769 16.2665 10.8634 16.1817C12.0003 15.0667 14.2647 12.8459 15.8226 11.3179C15.8593 11.2817 15.8816 11.2325 15.8852 11.1801C15.8889 11.1277 15.8735 11.0757 15.8422 11.0344C15.8108 10.9931 15.7658 10.9655 15.7158 10.9569C15.6659 10.9483 15.6146 10.9594 15.5722 10.988C13.5746 12.3409 10.5153 14.4128 9.0159 15.4282C8.7349 15.6185 8.4191 15.7466 8.08825 15.8043C7.75741 15.862 7.41865 15.8481 7.0932 15.7636C6.26758 15.5493 5.0767 15.2401 4.01691 14.965C3.85099 14.922 3.70238 14.8256 3.59225 14.6897C3.48212 14.5539 3.41608 14.3854 3.40355 14.2082C3.39102 14.0311 3.43263 13.8544 3.52245 13.7033C3.61227 13.5521 3.74573 13.4343 3.90381 13.3665C7.59305 11.7841 14.8128 8.6875 18.3138 7.18563Z" fill="white"/>
</svg>
