<svg width="27" height="27" viewBox="0 0 27 27" fill="none" xmlns="http://www.w3.org/2000/svg">
<path fill-rule="evenodd" clip-rule="evenodd" d="M20.25 27H6.75C4.95981 26.9999 3.24297 26.2887 1.97712 25.0229C0.711262 23.757 7.83156e-05 22.0402 0 20.25L0 6.75C7.83156e-05 4.95981 0.711262 3.24297 1.97712 1.97712C3.24297 0.711262 4.95981 7.83156e-05 6.75 0L20.25 0C22.0402 0 23.7571 0.711159 25.023 1.97703C26.2888 3.2429 27 4.95979 27 6.75V20.25C27 22.0402 26.2888 23.7571 25.023 25.023C23.7571 26.2888 22.0402 27 20.25 27Z" fill="#0F9DFF"/>
<path fill-rule="evenodd" clip-rule="evenodd" d="M12.6562 7.59375H20.25C21.2234 7.59369 22.1596 7.21982 22.8652 6.54936C23.5709 5.8789 23.9921 4.96304 24.0419 3.99094C24.0917 3.01883 23.7663 2.06472 23.1329 1.32564C22.4995 0.586562 21.6064 0.118961 20.6381 0.0194062C20.509 0.0122344 20.3812 0 20.25 0H6.75C4.95981 7.83156e-05 3.24297 0.711262 1.97712 1.97712C0.711262 3.24297 7.83156e-05 4.95981 0 6.75L0 20.25C7.83184e-05 16.8934 1.33353 13.6743 3.70702 11.3008C6.08051 8.92728 9.29963 7.59383 12.6562 7.59375Z" fill="#00B7FF"/>
<path fill-rule="evenodd" clip-rule="evenodd" d="M20.25 13.5C18.915 13.5 17.6099 13.8959 16.4999 14.6376C15.3899 15.3793 14.5247 16.4335 14.0138 17.6669C13.5029 18.9003 13.3693 20.2575 13.6297 21.5669C13.8902 22.8762 14.533 24.079 15.477 25.023C16.421 25.967 17.6238 26.6099 18.9331 26.8703C20.2425 27.1308 21.5997 26.9971 22.8331 26.4862C24.0665 25.9753 25.1207 25.1101 25.8624 24.0001C26.6041 22.8901 27 21.585 27 20.25V6.75C27 8.54021 26.2888 10.2571 25.023 11.523C23.7571 12.7888 22.0402 13.5 20.25 13.5Z" fill="#1D83FF"/>
<path d="M10.3674 20.3581C16.8382 20.3581 20.427 14.8636 20.2089 10.0644C20.6883 9.71795 21.1217 9.31194 21.4986 8.85611C21.5272 8.82084 21.5435 8.77728 21.5453 8.73193C21.547 8.68658 21.534 8.64189 21.5082 8.60455C21.4824 8.56721 21.4452 8.53924 21.4022 8.52481C21.3592 8.51038 21.3126 8.51028 21.2695 8.52451C20.985 8.61592 20.695 8.68933 20.4013 8.74431C20.3781 8.74843 20.3541 8.74461 20.3333 8.73347C20.3125 8.72233 20.2961 8.70451 20.2866 8.68289C20.2772 8.66126 20.2753 8.63709 20.2812 8.61425C20.2872 8.59142 20.3007 8.57125 20.3195 8.557C20.6975 8.2579 21.0092 7.88334 21.2345 7.45717C21.254 7.41833 21.2608 7.37435 21.2539 7.33144C21.247 7.28853 21.2269 7.24887 21.1962 7.21805C21.1656 7.18723 21.126 7.16682 21.0832 7.15968C21.0403 7.15255 20.9963 7.15907 20.9573 7.17831C20.4207 7.43401 19.854 7.62124 19.2707 7.73561C18.7957 7.22928 18.1795 6.87743 17.5021 6.72575C16.8246 6.57406 16.1172 6.62954 15.4717 6.88498C14.8262 7.14043 14.2723 7.58404 13.8821 8.15822C13.4919 8.7324 13.2833 9.41063 13.2834 10.1049C13.2844 10.3255 13.3051 10.5456 13.3455 10.7626C13.3484 10.7783 13.3478 10.7946 13.3435 10.8101C13.3393 10.8256 13.3315 10.8399 13.3209 10.8519C13.3103 10.864 13.2971 10.8734 13.2822 10.8796C13.2674 10.8857 13.2514 10.8884 13.2353 10.8874C10.7305 10.7272 8.38214 9.6139 6.67266 7.77611C6.62326 7.72129 6.56027 7.68049 6.49005 7.65781C6.41983 7.63514 6.34487 7.63141 6.27275 7.64699C6.20062 7.66257 6.13389 7.69691 6.07929 7.74655C6.02469 7.79618 5.98416 7.85935 5.9618 7.92967C5.72558 8.58698 5.69992 9.30155 5.8884 9.97411C6.07688 10.6467 6.47013 11.2438 7.01353 11.6827C7.03116 11.6968 7.04368 11.7163 7.04916 11.7382C7.05465 11.7601 7.05279 11.7832 7.04388 11.8039C7.03497 11.8246 7.0195 11.8419 6.99984 11.853C6.98018 11.8641 6.95743 11.8684 6.93506 11.8653C6.73727 11.8384 6.54228 11.7938 6.35245 11.732C6.28317 11.7089 6.20902 11.7043 6.13742 11.7188C6.06582 11.7333 5.99929 11.7664 5.9445 11.8147C5.8883 11.8619 5.84617 11.9237 5.82273 11.9933C5.79929 12.0629 5.79544 12.1376 5.81161 12.2092C6.54483 15.0324 8.53059 14.6725 8.53059 14.8864C8.53059 15.0311 8.13783 15.0311 7.61133 15.0324C7.54007 15.0327 7.47009 15.0513 7.40811 15.0865C7.34613 15.1216 7.29423 15.1721 7.25738 15.2331C7.22053 15.2941 7.19997 15.3636 7.19768 15.4348C7.19539 15.506 7.21144 15.5766 7.2443 15.6399C7.52139 16.1163 7.9073 16.5204 8.37048 16.8191C8.83367 17.1178 9.36097 17.3027 9.90928 17.3586C9.93059 17.3602 9.95089 17.3683 9.96742 17.3819C9.98396 17.3954 9.99594 17.4137 10.0017 17.4343C10.0075 17.4549 10.0069 17.4767 9.99984 17.4969C9.99282 17.5171 9.97976 17.5346 9.96244 17.5472C9.00468 18.2399 7.88518 18.6752 6.71105 18.8115C6.62015 18.8187 6.53427 18.8561 6.46708 18.9177C6.39988 18.9794 6.35524 19.0617 6.34025 19.1517C6.32526 19.2416 6.34078 19.334 6.38435 19.4141C6.42792 19.4942 6.49704 19.5574 6.58069 19.5937C7.77876 20.1003 9.06665 20.3603 10.3674 20.3581Z" fill="white"/>
</svg>
