<svg width="27" height="27" viewBox="0 0 27 27" fill="none" xmlns="http://www.w3.org/2000/svg">
<path fill-rule="evenodd" clip-rule="evenodd" d="M20.25 27H6.75C4.95981 26.9999 3.24297 26.2887 1.97712 25.0229C0.711262 23.757 7.83156e-05 22.0402 0 20.25L0 6.75C7.83156e-05 4.95981 0.711262 3.24297 1.97712 1.97712C3.24297 0.711262 4.95981 7.83156e-05 6.75 0L20.25 0C22.0402 0 23.7571 0.711159 25.023 1.97703C26.2888 3.2429 27 4.95979 27 6.75V20.25C27 22.0402 26.2888 23.7571 25.023 25.023C23.7571 26.2888 22.0402 27 20.25 27Z" fill="#00D264"/>
<path fill-rule="evenodd" clip-rule="evenodd" d="M12.6562 7.59375H20.25C21.2234 7.59369 22.1596 7.21982 22.8652 6.54936C23.5709 5.8789 23.9921 4.96304 24.0419 3.99094C24.0917 3.01883 23.7663 2.06472 23.1329 1.32564C22.4995 0.586562 21.6064 0.118961 20.6381 0.0194062C20.509 0.0122344 20.3812 0 20.25 0H6.75C4.95981 7.83156e-05 3.24297 0.711262 1.97712 1.97712C0.711262 3.24297 7.83156e-05 4.95981 0 6.75L0 20.25C7.83184e-05 16.8934 1.33353 13.6743 3.70702 11.3008C6.08051 8.92728 9.29963 7.59383 12.6562 7.59375Z" fill="#00EB78"/>
<path fill-rule="evenodd" clip-rule="evenodd" d="M20.25 13.5C18.915 13.5 17.6099 13.8959 16.4999 14.6376C15.3899 15.3793 14.5247 16.4335 14.0138 17.6669C13.5029 18.9003 13.3693 20.2575 13.6297 21.5669C13.8902 22.8762 14.533 24.079 15.477 25.023C16.421 25.967 17.6238 26.6099 18.9331 26.8703C20.2425 27.1308 21.5997 26.9971 22.8331 26.4862C24.0665 25.9753 25.1207 25.1101 25.8624 24.0001C26.6041 22.8901 27 21.585 27 20.25V6.75C27 8.54021 26.2888 10.2571 25.023 11.523C23.7571 12.7888 22.0402 13.5 20.25 13.5Z" fill="#00B950"/>
<path fill-rule="evenodd" clip-rule="evenodd" d="M9.14332 19.8672C9.25562 19.8352 9.37331 19.8269 9.48898 19.8428C9.60465 19.8586 9.71578 19.8982 9.81537 19.9591C11.4928 20.9585 13.4775 21.3106 15.3963 20.9491C17.3151 20.5876 19.0357 19.5376 20.2345 17.9964C21.4333 16.4552 22.0277 14.5291 21.9059 12.5804C21.7841 10.6316 20.9545 8.79456 19.5731 7.41465C18.1917 6.03473 16.3538 5.20708 14.4049 5.08736C12.456 4.96763 10.5306 5.56408 8.99068 6.76453C7.45077 7.96498 6.40253 9.6867 6.04311 11.6059C5.68369 13.525 6.03786 15.5094 7.03901 17.1857C7.09972 17.285 7.13916 17.3958 7.15485 17.5111C7.17053 17.6265 7.16212 17.7438 7.13013 17.8557C6.89515 18.6872 6.32815 20.6717 6.32815 20.6717C6.32815 20.6717 8.31265 20.1047 9.14332 19.8672ZM5.57679 18.0282C4.37062 15.995 3.94818 13.5913 4.38881 11.2687C4.82944 8.94601 6.10282 6.86409 7.96984 5.41386C9.83686 3.96362 12.1691 3.24484 14.5286 3.39249C16.888 3.54013 19.1125 4.54405 20.7841 6.21571C22.4558 7.88738 23.4597 10.1118 23.6073 12.4713C23.755 14.8308 23.0362 17.163 21.586 19.03C20.1357 20.897 18.0538 22.1704 15.7312 22.611C13.4085 23.0517 11.0049 22.6292 8.97162 21.423C8.97162 21.423 6.28132 22.1917 4.94904 22.5727C4.87666 22.5933 4.8001 22.5941 4.72727 22.5752C4.65443 22.5563 4.58797 22.5183 4.53476 22.4651C4.48156 22.4119 4.44353 22.3454 4.42461 22.2726C4.4057 22.1997 4.40659 22.1232 4.42718 22.0508C4.80813 20.7185 5.57679 18.0282 5.57679 18.0282Z" fill="white"/>
<path fill-rule="evenodd" clip-rule="evenodd" d="M9.27361 10.4562C9.40486 12.3453 10.2111 14.1242 11.5451 15.4681C12.8791 16.812 14.6519 17.6314 16.54 17.7766H16.5408C16.8423 17.8 17.1452 17.7577 17.4288 17.6529C17.7124 17.548 17.9699 17.383 18.1836 17.1691L18.4781 16.8747C18.6171 16.7355 18.6952 16.5469 18.6953 16.3503V15.725C18.6953 15.6467 18.6735 15.5698 18.6323 15.5031C18.5911 15.4365 18.5321 15.3826 18.462 15.3475C18.0178 15.1256 17.0534 14.6434 16.5809 14.4071C16.5017 14.3675 16.412 14.3538 16.3245 14.3679C16.2371 14.3821 16.1563 14.4234 16.0936 14.486C15.8582 14.7214 15.4861 15.0939 15.2752 15.3044C15.2261 15.3535 15.1656 15.3898 15.0992 15.4099C15.0327 15.4301 14.9624 15.4336 14.8942 15.42L14.8904 15.4192C14.0737 15.2558 13.3236 14.8544 12.7346 14.2654C12.1456 13.6764 11.7442 12.9263 11.5808 12.1096L11.58 12.1058C11.5665 12.0377 11.5699 11.9673 11.5901 11.9008C11.6102 11.8344 11.6465 11.7739 11.6956 11.7248C11.9061 11.5139 12.2786 11.1418 12.514 10.9064C12.5766 10.8437 12.6179 10.7629 12.6321 10.6755C12.6462 10.588 12.6325 10.4984 12.5929 10.4191C12.3567 9.94662 11.8745 8.98222 11.6526 8.53798C11.6175 8.46789 11.5636 8.40894 11.4969 8.36774C11.4302 8.32654 11.3534 8.3047 11.275 8.30469H10.7434C10.6172 8.30473 10.4924 8.33126 10.3771 8.38256C10.2617 8.43387 10.1584 8.50881 10.0739 8.60253C9.98911 8.69703 9.89165 8.80503 9.79378 8.91387C9.60957 9.11829 9.4684 9.35769 9.37867 9.61782C9.28894 9.87795 9.25249 10.1535 9.2715 10.428C9.27234 10.4373 9.27276 10.4465 9.27361 10.4562Z" fill="white"/>
</svg>
