<svg width="23" height="28" viewBox="0 0 23 28" fill="none" xmlns="http://www.w3.org/2000/svg">
<path d="M23 7.49668V20.1467H0V7.49668C0 7.19168 0.12116 6.89917 0.336827 6.68351C0.552494 6.46784 0.845001 6.34668 1.15 6.34668H21.85C22.155 6.34668 22.4475 6.46784 22.6632 6.68351C22.8788 6.89917 23 7.19168 23 7.49668Z" fill="#02968D"/>
<path d="M22.9996 7.49668V18.9967H14.3746C11.0196 18.9967 7.80204 17.6639 5.42971 15.2916C3.05737 12.9192 1.72461 9.70167 1.72461 6.34668H21.8496C22.1546 6.34668 22.4471 6.46784 22.6628 6.68351C22.8785 6.89917 22.9996 7.19168 22.9996 7.49668Z" fill="#00A79D"/>
<path d="M0 20.1465H23V21.2965C23 21.6015 22.8788 21.894 22.6632 22.1097C22.4475 22.3253 22.155 22.4465 21.85 22.4465H1.15C0.845001 22.4465 0.552494 22.3253 0.336827 22.1097C0.12116 21.894 0 21.6015 0 21.2965V20.1465Z" fill="#7C7D7D"/>
<path d="M13.8002 26.4718H9.2002L9.7752 22.4468H13.2252L13.8002 26.4718Z" fill="#7C7D7D"/>
<path d="M15.5254 27.0465H7.47539C7.32289 27.0465 7.17664 26.9859 7.0688 26.8781C6.96097 26.7702 6.90039 26.624 6.90039 26.4715C6.90039 26.319 6.96097 26.1727 7.0688 26.0649C7.17664 25.9571 7.32289 25.8965 7.47539 25.8965H15.5254C15.6779 25.8965 15.8241 25.9571 15.932 26.0649C16.0398 26.1727 16.1004 26.319 16.1004 26.4715C16.1004 26.624 16.0398 26.7702 15.932 26.8781C15.8241 26.9859 15.6779 27.0465 15.5254 27.0465Z" fill="#7C7D7D"/>
<path d="M22.9996 20.1465V21.2965H2.87461C2.56961 21.2965 2.2771 21.1753 2.06144 20.9597C1.84577 20.744 1.72461 20.4515 1.72461 20.1465H22.9996Z" fill="#919191"/>
<path d="M13.6329 25.3218C13.2793 25.3218 12.9303 25.2423 12.6116 25.0891C12.293 24.9359 12.0129 24.7131 11.792 24.437C11.5711 24.1609 11.4152 23.8387 11.3357 23.4942C11.2562 23.1497 11.2553 22.7917 11.3329 22.4468H13.2246L13.6329 25.3218Z" fill="#919191"/>
<path d="M18.7741 4.62159H4.22656C4.87931 3.24494 5.90932 2.08181 7.1969 1.26734C8.48448 0.452865 9.97676 0.0205078 11.5003 0.0205078C13.0239 0.0205078 14.5161 0.452865 15.8037 1.26734C17.0913 2.08181 18.1213 3.24494 18.7741 4.62159Z" fill="#9DCC6B"/>
<path d="M18.1066 3.47149H10.1083C9.75662 3.46203 9.41623 3.34526 9.1328 3.13685C8.84936 2.92844 8.63643 2.63835 8.52255 2.30548C8.40868 1.97261 8.3993 1.61287 8.49569 1.27452C8.59207 0.936174 8.78961 0.635383 9.0618 0.412491C9.84622 0.144058 10.6708 0.0118164 11.4998 0.021491C12.7976 0.0214099 14.0761 0.335095 15.2265 0.935812C16.3769 1.53653 17.365 2.40647 18.1066 3.47149Z" fill="#B5E08C"/>
<path d="M18.7741 11.5215C18.1213 12.8981 17.0913 14.0613 15.8037 14.8757C14.5161 15.6902 13.0239 16.1226 11.5003 16.1226C9.97676 16.1226 8.48448 15.6902 7.1969 14.8757C5.90932 14.0613 4.87931 12.8981 4.22656 11.5215H18.7741Z" fill="#9DCC6B"/>
<path d="M18.7739 11.5215C18.2044 12.7204 17.3472 13.7599 16.2788 14.5474C15.2104 15.3349 13.9639 15.846 12.6501 16.0352C11.3364 15.846 10.0898 15.3349 9.0214 14.5474C7.95298 13.7599 7.09587 12.7204 6.52637 11.5215H18.7739Z" fill="#B5E08C"/>
<path d="M14.5477 4.62181C13.2252 -0.702693 9.77523 -0.765942 8.45273 4.62181H7.30273C7.59257 2.98799 8.36105 1.47705 9.51073 0.280558C10.8303 -0.0635713 12.2161 -0.0635713 13.5357 0.280558C14.496 1.12581 15.2607 2.58056 15.7265 4.48956C15.7437 4.67356 15.853 4.62181 14.5477 4.62181Z" fill="#84B749"/>
<path d="M15.7152 11.5214C15.4253 13.1552 14.6568 14.6661 13.5072 15.8626C12.1879 16.2096 10.8014 16.2096 9.48215 15.8626C8.5219 15.0174 7.75715 13.5626 7.2914 11.6536C7.2454 11.4696 7.13615 11.5214 8.4414 11.5214C9.79265 16.9149 13.2082 16.8229 14.5364 11.5214H15.7152Z" fill="#84B749"/>
<path d="M12.0758 11.5215V16.1215C11.693 16.1502 11.3086 16.1502 10.9258 16.1215V11.5215H12.0758Z" fill="#84B749"/>
<path d="M12.0758 0.0215659V4.62157H10.9258V0.0215659C11.3086 -0.00718862 11.693 -0.00718862 12.0758 0.0215659Z" fill="#84B749"/>
<path d="M20.1248 4.62158H2.8748C2.55724 4.62158 2.2998 4.87902 2.2998 5.19658V10.9466C2.2998 11.2641 2.55724 11.5216 2.8748 11.5216H20.1248C20.4424 11.5216 20.6998 11.2641 20.6998 10.9466V5.19658C20.6998 4.87902 20.4424 4.62158 20.1248 4.62158Z" fill="#E29D26"/>
<path d="M20.7004 5.19658V10.3716H9.77539C8.2504 10.3716 6.78786 9.76578 5.70953 8.68745C4.63119 7.60911 4.02539 6.14658 4.02539 4.62158H20.1254C20.2779 4.62158 20.4241 4.68216 20.532 4.79C20.6398 4.89783 20.7004 5.04408 20.7004 5.19658Z" fill="#F4B13E"/>
<path d="M12.6495 9.79681C12.3333 9.79681 12.2528 9.64156 11.4995 8.88256C10.6888 9.69331 10.5853 9.88306 10.1943 9.77381C9.80327 9.66456 9.82627 9.49206 9.21677 7.05981C9.18017 6.9096 9.20474 6.751 9.28507 6.61891C9.36541 6.48681 9.49493 6.39204 9.64514 6.35544C9.79535 6.31884 9.95395 6.34341 10.086 6.42375C10.2181 6.50408 10.3129 6.6336 10.3495 6.78381L10.66 8.07181L11.0913 7.64056C11.1447 7.58667 11.2083 7.54389 11.2784 7.5147C11.3485 7.48551 11.4236 7.47048 11.4995 7.47048C11.5754 7.47048 11.6506 7.48551 11.7206 7.5147C11.7907 7.54389 11.8543 7.58667 11.9078 7.64056L12.339 8.07181L12.6495 6.78381C12.6908 6.64101 12.7857 6.51974 12.9145 6.44543C13.0432 6.37113 13.1957 6.34956 13.34 6.38526C13.4843 6.42096 13.6092 6.51116 13.6884 6.63692C13.7676 6.76268 13.7951 6.91425 13.765 7.05981L13.19 9.35981C13.16 9.48166 13.0909 9.59032 12.9933 9.66922C12.8957 9.74813 12.775 9.79294 12.6495 9.79681Z" fill="white"/>
<path d="M17.8253 9.79681C17.509 9.79681 17.4285 9.64156 16.6753 8.88256C15.8933 9.67031 15.7725 9.88881 15.37 9.77381C14.9675 9.65881 15.002 9.49206 14.3925 7.05981C14.3559 6.9096 14.3805 6.751 14.4609 6.61891C14.5412 6.48681 14.6707 6.39204 14.8209 6.35544C14.9711 6.31884 15.1297 6.34341 15.2618 6.42375C15.3939 6.50408 15.4887 6.6336 15.5253 6.78381L15.8358 8.07181L16.267 7.64056C16.3205 7.58667 16.3841 7.54389 16.4542 7.5147C16.5242 7.48551 16.5994 7.47048 16.6753 7.47048C16.7512 7.47048 16.8264 7.48551 16.8964 7.5147C16.9665 7.54389 17.0301 7.58667 17.0835 7.64056L17.5148 8.07181L17.8253 6.78381C17.8666 6.64101 17.9615 6.51974 18.0903 6.44543C18.219 6.37113 18.3715 6.34956 18.5158 6.38526C18.6601 6.42096 18.785 6.51116 18.8642 6.63692C18.9434 6.76268 18.9709 6.91425 18.9408 7.05981L18.3658 9.35981C18.3357 9.48166 18.2666 9.59032 18.1691 9.66922C18.0715 9.74813 17.9507 9.79294 17.8253 9.79681Z" fill="white"/>
<path d="M7.47471 9.79681C7.15846 9.79681 7.07796 9.64156 6.32471 8.88256C5.51396 9.69331 5.41046 9.88306 5.01946 9.77381C4.62846 9.66456 4.65146 9.49206 4.04196 7.05981C4.02384 6.98544 4.02054 6.90822 4.03226 6.83257C4.04398 6.75692 4.07049 6.68431 4.11027 6.61891C4.15005 6.5535 4.20232 6.49657 4.2641 6.45136C4.32588 6.40616 4.39596 6.37356 4.47034 6.35544C4.62055 6.31884 4.77915 6.34341 4.91124 6.42375C4.97665 6.46352 5.03358 6.5158 5.07879 6.57758C5.12399 6.63936 5.15659 6.70944 5.17471 6.78381L5.48521 8.07181L5.91646 7.64056C5.96991 7.58667 6.03351 7.54389 6.10358 7.5147C6.17365 7.48551 6.2488 7.47048 6.32471 7.47048C6.40062 7.47048 6.47577 7.48551 6.54584 7.5147C6.61591 7.54389 6.67951 7.58667 6.73296 7.64056L7.16421 8.07181L7.47471 6.78381C7.51597 6.64101 7.61093 6.51974 7.73967 6.44543C7.86841 6.37113 8.02092 6.34956 8.16522 6.38526C8.30951 6.42096 8.43437 6.51116 8.51361 6.63692C8.59284 6.76268 8.6203 6.91425 8.59021 7.05981L8.01521 9.35981C7.98515 9.48166 7.91605 9.59032 7.81846 9.66922C7.72087 9.74813 7.60015 9.79294 7.47471 9.79681Z" fill="white"/>
</svg>
