<svg width="24" height="23" viewBox="0 0 24 23" fill="none" xmlns="http://www.w3.org/2000/svg">
<path d="M23.1413 7.62905V20.4287C23.1406 21.1105 22.8695 21.7641 22.3874 22.2461C21.9054 22.7282 21.2518 22.9993 20.57 23H16.2846C15.83 23 15.394 22.8194 15.0725 22.4979C14.751 22.1765 14.5704 21.7405 14.5704 21.2858V16.5719C14.5704 16.3446 14.4801 16.1266 14.3194 15.9658C14.1587 15.8051 13.9407 15.7148 13.7133 15.7148H9.42793C9.20061 15.7148 8.98261 15.8051 8.82188 15.9658C8.66114 16.1266 8.57084 16.3446 8.57084 16.5719V21.2858C8.57084 21.7405 8.39024 22.1765 8.06877 22.4979C7.7473 22.8194 7.3113 23 6.85667 23H2.57125C1.88952 22.9993 1.23591 22.7282 0.753854 22.2461C0.271798 21.7641 0.000680709 21.1105 0 20.4287V7.62905C0.000641349 7.33305 0.0775598 7.04221 0.223334 6.78459C0.369108 6.52697 0.578817 6.31127 0.832229 6.1583L10.6887 0.244414C10.9552 0.084484 11.2601 0 11.5709 0C11.8816 0 12.1865 0.084484 12.453 0.244414L22.3095 6.1583C22.5628 6.31132 22.7724 6.52704 22.9181 6.78466C23.0638 7.04228 23.1407 7.33309 23.1413 7.62905Z" fill="url(#paint0_linear)"/>
<defs>
<linearGradient id="paint0_linear" x1="11.5706" y1="0" x2="11.5706" y2="23" gradientUnits="userSpaceOnUse">
<stop stop-color="#C9C9C9"/>
<stop offset="1" stop-color="#9C9C9C"/>
</linearGradient>
</defs>
</svg>
