<svg width="27" height="27" viewBox="0 0 27 27" fill="none" xmlns="http://www.w3.org/2000/svg">
<path d="M20.8636 0H6.13636C4.5095 0.00194872 2.94982 0.649078 1.79945 1.79944C0.649082 2.9498 0.00194873 4.50947 0 6.13632V15.9544C0.0017851 17.3685 0.49102 18.7387 1.38524 19.8341C2.27947 20.9295 3.52401 21.6832 4.90909 21.968V25.7726C4.90906 25.9947 4.96934 26.2128 5.08352 26.4034C5.19769 26.594 5.36147 26.75 5.55738 26.8548C5.75329 26.9597 5.97398 27.0093 6.19591 26.9986C6.41783 26.9878 6.63267 26.9169 6.8175 26.7936L13.8682 22.0908H20.8636C22.4905 22.0888 24.0502 21.4417 25.2006 20.2913C26.3509 19.141 26.9981 17.5813 27 15.9544V6.13632C26.9981 4.50947 26.3509 2.9498 25.2006 1.79944C24.0502 0.649078 22.4905 0.00194872 20.8636 0ZM18.4091 14.7272H8.59091C8.26542 14.7272 7.95325 14.5979 7.7231 14.3677C7.49294 14.1376 7.36364 13.8254 7.36364 13.4999C7.36364 13.1744 7.49294 12.8623 7.7231 12.6321C7.95325 12.4019 8.26542 12.2726 8.59091 12.2726H18.4091C18.7346 12.2726 19.0467 12.4019 19.2769 12.6321C19.5071 12.8623 19.6364 13.1744 19.6364 13.4999C19.6364 13.8254 19.5071 14.1376 19.2769 14.3677C19.0467 14.5979 18.7346 14.7272 18.4091 14.7272ZM20.8636 9.81811H6.13636C5.81087 9.81811 5.49871 9.68881 5.26855 9.45866C5.03839 9.2285 4.90909 8.91634 4.90909 8.59085C4.90909 8.26536 5.03839 7.9532 5.26855 7.72304C5.49871 7.49289 5.81087 7.36359 6.13636 7.36359H20.8636C21.1891 7.36359 21.5013 7.49289 21.7315 7.72304C21.9616 7.9532 22.0909 8.26536 22.0909 8.59085C22.0909 8.91634 21.9616 9.2285 21.7315 9.45866C21.5013 9.68881 21.1891 9.81811 20.8636 9.81811Z" fill="url(#paint0_linear)"/>
<defs>
<linearGradient id="paint0_linear" x1="13.5" y1="0" x2="13.5" y2="27" gradientUnits="userSpaceOnUse">
<stop stop-color="#02C4B8"/>
<stop offset="1" stop-color="#01A399"/>
</linearGradient>
</defs>
</svg>
