<svg width="23" height="23" viewBox="0 0 23 23" fill="none" xmlns="http://www.w3.org/2000/svg">
<path d="M11.4996 10.9524C14.524 10.9524 16.9758 8.50061 16.9758 5.47619C16.9758 2.45177 14.524 0 11.4996 0C8.47521 0 6.02344 2.45177 6.02344 5.47619C6.02344 8.50061 8.47521 10.9524 11.4996 10.9524Z" fill="url(#paint0_linear)"/>
<path d="M12.661 12.0479H10.3391C8.97704 12.0522 7.62917 12.3247 6.37244 12.8499C5.11571 13.3751 3.97473 14.1428 3.01466 15.1089C2.05459 16.0751 1.29423 17.2209 0.776979 18.4809C0.25973 19.741 -0.00426949 21.0906 5.22133e-05 22.4526C5.22133e-05 22.5978 0.0577477 22.7371 0.160446 22.8398C0.263145 22.9425 0.402434 23.0002 0.547671 23.0002H22.4524C22.6044 22.9864 22.7455 22.9154 22.8472 22.8015C22.9488 22.6877 23.0035 22.5395 23.0001 22.3869C22.9943 19.6466 21.9031 17.0202 19.9654 15.0825C18.0277 13.1448 15.4013 12.0536 12.661 12.0479Z" fill="url(#paint1_linear)"/>
<defs>
<linearGradient id="paint0_linear" x1="11.4996" y1="0" x2="11.4996" y2="10.9524" gradientUnits="userSpaceOnUse">
<stop stop-color="#02C4B8"/>
<stop offset="1" stop-color="#01A399"/>
</linearGradient>
<linearGradient id="paint1_linear" x1="11.5001" y1="12.0479" x2="11.5001" y2="23.0002" gradientUnits="userSpaceOnUse">
<stop stop-color="#02C4B8"/>
<stop offset="1" stop-color="#01A399"/>
</linearGradient>
</defs>
</svg>
