<svg width="23" height="23" viewBox="0 0 23 23" fill="none" xmlns="http://www.w3.org/2000/svg">
<path d="M11.4999 10.9524C14.5243 10.9524 16.9761 8.50061 16.9761 5.47619C16.9761 2.45177 14.5243 0 11.4999 0C8.47546 0 6.02368 2.45177 6.02368 5.47619C6.02368 8.50061 8.47546 10.9524 11.4999 10.9524Z" fill="url(#paint0_linear)"/>
<path d="M12.661 12.0476H10.3391C8.97704 12.0519 7.62917 12.3245 6.37244 12.8497C5.11571 13.3749 3.97473 14.1425 3.01466 15.1087C2.05459 16.0749 1.29423 17.2207 0.776979 18.4807C0.25973 19.7407 -0.00426949 21.0903 5.22133e-05 22.4524C5.22133e-05 22.5976 0.0577477 22.7369 0.160446 22.8396C0.263145 22.9423 0.402434 23 0.547671 23H22.4524C22.6044 22.9861 22.7455 22.9151 22.8472 22.8013C22.9488 22.6874 23.0035 22.5392 23.0001 22.3867C22.9943 19.6463 21.9031 17.0199 19.9654 15.0822C18.0277 13.1445 15.4013 12.0534 12.661 12.0476Z" fill="url(#paint1_linear)"/>
<defs>
<linearGradient id="paint0_linear" x1="11.4999" y1="0" x2="11.4999" y2="10.9524" gradientUnits="userSpaceOnUse">
<stop stop-color="#C9C9C9"/>
<stop offset="1" stop-color="#9C9C9C"/>
</linearGradient>
<linearGradient id="paint1_linear" x1="11.5001" y1="12.0476" x2="11.5001" y2="23" gradientUnits="userSpaceOnUse">
<stop stop-color="#C9C9C9"/>
<stop offset="1" stop-color="#9C9C9C"/>
</linearGradient>
</defs>
</svg>
