<svg width="20" height="23" viewBox="0 0 20 23" fill="none" xmlns="http://www.w3.org/2000/svg">
<path d="M14.7857 4.92857V0.5175L19.2707 5.75H15.6071C15.3893 5.75 15.1804 5.66346 15.0263 5.50941C14.8723 5.35536 14.7857 5.14643 14.7857 4.92857ZM15.6071 7.39286C14.9536 7.39286 14.3268 7.13323 13.8646 6.67108C13.4025 6.20894 13.1429 5.58214 13.1429 4.92857V0H2.46429C1.81072 0 1.18392 0.259629 0.721773 0.721773C0.259629 1.18392 0 1.81072 0 2.46429V20.5357C0 21.1893 0.259629 21.8161 0.721773 22.2782C1.18392 22.7404 1.81072 23 2.46429 23H17.25C17.9036 23 18.5304 22.7404 18.9925 22.2782C19.4547 21.8161 19.7143 21.1893 19.7143 20.5357V7.39286H15.6071Z" fill="url(#paint0_linear)"/>
<rect x="2.89935" y="7.63452" width="9.27731" height="2.31933" rx="1.15966" fill="white"/>
<rect x="2.89935" y="12.2731" width="13.1429" height="2.31933" rx="1.15966" fill="white"/>
<defs>
<linearGradient id="paint0_linear" x1="9.85714" y1="0" x2="9.85714" y2="23" gradientUnits="userSpaceOnUse">
<stop stop-color="#C9C9C9"/>
<stop offset="1" stop-color="#9C9C9C"/>
</linearGradient>
</defs>
</svg>
