<svg width="27" height="27" viewBox="0 0 27 27" fill="none" xmlns="http://www.w3.org/2000/svg">
<circle cx="13.5" cy="13.5" r="13.5" fill="#E8E8E8"/>
<path d="M19.3937 17.5619L15.8859 13.8354C15.7719 13.7143 15.7777 13.5238 15.8987 13.4098L19.6253 9.90201C20.2306 9.33225 20.2594 8.37954 19.6896 7.77425C19.1199 7.16896 18.1672 7.14015 17.5619 7.70991L13.8353 11.2177C13.7143 11.3317 13.5237 11.3259 13.4098 11.2048L9.90197 7.47826C9.33221 6.87297 8.3795 6.84416 7.77421 7.41392C7.16892 7.98367 7.14011 8.93638 7.70986 9.54167L11.2177 13.2682C11.3316 13.3893 11.3258 13.5798 11.2048 13.6938L7.47822 17.2016C6.87293 17.7713 6.84412 18.7241 7.41387 19.3293C7.98363 19.9346 8.93634 19.9634 9.54163 19.3937L13.2682 15.8859C13.3893 15.7719 13.5798 15.7777 13.6938 15.8988L17.2015 19.6253C17.7713 20.2306 18.724 20.2594 19.3293 19.6897C19.9346 19.1199 19.9634 18.1672 19.3937 17.5619Z" fill="white"/>
</svg>
