<svg width="24" height="24" viewBox="0 0 24 24" fill="none" xmlns="http://www.w3.org/2000/svg">
<path d="M11.7494 7C13.1301 7 14.2494 5.88071 14.2494 4.5C14.2494 3.11929 13.1301 2 11.7494 2C10.3687 2 9.24939 3.11929 9.24939 4.5C9.24939 5.88071 10.3687 7 11.7494 7Z" fill="#FF931C"/>
<path d="M15.4956 15.0625L14.9268 9.37625C14.8631 8.73375 14.3281 8.25 13.6843 8.25H9.81558C9.17058 8.25 8.63558 8.73375 8.57183 9.375L8.00308 15.0625C7.98558 15.2387 8.04308 15.4125 8.16183 15.545C8.27933 15.675 8.44808 15.75 8.62433 15.75H9.30808L9.82058 20.875C9.88433 21.515 10.4206 22 11.0656 22H12.4343C13.0793 22 13.6143 21.515 13.6781 20.875L14.1906 15.75H14.8743C15.0518 15.75 15.2193 15.675 15.3381 15.545C15.4568 15.4138 15.5143 15.2387 15.4956 15.0625Z" fill="#00A79D"/>
</svg>
