<svg width="16" height="13" viewBox="0 0 16 13" fill="none" xmlns="http://www.w3.org/2000/svg">
<path d="M7.91304 7.85355C6.97298 7.85355 6.03292 8.23532 5.42465 8.94432C4.87167 9.59878 3.87631 8.72616 4.42929 8.0717C5.31405 7.09001 6.5859 6.54462 7.91304 6.54462C9.24019 6.54462 10.512 7.09001 11.3968 8.0717C11.9498 8.72616 10.9544 9.59878 10.4014 8.94432C9.79317 8.23532 8.85311 7.85355 7.91304 7.85355ZM7.91304 12.4348C7.19417 12.4348 6.5859 11.8349 6.5859 11.1259C6.5859 10.4169 7.19417 9.81693 7.91304 9.81693C8.63192 9.81693 9.24019 10.4169 9.24019 11.1259C9.24019 11.8349 8.63192 12.4348 7.91304 12.4348ZM7.91304 4.58124C6.14352 4.58124 4.53988 5.18116 3.26803 6.43555C2.71506 6.98093 1.6644 6.16285 2.32797 5.50839C3.82101 4.03585 5.81173 3.27231 7.91304 3.27231C10.0144 3.27231 12.0051 4.03585 13.4981 5.50839C14.1617 6.16285 13.111 6.98093 12.5581 6.43555C11.2862 5.18116 9.68257 4.58124 7.91304 4.58124ZM7.91304 1.30892C5.36935 1.30892 2.99155 2.23608 1.16672 3.92677C0.503147 4.5267 -0.436915 3.59954 0.226658 2.99962C2.38327 1.03623 5.03756 0 7.91304 0C10.7885 0 13.4428 1.03623 15.5994 2.99962C16.263 3.59954 15.3229 4.5267 14.6594 3.92677C12.8345 2.23608 10.4567 1.30892 7.91304 1.30892Z" fill="#BBBBBB"/>
<circle cx="7.91318" cy="11.3044" r="1.69565" fill="#BBBBBB"/>
</svg>
