<svg width="21" height="21" viewBox="0 0 21 21" fill="none" xmlns="http://www.w3.org/2000/svg">
<path d="M10.4998 5.25C11.9496 5.25 13.1248 4.07475 13.1248 2.625C13.1248 1.17525 11.9496 0 10.4998 0C9.05007 0 7.87482 1.17525 7.87482 2.625C7.87482 4.07475 9.05007 5.25 10.4998 5.25Z" fill="#FF931C"/>
<path d="M14.4334 13.7156L13.8362 7.74506C13.7692 7.07044 13.2075 6.5625 12.5315 6.5625H8.46935C7.7921 6.5625 7.23035 7.07044 7.16341 7.74375L6.56623 13.7156C6.54785 13.9007 6.60823 14.0831 6.73291 14.2223C6.85629 14.3588 7.03348 14.4375 7.21854 14.4375H7.93648L8.4746 19.8188C8.54154 20.4908 9.1046 21 9.78185 21H11.219C11.8963 21 12.458 20.4908 12.525 19.8188L13.0631 14.4375H13.781C13.9674 14.4375 14.1433 14.3588 14.268 14.2223C14.3927 14.0844 14.453 13.9007 14.4334 13.7156Z" fill="#00A79D"/>
</svg>
