<svg width="22" height="22" viewBox="0 0 22 22" fill="none" xmlns="http://www.w3.org/2000/svg">
<path d="M10.9998 5.5C12.5185 5.5 13.7498 4.26878 13.7498 2.75C13.7498 1.23122 12.5185 0 10.9998 0C9.48097 0 8.24976 1.23122 8.24976 2.75C8.24976 4.26878 9.48097 5.5 10.9998 5.5Z" fill="white"/>
<path d="M15.1206 14.3687L14.495 8.11388C14.4249 7.40713 13.8364 6.875 13.1283 6.875H8.87263C8.16313 6.875 7.57463 7.40713 7.50451 8.1125L6.87888 14.3687C6.85963 14.5626 6.92288 14.7538 7.05351 14.8995C7.18276 15.0425 7.36838 15.125 7.56226 15.125H8.31438L8.87813 20.7625C8.94826 21.4665 9.53813 22 10.2476 22H11.7533C12.4628 22 13.0513 21.4665 13.1214 20.7625L13.6851 15.125H14.4373C14.6325 15.125 14.8168 15.0425 14.9474 14.8995C15.078 14.7551 15.1413 14.5626 15.1206 14.3687Z" fill="white"/>
</svg>
