<svg width="24" height="24" viewBox="0 0 24 24" fill="none" xmlns="http://www.w3.org/2000/svg">
<rect x="14.3889" y="9.86295" width="2.45556" height="2.45556" fill="#FF931C"/>
<rect x="7.02228" y="9.86295" width="9.82222" height="6.54815" fill="#FF931C"/>
<path d="M17.3933 5H16.0933V6.3C16.0933 6.56 15.8767 6.73333 15.66 6.73333C15.4433 6.73333 15.2267 6.56 15.2267 6.3V5H8.29333V6.3C8.29333 6.56 8.07667 6.73333 7.86 6.73333C7.64333 6.73333 7.42667 6.56 7.42667 6.3V5H6.12667C5.47667 5 5 5.56333 5 6.3V7.86H18.8667V6.3C18.8667 5.56333 18.0867 5 17.3933 5ZM5 8.77V16.7C5 17.48 5.47667 18 6.17 18H17.4367C18.13 18 18.91 17.4367 18.91 16.7V8.77H5ZM8.85667 16.05H7.81667C7.64333 16.05 7.47 15.92 7.47 15.7033V14.62C7.47 14.4467 7.6 14.2733 7.81667 14.2733H8.9C9.07333 14.2733 9.24667 14.4033 9.24667 14.62V15.7033C9.20333 15.92 9.07333 16.05 8.85667 16.05ZM8.85667 12.15H7.81667C7.64333 12.15 7.47 12.02 7.47 11.8033V10.72C7.47 10.5467 7.6 10.3733 7.81667 10.3733H8.9C9.07333 10.3733 9.24667 10.5033 9.24667 10.72V11.8033C9.20333 12.02 9.07333 12.15 8.85667 12.15ZM12.3233 16.05H11.24C11.0667 16.05 10.8933 15.92 10.8933 15.7033V14.62C10.8933 14.4467 11.0233 14.2733 11.24 14.2733H12.3233C12.4967 14.2733 12.67 14.4033 12.67 14.62V15.7033C12.67 15.92 12.54 16.05 12.3233 16.05ZM12.3233 12.15H11.24C11.0667 12.15 10.8933 12.02 10.8933 11.8033V10.72C10.8933 10.5467 11.0233 10.3733 11.24 10.3733H12.3233C12.4967 10.3733 12.67 10.5033 12.67 10.72V11.8033C12.67 12.02 12.54 12.15 12.3233 12.15ZM15.79 16.05H14.7067C14.5333 16.05 14.36 15.92 14.36 15.7033V14.62C14.36 14.4467 14.49 14.2733 14.7067 14.2733H15.79C15.9633 14.2733 16.1367 14.4033 16.1367 14.62V15.7033C16.1367 15.92 16.0067 16.05 15.79 16.05ZM15.79 12.15H14.7067C14.5333 12.15 14.36 12.02 14.36 11.8033V10.72C14.36 10.5467 14.49 10.3733 14.7067 10.3733H15.79C15.9633 10.3733 16.1367 10.5033 16.1367 10.72V11.8033C16.1367 12.02 16.0067 12.15 15.79 12.15Z" fill="#00A79D"/>
</svg>
