<svg width="24" height="24" viewBox="0 0 24 24" fill="none" xmlns="http://www.w3.org/2000/svg">
<path d="M14.6055 12.3789V12.8184H6.63672V11.0605H13.2871C14.0166 11.0605 14.6055 11.6494 14.6055 12.3789Z" fill="#00A79D"/>
<path d="M14.6055 12.3789V12.8184H11.9395V11.0605H13.2871C14.0166 11.0605 14.6055 11.6494 14.6055 12.3789Z" fill="#00A79D"/>
<path d="M8.39453 16.8027H9.27344V18.5605H8.39453V16.8027Z" fill="#00A79D"/>
<path d="M14.6055 16.8027H15.4844V18.5605H14.6055V16.8027Z" fill="#00A79D"/>
<path d="M17.2422 16.8041V17.2436H6.85645L4 4.25626L4.85251 4.05414C5.79294 3.82563 6.74219 4.39691 6.9707 5.3461L8.93066 14.5776H15.0449C16.2578 14.5776 17.2422 15.5913 17.2422 16.8041Z" fill="#00A79D"/>
<path d="M16.3633 4C14.9131 4 13.7266 5.18649 13.7266 6.63672V8.42383C13.7266 9.87399 14.9131 11.0605 16.3633 11.0605C17.8135 11.0605 19 9.87399 19 8.42383V6.63672C19 5.18649 17.8135 4 16.3633 4Z" fill="url(#paint0_linear)"/>
<path d="M19 6.63672V8.42383C19 9.87399 17.8135 11.0605 16.3633 11.0605V4C17.8135 4 19 5.18649 19 6.63672Z" fill="url(#paint1_linear)"/>
<path d="M18.1211 6.63672L17.2422 7.51562H15.4844L14.6055 6.63672C14.6055 5.66989 15.3965 4.87891 16.3633 4.87891C17.33 4.87891 18.1211 5.66989 18.1211 6.63672Z" fill="#FF931C"/>
<path d="M18.1211 6.63672L17.2422 7.51562H16.3633V4.87891C17.33 4.87891 18.1211 5.66989 18.1211 6.63672Z" fill="#FF931C"/>
<path d="M14.6055 6.63672V8.42383C14.6055 9.3906 15.3965 10.1816 16.3633 10.1816C17.33 10.1816 18.1211 9.3906 18.1211 8.42383V6.63672H14.6055Z" fill="#FF931C"/>
<path d="M18.1211 6.63672V8.42383C18.1211 9.3906 17.33 10.1816 16.3633 10.1816V6.63672H18.1211Z" fill="#FF931C"/>
<path d="M17.2422 16.8027V17.2422H11.9395V14.5762H15.0449C16.2578 14.5762 17.2422 15.5898 17.2422 16.8027Z" fill="#00A79D"/>
<path d="M6.63672 18.1211H17.2422V19H6.63672V18.1211Z" fill="#00A79D"/>
<path d="M11.9395 18.1211H17.2422V19H11.9395V18.1211Z" fill="#00A79D"/>
<defs>
<linearGradient id="paint0_linear" x1="16.3633" y1="4" x2="16.3633" y2="11.0605" gradientUnits="userSpaceOnUse">
<stop stop-color="#02C4B8"/>
<stop offset="1" stop-color="#01A399"/>
</linearGradient>
<linearGradient id="paint1_linear" x1="17.6816" y1="4" x2="17.6816" y2="11.0605" gradientUnits="userSpaceOnUse">
<stop stop-color="#02C4B8"/>
<stop offset="1" stop-color="#01A399"/>
</linearGradient>
</defs>
</svg>
