<svg width="19" height="19" viewBox="0 0 19 19" fill="none" xmlns="http://www.w3.org/2000/svg">
<path d="M17.8324 8.35621L14.3242 8.42846L11.5192 2.84858H9.75906L11.1019 8.49481L7.49112 8.56914L6.54335 7.24901H4.95243L6.03558 9.50003L4.95239 11.751H6.54331L7.49108 10.4309L11.1019 10.5052L9.75902 16.1514H11.5192L14.3242 10.5715L17.8324 10.6437C18.4733 10.657 19 10.1411 19 9.50003C19 8.859 18.4733 8.34307 17.8324 8.35621Z" fill="white"/>
<path d="M3.20962 6.71684H1.02759V7.83012H3.20962V6.71684Z" fill="white"/>
<path d="M3.20962 11.17H1.02759V12.2832H3.20962V11.17Z" fill="white"/>
<path d="M3.20959 8.9434H0V10.0567H3.20959V8.9434Z" fill="white"/>
</svg>
