<svg width="15" height="15" viewBox="0 0 15 15" fill="none" xmlns="http://www.w3.org/2000/svg">
<g clip-path="url(#clip0)">
<path d="M14.61 12.7537L8.7282 6.87187L1.85633 0H1.31929L1.20963 0.278643C0.920208 1.01411 0.796545 1.76634 0.852063 2.45391C0.915344 3.23766 1.21309 3.9162 1.71316 4.41627L7.07771 9.78082L7.78528 9.07324L12.7448 14.6189C13.2382 15.1123 14.0873 15.1416 14.61 14.6189C15.1243 14.1047 15.1243 13.2679 14.61 12.7537Z" fill="#BBBBBB"/>
<path d="M4.5918 8.53833L0.390303 12.7398C-0.123916 13.254 -0.123916 14.0908 0.390303 14.605C0.878799 15.0935 1.72387 15.1366 2.25549 14.605L6.45701 10.4035L4.5918 8.53833Z" fill="#BBBBBB"/>
<path d="M14.3628 2.49751L11.9794 4.88081L11.3577 4.25907L13.741 1.87574L13.1193 1.25401L10.736 3.63731L10.1142 3.01557L12.4976 0.632268L11.8758 0.0105591L8.76715 3.11925C8.38685 3.49955 8.15977 4.00451 8.12766 4.54117C8.11954 4.67714 8.08872 4.81088 8.0376 4.93809L10.057 6.95749C10.1842 6.90631 10.318 6.87552 10.4539 6.8674C10.9906 6.83538 11.4955 6.60824 11.8758 6.22794L14.9845 3.11928L14.3628 2.49751Z" fill="#BBBBBB"/>
</g>
<defs>
<clipPath id="clip0">
<rect width="15" height="15" fill="white"/>
</clipPath>
</defs>
</svg>
