<svg width="22" height="22" viewBox="0 0 22 22" fill="none" xmlns="http://www.w3.org/2000/svg">
<g clip-path="url(#clip0)">
<path d="M21.366 4.99344C20.9211 4.83063 20.4341 5.01643 20.2025 5.41121C19.4727 4.20657 18.5091 3.1525 17.3484 2.30084C15.4887 0.936249 13.283 0.214844 10.9701 0.214844C8.65718 0.214844 6.4515 0.936249 4.59176 2.30084C2.77029 3.63724 1.43322 5.4718 0.725076 7.60614C0.557229 8.11203 0.831323 8.65837 1.33738 8.82639C1.84361 8.99423 2.38978 8.72014 2.55763 8.21408C3.13888 6.4621 4.23727 4.95567 5.73396 3.85745C7.26019 2.73758 9.07075 2.14558 10.9701 2.14558C12.8693 2.14558 14.68 2.73758 16.2063 3.85745C17.0975 4.51155 17.8476 5.31033 18.4312 6.21956C17.9871 6.15292 17.5425 6.40469 17.382 6.84277C17.1989 7.34346 17.4562 7.89803 17.9569 8.08115L19.967 8.81665C19.9719 8.8185 19.9768 8.81967 19.9816 8.82135C19.9984 8.82723 20.0154 8.83243 20.0327 8.83746C20.0419 8.84015 20.0509 8.84284 20.0602 8.84519C20.0775 8.84955 20.0951 8.85341 20.1125 8.85677C20.1216 8.85861 20.1305 8.86063 20.1396 8.86214C20.1582 8.86533 20.177 8.86751 20.196 8.86952C20.2037 8.87036 20.2114 8.8717 20.2191 8.87238C20.2455 8.87456 20.2718 8.87573 20.2985 8.87573H20.2987C20.3237 8.87573 20.3485 8.87473 20.3734 8.87271C20.3793 8.87238 20.3851 8.87137 20.3912 8.8707C20.4101 8.86885 20.4293 8.86701 20.4481 8.86398C20.4555 8.86281 20.4627 8.86113 20.4701 8.85979C20.4875 8.8566 20.5051 8.85324 20.5224 8.84905C20.5305 8.8472 20.5385 8.84468 20.5468 8.8425C20.563 8.83814 20.5793 8.83377 20.5954 8.82857C20.598 8.82773 20.6003 8.82723 20.6027 8.82639C20.6075 8.82488 20.6119 8.82269 20.6168 8.82102C20.6381 8.81346 20.6591 8.80541 20.6797 8.79651C20.6886 8.79265 20.6975 8.78896 20.7062 8.78493C20.7264 8.77553 20.7462 8.76529 20.7656 8.75455C20.7718 8.75102 20.7784 8.748 20.7844 8.74448C20.8079 8.73088 20.8306 8.71611 20.8529 8.7005C20.8616 8.69429 20.87 8.68774 20.8784 8.68153C20.8934 8.67029 20.9078 8.65871 20.9222 8.64679C20.93 8.64008 20.9377 8.63353 20.9454 8.62665C20.9615 8.61205 20.9773 8.59677 20.9926 8.58083C20.9968 8.57646 21.0013 8.57227 21.0055 8.5679C21.0253 8.54659 21.0444 8.52409 21.0624 8.50093C21.0637 8.49925 21.0647 8.49757 21.0661 8.4959C21.082 8.47475 21.0973 8.45293 21.1117 8.43027C21.1154 8.42423 21.1191 8.41818 21.1228 8.41197C21.1339 8.39368 21.1445 8.37505 21.1545 8.35574C21.1586 8.34786 21.1628 8.33997 21.1666 8.33191C21.1754 8.31395 21.1832 8.29565 21.191 8.27686C21.1947 8.26813 21.1983 8.25957 21.2017 8.25084C21.2029 8.24782 21.2042 8.24497 21.2054 8.24194L21.9409 6.23181C22.1242 5.73096 21.8667 5.17656 21.366 4.99344V4.99344Z" fill="white"/>
<path d="M0.633952 17.0208C1.07891 17.1836 1.566 16.9978 1.79747 16.6029C2.52726 17.8077 3.49087 18.8618 4.65153 19.7134C6.51127 21.078 8.71694 21.7994 11.0299 21.7994C13.3428 21.7994 15.5485 21.078 17.4082 19.7134C19.2297 18.3769 20.5668 16.5423 21.2749 14.4081C21.4427 13.9021 21.1687 13.3557 20.6626 13.1879C20.1564 13.0199 19.6102 13.2941 19.4423 13.8002C18.8611 15.552 17.7627 17.0586 16.266 18.1566C14.7398 19.2765 12.9292 19.8685 11.0299 19.8685C9.13069 19.8685 7.32013 19.2767 5.7939 18.1566C4.90246 17.5027 4.15252 16.7038 3.56892 15.7947C4.01304 15.8613 4.45767 15.6096 4.61796 15.1713C4.80125 14.6706 4.54377 14.1162 4.04309 13.9331L2.03295 13.1976C2.02825 13.1958 2.02339 13.1946 2.01852 13.1929C2.00157 13.187 1.98461 13.1817 1.96733 13.1768C1.95826 13.1741 1.94903 13.1714 1.93997 13.1691C1.92251 13.1645 1.90506 13.1609 1.88743 13.1573C1.87854 13.1557 1.86947 13.1536 1.86058 13.1521C1.84178 13.1489 1.82298 13.1468 1.80401 13.1446C1.79629 13.1437 1.78857 13.1426 1.78102 13.1419C1.75466 13.1397 1.72814 13.1385 1.70146 13.1385H1.70129C1.67628 13.1385 1.65127 13.1395 1.6266 13.1414C1.62072 13.1419 1.61468 13.1429 1.60881 13.1434C1.58984 13.1452 1.5707 13.1474 1.55191 13.1503C1.54452 13.1515 1.5373 13.1531 1.52992 13.1545C1.51246 13.1577 1.49484 13.161 1.47755 13.1651C1.46949 13.1671 1.46144 13.1696 1.45321 13.1718C1.43693 13.1761 1.42048 13.1805 1.40454 13.1857C1.40202 13.1865 1.39967 13.187 1.39715 13.1879C1.39245 13.1894 1.38792 13.1916 1.38322 13.1932C1.3619 13.2006 1.34092 13.2089 1.32028 13.2178C1.31138 13.2214 1.30249 13.2253 1.29376 13.2293C1.27362 13.2387 1.25381 13.249 1.23417 13.2597C1.22813 13.2631 1.22158 13.2661 1.21554 13.2696C1.19204 13.2834 1.16922 13.2982 1.14706 13.3138C1.13833 13.32 1.12994 13.3264 1.12155 13.3327C1.10661 13.344 1.09201 13.3554 1.07774 13.3675C1.07002 13.374 1.0623 13.3807 1.05458 13.3876C1.03829 13.4022 1.02269 13.4175 1.00741 13.4333C1.00321 13.4378 0.998683 13.4418 0.994487 13.4464C0.974681 13.4677 0.955546 13.49 0.937587 13.5133C0.936244 13.515 0.935237 13.5167 0.933894 13.5184C0.917949 13.5393 0.902675 13.5613 0.88824 13.5838C0.884379 13.5899 0.880855 13.5961 0.877162 13.6023C0.865916 13.6206 0.85551 13.6392 0.845439 13.6585C0.841411 13.6664 0.837214 13.6743 0.833354 13.6822C0.824626 13.7003 0.816569 13.7186 0.808848 13.7374C0.805324 13.746 0.801463 13.7545 0.798274 13.7634C0.797099 13.7664 0.795588 13.7693 0.794581 13.7723L0.0590771 15.7825C-0.124211 16.2831 0.133265 16.8375 0.633952 17.0208V17.0208Z" fill="white"/>
</g>
<defs>
<clipPath id="clip0">
<rect width="22" height="22" fill="white"/>
</clipPath>
</defs>
</svg>
