<svg width="23" height="23" viewBox="0 0 23 23" fill="none" xmlns="http://www.w3.org/2000/svg">
<path d="M5.71703 14.3136C5.65828 14.3724 5.61876 14.4471 5.60199 14.5277L5.00818 17.4979C4.98049 17.6355 5.02417 17.7775 5.12322 17.8774C5.20304 17.9573 5.31054 18 5.42066 18C5.44742 18 5.47526 17.9976 5.50295 17.9917L8.47219 17.3979C8.55447 17.381 8.62921 17.3416 8.6872 17.2827L15.3328 10.6371L12.3636 7.66797L5.71703 14.3136Z" fill="#00A79D"/>
<path d="M17.3856 5.61423C16.5667 4.79526 15.2345 4.79526 14.4163 5.61423L13.2539 6.77664L16.2231 9.74588L17.3856 8.58332C17.782 8.18775 18.0004 7.66022 18.0004 7.09916C18.0004 6.5381 17.782 6.01057 17.3856 5.61423Z" fill="#00A79D"/>
</svg>
