<svg width="12" height="12" viewBox="0 0 12 12" fill="none" xmlns="http://www.w3.org/2000/svg">
<g clip-path="url(#clip0)">
<path d="M7.5 3.25C7.224 3.25 7 3.026 7 2.75V2H5V2.75C5 3.026 4.776 3.25 4.5 3.25C4.224 3.25 4 3.026 4 2.75V2C4 1.4485 4.4485 1 5 1H7C7.5515 1 8 1.4485 8 2V2.75C8 3.026 7.776 3.25 7.5 3.25Z" fill="#BBBBBB"/>
<path d="M6.355 7.69C6.265 7.725 6.135 7.75 6 7.75C5.865 7.75 5.735 7.725 5.615 7.68L0 5.81V9.625C0 10.385 0.615 11 1.375 11H10.625C11.385 11 12 10.385 12 9.625V5.81L6.355 7.69Z" fill="#BBBBBB"/>
<path d="M12 3.875V5.02L6.12 6.98C6.08 6.995 6.04 7 6 7C5.96 7 5.92 6.995 5.88 6.98L0 5.02V3.875C0 3.115 0.615 2.5 1.375 2.5H10.625C11.385 2.5 12 3.115 12 3.875Z" fill="#BBBBBB"/>
</g>
<defs>
<clipPath id="clip0">
<rect width="12" height="12" fill="white"/>
</clipPath>
</defs>
</svg>
