<svg width="15" height="24" viewBox="0 0 15 24" fill="none" xmlns="http://www.w3.org/2000/svg">
<path d="M9.5298 6.62534C9.5298 8.01874 8.39603 9.15298 7.00216 9.15298C5.60828 9.15298 4.47452 8.01874 4.47452 6.62534C4.47452 5.23146 5.60828 4.09723 7.00216 4.09723C8.39603 4.09723 9.5298 5.23146 9.5298 6.62534Z" fill="#D2D5D4"/>
<path d="M12.4311 2.63072C11.1398 0.983766 9.11232 0 7.00228 0C4.89225 0 2.86472 0.983766 1.5735 2.63072C0.117287 4.48809 -0.143292 6.72656 0.622083 8.91394C1.35793 11.0169 2.9205 12.7703 4.19813 14.5775C4.8046 15.4357 5.84086 16.9012 6.46936 17.7908C6.72952 18.1588 7.27505 18.1588 7.53516 17.7908C8.16366 16.9013 9.19993 15.4357 9.80639 14.5775C11.084 12.7702 12.6466 11.0169 13.3824 8.91394C14.1479 6.72656 13.8873 4.48814 12.4311 2.63072ZM7.00228 10.559C4.83319 10.559 3.06858 8.7944 3.06858 6.62536C3.06858 4.45631 4.83319 2.69119 7.00228 2.69119C9.17138 2.69119 10.936 4.45626 10.936 6.62536C10.936 8.79445 9.17138 10.559 7.00228 10.559Z" fill="#D2D5D4"/>
<path d="M14.0043 19.3178C14.0043 19.5592 13.8806 19.7833 13.6767 19.9121L7.37761 23.8913C7.26281 23.9639 7.1325 24 7.00219 24C6.87187 24 6.74161 23.9639 6.62676 23.8913L0.327609 19.9121C0.12375 19.7832 0 19.5592 0 19.3178C0 19.0765 0.12375 18.8524 0.327609 18.7236L3.83855 16.5058L5.32101 18.6027C5.70628 19.1473 6.33478 19.473 7.00219 19.473C7.66959 19.473 8.29809 19.1473 8.68336 18.6027L9.639 17.2505L10.1654 16.5058L13.6768 18.7236C13.8806 18.8524 14.0043 19.0764 14.0043 19.3178Z" fill="#D2D5D4"/>
</svg>
