<svg width="16" height="16" viewBox="0 0 16 16" fill="none" xmlns="http://www.w3.org/2000/svg">
<path d="M8 16C12.4107 16 16 12.4107 16 8C16 3.58934 12.4107 0 8 0C3.5893 0 0 3.58934 0 8C0 12.4107 3.58934 16 8 16ZM8 1.06665C11.824 1.06665 14.9333 4.17597 14.9333 8C14.9333 11.824 11.824 14.9333 8 14.9333C4.17597 14.9333 1.06665 11.824 1.06665 8C1.06665 4.17597 4.17601 1.06665 8 1.06665Z" fill="#939393"/>
<path d="M10.3332 10.5495C10.4319 10.6295 10.5492 10.6669 10.6665 10.6669C10.8239 10.6669 10.9785 10.5975 11.0825 10.4669C11.2665 10.2375 11.2292 9.90153 10.9999 9.71752L8.5332 7.74419V3.73352C8.5332 3.44018 8.29321 3.2002 7.99988 3.2002C7.70654 3.2002 7.46655 3.44018 7.46655 3.73352V8.0002C7.46655 8.16288 7.54123 8.31487 7.66655 8.41619L10.3332 10.5495Z" fill="#939393"/>
</svg>
