<svg width="19" height="19" viewBox="0 0 19 19" fill="none" xmlns="http://www.w3.org/2000/svg">
<path d="M3.74696 12.7022C3.68576 12.7634 3.64458 12.8413 3.62712 12.9253L3.00852 16.0194C2.97968 16.1628 3.02518 16.3107 3.12836 16.4148C3.21151 16.4979 3.3235 16.5425 3.43822 16.5425C3.4661 16.5425 3.4951 16.5399 3.52394 16.5338L6.61709 15.9152C6.70281 15.8976 6.78067 15.8566 6.84107 15.7952L13.7641 8.87225L10.6709 5.77925L3.74696 12.7022Z" fill="#00A79D"/>
<path d="M15.9025 3.63987C15.0495 2.78671 13.6617 2.78671 12.8093 3.63987L11.5984 4.85079L14.6915 7.94394L15.9025 6.73286C16.3155 6.32078 16.543 5.77124 16.543 5.18677C16.543 4.60229 16.3155 4.05275 15.9025 3.63987Z" fill="#00A79D"/>
</svg>
