<svg width="25" height="25" viewBox="0 0 25 25" fill="none" xmlns="http://www.w3.org/2000/svg">
<path d="M12.5 0C5.59067 0 0 5.59116 0 12.5C0 19.4093 5.59116 25 12.5 25C19.4093 25 25 19.4088 25 12.5C25 5.59067 19.4088 0 12.5 0ZM12.5 23.0469C6.67026 23.0469 1.95312 18.3293 1.95312 12.5C1.95312 6.67026 6.67065 1.95312 12.5 1.95312C18.3297 1.95312 23.0469 6.67065 23.0469 12.5C23.0469 18.3297 18.3293 23.0469 12.5 23.0469Z" fill="white"/>
<path d="M12.5 0C5.59067 0 0 5.59116 0 12.5C0 19.4093 5.59116 25 12.5 25C19.4093 25 25 19.4088 25 12.5C25 5.59067 19.4088 0 12.5 0ZM12.5 23.0469C6.67026 23.0469 1.95312 18.3293 1.95312 12.5C1.95312 6.67026 6.67065 1.95312 12.5 1.95312C18.3297 1.95312 23.0469 6.67065 23.0469 12.5C23.0469 18.3297 18.3293 23.0469 12.5 23.0469Z" fill="white"/>
<path d="M12.5 6.29297C11.9606 6.29297 11.5234 6.73018 11.5234 7.26953V13.5583C11.5234 14.0976 11.9606 14.5348 12.5 14.5348C13.0394 14.5348 13.4766 14.0976 13.4766 13.5583V7.26953C13.4766 6.73018 13.0394 6.29297 12.5 6.29297Z" fill="white"/>
<path d="M12.5 18.3667C13.2281 18.3667 13.8184 17.7764 13.8184 17.0483C13.8184 16.3202 13.2281 15.73 12.5 15.73C11.7719 15.73 11.1816 16.3202 11.1816 17.0483C11.1816 17.7764 11.7719 18.3667 12.5 18.3667Z" fill="white"/>
</svg>
