<svg width="25" height="25" viewBox="0 0 25 25" fill="none" xmlns="http://www.w3.org/2000/svg">
<path d="M12.5 25C5.60741 25 0 19.3926 0 12.5C0 5.60741 5.60741 0 12.5 0C19.3926 0 25 5.60741 25 12.5C25 19.3926 19.3926 25 12.5 25ZM12.5 1.78566C6.59218 1.78566 1.78566 6.59218 1.78566 12.5C1.78566 18.4078 6.59218 23.2143 12.5 23.2143C18.4078 23.2143 23.2143 18.4078 23.2143 12.5C23.2143 6.59218 18.4078 1.78566 12.5 1.78566Z" fill="white"/>
<path d="M16.965 17.8578C16.7365 17.8578 16.508 17.7706 16.3337 17.5961L7.4052 8.6676C7.05634 8.31874 7.05634 7.75379 7.4052 7.40512C7.75386 7.05646 8.31901 7.05627 8.66767 7.40512L17.5962 16.3336C17.945 16.6825 17.945 17.2474 17.5962 17.5961C17.4218 17.7706 17.1935 17.8578 16.965 17.8578V17.8578Z" fill="white"/>
<path d="M8.03634 17.8569C7.80784 17.8569 7.57953 17.7697 7.4052 17.5952C7.05634 17.2465 7.05634 16.6814 7.4052 16.3327L16.3337 7.40422C16.6825 7.05536 17.2475 7.05536 17.5962 7.40422C17.9448 7.75288 17.945 8.31803 17.5962 8.66669L8.66767 17.5952C8.49334 17.7697 8.26484 17.8569 8.03634 17.8569V17.8569Z" fill="white"/>
</svg>
