<svg width="47" height="14" viewBox="0 0 47 14" fill="none" xmlns="http://www.w3.org/2000/svg">
<path d="M4.152 11.12C3.448 11.12 2.82 10.964 2.268 10.652C1.724 10.34 1.3 9.88 0.996 9.272C0.692 8.664 0.54 7.924 0.54 7.052C0.54 6.204 0.7 5.476 1.02 4.868C1.34 4.252 1.796 3.78 2.388 3.452C2.988 3.124 3.692 2.96 4.5 2.96C5.404 2.96 6.128 3.124 6.672 3.452C7.224 3.772 7.652 4.284 7.956 4.988L6.048 5.744C5.944 5.336 5.76 5.04 5.496 4.856C5.232 4.672 4.904 4.58 4.512 4.58C3.92 4.58 3.46 4.792 3.132 5.216C2.812 5.632 2.652 6.24 2.652 7.04C2.652 7.888 2.816 8.52 3.144 8.936C3.472 9.344 3.964 9.548 4.62 9.548C5.076 9.548 5.456 9.44 5.76 9.224C6.064 9.008 6.216 8.676 6.216 8.228V8.108H4.404V6.728H7.968V11H6.564L6.48 10.028C6.256 10.38 5.948 10.652 5.556 10.844C5.172 11.028 4.704 11.12 4.152 11.12ZM12.7519 7.196C12.7519 6.916 12.6719 6.696 12.5119 6.536C12.3599 6.368 12.1519 6.284 11.8879 6.284C11.6239 6.284 11.3959 6.352 11.2039 6.488C11.0199 6.616 10.8919 6.848 10.8199 7.184L9.09188 6.776C9.20388 6.2 9.49988 5.74 9.97988 5.396C10.4599 5.052 11.1359 4.88 12.0079 4.88C12.8879 4.88 13.5679 5.076 14.0479 5.468C14.5359 5.852 14.7799 6.416 14.7799 7.16V9.356C14.7799 9.668 14.9199 9.824 15.1999 9.824C15.3439 9.824 15.4599 9.808 15.5479 9.776L15.4279 10.94C15.1879 11.052 14.8959 11.108 14.5519 11.108C14.1759 11.108 13.8519 11.036 13.5799 10.892C13.3079 10.74 13.1239 10.512 13.0279 10.208C12.8599 10.52 12.5919 10.752 12.2239 10.904C11.8639 11.048 11.4799 11.12 11.0719 11.12C10.4559 11.12 9.96388 10.98 9.59588 10.7C9.23588 10.412 9.05588 10 9.05588 9.464C9.05588 9.032 9.18388 8.676 9.43988 8.396C9.70388 8.108 10.1159 7.908 10.6759 7.796L12.7519 7.364V7.196ZM11.0719 9.272C11.0719 9.448 11.1359 9.58 11.2639 9.668C11.3919 9.756 11.5439 9.8 11.7199 9.8C11.9919 9.8 12.2319 9.72 12.4399 9.56C12.6479 9.392 12.7519 9.132 12.7519 8.78V8.444L11.7799 8.648C11.5399 8.696 11.3599 8.768 11.2399 8.864C11.1279 8.952 11.0719 9.088 11.0719 9.272ZM20.1557 9.668C20.8517 9.668 21.3837 9.816 21.7517 10.112C22.1277 10.4 22.3157 10.816 22.3157 11.36C22.3157 12.112 22.0157 12.668 21.4157 13.028C20.8237 13.396 20.0237 13.58 19.0157 13.58C17.9277 13.58 17.1437 13.444 16.6637 13.172C16.1837 12.9 15.9437 12.532 15.9437 12.068C15.9437 11.796 16.0317 11.564 16.2077 11.372C16.3917 11.18 16.6837 11.048 17.0837 10.976C16.4997 10.76 16.2077 10.356 16.2077 9.764C16.2077 9.484 16.2917 9.24 16.4597 9.032C16.6277 8.816 16.8597 8.66 17.1557 8.564C16.5157 8.212 16.1957 7.664 16.1957 6.92C16.1957 6.272 16.4477 5.772 16.9517 5.42C17.4637 5.06 18.1797 4.88 19.0997 4.88C19.5637 4.88 19.9837 4.928 20.3597 5.024C20.3917 4.736 20.4717 4.468 20.5997 4.22C20.7357 3.972 20.9197 3.772 21.1517 3.62C21.3917 3.46 21.6837 3.38 22.0277 3.38C22.0517 3.38 22.0797 3.384 22.1117 3.392C22.1437 3.392 22.1797 3.392 22.2197 3.392L22.3877 4.76C22.2997 4.736 22.2037 4.724 22.0997 4.724C21.8197 4.724 21.5957 4.78 21.4277 4.892C21.2597 5.004 21.1477 5.148 21.0917 5.324C21.6917 5.676 21.9917 6.208 21.9917 6.92C21.9917 7.568 21.7357 8.068 21.2237 8.42C20.7197 8.772 20.0117 8.948 19.0997 8.948C18.6837 8.948 18.3077 8.912 17.9717 8.84C17.7077 8.92 17.5757 9.06 17.5757 9.26C17.5757 9.532 17.7997 9.668 18.2477 9.668H20.1557ZM19.0997 6.044C18.8357 6.044 18.6197 6.12 18.4517 6.272C18.2917 6.424 18.2117 6.64 18.2117 6.92C18.2117 7.192 18.2917 7.404 18.4517 7.556C18.6197 7.708 18.8357 7.784 19.0997 7.784C19.3557 7.784 19.5677 7.708 19.7357 7.556C19.9037 7.404 19.9877 7.192 19.9877 6.92C19.9877 6.64 19.9037 6.424 19.7357 6.272C19.5677 6.12 19.3557 6.044 19.0997 6.044ZM19.0277 12.26C19.6037 12.26 20.0317 12.2 20.3117 12.08C20.5997 11.968 20.7437 11.824 20.7437 11.648C20.7437 11.528 20.6957 11.432 20.5997 11.36C20.5117 11.296 20.3557 11.264 20.1317 11.264H17.9837C17.8317 11.264 17.7077 11.304 17.6117 11.384C17.5237 11.464 17.4797 11.564 17.4797 11.684C17.4797 11.868 17.6157 12.008 17.8877 12.104C18.1597 12.208 18.5397 12.26 19.0277 12.26ZM26.4745 7.196C26.4745 6.916 26.3945 6.696 26.2345 6.536C26.0825 6.368 25.8745 6.284 25.6105 6.284C25.3465 6.284 25.1185 6.352 24.9265 6.488C24.7425 6.616 24.6145 6.848 24.5425 7.184L22.8145 6.776C22.9265 6.2 23.2225 5.74 23.7025 5.396C24.1825 5.052 24.8585 4.88 25.7305 4.88C26.6105 4.88 27.2905 5.076 27.7705 5.468C28.2585 5.852 28.5025 6.416 28.5025 7.16V9.356C28.5025 9.668 28.6425 9.824 28.9225 9.824C29.0665 9.824 29.1825 9.808 29.2705 9.776L29.1505 10.94C28.9105 11.052 28.6185 11.108 28.2745 11.108C27.8985 11.108 27.5745 11.036 27.3025 10.892C27.0305 10.74 26.8465 10.512 26.7505 10.208C26.5825 10.52 26.3145 10.752 25.9465 10.904C25.5865 11.048 25.2025 11.12 24.7945 11.12C24.1785 11.12 23.6865 10.98 23.3185 10.7C22.9585 10.412 22.7785 10 22.7785 9.464C22.7785 9.032 22.9065 8.676 23.1625 8.396C23.4265 8.108 23.8385 7.908 24.3985 7.796L26.4745 7.364V7.196ZM24.7945 9.272C24.7945 9.448 24.8585 9.58 24.9865 9.668C25.1145 9.756 25.2665 9.8 25.4425 9.8C25.7145 9.8 25.9545 9.72 26.1625 9.56C26.3705 9.392 26.4745 9.132 26.4745 8.78V8.444L25.5025 8.648C25.2625 8.696 25.0825 8.768 24.9625 8.864C24.8505 8.952 24.7945 9.088 24.7945 9.272ZM32.0918 2.456V8.96C32.0918 9.224 32.1358 9.412 32.2238 9.524C32.3118 9.636 32.4598 9.692 32.6678 9.692C32.7878 9.692 32.8878 9.684 32.9678 9.668C33.0478 9.652 33.1438 9.628 33.2558 9.596L33.1238 10.82C32.9798 10.908 32.7918 10.98 32.5598 11.036C32.3278 11.092 32.0998 11.12 31.8758 11.12C31.2358 11.12 30.7718 10.972 30.4838 10.676C30.1958 10.38 30.0518 9.896 30.0518 9.224V2.456H32.0918Z" fill="#BE3F45"/>
<path d="M42 2C39.2363 2 37 4.23646 37 7C37 9.76373 39.2365 12 42 12C44.7637 12 47 9.76354 47 7C47 4.23627 44.7635 2 42 2ZM42 11.2188C39.6681 11.2188 37.7812 9.33174 37.7812 7C37.7812 4.66811 39.6683 2.78125 42 2.78125C44.3319 2.78125 46.2188 4.66826 46.2188 7C46.2188 9.33189 44.3317 11.2188 42 11.2188Z" fill="#BE3F45"/>
<path d="M42 2C39.2363 2 37 4.23646 37 7C37 9.76373 39.2365 12 42 12C44.7637 12 47 9.76354 47 7C47 4.23627 44.7635 2 42 2ZM42 11.2188C39.6681 11.2188 37.7812 9.33174 37.7812 7C37.7812 4.66811 39.6683 2.78125 42 2.78125C44.3319 2.78125 46.2188 4.66826 46.2188 7C46.2188 9.33189 44.3317 11.2188 42 11.2188Z" fill="#BE3F45"/>
<path d="M42 4.51709C41.7843 4.51709 41.6094 4.69197 41.6094 4.90772V7.4232C41.6094 7.63895 41.7843 7.81383 42 7.81383C42.2157 7.81383 42.3906 7.63895 42.3906 7.4232V4.90772C42.3906 4.69197 42.2157 4.51709 42 4.51709Z" fill="#BE3F45"/>
<path d="M42 9.34668C42.2912 9.34668 42.5273 9.11058 42.5273 8.81934C42.5273 8.52809 42.2912 8.29199 42 8.29199C41.7088 8.29199 41.4727 8.52809 41.4727 8.81934C41.4727 9.11058 41.7088 9.34668 42 9.34668Z" fill="#BE3F45"/>
</svg>
