<svg width="61" height="14" viewBox="0 0 61 14" fill="none" xmlns="http://www.w3.org/2000/svg">
<path d="M4.512 3.08C5.472 3.08 6.22 3.312 6.756 3.776C7.3 4.232 7.572 4.88 7.572 5.72C7.572 6.56 7.3 7.212 6.756 7.676C6.22 8.132 5.472 8.36 4.512 8.36H2.94V11H0.876V3.08H4.512ZM4.188 6.812C5.06 6.812 5.496 6.448 5.496 5.72C5.496 4.992 5.06 4.628 4.188 4.628H2.94V6.812H4.188ZM11.4881 11.12C10.4881 11.12 9.69613 10.848 9.11213 10.304C8.53613 9.76 8.24813 8.992 8.24813 8C8.24813 7.344 8.38013 6.784 8.64413 6.32C8.91613 5.848 9.28413 5.492 9.74813 5.252C10.2201 5.004 10.7681 4.88 11.3921 4.88C12.0241 4.88 12.5601 5.004 13.0001 5.252C13.4481 5.492 13.7881 5.828 14.0201 6.26C14.2521 6.684 14.3681 7.172 14.3681 7.724C14.3681 7.876 14.3601 8.024 14.3441 8.168C14.3361 8.304 14.3281 8.42 14.3201 8.516H10.2281C10.2841 8.932 10.4201 9.232 10.6361 9.416C10.8521 9.592 11.1361 9.68 11.4881 9.68C11.7921 9.68 12.0321 9.62 12.2081 9.5C12.3921 9.38 12.5281 9.212 12.6161 8.996L14.2481 9.536C14.1361 9.88 13.9401 10.172 13.6601 10.412C13.3881 10.644 13.0601 10.82 12.6761 10.94C12.3001 11.06 11.9041 11.12 11.4881 11.12ZM11.3921 6.308C10.7441 6.308 10.3601 6.68 10.2401 7.424H12.4361C12.3481 6.68 12.0001 6.308 11.3921 6.308ZM15.5093 11V5H17.3333L17.3933 6.212C17.5773 5.772 17.8453 5.44 18.1973 5.216C18.5493 4.992 18.9653 4.88 19.4453 4.88C20.0613 4.88 20.5613 5.06 20.9453 5.42C21.3293 5.78 21.5213 6.308 21.5213 7.004V11H19.4813V7.544C19.4813 7.128 19.4013 6.84 19.2413 6.68C19.0813 6.52 18.8773 6.44 18.6293 6.44C18.3333 6.44 18.0773 6.544 17.8613 6.752C17.6533 6.96 17.5493 7.316 17.5493 7.82V11H15.5093ZM25.1588 11.12C24.4148 11.12 23.8148 10.848 23.3588 10.304C22.9108 9.76 22.6868 9 22.6868 8.024C22.6868 7.352 22.7908 6.784 22.9988 6.32C23.2148 5.848 23.5108 5.492 23.8868 5.252C24.2708 5.004 24.7108 4.88 25.2068 4.88C25.6308 4.88 25.9908 4.984 26.2868 5.192C26.5908 5.4 26.8188 5.676 26.9708 6.02V2.456H29.0108V11H27.1868L27.1148 9.824C26.9468 10.224 26.6908 10.54 26.3468 10.772C26.0108 11.004 25.6148 11.12 25.1588 11.12ZM25.8668 9.62C26.2028 9.62 26.4708 9.48 26.6708 9.2C26.8708 8.92 26.9708 8.508 26.9708 7.964C26.9708 7.46 26.8748 7.072 26.6828 6.8C26.4908 6.52 26.2228 6.38 25.8788 6.38C25.5268 6.38 25.2468 6.512 25.0388 6.776C24.8388 7.032 24.7388 7.44 24.7388 8C24.7388 8.56 24.8388 8.972 25.0388 9.236C25.2388 9.492 25.5148 9.62 25.8668 9.62ZM31.4942 4.304C31.0782 4.304 30.7742 4.228 30.5822 4.076C30.3982 3.916 30.3062 3.668 30.3062 3.332C30.3062 2.988 30.3982 2.74 30.5822 2.588C30.7742 2.428 31.0782 2.348 31.4942 2.348C31.9022 2.348 32.2022 2.428 32.3942 2.588C32.5862 2.74 32.6822 2.988 32.6822 3.332C32.6822 3.668 32.5862 3.916 32.3942 4.076C32.2022 4.228 31.9022 4.304 31.4942 4.304ZM32.5142 5V11H30.4742V5H32.5142ZM33.9664 11V5H35.7904L35.8504 6.212C36.0344 5.772 36.3024 5.44 36.6544 5.216C37.0064 4.992 37.4224 4.88 37.9024 4.88C38.5184 4.88 39.0184 5.06 39.4024 5.42C39.7864 5.78 39.9784 6.308 39.9784 7.004V11H37.9384V7.544C37.9384 7.128 37.8584 6.84 37.6984 6.68C37.5384 6.52 37.3344 6.44 37.0864 6.44C36.7904 6.44 36.5344 6.544 36.3184 6.752C36.1104 6.96 36.0064 7.316 36.0064 7.82V11H33.9664ZM45.1518 9.668C45.8478 9.668 46.3798 9.816 46.7478 10.112C47.1238 10.4 47.3118 10.816 47.3118 11.36C47.3118 12.112 47.0118 12.668 46.4118 13.028C45.8198 13.396 45.0198 13.58 44.0118 13.58C42.9238 13.58 42.1398 13.444 41.6598 13.172C41.1798 12.9 40.9398 12.532 40.9398 12.068C40.9398 11.796 41.0278 11.564 41.2038 11.372C41.3878 11.18 41.6798 11.048 42.0798 10.976C41.4958 10.76 41.2038 10.356 41.2038 9.764C41.2038 9.484 41.2878 9.24 41.4558 9.032C41.6238 8.816 41.8558 8.66 42.1518 8.564C41.5118 8.212 41.1918 7.664 41.1918 6.92C41.1918 6.272 41.4438 5.772 41.9478 5.42C42.4598 5.06 43.1758 4.88 44.0958 4.88C44.5598 4.88 44.9798 4.928 45.3558 5.024C45.3878 4.736 45.4678 4.468 45.5958 4.22C45.7318 3.972 45.9158 3.772 46.1478 3.62C46.3878 3.46 46.6798 3.38 47.0238 3.38C47.0478 3.38 47.0758 3.384 47.1078 3.392C47.1398 3.392 47.1758 3.392 47.2158 3.392L47.3838 4.76C47.2958 4.736 47.1998 4.724 47.0958 4.724C46.8158 4.724 46.5918 4.78 46.4238 4.892C46.2558 5.004 46.1438 5.148 46.0878 5.324C46.6878 5.676 46.9878 6.208 46.9878 6.92C46.9878 7.568 46.7318 8.068 46.2198 8.42C45.7158 8.772 45.0078 8.948 44.0958 8.948C43.6798 8.948 43.3038 8.912 42.9678 8.84C42.7038 8.92 42.5718 9.06 42.5718 9.26C42.5718 9.532 42.7958 9.668 43.2438 9.668H45.1518ZM44.0958 6.044C43.8318 6.044 43.6158 6.12 43.4478 6.272C43.2878 6.424 43.2078 6.64 43.2078 6.92C43.2078 7.192 43.2878 7.404 43.4478 7.556C43.6158 7.708 43.8318 7.784 44.0958 7.784C44.3518 7.784 44.5638 7.708 44.7318 7.556C44.8998 7.404 44.9838 7.192 44.9838 6.92C44.9838 6.64 44.8998 6.424 44.7318 6.272C44.5638 6.12 44.3518 6.044 44.0958 6.044ZM44.0238 12.26C44.5998 12.26 45.0278 12.2 45.3078 12.08C45.5958 11.968 45.7398 11.824 45.7398 11.648C45.7398 11.528 45.6918 11.432 45.5958 11.36C45.5078 11.296 45.3518 11.264 45.1278 11.264H42.9798C42.8278 11.264 42.7038 11.304 42.6078 11.384C42.5198 11.464 42.4758 11.564 42.4758 11.684C42.4758 11.868 42.6118 12.008 42.8838 12.104C43.1558 12.208 43.5358 12.26 44.0238 12.26Z" fill="#F4B13E"/>
<path d="M56 2C53.2363 2 51 4.23646 51 7C51 9.76373 53.2365 12 56 12C58.7637 12 61 9.76354 61 7C61 4.23627 58.7635 2 56 2ZM56 11.2188C53.6681 11.2188 51.7812 9.33174 51.7812 7C51.7812 4.66811 53.6683 2.78125 56 2.78125C58.3319 2.78125 60.2188 4.66826 60.2188 7C60.2188 9.33189 58.3317 11.2188 56 11.2188Z" fill="#F4B13E"/>
<path d="M56 4.51709C55.7843 4.51709 55.6094 4.69197 55.6094 4.90772V7.4232C55.6094 7.63895 55.7843 7.81383 56 7.81383C56.2157 7.81383 56.3906 7.63895 56.3906 7.4232V4.90772C56.3906 4.69197 56.2157 4.51709 56 4.51709Z" fill="#F4B13E"/>
<path d="M56 9.34668C56.2912 9.34668 56.5273 9.11058 56.5273 8.81934C56.5273 8.52809 56.2912 8.29199 56 8.29199C55.7088 8.29199 55.4727 8.52809 55.4727 8.81934C55.4727 9.11058 55.7088 9.34668 56 9.34668Z" fill="#F4B13E"/>
</svg>
