<svg width="60" height="14" viewBox="0 0 60 14" fill="none" xmlns="http://www.w3.org/2000/svg">
<path d="M3.972 2.96C4.708 2.96 5.356 3.076 5.916 3.308C6.484 3.532 6.976 3.864 7.392 4.304L6.396 5.636C6.052 5.276 5.68 5.008 5.28 4.832C4.888 4.648 4.44 4.556 3.936 4.556C3.496 4.556 3.18 4.628 2.988 4.772C2.796 4.916 2.7 5.092 2.7 5.3C2.7 5.468 2.776 5.612 2.928 5.732C3.088 5.844 3.344 5.94 3.696 6.02L5.028 6.32C5.82 6.504 6.4 6.772 6.768 7.124C7.136 7.476 7.32 7.944 7.32 8.528C7.32 9.088 7.176 9.564 6.888 9.956C6.6 10.34 6.204 10.632 5.7 10.832C5.196 11.024 4.62 11.12 3.972 11.12C3.172 11.12 2.44 10.992 1.776 10.736C1.112 10.472 0.584 10.128 0.192 9.704L1.188 8.324C1.484 8.668 1.884 8.956 2.388 9.188C2.892 9.412 3.412 9.524 3.948 9.524C4.78 9.524 5.196 9.28 5.196 8.792C5.196 8.624 5.132 8.484 5.004 8.372C4.884 8.252 4.66 8.152 4.332 8.072L2.868 7.748C2.42 7.652 2.02 7.516 1.668 7.34C1.324 7.164 1.052 6.932 0.852 6.644C0.652 6.348 0.552 5.98 0.552 5.54C0.552 5.044 0.688 4.604 0.96 4.22C1.232 3.828 1.624 3.52 2.136 3.296C2.648 3.072 3.26 2.96 3.972 2.96ZM10.4709 11.12C9.86294 11.12 9.36694 10.956 8.98294 10.628C8.59894 10.3 8.40694 9.76 8.40694 9.008V5H10.4469V8.528C10.4469 8.912 10.5229 9.18 10.6749 9.332C10.8269 9.484 11.0429 9.56 11.3229 9.56C11.6109 9.56 11.8549 9.456 12.0549 9.248C12.2629 9.032 12.3669 8.688 12.3669 8.216V5H14.4069V11H12.5829L12.5229 9.872C12.3309 10.296 12.0629 10.612 11.7189 10.82C11.3749 11.02 10.9589 11.12 10.4709 11.12ZM17.9126 2.456V7.52L20.1926 5H22.4606L20.2526 7.352L22.5926 11H20.3366L18.8846 8.54L17.9126 9.62V11H15.8726V2.456H17.9126ZM25.8106 11.12C25.2106 11.12 24.6546 11.024 24.1426 10.832C23.6306 10.632 23.2026 10.348 22.8586 9.98L23.8186 8.852C24.0186 9.108 24.2826 9.324 24.6106 9.5C24.9466 9.668 25.3186 9.752 25.7266 9.752C25.9746 9.752 26.1786 9.716 26.3386 9.644C26.4986 9.572 26.5786 9.46 26.5786 9.308C26.5786 9.204 26.5386 9.116 26.4586 9.044C26.3786 8.972 26.2186 8.912 25.9786 8.864L25.1386 8.696C24.3866 8.544 23.8506 8.32 23.5306 8.024C23.2186 7.72 23.0626 7.324 23.0626 6.836C23.0626 6.508 23.1626 6.196 23.3626 5.9C23.5626 5.604 23.8706 5.36 24.2866 5.168C24.7026 4.976 25.2346 4.88 25.8826 4.88C27.1226 4.88 28.0266 5.224 28.5946 5.912L27.6226 7.016C27.4306 6.776 27.1826 6.588 26.8786 6.452C26.5746 6.316 26.2706 6.248 25.9666 6.248C25.3826 6.248 25.0906 6.396 25.0906 6.692C25.0906 6.796 25.1386 6.888 25.2346 6.968C25.3386 7.048 25.5266 7.112 25.7986 7.16L26.8906 7.376C27.5066 7.496 27.9506 7.704 28.2226 8C28.4946 8.288 28.6306 8.64 28.6306 9.056C28.6306 9.64 28.3946 10.132 27.9226 10.532C27.4586 10.924 26.7546 11.12 25.8106 11.12ZM32.5819 11.12C31.5819 11.12 30.7899 10.848 30.2059 10.304C29.6299 9.76 29.3419 8.992 29.3419 8C29.3419 7.344 29.4739 6.784 29.7379 6.32C30.0099 5.848 30.3779 5.492 30.8419 5.252C31.3139 5.004 31.8619 4.88 32.4859 4.88C33.1179 4.88 33.6539 5.004 34.0939 5.252C34.5419 5.492 34.8819 5.828 35.1139 6.26C35.3459 6.684 35.4619 7.172 35.4619 7.724C35.4619 7.876 35.4539 8.024 35.4379 8.168C35.4299 8.304 35.4219 8.42 35.4139 8.516H31.3219C31.3779 8.932 31.5139 9.232 31.7299 9.416C31.9459 9.592 32.2299 9.68 32.5819 9.68C32.8859 9.68 33.1259 9.62 33.3019 9.5C33.4859 9.38 33.6219 9.212 33.7099 8.996L35.3419 9.536C35.2299 9.88 35.0339 10.172 34.7539 10.412C34.4819 10.644 34.1539 10.82 33.7699 10.94C33.3939 11.06 32.9979 11.12 32.5819 11.12ZM32.4859 6.308C31.8379 6.308 31.4539 6.68 31.3339 7.424H33.5299C33.4419 6.68 33.0939 6.308 32.4859 6.308ZM39.1231 11.12C38.5231 11.12 37.9671 11.024 37.4551 10.832C36.9431 10.632 36.5151 10.348 36.1711 9.98L37.1311 8.852C37.3311 9.108 37.5951 9.324 37.9231 9.5C38.2591 9.668 38.6311 9.752 39.0391 9.752C39.2871 9.752 39.4911 9.716 39.6511 9.644C39.8111 9.572 39.8911 9.46 39.8911 9.308C39.8911 9.204 39.8511 9.116 39.7711 9.044C39.6911 8.972 39.5311 8.912 39.2911 8.864L38.4511 8.696C37.6991 8.544 37.1631 8.32 36.8431 8.024C36.5311 7.72 36.3751 7.324 36.3751 6.836C36.3751 6.508 36.4751 6.196 36.6751 5.9C36.8751 5.604 37.1831 5.36 37.5991 5.168C38.0151 4.976 38.5471 4.88 39.1951 4.88C40.4351 4.88 41.3391 5.224 41.9071 5.912L40.9351 7.016C40.7431 6.776 40.4951 6.588 40.1911 6.452C39.8871 6.316 39.5831 6.248 39.2791 6.248C38.6951 6.248 38.4031 6.396 38.4031 6.692C38.4031 6.796 38.4511 6.888 38.5471 6.968C38.6511 7.048 38.8391 7.112 39.1111 7.16L40.2031 7.376C40.8191 7.496 41.2631 7.704 41.5351 8C41.8071 8.288 41.9431 8.64 41.9431 9.056C41.9431 9.64 41.7071 10.132 41.2351 10.532C40.7711 10.924 40.0671 11.12 39.1231 11.12Z" fill="#42D072"/>
<path d="M51.1056 11.8074C50.9783 11.931 50.8047 12 50.6243 12C50.4439 12 50.2703 11.931 50.143 11.8074L46.2992 8.09406C45.9003 7.70876 45.9003 7.08398 46.2992 6.69941L46.7805 6.2344C47.1795 5.84911 47.8256 5.84911 48.2245 6.2344L50.6243 8.55244L57.1088 2.28897C57.5079 1.90368 58.1546 1.90368 58.5529 2.28897L59.0342 2.75398C59.4331 3.13927 59.4331 3.76393 59.0342 4.14863L51.1056 11.8074Z" fill="#42D072"/>
</svg>
