<svg width="54" height="22" viewBox="0 0 54 22" fill="none" xmlns="http://www.w3.org/2000/svg">
<path d="M17.7695 3.59155L31.4375 3.59155L31.4375 12.5714L25.7035 12.5714L31.4376 18.3183L26.5665 18.3183L20.9431 12.5714L20.9431 18.3183L17.7696 18.3183L17.7695 9.18943L27.7908 9.18943L27.7908 7.00425L17.7695 7.00424L17.7695 3.59155Z" fill="white"/>
<path d="M32.8568 18.3183L36.1972 18.3183L36.1971 3.56171L32.8567 3.56171L32.8568 18.3183Z" fill="white"/>
<path d="M6.10644 14.7564L6.10642 3.59152L3.48977 3.59152C3.01657 3.59152 2.65465 3.98094 2.65465 4.45924C2.65465 7.09416 2.62685 14.8462 2.62685 17.4203C2.62686 17.8992 2.98878 18.3183 3.43416 18.3183C5.2435 18.3183 10.4488 18.3183 11.2001 18.3183L11.2001 14.7564L6.10644 14.7564Z" fill="white"/>
<path d="M12.9258 22C13.2324 22 15.5705 22 16.3502 22C16.3502 22 16.3502 14.7265 16.3502 14.6068C15.2365 14.6068 14.0679 14.6068 12.9258 14.6068C12.9258 17.0612 12.9258 19.5156 12.9258 22Z" fill="white"/>
<path d="M7.77647 3.59153C7.77647 3.65185 7.77647 7.27301 7.77647 7.27301C9.30754 7.27301 11.2558 7.27301 12.9258 7.27301C12.9258 9.81798 12.9258 12.7809 12.9258 12.7809C13.7055 12.7809 16.0436 12.7809 16.3502 12.7809L16.3502 4.48994C16.3502 4.01058 15.9877 3.62116 15.5431 3.59153C13.873 3.59153 9.91972 3.59153 7.77647 3.59153Z" fill="white"/>
<path d="M7.77648 9.06875C7.77648 10.2963 7.77648 11.5238 7.77648 12.8105C8.05486 12.8105 8.36105 12.8105 8.63943 12.8105C9.41921 12.8105 10.3928 12.8105 11.1725 12.8105C11.1725 12.8105 11.1725 9.12907 11.1725 9.06875C10.0588 9.06875 8.9178 9.06875 7.77648 9.06875ZM10.1705 11.673C9.83648 11.673 9.44664 11.673 9.14005 11.673C9.02917 11.673 8.9178 11.673 8.77861 11.673C8.77861 11.164 8.77861 10.6857 8.77861 10.1767C9.25171 10.1767 9.69738 10.1767 10.1705 10.1767C10.1705 10.2063 10.1705 11.673 10.1705 11.673Z" fill="white"/>
<path d="M52.5928 14.6068L52.5928 20.1143C52.5928 20.5931 52.203 20.9823 51.7583 20.9823H46.6364L46.6364 21.8802L52.6212 21.8802C53.0385 21.8802 53.3999 21.4911 53.3999 21.0122L53.3999 14.6068H52.5928Z" fill="white"/>
<path d="M1.23504 7.24338L1.23503 1.73545C1.23503 1.25714 1.56904 0.897356 2.01442 0.897356L7.13634 0.897358C7.16416 0.897358 7.16416 0.867729 7.16416 0.867729L7.16416 0.0296318C7.16416 0.0296318 7.16416 2.32758e-06 7.13634 2.31666e-06L1.23503 0C0.761827 -1.85762e-07 0.399901 0.389419 0.399902 0.897355L0.399914 7.24338C0.399914 7.27301 0.427732 7.27301 0.427732 7.27301L1.20722 7.27301C1.20722 7.27301 1.23504 7.27301 1.23504 7.24338Z" fill="white"/>
<path d="M51.1452 7.2434L51.1452 3.59155L37.6447 3.59154L37.6447 12.7513L46.6366 12.7513L46.6366 14.5768L37.6447 14.5768L37.6447 18.2584L51.1452 18.2584L51.1452 9.09948L42.1543 9.09948V7.2434L51.1452 7.2434Z" fill="white"/>
</svg>
