<svg width="49" height="19" viewBox="0 0 49 19" fill="none" xmlns="http://www.w3.org/2000/svg">
<path fill-rule="evenodd" clip-rule="evenodd" d="M0.461993 0.102725C0.175689 0.254254 0.113148 0.324345 0.0537247 0.560334C0.0176809 0.703535 0 1.68821 0 3.55289V6.33201H0.389662H0.779324V4.00066C0.779324 2.61872 0.799586 1.56254 0.829055 1.40697C0.895054 1.05866 1.05866 0.895054 1.40697 0.829055C1.56201 0.799684 2.60314 0.779324 3.95195 0.779324H6.23459V0.389662V0H3.44534C0.70183 0 0.652927 0.00170478 0.461993 0.102725ZM2.48853 3.20487C2.3972 3.25046 2.29857 3.33161 2.26934 3.38519C2.24012 3.43877 2.19989 3.49478 2.17992 3.50969C2.06102 3.59843 2.04168 4.57035 2.05552 9.76591C2.06959 15.034 2.07329 15.2277 2.1637 15.4098C2.34338 15.7718 2.15327 15.7553 6.31983 15.7706L10.0338 15.7842V14.2754V12.7666L7.69982 12.7518C6.41617 12.7438 5.34762 12.7188 5.32532 12.6965C5.30306 12.6742 5.27831 10.5098 5.27037 7.88661L5.25596 3.1173L3.95526 3.11963C2.83114 3.12168 2.63202 3.13322 2.48853 3.20487ZM6.81909 4.6737V6.23016L9.13032 6.24453C10.9457 6.25588 11.4551 6.27254 11.5048 6.32222C11.5545 6.3719 11.5712 6.88138 11.5825 8.69672L11.5969 11.008H13.1533H14.7097V7.2917V3.57544L14.5271 3.39771C14.4089 3.28271 14.267 3.20229 14.1252 3.16985C13.9859 3.13795 12.6144 3.11924 10.3626 3.11847L6.81909 3.1173V4.6737ZM16.0736 4.57853V6.03976H20.7008H25.328V6.96521V7.89066H20.7008H16.0736V11.836V15.7813H17.5348H18.996V13.3703C18.996 12.0442 19.0087 10.9592 19.0242 10.9592C19.1021 10.9592 19.8684 11.6701 22.0198 13.7382C22.6204 14.3156 23.3567 15.0114 23.6559 15.2846L24.2001 15.7813H26.4305H28.6609L28.4191 15.5327C28.2862 15.396 27.9802 15.1074 27.7391 14.8915C27.498 14.6755 27.0241 14.2339 26.686 13.9102C26.3479 13.5864 25.6796 12.9599 25.2009 12.5179C24.0363 11.4424 23.5258 10.9406 23.5258 10.8709C23.5258 10.8271 24.1549 10.8131 26.1317 10.8131H28.7376V6.96521V3.1173H22.4056H16.0736V4.57853ZM30.004 9.4493V15.7813H31.5626H33.1213V9.4493V3.1173H31.5626H30.004V9.4493ZM34.4851 7.06262V11.008H38.6252H42.7654V11.7873V12.5666H38.6252H34.4851V14.1252V15.6839H40.7197H46.9543V11.7386V7.79324H42.7654H38.5765V7.12064C38.5765 6.61675 38.5939 6.42431 38.6457 6.35349C38.713 6.26138 38.8212 6.25856 42.8345 6.24468L46.9543 6.23045V4.67385V3.1173H40.7197H34.4851V7.06262ZM6.81909 9.4006V11.008H8.37773H9.93638V9.4006V7.79324H8.37773H6.81909V9.4006ZM9.05964 9.4006V10.0338H8.42644H7.79324V9.4006V8.7674H8.42644H9.05964V9.4006ZM11.5924 15.7813V18.996H13.1511H14.7097V15.7813V12.5666H13.1511H11.5924V15.7813ZM48.3181 14.7369C48.3181 17.3759 48.2783 17.731 47.9597 17.9398C47.7319 18.089 47.2435 18.1186 44.9938 18.1189L42.7654 18.1193V18.5089V18.8986H45.4419C48.7356 18.8986 48.7796 18.8923 48.9266 18.3973C48.9883 18.1899 49 17.703 49 15.3584V12.5666H48.659H48.3181V14.7369Z" fill="#00A79D"/>
<path fill-rule="evenodd" clip-rule="evenodd" d="M9.93614 7.79248H6.81885V11.0072H9.93614V7.79248ZM9.06008 8.76607H7.79368V10.0325H9.06008V8.76607Z" fill="#F4B13E"/>
</svg>
