<svg width="40" height="40" viewBox="0 0 40 40" fill="none" xmlns="http://www.w3.org/2000/svg">
<g clip-path="url(#clip0)">
<path d="M39.9998 19.9998C39.9998 23.0381 39.3222 25.9189 38.1091 28.4985C37.6095 29.5622 37.0177 30.5752 36.3459 31.5262C35.9377 32.1042 35.4993 32.6593 35.0341 33.1899C34.381 33.9336 33.6733 34.629 32.9173 35.269C32.2594 35.8266 31.5639 36.3425 30.8357 36.8127C28.4447 38.3572 25.7019 39.4054 22.7549 39.8119C21.8545 39.9351 20.9345 39.9996 19.9998 39.9996C19.7745 39.9996 19.5501 39.9955 19.3264 39.9882C18.6227 39.9653 17.928 39.9058 17.2448 39.8119C14.2978 39.4053 11.555 38.3572 9.16398 36.8127C7.91828 36.0087 6.76891 35.0699 5.73547 34.0176C5.47102 33.749 5.21383 33.4732 4.9657 33.1899C4.50039 32.6593 4.06203 32.1042 3.65391 31.5262C2.66695 30.1295 1.85391 28.5998 1.2482 26.9704C0.755156 25.643 0.398438 24.2496 0.195937 22.8072C0.0669531 21.8896 0 20.9525 0 19.9998C0 8.95421 8.95422 0 19.9998 0C30.4014 0 38.9475 7.93953 39.9091 18.0897C39.9695 18.7182 39.9998 19.3557 39.9998 19.9998Z" fill="#34ABE0"/>
<path d="M40 20.0003C40 23.0386 39.3224 25.9194 38.1094 28.499H33.2809C32.9935 28.499 32.7331 28.3823 32.5454 28.1937C32.3568 28.006 32.2401 27.7456 32.2401 27.4582C32.2401 26.8828 32.7062 26.4174 33.2809 26.4174H36.4449C36.7323 26.4174 36.9927 26.3007 37.1804 26.1121C37.369 25.9244 37.4857 25.664 37.4857 25.3767C37.4857 24.8012 37.0196 24.3359 36.4449 24.3359H35.5616C35.2743 24.3359 35.0139 24.2192 34.8262 24.0306C34.6376 23.8428 34.5209 23.5816 34.5209 23.2942C34.5209 22.7195 34.987 22.2535 35.5616 22.2535H38.4849C38.7723 22.2535 39.0327 22.1367 39.2213 21.949C39.409 21.7604 39.5257 21.5 39.5257 21.2127C39.5257 20.638 39.0596 20.1719 38.4849 20.1719H32.0662C31.7788 20.1719 31.5184 20.0552 31.3307 19.8674C31.1421 19.6788 31.0254 19.4185 31.0254 19.1311C31.0254 18.5564 31.4915 18.0903 32.0662 18.0903H39.9094C39.9698 18.7187 40 19.3562 40 20.0003Z" fill="#78CAEF"/>
<path d="M11.848 18.1336C11.848 17.5588 11.382 17.0928 10.8071 17.0928H2.0359C1.46105 17.0928 0.995117 17.5588 0.995117 18.1336C0.995117 18.7084 1.46113 19.1744 2.0359 19.1744H4.87316C5.44801 19.1744 5.91395 19.6404 5.91395 20.2153C5.91395 20.7901 5.44793 21.2561 4.87316 21.2561H4.58395C4.0091 21.2561 3.54316 21.7221 3.54316 22.2969C3.54316 22.8718 4.00918 23.3377 4.58395 23.3377H12.9905C13.5654 23.3377 14.0313 22.8717 14.0313 22.2969C14.0313 21.7221 14.4973 21.2561 15.0721 21.2561H15.3614C15.9362 21.2561 16.4022 20.79 16.4022 20.2153C16.4022 19.6404 15.9362 19.1744 15.3614 19.1744H12.8889C12.3141 19.1745 11.848 18.7085 11.848 18.1336Z" fill="#78CAEF"/>
<path d="M20.5987 4.9424C20.5987 4.36756 21.0648 3.90154 21.6396 3.90154H24.9938C25.5687 3.90154 26.0347 3.43553 26.0347 2.86068C26.0347 2.28584 25.5687 1.81982 24.9938 1.81982H15.1057C14.5309 1.81982 14.0648 2.28584 14.0648 2.86068C14.0648 3.43553 13.5988 3.90154 13.024 3.90154H9.66977C9.09492 3.90154 8.62891 4.36756 8.62891 4.9424C8.62891 5.51725 9.09492 5.98326 9.66977 5.98326H14.6431C15.218 5.98326 15.684 6.44928 15.684 7.02412C15.684 7.59896 16.15 8.06498 16.7248 8.06498H26.613C27.1878 8.06498 27.6538 7.59896 27.6538 7.02412C27.6538 6.44928 27.1878 5.98326 26.613 5.98326H21.6396C21.0648 5.98326 20.5987 5.51725 20.5987 4.9424Z" fill="#78CAEF"/>
<path d="M4.37012 25.93C4.37012 26.5047 3.90402 26.9708 3.32934 26.9708H1.24855C0.755508 25.6435 0.398789 24.25 0.196289 22.8076H1.2477C1.82238 22.8076 2.28848 23.2737 2.28848 23.8484C2.28848 24.1357 2.4052 24.3961 2.59293 24.5839C2.78152 24.7725 3.04191 24.8892 3.32926 24.8892C3.6166 24.8892 3.87699 25.0059 4.06559 25.1945C4.2534 25.3822 4.37012 25.6426 4.37012 25.93Z" fill="#78CAEF"/>
<path d="M32.3084 13.8374H7.69141V33.9246H32.3084V13.8374Z" fill="#C4B59F"/>
<path d="M34.863 10.6602H5.9668V15.9255H34.863V10.6602Z" fill="#B7A792"/>
<path d="M19.9998 0L0 12.0073H39.9998L19.9998 0Z" fill="#E8DBC4"/>
<path d="M19.6321 5.89111L26.239 9.85767H29.2576L19.9994 4.29932L10.7412 9.85767H13.0252L19.6321 5.89111Z" fill="#D6C8B0"/>
<path d="M10.1432 12.0073H2.67383V14.8237H10.1432V12.0073Z" fill="#D6C8B0"/>
<path d="M10.1433 13.354H4.87793V14.8234H10.1433V13.354Z" fill="#E8DBC4"/>
<path d="M9.16438 14.8237V36.8129C7.91867 36.0089 6.7693 35.0701 5.73586 34.0179C5.47141 33.7493 5.21422 33.4734 4.96609 33.1901C4.50078 32.6595 4.06242 32.1044 3.6543 31.5265V14.8237H9.16438Z" fill="#D6C8B0"/>
<path d="M9.16387 16.9053V36.8129C7.91816 36.0089 6.76879 35.0701 5.73535 34.0178V16.9053H9.16387Z" fill="#E8DBC4"/>
<path d="M7.32676 32.5778C6.8534 32.5778 6.46973 32.194 6.46973 31.7207V19.8438C6.46973 19.3705 6.85348 18.9868 7.32676 18.9868C7.80012 18.9868 8.18379 19.3706 8.18379 19.8438V31.7207C8.18387 32.1941 7.80012 32.5778 7.32676 32.5778Z" fill="#F9EED7"/>
<path d="M23.735 12.0073H16.2656V14.8237H23.735V12.0073Z" fill="#D6C8B0"/>
<path d="M23.7351 13.354H18.4697V14.8234H23.7351V13.354Z" fill="#E8DBC4"/>
<path d="M22.7553 14.8237V39.8122C21.8549 39.9354 20.9349 39.9999 20.0002 39.9999C19.7749 39.9999 19.5504 39.9958 19.3268 39.9885C18.6231 39.9656 17.9284 39.9061 17.2451 39.8122V14.8237H22.7553Z" fill="#D6C8B0"/>
<path d="M22.7547 16.9053V39.8121C21.8543 39.9353 20.9343 39.9998 19.9996 39.9998C19.7743 39.9998 19.5498 39.9957 19.3262 39.9884V16.9053H22.7547Z" fill="#E8DBC4"/>
<path d="M20.9176 32.5778C20.4442 32.5778 20.0605 32.194 20.0605 31.7207V19.8438C20.0605 19.3705 20.4443 18.9868 20.9176 18.9868C21.3909 18.9868 21.7746 19.3706 21.7746 19.8438V31.7207C21.7748 32.1941 21.391 32.5778 20.9176 32.5778Z" fill="#F9EED7"/>
<path d="M37.3258 12.0073H29.8564V14.8237H37.3258V12.0073Z" fill="#D6C8B0"/>
<path d="M37.3259 13.354H32.0605V14.8234H37.3259V13.354Z" fill="#E8DBC4"/>
<path d="M36.3461 14.8237V31.5265C35.938 32.1044 35.4995 32.6595 35.0343 33.1901C34.3813 33.9338 33.6735 34.6293 32.9176 35.2693C32.2596 35.8268 31.5641 36.3427 30.8359 36.8129V14.8237H36.3461Z" fill="#D6C8B0"/>
<path d="M36.3465 16.9053V31.5264C35.9384 32.1044 35.4999 32.6595 35.0347 33.1901C34.3816 33.9338 33.6739 34.6293 32.918 35.2693V16.9053H36.3465Z" fill="#E8DBC4"/>
<path d="M34.5094 32.5778C34.036 32.5778 33.6523 32.194 33.6523 31.7207V19.8438C33.6523 19.3705 34.0361 18.9868 34.5094 18.9868C34.9827 18.9868 35.3664 19.3706 35.3664 19.8438V31.7207C35.3665 32.1941 34.9828 32.5778 34.5094 32.5778Z" fill="#F9EED7"/>
<path d="M16.2034 23.7617H10.3262V33.9249H16.2034V23.7617Z" fill="#E8DBC4"/>
<path d="M29.6732 23.7617H23.7959V33.9249H29.6732V23.7617Z" fill="#E8DBC4"/>
<path d="M15.4694 24.4961H11.0615V33.1899H15.4694V24.4961Z" fill="#5C5E70"/>
<path d="M28.9391 24.4961H24.5312V33.1899H28.9391V24.4961Z" fill="#5C5E70"/>
<path d="M32.7823 11.15C33.3232 11.15 33.7618 10.7114 33.7618 10.1704C33.7618 9.62947 33.3232 9.19092 32.7823 9.19092C32.2413 9.19092 31.8027 9.62947 31.8027 10.1704C31.8027 10.7114 32.2413 11.15 32.7823 11.15Z" fill="#F9EED7"/>
<path d="M35.0343 33.1899C34.3804 33.9353 33.6718 34.6307 32.9143 35.2716C32.2898 35.8006 31.6326 36.2912 30.9461 36.741C29.3192 37.8063 27.5282 38.6413 25.6188 39.1997C23.8368 39.7205 21.9503 39.9997 20 39.9997C18.0498 39.9997 16.1633 39.7205 14.3813 39.1997C12.4719 38.6413 10.6809 37.8063 9.05395 36.741C8.36738 36.2912 7.71027 35.8006 7.08582 35.2716C6.32824 34.6308 5.61973 33.9353 4.96582 33.1899H35.0343Z" fill="#D6C8B0"/>
<path d="M32.9143 35.272C32.2898 35.801 31.6327 36.2916 30.9462 36.7413H9.05406C8.3675 36.2916 7.71039 35.801 7.08594 35.272H32.9143Z" fill="#E8DBC4"/>
<path d="M25.6184 39.2002C23.8363 39.721 21.9498 40.0002 19.9996 40.0002C18.0494 40.0002 16.1629 39.721 14.3809 39.2002H25.6184Z" fill="#E8DBC4"/>
</g>
<defs>
<clipPath id="clip0">
<rect width="40" height="40" fill="white"/>
</clipPath>
</defs>
</svg>
