<svg width="40" height="40" viewBox="0 0 40 40" fill="none" xmlns="http://www.w3.org/2000/svg">
<g clip-path="url(#clip0)">
<path d="M39.1217 20.0473C39.1189 21.23 39.0111 22.3882 38.8071 23.5128C38.7904 23.6049 38.4477 23.6958 38.4298 23.7874C38.3606 24.14 38.2818 24.4893 38.194 24.835C38.1707 24.9265 38.4722 25.0185 38.4476 25.1095C38.1294 26.2884 37.7038 27.4232 37.182 28.5028C37.1257 28.6192 36.7036 28.6873 36.6451 28.8025C36.4732 29.1407 36.2917 29.4733 36.1011 29.7998C36.0518 29.8842 36.3665 30.016 36.316 30.0996C33.5317 34.7088 28.899 38.0763 23.4449 39.175C22.9 38.6404 22.1671 38.3408 21.4037 38.3408H12.7463C5.30307 35.5744 0 28.4064 0 19.9998C0 15.9052 1.25812 12.1044 3.40886 8.96288C3.43218 8.92879 3.60527 8.98459 3.62882 8.95066C3.88415 8.58276 4.15178 8.22396 4.43114 7.87497C4.4582 7.8412 4.33565 7.71769 4.36295 7.68408C7.9493 3.26396 13.4251 0.438965 19.5608 0.438965C30.3559 0.438965 39.1473 9.25222 39.1217 20.0473Z" fill="#453D83"/>
<path d="M21.6372 28.5029H37.1824C36.918 29.0498 36.6289 29.5826 36.3166 30.0997H21.6372C21.1963 30.0997 20.8388 29.7423 20.8388 29.3013C20.8388 28.8604 21.1963 28.5029 21.6372 28.5029ZM27.3857 23.5129C26.9448 23.5129 26.5873 23.8703 26.5873 24.3113C26.5873 24.7522 26.9448 25.1097 27.3857 25.1097H38.4481C38.5895 24.5858 38.7096 24.0532 38.8076 23.5129H27.3857ZM29.0343 10.7384C29.0343 15.1479 25.4596 18.7225 21.0502 18.7225C16.6408 18.7225 13.0662 15.1479 13.0662 10.7384C13.0662 6.32901 16.6408 2.75439 21.0502 2.75439C25.4596 2.75439 29.0343 6.32901 29.0343 10.7384ZM7.10627 15.5289C7.54723 15.5289 7.90468 15.1714 7.90468 14.7304C7.90468 14.2895 7.54723 13.932 7.10627 13.932C6.66532 13.932 6.30787 14.2895 6.30787 14.7304C6.30787 15.1714 6.66532 15.5289 7.10627 15.5289ZM7.10627 9.14162C7.54723 9.14162 7.90468 8.78418 7.90468 8.34322C7.90468 7.90226 7.54723 7.54482 7.10627 7.54482C6.66532 7.54482 6.30787 7.90226 6.30787 8.34322C6.30787 8.78418 6.66532 9.14162 7.10627 9.14162ZM10.2999 15.5289C10.7408 15.5289 11.0983 15.1714 11.0983 14.7304C11.0983 14.2895 10.7408 13.932 10.2999 13.932C9.85893 13.932 9.50148 14.2895 9.50148 14.7304C9.50148 15.1714 9.85893 15.5289 10.2999 15.5289ZM7.10627 12.3352C7.54723 12.3352 7.90468 11.9778 7.90468 11.5368C7.90468 11.0959 7.54723 10.7384 7.10627 10.7384C6.66532 10.7384 6.30787 11.0959 6.30787 11.5368C6.30787 11.9778 6.66532 12.3352 7.10627 12.3352ZM3.91266 9.14162C4.35362 9.14162 4.71106 8.78418 4.71106 8.34322C4.71106 8.06953 4.57334 7.82809 4.36344 7.68422C4.02859 8.09691 3.71027 8.5235 3.40935 8.96294C3.54667 9.07464 3.72184 9.14162 3.91266 9.14162ZM3.91266 12.3352C4.35362 12.3352 4.71106 11.9778 4.71106 11.5368C4.71106 11.0959 4.35362 10.7384 3.91266 10.7384C3.4717 10.7384 3.11426 11.0959 3.11426 11.5368C3.11426 11.9778 3.4717 12.3352 3.91266 12.3352ZM3.91266 15.5289C4.35362 15.5289 4.71106 15.1714 4.71106 14.7304C4.71106 14.2895 4.35362 13.932 3.91266 13.932C3.4717 13.932 3.11426 14.2895 3.11426 14.7304C3.11426 15.1714 3.4717 15.5289 3.91266 15.5289ZM10.2999 12.3352C10.7408 12.3352 11.0983 11.9778 11.0983 11.5368C11.0983 11.0959 10.7408 10.7384 10.2999 10.7384C9.85893 10.7384 9.50148 11.0959 9.50148 11.5368C9.50148 11.9778 9.85893 12.3352 10.2999 12.3352ZM10.2999 7.54482C9.85893 7.54482 9.50148 7.90226 9.50148 8.34322C9.50148 8.78418 9.85893 9.14162 10.2999 9.14162C10.7408 9.14162 11.0983 8.78418 11.0983 8.34322C11.0983 7.90226 10.7408 7.54482 10.2999 7.54482Z" fill="#5F55AF"/>
<path d="M25.0416 10.7386C25.0416 12.9433 23.2543 14.7306 21.0496 14.7306C18.8449 14.7306 17.0576 12.9433 17.0576 10.7386C17.0576 8.53389 18.8449 6.74658 21.0496 6.74658C23.2543 6.74658 25.0416 8.53389 25.0416 10.7386ZM34.2514 22.515C33.8104 22.515 33.453 22.8725 33.453 23.3135V25.3095C33.453 25.7504 33.8104 26.1079 34.2514 26.1079C34.6923 26.1079 35.0498 25.7504 35.0498 25.3095V23.3135C35.0498 22.8725 34.6923 22.515 34.2514 22.515ZM29.461 27.5051C29.02 27.5051 28.6626 27.8625 28.6626 28.3035V30.2995C28.6626 30.7404 29.02 31.0979 29.461 31.0979C29.9019 31.0979 30.2594 30.7404 30.2594 30.2995V28.3035C30.2594 27.8625 29.9019 27.5051 29.461 27.5051Z" fill="#76B6FA"/>
<path d="M30.5312 19.3068L28.3781 23.2119C27.9754 23.9424 27.6571 24.7163 27.4292 25.5187C26.9144 27.3319 25.9418 28.9826 24.606 30.3122C24.3985 30.5187 24.2587 30.6592 24.2488 30.6725C23.721 31.9141 23.4449 33.2554 23.4449 34.6181V39.175C22.1896 39.428 20.8907 39.5607 19.5609 39.5607C17.1643 39.5607 14.8683 39.1296 12.7463 38.341V35.0885C12.7463 33.2607 12.2496 31.4673 11.3092 29.9C10.3688 28.3327 9.87207 26.5393 9.87207 24.7115V19.5208L19.4529 18.7224V10.7384C19.4529 9.83717 20.1995 9.11038 21.1079 9.14264C21.9732 9.17337 22.6465 9.91086 22.6465 10.7766V23.7297C22.6465 23.9976 22.7743 24.2495 22.9906 24.4077C23.3993 24.7067 23.9778 24.5787 24.2222 24.1353L26.9635 19.1632C27.6025 18.0042 29.0606 17.583 30.2194 18.2232C30.6044 18.436 30.7435 18.9216 30.5312 19.3068Z" fill="#FFBEAA"/>
<path d="M13.1203 29.0795C14.204 31.0073 14.7434 33.1934 14.6808 35.4041L14.5811 38.9211C13.9568 38.7573 13.3446 38.5633 12.7463 38.3409V35.0885C12.7463 33.2607 12.2496 31.4673 11.3092 29.9C10.3688 28.3327 9.87207 26.5393 9.87207 24.7115V19.5207L11.6556 19.3721L11.5598 22.7548C11.4972 24.9655 12.0366 27.1516 13.1203 29.0795ZM22.0758 25.1096C18.664 25.1096 15.8882 27.8854 15.8882 31.2972C15.8882 31.6279 16.1563 31.896 16.487 31.896C16.8177 31.896 17.0858 31.6279 17.0858 31.2972C17.0858 28.5457 19.3244 26.3072 22.0758 26.3072C22.4065 26.3072 22.6746 26.0391 22.6746 25.7084C22.6746 25.3777 22.4065 25.1096 22.0758 25.1096Z" fill="#FAA68E"/>
<path d="M19.4529 18.7223V25.1095C19.4529 25.9914 18.738 26.7063 17.8561 26.7063C16.9742 26.7063 16.2593 25.9914 16.2593 25.1095V23.5127C16.2593 24.3946 15.5444 25.1095 14.6625 25.1095C13.7806 25.1095 13.0657 24.3946 13.0657 23.5127V21.9159C13.0657 22.7978 12.3508 23.5127 11.4689 23.5127C10.587 23.5127 9.87207 22.7978 9.87207 21.9159V18.7223C9.87207 17.8404 10.587 17.1255 11.4689 17.1255C12.3508 17.1255 13.0657 17.8404 13.0657 18.7223C13.0657 17.8404 13.7806 17.1255 14.6625 17.1255C15.5444 17.1255 16.2593 17.8404 16.2593 18.7223C16.2593 17.8404 16.9742 17.1255 17.8561 17.1255C18.738 17.1255 19.4529 17.8404 19.4529 18.7223Z" fill="#FFCDBE"/>
<path d="M17.8561 26.7063C16.9742 26.7063 16.2593 25.9914 16.2593 25.1095V18.7223C16.2593 17.8404 16.9742 17.1255 17.8561 17.1255C18.147 17.1255 18.4196 17.2033 18.6545 17.3391C18.1772 17.6152 17.8561 18.1312 17.8561 18.7223V26.7063ZM14.6625 18.7223C14.6625 18.1312 14.9836 17.6152 15.4609 17.3391C15.226 17.2033 14.9533 17.1255 14.6625 17.1255C13.7806 17.1255 13.0657 17.8404 13.0657 18.7223V23.5127C13.0657 24.3946 13.7806 25.1095 14.6625 25.1095V18.7223ZM11.4689 22.9938V18.7223C11.4689 18.1312 11.79 17.6152 12.2673 17.3391C12.0324 17.2033 11.7597 17.1255 11.4689 17.1255C10.587 17.1255 9.87207 17.8404 9.87207 18.7223V21.9159C9.87207 22.7978 10.587 23.5127 11.4689 23.5127C11.4975 23.5127 11.526 23.5119 11.5544 23.5105C11.499 23.3484 11.4689 23.1746 11.4689 22.9938Z" fill="#FFBEAA"/>
<path d="M12.2677 21.9161V22.7145C12.2677 23.1554 11.9103 23.5129 11.4693 23.5129C11.0283 23.5129 10.6709 23.1554 10.6709 22.7145V21.9161C10.6709 21.4751 11.0283 21.1177 11.4693 21.1177C11.9103 21.1177 12.2677 21.4751 12.2677 21.9161ZM14.6629 22.7145C14.222 22.7145 13.8645 23.0719 13.8645 23.5129V24.3113C13.8645 24.7522 14.222 25.1097 14.6629 25.1097C15.1039 25.1097 15.4613 24.7522 15.4613 24.3113V23.5129C15.4613 23.0719 15.1039 22.7145 14.6629 22.7145ZM17.8565 24.3113C17.4156 24.3113 17.0581 24.6687 17.0581 25.1097V25.9081C17.0581 26.3491 17.4156 26.7065 17.8565 26.7065C18.2975 26.7065 18.6549 26.3491 18.6549 25.9081V25.1097C18.6549 24.6687 18.2975 24.3113 17.8565 24.3113Z" fill="#FFEEE5"/>
<path d="M22.6467 10.7384C22.6467 11.6203 21.9318 12.3352 21.0499 12.3352C20.168 12.3352 19.4531 11.6203 19.4531 10.7384C19.4531 9.85649 20.168 9.1416 21.0499 9.1416C21.9318 9.1416 22.6467 9.85649 22.6467 10.7384Z" fill="#E9F3FE"/>
<path d="M40.0001 9.14167C40.0001 9.58262 39.6426 9.94007 39.2017 9.94007H27.3853C26.9444 9.94007 26.5869 9.58262 26.5869 9.14167C26.5869 8.70071 26.9444 8.34326 27.3853 8.34326H39.2017C39.6426 8.34326 40.0001 8.70071 40.0001 9.14167ZM32.9741 11.5369H27.3853C26.9444 11.5369 26.5869 11.8943 26.5869 12.3353C26.5869 12.7762 26.9444 13.1337 27.3853 13.1337H32.9741C33.4151 13.1337 33.7725 12.7762 33.7725 12.3353C33.7725 11.8943 33.4151 11.5369 32.9741 11.5369Z" fill="#A7D0FC"/>
</g>
<defs>
<clipPath id="clip0">
<rect width="40" height="40" fill="white"/>
</clipPath>
</defs>
</svg>
