<svg width="55" height="55" viewBox="0 0 55 55" fill="none" xmlns="http://www.w3.org/2000/svg">
<circle cx="27.5" cy="27.5002" r="27.5" fill="#E6EAFF"/>
<g clip-path="url(#clip0)">
<path d="M40.8607 44.6877H18.7285C16.0879 44.6877 13.9448 42.5447 13.9448 39.9041V12.9882C13.9448 12.4524 14.3657 12.0315 14.9016 12.0315H17.8993C18.4351 12.0315 18.856 12.4524 18.856 12.9882C18.856 13.5241 19.2769 13.9449 19.8127 13.9449C20.3486 13.9449 20.7695 13.5241 20.7695 12.9882C20.7695 12.4524 21.1904 12.0315 21.7262 12.0315H24.5964C25.1322 12.0315 25.5531 12.4524 25.5531 12.9882C25.5531 13.5241 25.974 13.9449 26.5098 13.9449C27.0457 13.9449 27.4666 13.5241 27.4666 12.9882C27.4666 12.4524 27.8874 12.0315 28.4233 12.0315H31.2935C31.8293 12.0315 32.2502 12.4524 32.2502 12.9882C32.2502 13.5241 32.6711 13.9449 33.2069 13.9449C33.7427 13.9449 34.1636 13.5241 34.1636 12.9882C34.1636 12.4524 34.5845 12.0315 35.1204 12.0315H37.9905C38.5264 12.0315 38.9473 12.4524 38.9473 12.9882V23.812C38.9473 24.0607 38.8515 24.3094 38.6602 24.4817L31.7144 31.4275C31.1977 31.9632 30.796 32.6139 30.5471 33.3026L30.2409 34.2594L31.1977 33.9533C31.8867 33.7045 32.5372 33.3026 33.0728 32.7861L37.3208 28.5381C37.5887 28.2511 37.9905 28.1746 38.354 28.3277C38.7177 28.4808 38.9473 28.8252 38.9473 29.2078V35.1205L40.8607 42.7743V44.6877Z" fill="url(#paint0_linear)"/>
<path d="M37.3208 28.5382L33.0727 32.7861C32.5371 33.3027 31.8866 33.7045 31.1976 33.9533L30.2409 34.2594L30.5471 33.3027C30.7958 32.6139 31.1976 31.9633 31.7143 31.4276L38.6601 24.4818C38.8514 24.3095 38.9472 24.0607 38.9472 23.8121V12.9882C38.9472 12.4524 38.5263 12.0315 37.9905 12.0315H35.1203C34.5845 12.0315 34.1636 12.4524 34.1636 12.9882C34.1636 13.5241 33.7427 13.9449 33.2068 13.9449C32.671 13.9449 32.2501 13.5241 32.2501 12.9882C32.2501 12.4524 31.8292 12.0315 31.2934 12.0315H28.4232C27.8874 12.0315 27.4665 12.4524 27.4665 12.9882C27.4665 13.5241 27.0456 13.9449 26.5098 13.9449V44.6877H40.8607V42.7743L38.9472 35.1205V26.0188L37.3208 28.5382Z" fill="url(#paint1_linear)"/>
<path d="M25.5532 37.0339H18.8561C18.3273 37.0339 17.8994 36.606 17.8994 36.0772C17.8994 35.5484 18.3273 35.1205 18.8561 35.1205H25.5532C26.082 35.1205 26.5099 35.5484 26.5099 36.0772C26.5099 36.606 26.082 37.0339 25.5532 37.0339Z" fill="#FFB038"/>
<path d="M25.5532 33.207H18.8561C18.3273 33.207 17.8994 32.7791 17.8994 32.2503C17.8994 31.7215 18.3273 31.2936 18.8561 31.2936H25.5532C26.082 31.2936 26.5099 31.7215 26.5099 32.2503C26.5099 32.7791 26.082 33.207 25.5532 33.207Z" fill="#FFB038"/>
<path d="M25.5532 29.3801H18.8561C18.3273 29.3801 17.8994 28.9522 17.8994 28.4234C17.8994 27.8946 18.3273 27.4667 18.8561 27.4667H25.5532C26.082 27.4667 26.5099 27.8946 26.5099 28.4234C26.5099 28.9522 26.082 29.3801 25.5532 29.3801Z" fill="#FFB038"/>
<path d="M32.2503 23.6398H18.8561C18.3273 23.6398 17.8994 23.2119 17.8994 22.683C17.8994 22.1542 18.3273 21.7263 18.8561 21.7263H32.2503C32.7791 21.7263 33.207 22.1542 33.207 22.683C33.207 23.2119 32.7791 23.6398 32.2503 23.6398Z" fill="#FFB038"/>
<path d="M32.2501 21.7263H26.5098V23.6398H32.2501C32.7789 23.6398 33.2068 23.2119 33.2068 22.683C33.2068 22.1542 32.7789 21.7263 32.2501 21.7263Z" fill="#FFB038"/>
<path d="M42.7742 36.0772V42.7743C42.7742 43.8841 41.8585 44.6877 40.8607 44.6877C39.8083 44.6877 38.9473 43.8267 38.9473 42.7743V35.1205H41.8174C42.3533 35.1205 42.7742 35.5414 42.7742 36.0772Z" fill="#455FE3"/>
<path d="M40.8338 25.7317L33.3447 33.2209C32.8875 33.678 32.33 34.0222 31.7169 34.2268L31.0215 34.4586C30.4792 34.6395 29.9628 34.1231 30.1438 33.5809L30.3756 32.8854C30.58 32.2724 30.9243 31.7149 31.3815 31.2577L38.8706 23.7685L40.3727 24.3569L40.8338 25.7317Z" fill="#FFB038"/>
<path d="M31.0215 34.4586L31.717 34.2268C32.33 34.0224 32.8875 33.6781 33.3447 33.2209L40.8339 25.7318L40.3728 24.3569L40.2814 24.3211L30.3115 34.2909C30.4858 34.4652 30.7504 34.5491 31.0215 34.4586Z" fill="#FFB038"/>
<path d="M43.5531 23.013L41.8156 24.7504L40.8343 25.7317L38.8711 23.7685L39.8524 22.7872L41.5899 21.0498C41.7421 20.8975 41.9568 20.8235 42.1701 20.8522C42.5009 20.8975 42.9867 21.0137 43.2879 21.3149C43.5891 21.616 43.7052 22.1019 43.7506 22.4327C43.7793 22.646 43.7053 22.8607 43.5531 23.013Z" fill="#F89D16"/>
<path d="M40.8337 25.7317L41.815 24.7504L43.5524 23.013C43.7047 22.8607 43.7787 22.6461 43.75 22.4328C43.7047 22.1019 43.5885 21.6161 43.2873 21.3149L39.8521 24.7502L40.8337 25.7317Z" fill="#F89D16"/>
</g>
<defs>
<linearGradient id="paint0_linear" x1="27.4028" y1="12.0315" x2="27.4028" y2="44.6877" gradientUnits="userSpaceOnUse">
<stop stop-color="#4F6CFF"/>
<stop offset="1" stop-color="#4F6CFF"/>
</linearGradient>
<linearGradient id="paint1_linear" x1="33.6852" y1="12.0315" x2="33.6852" y2="44.6877" gradientUnits="userSpaceOnUse">
<stop stop-color="#4F6CFF"/>
<stop offset="1" stop-color="#4F6CFF"/>
</linearGradient>
<clipPath id="clip0">
<rect width="32.6562" height="32.6562" fill="white" transform="translate(12.0312 12.0315)"/>
</clipPath>
</defs>
</svg>
