<svg width="25" height="30" viewBox="0 0 25 30" fill="none" xmlns="http://www.w3.org/2000/svg">
<path d="M12.4999 9.08599C9.41541 9.08599 6.90611 11.5953 6.90611 14.6796C6.90611 17.7641 9.41541 20.2734 12.4999 20.2734C15.5842 20.2734 18.0935 17.7641 18.0935 14.6796C18.0935 11.5953 15.5842 9.08599 12.4999 9.08599ZM15.8209 13.6262L11.8136 17.6335C11.6454 17.8017 11.4248 17.8859 11.2044 17.8859C10.984 17.8859 10.7636 17.8019 10.5954 17.6335L9.06398 16.1021C8.72756 15.7659 8.72756 15.2205 9.06398 14.8841C9.40018 14.5476 9.94559 14.5476 10.282 14.8841L11.2044 15.8064L14.6029 12.4081C14.9391 12.0717 15.4845 12.0717 15.8209 12.4081C16.1574 12.7443 16.1574 13.2897 15.8209 13.6262Z" fill="#4F6CFF"/>
<path d="M24.9709 7.96561L24.97 7.94276C24.9572 7.66076 24.9487 7.36242 24.9435 7.03047C24.9196 5.41174 23.6328 4.07276 22.0138 3.98227C18.6384 3.7939 16.0272 2.69324 13.7961 0.518579L13.777 0.500437C13.0493 -0.166812 11.9516 -0.166812 11.2236 0.500437L11.2046 0.518579C8.97347 2.69324 6.36226 3.7939 2.98682 3.98249C1.36809 4.07276 0.0810718 5.41174 0.0571055 7.0307C0.0521779 7.3604 0.0434425 7.65875 0.0306754 7.94276L0.0293315 7.99584C-0.0362959 11.4378 -0.117826 15.7215 1.31522 19.6096C2.1032 21.7478 3.29659 23.6064 4.86201 25.1342C6.64493 26.8741 8.98019 28.2554 11.8028 29.2396C11.8947 29.2717 11.9901 29.2976 12.0873 29.3171C12.2244 29.3444 12.3623 29.3581 12.5003 29.3581C12.6383 29.3581 12.7765 29.3444 12.9134 29.3171C13.0106 29.2976 13.1066 29.2714 13.1989 29.2392C16.0182 28.2532 18.351 26.8712 20.1324 25.1315C21.6971 23.6033 22.8905 21.7442 23.6792 19.6056C25.1176 15.7058 25.0363 11.4141 24.9709 7.96561ZM12.4999 21.996C8.46547 21.996 5.18343 18.7139 5.18343 14.6795C5.18343 10.6451 8.46547 7.36309 12.4999 7.36309C16.5341 7.36309 19.8163 10.6451 19.8163 14.6795C19.8163 18.7139 16.5341 21.996 12.4999 21.996Z" fill="#4F6CFF"/>
</svg>
