<svg width="22" height="22" viewBox="0 0 22 22" fill="none" xmlns="http://www.w3.org/2000/svg">
<path d="M20.9908 19.9952H0.999809C0.44748 19.9952 0 20.4427 0 20.9955C0 21.5474 0.44748 21.9949 0.999809 21.9949H20.9904C21.5427 21.9949 21.9902 21.5474 21.9902 20.9955C21.9897 20.4427 21.5422 19.9952 20.9908 19.9952Z" fill="#6982FF"/>
<path d="M2.24883 17.396C1.6965 17.396 1.24902 17.8435 1.24902 18.3958C1.24902 18.9481 1.6965 19.3961 2.24883 19.3961H19.7408C20.2931 19.3961 20.7406 18.9481 20.7406 18.3958C20.7406 17.8435 20.2931 17.396 19.7408 17.396H19.4913V8.39957H19.7408C20.0174 8.39957 20.2402 8.17583 20.2402 7.90013C20.2402 7.62444 20.0165 7.4007 19.7408 7.4007H2.24883C1.97267 7.4007 1.7494 7.62444 1.7494 7.90013C1.7494 8.17583 1.97314 8.39957 2.24883 8.39957H2.49878V17.3955H2.24883V17.396ZM17.4917 8.39957V17.3955H14.4932V8.39957H17.4917ZM12.4936 8.39957V17.3955H9.4951V8.39957H12.4936ZM4.49747 8.39957H7.49595V17.3955H4.49747V8.39957Z" fill="#6982FF"/>
<path d="M0.999828 6.50129H20.9904C20.9937 6.50129 20.9974 6.50129 21.0002 6.50129C21.553 6.50129 22 6.05381 22 5.50148C22 5.06242 21.7173 4.6903 21.3246 4.5555L11.4061 0.0924028C11.1454 -0.024616 10.8472 -0.024616 10.586 0.0924028L0.589794 4.59014C0.159633 4.78392 -0.0767453 5.25106 0.0224866 5.71165C0.12125 6.17223 0.528476 6.50129 0.999828 6.50129Z" fill="#6982FF"/>
</svg>
