<svg width="55" height="55" viewBox="0 0 55 55" fill="none" xmlns="http://www.w3.org/2000/svg">
<circle cx="27.5" cy="27.5002" r="27.5" fill="#E6EAFF"/>
<g clip-path="url(#clip0)">
<path d="M25.2223 20.0849L26.1841 20.6076L31.1414 11.4861L30.1797 10.9634L25.2223 20.0849Z" fill="#D6CED1"/>
<path d="M18.1394 11.4866L23.0967 20.608L24.0584 20.0853L19.1011 10.9639L18.1394 11.4866Z" fill="#D6CED1"/>
<path d="M30.6607 12.1371C31.1645 12.1371 31.5729 11.7287 31.5729 11.2249C31.5729 10.7211 31.1645 10.3127 30.6607 10.3127C30.1569 10.3127 29.7485 10.7211 29.7485 11.2249C29.7485 11.7287 30.1569 12.1371 30.6607 12.1371Z" fill="#C2B8B9"/>
<path d="M18.6207 12.1371C19.1245 12.1371 19.5329 11.7287 19.5329 11.2249C19.5329 10.7211 19.1245 10.3127 18.6207 10.3127C18.1169 10.3127 17.7085 10.7211 17.7085 11.2249C17.7085 11.7287 18.1169 12.1371 18.6207 12.1371Z" fill="#C2B8B9"/>
<path d="M44.4136 41.5094C44.4136 42.3121 43.7569 42.9689 42.9541 42.9689H13.7642C12.9615 42.9689 12.3047 42.3122 12.3047 41.5094V21.0765C12.3047 20.2738 12.9614 19.617 13.7642 19.617H42.9542C43.7569 19.617 44.4137 20.2737 44.4137 21.0765V41.5094H44.4136Z" fill="url(#paint0_linear)"/>
<path d="M39.6705 26.1847C40.6781 26.1847 41.4949 25.3679 41.4949 24.3604C41.4949 23.3528 40.6781 22.536 39.6705 22.536C38.663 22.536 37.8462 23.3528 37.8462 24.3604C37.8462 25.3679 38.663 26.1847 39.6705 26.1847Z" fill="#8A9FFF"/>
<path d="M39.6705 32.0227C40.6781 32.0227 41.4949 31.2059 41.4949 30.1984C41.4949 29.1908 40.6781 28.374 39.6705 28.374C38.663 28.374 37.8462 29.1908 37.8462 30.1984C37.8462 31.2059 38.663 32.0227 39.6705 32.0227Z" fill="#8A9FFF"/>
<path d="M41.4949 40.5972H37.8461C37.5438 40.5972 37.2988 40.3522 37.2988 40.0499C37.2988 39.7477 37.5438 39.5026 37.8461 39.5026H41.4949C41.7972 39.5026 42.0422 39.7477 42.0422 40.0499C42.0422 40.3522 41.7972 40.5972 41.4949 40.5972Z" fill="#8A9FFF"/>
<path d="M41.4949 38.408H37.8461C37.5438 38.408 37.2988 38.163 37.2988 37.8607C37.2988 37.5584 37.5438 37.3134 37.8461 37.3134H41.4949C41.7972 37.3134 42.0422 37.5584 42.0422 37.8607C42.0422 38.163 41.7972 38.408 41.4949 38.408Z" fill="#8A9FFF"/>
<path d="M41.4949 36.2188H37.8461C37.5438 36.2188 37.2988 35.9737 37.2988 35.6715C37.2988 35.3692 37.5438 35.1241 37.8461 35.1241H41.4949C41.7972 35.1241 42.0422 35.3692 42.0422 35.6715C42.0422 35.9737 41.7972 36.2188 41.4949 36.2188Z" fill="#8A9FFF"/>
<path d="M32.9772 24.3458C35.6986 26.3875 35.4512 35.7168 32.9772 38.0139C30.0534 40.7287 20.0967 40.7287 17.173 38.0139C14.699 35.7168 14.4517 26.3876 17.173 24.3458C20.389 21.9327 29.7611 21.9327 32.9772 24.3458Z" fill="#FFB038"/>
</g>
<defs>
<linearGradient id="paint0_linear" x1="30.078" y1="46.4064" x2="23.203" y2="20.6252" gradientUnits="userSpaceOnUse">
<stop offset="0.213314" stop-color="#3651D7"/>
<stop offset="1" stop-color="#5973F2"/>
</linearGradient>
<clipPath id="clip0">
<rect width="32.6562" height="32.6562" fill="white" transform="translate(12.0312 10.3127)"/>
</clipPath>
</defs>
</svg>
