<svg width="192" height="192" viewBox="0 0 192 192" fill="none" xmlns="http://www.w3.org/2000/svg">
<path d="M170.947 174.012C141.568 197.996 49.8323 197.996 21.0524 174.012C-8.327 150.029 -5.32915 47.5014 21.0524 20.5203C47.4339 -6.46071 144.566 -6.46071 170.947 20.5203C197.329 47.5014 200.327 150.03 170.947 174.012Z" fill="url(#paint0_linear)"/>
<g opacity="0.2">
<path opacity="0.2" d="M96.5995 132.042C70.218 153.028 40.8386 163.82 13.2581 164.42C-7.12776 129.644 -2.93053 45.1035 21.0527 20.5208C42.6375 -1.66351 110.39 -5.86074 149.363 7.92952C158.956 47.5019 139.17 97.8662 96.5995 132.042Z" fill="white"/>
</g>
<path d="M82.2097 149.43C78.0125 149.43 73.8157 147.631 71.4173 144.034L37.8411 100.864C33.0444 94.8683 34.2437 86.4743 40.2394 81.6775C46.2351 76.8808 54.6292 78.0802 59.4259 84.0759L82.2097 113.455L132.574 48.1013C137.371 42.1056 145.765 40.9062 151.761 45.703C157.757 50.4997 158.956 58.8937 154.159 64.8894L93.0021 144.034C90.0043 147.032 86.4069 149.43 82.2097 149.43Z" fill="white"/>
<defs>
<linearGradient id="paint0_linear" x1="95.9998" y1="0.284546" x2="95.9998" y2="192" gradientUnits="userSpaceOnUse">
<stop stop-color="#4F6CFF"/>
<stop offset="1" stop-color="#4F6CFF"/>
</linearGradient>
</defs>
</svg>
