<svg width="11" height="12" viewBox="0 0 11 12" fill="none" xmlns="http://www.w3.org/2000/svg">
<path d="M5.5 0.5C2.46742 0.5 0 2.96742 0 6C0 9.03258 2.46742 11.5 5.5 11.5C8.53258 11.5 11 9.03258 11 6C11 2.96742 8.53258 0.5 5.5 0.5ZM8.57394 4.55263L5.0589 8.0401C4.85213 8.24687 4.5213 8.26065 4.30075 8.05388L2.43985 6.3584C2.2193 6.15163 2.20551 5.80702 2.3985 5.58647C2.60526 5.36591 2.94987 5.35213 3.17043 5.5589L4.64536 6.90977L7.78822 3.76692C8.00877 3.54637 8.35338 3.54637 8.57394 3.76692C8.79449 3.98747 8.79449 4.33208 8.57394 4.55263Z" fill="#4F6CFF"/>
</svg>
