<svg width="55" height="55" viewBox="0 0 55 55" fill="none" xmlns="http://www.w3.org/2000/svg">
<circle cx="27.5" cy="27.5002" r="27.5" fill="#E6EAFF"/>
<g clip-path="url(#clip0)">
<path d="M41.2858 16.7939H15.4329C13.5542 16.7939 12.0312 18.3169 12.0312 20.1956V36.5237C12.0312 38.4024 13.5542 39.9254 15.4329 39.9254H41.2858C43.1645 39.9254 44.6875 38.4024 44.6875 36.5237V20.1956C44.6875 18.3169 43.1645 16.7939 41.2858 16.7939Z" fill="url(#paint0_linear)"/>
<path d="M44.6875 20.1956V24.6178H12.0312V20.1956C12.0312 19.2934 12.3896 18.4281 13.0276 17.7902C13.6655 17.1523 14.5308 16.7939 15.4329 16.7939H41.2858C41.7325 16.7939 42.1749 16.8818 42.5876 17.0528C43.0003 17.2238 43.3753 17.4743 43.6912 17.7902C44.007 18.1061 44.2576 18.4811 44.4286 18.8938C44.5995 19.3065 44.6875 19.7488 44.6875 20.1956Z" fill="#3C57DC"/>
<path d="M22.9167 12.0315H20.1953C19.0681 12.0315 18.1543 12.9453 18.1543 14.0725V18.8349C18.1543 19.9621 19.0681 20.8759 20.1953 20.8759H22.9167C24.0439 20.8759 24.9577 19.9621 24.9577 18.8349V14.0725C24.9577 12.9453 24.0439 12.0315 22.9167 12.0315Z" fill="#FFB038"/>
<path d="M36.5236 12.0315H33.8022C32.675 12.0315 31.7612 12.9453 31.7612 14.0725V18.8349C31.7612 19.9621 32.675 20.8759 33.8022 20.8759H36.5236C37.6508 20.8759 38.5646 19.9621 38.5646 18.8349V14.0725C38.5646 12.9453 37.6508 12.0315 36.5236 12.0315Z" fill="#FFB038"/>
<path d="M37.8844 29.7203H18.835C17.7077 29.7203 16.7939 30.6341 16.7939 31.7613V42.6467C16.7939 43.7739 17.7077 44.6877 18.835 44.6877H37.8844C39.0117 44.6877 39.9255 43.7739 39.9255 42.6467V31.7613C39.9255 30.6341 39.0117 29.7203 37.8844 29.7203Z" fill="url(#paint1_linear)"/>
<path d="M28.5704 36.4216H28.1486C28.0604 36.4308 27.9713 36.4214 27.8871 36.3939C27.8028 36.3665 27.7253 36.3216 27.6594 36.2623C27.5936 36.203 27.541 36.1305 27.505 36.0495C27.4689 35.9686 27.4503 35.8809 27.4503 35.7923C27.4503 35.7037 27.4689 35.6161 27.505 35.5351C27.541 35.4542 27.5936 35.3817 27.6594 35.3223C27.7253 35.263 27.8028 35.2182 27.8871 35.1907C27.9713 35.1633 28.0604 35.1538 28.1486 35.163H29.8834C30.0639 35.163 30.2369 35.0913 30.3645 34.9637C30.4921 34.8362 30.5638 34.6631 30.5638 34.4827C30.5638 34.3022 30.4921 34.1292 30.3645 34.0016C30.2369 33.874 30.0639 33.8023 29.8834 33.8023H29.0398V32.9995C29.0398 32.8191 28.9681 32.6461 28.8405 32.5185C28.7129 32.3909 28.5399 32.3192 28.3595 32.3192C28.179 32.3192 28.006 32.3909 27.8784 32.5185C27.7508 32.6461 27.6791 32.8191 27.6791 32.9995V33.8636C27.2052 33.9768 26.7894 34.2603 26.5109 34.6601C26.2323 35.06 26.1104 35.5482 26.1684 36.032C26.2264 36.5158 26.4601 36.9615 26.8252 37.2842C27.1903 37.6069 27.6613 37.7842 28.1486 37.7823H28.5704C28.7382 37.7823 28.8991 37.849 29.0178 37.9676C29.1364 38.0863 29.2031 38.2472 29.2031 38.415V38.6123C29.2031 38.7801 29.1364 38.9411 29.0178 39.0597C28.8991 39.1784 28.7382 39.245 28.5704 39.245H26.8355C26.6551 39.245 26.482 39.3167 26.3544 39.4443C26.2268 39.5719 26.1552 39.7449 26.1552 39.9254C26.1552 40.1058 26.2268 40.2789 26.3544 40.4065C26.482 40.534 26.6551 40.6057 26.8355 40.6057H27.6791V41.4085C27.6791 41.589 27.7508 41.762 27.8784 41.8896C28.006 42.0172 28.179 42.0889 28.3595 42.0889C28.5399 42.0889 28.7129 42.0172 28.8405 41.8896C28.9681 41.762 29.0398 41.589 29.0398 41.4085V40.5445C29.4734 40.4394 29.8592 40.1919 30.1355 39.8416C30.4118 39.4913 30.5626 39.0585 30.5638 38.6123V38.415C30.5638 37.8864 30.3537 37.3793 29.9799 37.0055C29.6061 36.6317 29.099 36.4216 28.5704 36.4216Z" fill="white"/>
</g>
<defs>
<linearGradient id="paint0_linear" x1="28.3594" y1="16.7939" x2="28.3594" y2="43.8284" gradientUnits="userSpaceOnUse">
<stop stop-color="#6982FF"/>
<stop offset="1" stop-color="#4F6CFF"/>
</linearGradient>
<linearGradient id="paint1_linear" x1="28.3597" y1="29.7203" x2="29.2192" y2="52.4221" gradientUnits="userSpaceOnUse">
<stop stop-color="#FFB038"/>
<stop offset="1" stop-color="#FF9F1E"/>
</linearGradient>
<clipPath id="clip0">
<rect width="32.6562" height="32.6562" fill="white" transform="translate(12.0312 12.0315)"/>
</clipPath>
</defs>
</svg>
