<svg width="21" height="21" viewBox="0 0 21 21" fill="none" xmlns="http://www.w3.org/2000/svg">
<path d="M13.6869 17.5051H2.1684C1.71027 17.5046 1.27105 17.3224 0.947108 16.9985C0.623163 16.6745 0.440944 16.2353 0.44043 15.7772V1.72797C0.440944 1.26984 0.623163 0.830624 0.947108 0.506678C1.27105 0.182733 1.71027 0.000514462 2.1684 0H13.6869C14.145 0.000514462 14.5842 0.182733 14.9082 0.506678C15.2321 0.830624 15.4143 1.26984 15.4149 1.72797V15.7772C15.4143 16.2353 15.2321 16.6745 14.9082 16.9985C14.5842 17.3224 14.145 17.5046 13.6869 17.5051Z" fill="#4F6CFF"/>
<path d="M18.392 3.49463H16.9983C16.9572 3.49456 16.9162 3.49847 16.8759 3.50629V17.2367C16.8753 17.6952 16.6929 18.1347 16.3685 18.4587C16.0441 18.7827 15.6044 18.9647 15.146 18.9647H5.21743C5.16973 19.06 5.1451 19.1652 5.14551 19.2718C5.14603 19.7299 5.32825 20.1692 5.65219 20.4931C5.97614 20.817 6.41535 20.9993 6.87348 20.9998H18.392C18.8502 20.9998 19.2898 20.8177 19.6138 20.4937C19.9379 20.1696 20.1199 19.7301 20.1199 19.2718V5.2226C20.1199 4.76431 19.9379 4.3248 19.6138 4.00074C19.2898 3.67668 18.8502 3.49463 18.392 3.49463Z" fill="#4F6CFF"/>
</svg>
