<svg width="32" height="32" viewBox="0 0 32 32" fill="none" xmlns="http://www.w3.org/2000/svg">
<path d="M25.5155 13.5413H23.9321V17.5168C23.9321 19.7121 22.1595 21.4924 19.9737 21.4924H12.8486V23.0826C12.8486 24.839 14.2665 26.263 16.0153 26.263H20.7654L24.2171 29.1493C24.5528 29.4299 25.0523 29.3846 25.3318 29.0475C25.4505 28.9044 25.5155 28.7239 25.5155 28.537V26.263C27.2643 26.263 28.6822 24.839 28.6822 23.0826V16.7217C28.6822 14.9653 27.2643 13.5413 25.5155 13.5413Z" fill="#4F6CFF"/>
<path d="M19.5556 4H7.11111C5.393 4 4 5.34644 4 7.00711V16.0285C4 17.6891 5.393 19.0356 7.11111 19.0356V21.9149C7.11111 22.3299 7.45956 22.6667 7.88889 22.6667C8.074 22.6667 8.25367 22.6028 8.39444 22.4862L12.5556 19.0356H19.5556C21.2737 19.0356 22.6667 17.6891 22.6667 16.0285V7.00711C22.6667 5.34644 21.2737 4 19.5556 4ZM9.76333 12.5778C9.69489 12.6507 9.61633 12.7139 9.53 12.7657C9.446 12.8206 9.35811 12.8687 9.26556 12.9086C9.16911 12.9432 9.07033 12.971 8.97 12.9913C8.87044 13.0123 8.76856 13.0221 8.66667 13.0213C7.80722 13.0213 7.11111 12.3485 7.11111 11.5178C7.09478 10.6878 7.77767 10.0014 8.63633 9.98566C8.74833 9.98341 8.86033 9.99318 8.97 10.0142C9.07033 10.0345 9.16911 10.0623 9.26556 10.0969C9.35967 10.1345 9.44833 10.1819 9.53 10.2398C9.61478 10.2916 9.69256 10.3518 9.76333 10.4202C10.0651 10.7104 10.2308 11.1066 10.2222 11.5178C10.2207 11.9162 10.0558 12.2974 9.76333 12.5778ZM14.43 12.5778C14.1399 12.8605 13.7456 13.0198 13.3333 13.0213C13.2322 13.0326 13.1311 13.0326 13.03 13.0213C12.9297 13.001 12.8309 12.9732 12.7344 12.9386C12.6419 12.8988 12.554 12.8507 12.47 12.7958C12.3829 12.7417 12.302 12.6793 12.2289 12.6079C11.9318 12.3184 11.7692 11.9253 11.7778 11.5178C11.7661 11.4201 11.7661 11.3223 11.7778 11.2246C11.7988 11.1276 11.8276 11.0321 11.8633 10.9389C11.9022 10.848 11.9512 10.7622 12.0111 10.6833C12.0663 10.6006 12.1293 10.5224 12.1978 10.4503C12.2724 10.3841 12.3533 10.3232 12.4389 10.2698C12.5206 10.2119 12.6092 10.1646 12.7033 10.127C12.8091 10.0804 12.918 10.0428 13.03 10.0142C13.8723 9.85185 14.6913 10.3811 14.8593 11.1953C14.8811 11.3013 14.8912 11.4095 14.8889 11.5178C14.8889 11.9147 14.7271 12.2959 14.4378 12.5778H14.43ZM19.0967 12.5778C19.0282 12.6507 18.9497 12.7139 18.8633 12.7657C18.7793 12.8206 18.6914 12.8687 18.5989 12.9086C18.5024 12.9432 18.4037 12.971 18.3033 12.9913C18.2038 13.0123 18.1019 13.0221 18 13.0213C17.1406 13.0213 16.4444 12.3485 16.4444 11.5178C16.4281 10.6878 17.111 10.0014 17.9697 9.98566C18.0817 9.98341 18.1937 9.99318 18.3033 10.0142C18.4037 10.0345 18.5024 10.0623 18.5989 10.0969C18.693 10.1345 18.7817 10.1819 18.8633 10.2398C18.9481 10.2916 19.0259 10.3518 19.0967 10.4202C19.3984 10.7104 19.5641 11.1066 19.5556 11.5178C19.554 11.9162 19.3891 12.2974 19.0967 12.5778Z" fill="#4F6CFF"/>
</svg>
