<svg width="33" height="32" viewBox="0 0 33 32" fill="none" xmlns="http://www.w3.org/2000/svg">
<path d="M26.2147 13.5413H24.6313V17.5168C24.6313 19.7121 22.8588 21.4924 20.6729 21.4924H13.5479V23.0826C13.5479 24.839 14.9657 26.263 16.7146 26.263H21.4646L24.9163 29.1493C25.252 29.4299 25.7515 29.3846 26.031 29.0475C26.1498 28.9044 26.2147 28.7239 26.2147 28.537V26.263C27.9635 26.263 29.3814 24.839 29.3814 23.0826V16.7217C29.3814 14.9653 27.9635 13.5413 26.2147 13.5413Z" fill="#C2C2C2"/>
<path d="M20.2548 4H7.81033C6.09222 4 4.69922 5.34644 4.69922 7.00711V16.0285C4.69922 17.6891 6.09222 19.0356 7.81033 19.0356V21.9149C7.81033 22.3299 8.15877 22.6667 8.58811 22.6667C8.77322 22.6667 8.95289 22.6028 9.09366 22.4862L13.2548 19.0356H20.2548C21.9729 19.0356 23.3659 17.6891 23.3659 16.0285V7.00711C23.3659 5.34644 21.9729 4 20.2548 4ZM10.4626 12.5778C10.3941 12.6507 10.3156 12.7139 10.2292 12.7657C10.1452 12.8206 10.0573 12.8687 9.96477 12.9086C9.86833 12.9432 9.76955 12.971 9.66922 12.9913C9.56966 13.0123 9.46777 13.0221 9.36589 13.0213C8.50644 13.0213 7.81033 12.3485 7.81033 11.5178C7.794 10.6878 8.47689 10.0014 9.33555 9.98566C9.44755 9.98341 9.55955 9.99318 9.66922 10.0142C9.76955 10.0345 9.86833 10.0623 9.96477 10.0969C10.0589 10.1345 10.1476 10.1819 10.2292 10.2398C10.314 10.2916 10.3918 10.3518 10.4626 10.4202C10.7643 10.7104 10.93 11.1066 10.9214 11.5178C10.9199 11.9162 10.755 12.2974 10.4626 12.5778ZM15.1292 12.5778C14.8391 12.8605 14.4448 13.0198 14.0326 13.0213C13.9314 13.0326 13.8303 13.0326 13.7292 13.0213C13.6289 13.001 13.5301 12.9732 13.4337 12.9386C13.3411 12.8988 13.2532 12.8507 13.1692 12.7958C13.0821 12.7417 13.0012 12.6793 12.9281 12.6079C12.631 12.3184 12.4684 11.9253 12.477 11.5178C12.4653 11.4201 12.4653 11.3223 12.477 11.2246C12.498 11.1276 12.5268 11.0321 12.5626 10.9389C12.6014 10.848 12.6504 10.7622 12.7103 10.6833C12.7656 10.6006 12.8286 10.5224 12.897 10.4503C12.9717 10.3841 13.0526 10.3232 13.1381 10.2698C13.2198 10.2119 13.3084 10.1646 13.4026 10.127C13.5083 10.0804 13.6172 10.0428 13.7292 10.0142C14.5716 9.85185 15.3906 10.3811 15.5586 11.1953C15.5803 11.3013 15.5904 11.4095 15.5881 11.5178C15.5881 11.9147 15.4263 12.2959 15.137 12.5778H15.1292ZM19.7959 12.5778C19.7274 12.6507 19.6489 12.7139 19.5626 12.7657C19.4786 12.8206 19.3907 12.8687 19.2981 12.9086C19.2017 12.9432 19.1029 12.971 19.0026 12.9913C18.903 13.0123 18.8011 13.0221 18.6992 13.0213C17.8398 13.0213 17.1437 12.3485 17.1437 11.5178C17.1273 10.6878 17.8102 10.0014 18.6689 9.98566C18.7809 9.98341 18.8929 9.99318 19.0026 10.0142C19.1029 10.0345 19.2017 10.0623 19.2981 10.0969C19.3922 10.1345 19.4809 10.1819 19.5626 10.2398C19.6473 10.2916 19.7251 10.3518 19.7959 10.4202C20.0977 10.7104 20.2633 11.1066 20.2548 11.5178C20.2532 11.9162 20.0883 12.2974 19.7959 12.5778Z" fill="#C2C2C2"/>
</svg>
