<svg width="32" height="32" viewBox="0 0 32 32" fill="none" xmlns="http://www.w3.org/2000/svg">
<circle cx="16" cy="16" r="16" fill="#E6EAFF"/>
<path d="M12.2461 21.518C10.6265 21.518 9.30811 20.1997 9.30811 18.5801C9.30811 16.9605 10.6265 15.6421 12.2461 15.6421V16.88C11.3094 16.88 10.546 17.6434 10.546 18.5801C10.546 19.5168 11.3094 20.2801 12.2461 20.2801C13.1828 20.2801 13.9462 19.5168 13.9462 18.5801H15.1841C15.1841 20.1997 13.8657 21.518 12.2461 21.518Z" fill="white"/>
<path d="M17.3257 15.6401H12.2461V16.8821H17.3257V15.6401Z" fill="white"/>
<path d="M24.8215 10.3726L17.1217 5.92852C16.6595 5.66237 15.9044 5.66237 15.4423 5.92852L15.1864 6.07707V18.6213H13.9444V6.79299L7.7445 10.3726C7.28235 10.6388 6.90479 11.2949 6.90479 11.8272V20.7154C6.90479 21.2498 7.28235 21.9038 7.7445 22.1699L15.4423 26.614C15.9044 26.8802 16.6595 26.8802 17.1217 26.614L17.4188 26.4428V13.9027H18.6608V25.7269L24.8195 22.1699C25.2816 21.9038 25.6592 21.2498 25.6592 20.7154V11.8272C25.6612 11.2949 25.2816 10.6408 24.8215 10.3726Z" fill="url(#paint0_linear)"/>
<path d="M20.3584 16.8822V15.6443C21.2951 15.6443 22.0585 14.8809 22.0585 13.9442C22.0585 13.0075 21.2951 12.2441 20.3584 12.2441C19.4217 12.2441 18.6583 13.0075 18.6583 13.9442H17.4204C17.4204 12.3246 18.7388 11.0062 20.3584 11.0062C21.978 11.0062 23.2964 12.3246 23.2964 13.9442C23.2964 15.5638 21.978 16.8822 20.3584 16.8822Z" fill="white"/>
<path d="M20.3971 15.6421H15.2783V16.8841H20.3971V15.6421Z" fill="white"/>
<path d="M23.2965 13.9441C23.2965 12.3245 21.9781 11.0062 20.3585 11.0062C18.7513 11.0062 17.4433 12.3018 17.4206 13.9029H17.4185V15.6421H17.3257V15.6401H15.1861V6.0772L13.9441 6.79313V15.6401H12.2461V15.6421C10.6265 15.6421 9.30811 16.9605 9.30811 18.5801C9.30811 20.1997 10.6265 21.5181 12.2461 21.5181C13.8512 21.5181 15.1614 20.2224 15.1841 18.6214H15.1861V16.8821H15.279V16.8842H17.4185V26.445L18.6605 25.7291V16.8842H20.3977V16.8821C22.0008 16.8594 23.2965 15.5493 23.2965 13.9441ZM12.2461 20.2802C11.3094 20.2802 10.546 19.5168 10.546 18.5801C10.546 17.6434 11.3094 16.8801 12.2461 16.8801V16.8821H13.9441V18.6214C13.9235 19.5395 13.1704 20.2802 12.2461 20.2802ZM20.3998 15.6421H18.6626V13.9029C18.6853 12.9848 19.4384 12.2441 20.3606 12.2441C21.2973 12.2441 22.0607 13.0075 22.0607 13.9441C22.0586 14.8684 21.3179 15.6215 20.3998 15.6421Z" fill="#FFB038"/>
<defs>
<linearGradient id="paint0_linear" x1="16.282" y1="5.7289" x2="16.2911" y2="41.3091" gradientUnits="userSpaceOnUse">
<stop stop-color="#6982FF"/>
<stop offset="1" stop-color="#304BD2"/>
</linearGradient>
</defs>
</svg>
