<svg width="26" height="24" viewBox="0 0 26 24" fill="none" xmlns="http://www.w3.org/2000/svg">
<path d="M25.5953 8.67233V20.8826C25.5953 22.3868 24.3566 23.6255 22.8524 23.6255H6.92595C5.51026 23.6255 4.27154 23.1831 3.20977 22.3868C1.7056 21.325 0.820801 19.5554 0.820801 17.6089V6.81424C0.820801 2.65566 4.4485 0.797577 6.83747 0.797577H19.2247C20.7289 0.797577 21.9676 2.0363 21.9676 3.54047V7.69905H24.622C25.4184 7.69905 25.5953 8.31841 25.5953 8.67233Z" fill="#3A64FE"/>
<path d="M19.402 17.4321C20.868 17.4321 22.0564 16.2437 22.0564 14.7777C22.0564 13.3117 20.868 12.1233 19.402 12.1233C17.936 12.1233 16.7476 13.3117 16.7476 14.7777C16.7476 16.2437 17.936 17.4321 19.402 17.4321Z" fill="#F1F2F2"/>
<path d="M19.4019 15.6626C19.8906 15.6626 20.2867 15.2664 20.2867 14.7778C20.2867 14.2891 19.8906 13.893 19.4019 13.893C18.9132 13.893 18.5171 14.2891 18.5171 14.7778C18.5171 15.2664 18.9132 15.6626 19.4019 15.6626Z" fill="#6982FF"/>
<path d="M22.0565 3.54077V7.69934H5.24527C3.2987 7.69934 1.70605 6.1067 1.70605 4.07165C1.70605 2.56748 4.53743 0.709394 6.83792 0.797874H19.2252C20.8178 0.797874 22.0565 2.0366 22.0565 3.54077Z" fill="#6982FF"/>
<path d="M25.5956 15.0432V20.8829C25.5956 22.3871 24.3569 23.6258 22.8527 23.6258H6.92623C5.51054 23.6258 22.3218 22.8295 25.5956 15.0432Z" fill="#6982FF"/>
</svg>
