<svg width="55" height="55" viewBox="0 0 55 55" fill="none" xmlns="http://www.w3.org/2000/svg">
<circle cx="27.5" cy="27.5002" r="27.5" fill="#E6EAFF"/>
<g clip-path="url(#clip0)">
<path fill-rule="evenodd" clip-rule="evenodd" d="M12.4756 38.894V41.7594L17.8824 42.6979L25.2666 43.9795C26.0062 44.1487 27.3004 44.2637 28.7637 43.826L42.1973 39.8078C43.7034 39.3565 43.9604 37.811 43.2457 36.9356C43.009 37.229 42.664 37.4636 42.1973 37.5945L39.8141 38.2555L32.1097 40.7283L28.297 41.7842C26.8314 42.1904 25.8506 41.7346 25.1111 41.5496C20.8474 40.717 16.7393 39.7265 12.4756 38.894Z" fill="#FED1A3"/>
<path fill-rule="evenodd" clip-rule="evenodd" d="M12.4757 41.7594V38.894C12.4757 39.4264 12.0383 39.8641 11.5039 39.8641H11.2447H7.84452C7.31239 39.8641 6.87724 39.4309 6.875 38.8985V41.9421V41.9465C6.87724 42.479 7.31239 42.9122 7.84452 42.9122H11.5039C12.0383 42.9122 12.4757 42.4745 12.4757 41.9421V41.7594Z" fill="#FB2A39"/>
<path fill-rule="evenodd" clip-rule="evenodd" d="M19.3752 24.1835C22.6017 20.5194 28.1845 20.1652 31.8461 23.3916C35.5078 26.6179 35.864 32.2066 32.6375 35.8706C29.4132 39.5347 23.8283 39.8889 20.1666 36.6626C16.505 33.4362 16.151 27.8476 19.3752 24.1835Z" fill="#FFB038"/>
<path fill-rule="evenodd" clip-rule="evenodd" d="M31.8457 23.3916C29.6901 21.4919 26.8649 20.8331 24.2517 21.361C23.9023 21.431 23.555 21.5235 23.2168 21.6363C24.6237 21.9477 25.9743 22.611 27.1332 23.633C30.7949 26.8593 31.1489 32.4457 27.9246 36.112C26.8514 37.3304 25.5189 38.1809 24.0826 38.6593C24.3419 38.7157 24.6012 38.7608 24.8627 38.7946C25.6203 38.8939 26.3869 38.8939 27.1423 38.7946C29.194 38.5306 31.1624 37.5469 32.637 35.8705C35.8636 32.2066 35.5073 26.618 31.8457 23.3916Z" fill="#FF9F1E"/>
<path fill-rule="evenodd" clip-rule="evenodd" d="M30.9399 13.3109C34.1642 9.64681 39.7469 9.29258 43.4108 12.5189C47.0725 15.7475 47.4265 21.3339 44.2022 24.998C40.9757 28.6643 35.393 29.0185 31.7313 25.7899C28.0674 22.5636 27.7134 16.9772 30.9399 13.3109Z" fill="#FFB038"/>
<path fill-rule="evenodd" clip-rule="evenodd" d="M43.4104 12.5189C41.2526 10.6192 38.4297 9.96035 35.8142 10.4883C35.4648 10.5605 35.1198 10.6508 34.7793 10.7636C36.1885 11.0772 37.5391 11.7382 38.6957 12.7603C42.3596 15.9866 42.7137 21.5753 39.4871 25.2393C38.4162 26.4577 37.0836 27.3106 35.6474 27.7865C35.9044 27.8452 36.166 27.8903 36.4275 27.9242C37.1851 28.0213 37.9517 28.0213 38.707 27.9242C40.7588 27.658 42.7272 26.6743 44.2018 24.9979C47.426 21.3339 47.0721 15.7476 43.4104 12.5189Z" fill="#FF9F1E"/>
<path d="M23.865 26.9846C24.501 26.9846 25.0023 27.1393 25.3689 27.4487C25.7413 27.7581 25.9275 28.1734 25.9275 28.6948C25.9275 29.113 25.8215 29.4596 25.6096 29.7346C25.4033 30.0039 25.1111 30.193 24.733 30.3018L26.2627 32.6565H24.9307L23.5986 30.4823H22.533V32.6565H21.3643V26.9846H23.865ZM23.7275 29.5799C24.3864 29.5799 24.7158 29.3049 24.7158 28.7549C24.7158 28.2049 24.3864 27.9299 23.7275 27.9299H22.533V29.5799H23.7275Z" fill="white"/>
<path d="M27.0598 34.4612V28.3596H28.1169L28.1684 29.2018C28.2887 28.9268 28.4721 28.7034 28.7184 28.5315C28.9705 28.3596 29.2656 28.2737 29.6036 28.2737C29.9531 28.2737 30.2653 28.3625 30.5403 28.5401C30.8153 28.7177 31.0301 28.9726 31.1848 29.3049C31.3452 29.6315 31.4255 30.0297 31.4255 30.4995C31.4255 30.9693 31.3452 31.3732 31.1848 31.7112C31.0244 32.0435 30.8038 32.2984 30.5231 32.476C30.2481 32.6536 29.933 32.7424 29.5778 32.7424C29.2627 32.7424 28.9906 32.668 28.7614 32.519C28.538 32.37 28.3632 32.1724 28.2372 31.926V34.4612H27.0598ZM29.2341 31.8401C29.5492 31.8401 29.7955 31.7284 29.9731 31.5049C30.1564 31.2758 30.2481 30.9435 30.2481 30.5081C30.2481 30.0726 30.1593 29.7432 29.9817 29.5198C29.8098 29.2906 29.5663 29.176 29.2512 29.176C28.9476 29.176 28.7012 29.2935 28.5122 29.5284C28.3288 29.7633 28.2372 30.0898 28.2372 30.5081C28.2372 30.9206 28.326 31.2471 28.5036 31.4877C28.6869 31.7226 28.9304 31.8401 29.2341 31.8401Z" fill="white"/>
<path d="M35.8963 16.6721C36.5322 16.6721 37.0335 16.8268 37.4002 17.1362C37.7726 17.4456 37.9588 17.8609 37.9588 18.3823C37.9588 18.8005 37.8528 19.1471 37.6408 19.4221C37.4346 19.6914 37.1424 19.8805 36.7643 19.9893L38.2939 22.344H36.9619L35.6299 20.1698H34.5643V22.344H33.3955V16.6721H35.8963ZM35.7588 19.2674C36.4176 19.2674 36.7471 18.9924 36.7471 18.4424C36.7471 17.8924 36.4176 17.6174 35.7588 17.6174H34.5643V19.2674H35.7588Z" fill="white"/>
<path d="M39.0911 24.1487V18.0471H40.1481L40.1997 18.8893C40.32 18.6143 40.5033 18.3909 40.7497 18.219C41.0018 18.0471 41.2968 17.9612 41.6348 17.9612C41.9843 17.9612 42.2966 18.05 42.5716 18.2276C42.8466 18.4052 43.0614 18.6601 43.2161 18.9924C43.3765 19.319 43.4567 19.7172 43.4567 20.187C43.4567 20.6568 43.3765 21.0607 43.2161 21.3987C43.0557 21.731 42.8351 21.9859 42.5544 22.1635C42.2794 22.3411 41.9643 22.4299 41.6091 22.4299C41.2939 22.4299 41.0218 22.3555 40.7926 22.2065C40.5692 22.0575 40.3945 21.8599 40.2684 21.6135V24.1487H39.0911ZM41.2653 21.5276C41.5804 21.5276 41.8268 21.4159 42.0044 21.1924C42.1877 20.9633 42.2794 20.631 42.2794 20.1956C42.2794 19.7601 42.1906 19.4307 42.013 19.2073C41.8411 18.9781 41.5976 18.8635 41.2825 18.8635C40.9788 18.8635 40.7325 18.981 40.5434 19.2159C40.3601 19.4508 40.2684 19.7773 40.2684 20.1956C40.2684 20.6081 40.3572 20.9346 40.5348 21.1752C40.7182 21.4101 40.9617 21.5276 41.2653 21.5276Z" fill="white"/>
<path fill-rule="evenodd" clip-rule="evenodd" d="M12.4752 33.0526L9.6748 37.4499L12.4752 41.7593L17.882 42.6979L25.2663 43.9794C26.0058 44.1486 27.3 44.2637 28.7633 43.826L42.1969 39.8077C44.5441 39.106 43.8564 35.7442 41.1936 36.4098L39.8137 36.7325L32.6301 38.4111C32.1724 38.5194 31.7485 38.542 31.3314 38.5239C30.7316 38.4968 30.1409 38.3908 29.469 38.3389L24.6732 37.5357C22.7567 37.0822 23.3046 34.7268 24.9573 34.8486H26.4838C29.8906 34.8486 29.8208 30.7242 26.8197 30.2324H24.8356C24.1253 30.2324 23.4827 30.2527 22.8311 30.3091C21.3971 30.4377 19.9226 30.7513 17.6115 31.4665L14.3489 32.4728L12.4752 33.0526Z" fill="url(#paint0_linear)"/>
<path fill-rule="evenodd" clip-rule="evenodd" d="M6.875 32.9579V41.9421V41.9465C6.87724 42.479 7.31239 42.9122 7.84452 42.9122H11.5039C12.0383 42.9122 12.4757 42.4745 12.4757 41.9421V41.7593V33.0526V32.9579C12.4757 32.4231 12.0383 31.9854 11.5039 31.9854H7.84452C7.31239 31.9854 6.87724 32.4209 6.875 32.9511V32.9579Z" fill="#6982FF"/>
</g>
<defs>
<linearGradient id="paint0_linear" x1="26.6508" y1="30.2324" x2="25.781" y2="48.1252" gradientUnits="userSpaceOnUse">
<stop stop-color="#5972F2"/>
<stop offset="1" stop-color="#3752D8"/>
</linearGradient>
<clipPath id="clip0">
<rect width="39.5312" height="39.5312" fill="white" transform="translate(6.875 6.87524)"/>
</clipPath>
</defs>
</svg>
