<svg width="55" height="55" viewBox="0 0 55 55" fill="none" xmlns="http://www.w3.org/2000/svg">
<g clip-path="url(#clip0)">
<ellipse cx="27.5001" cy="27.5002" rx="27.2501" ry="27.375" fill="#E6EAFF"/>
<path d="M14.8822 23.4456C16.6814 18.7369 21.224 15.3941 26.5446 15.3941C31.8463 15.3941 36.3758 18.7132 38.188 23.3955C38.2924 23.4158 41.1323 23.2165 43.6969 25.4698C42.1441 26.3079 42.7629 28.648 44.4876 28.648C44.7871 28.6221 45.2775 28.7475 45.8454 28.3914C46.1753 29.1362 46.4002 30.0957 46.5005 30.934C45.1261 30.934 14.1129 30.934 10.0447 30.934V28.9901C10.0447 26.1622 12.1618 23.8086 14.8822 23.4456Z" fill="url(#paint0_linear)"/>
<path d="M34.3535 23.8197H18.7399C18.1958 23.8197 17.8455 23.2301 18.1142 22.7548C19.7804 19.8081 22.9324 17.8202 26.5468 17.8202C30.155 17.8202 33.3025 19.8012 34.9708 22.7395C35.2442 23.221 34.9054 23.8197 34.3535 23.8197Z" fill="#FFB038"/>
<path d="M33.0264 22.7395C31.5096 20.0683 28.7705 18.1888 25.5741 17.869C25.8936 17.8371 26.2175 17.8202 26.5454 17.8202C30.1536 17.8202 33.301 19.8012 34.9694 22.7395C35.2427 23.2211 34.9039 23.8198 34.3521 23.8198H32.4091C32.961 23.8197 33.2998 23.221 33.0264 22.7395Z" fill="#FFB038"/>
<path d="M25.6347 26.8807H27.589C27.9155 26.8807 28.1802 26.6149 28.1802 26.2868C28.1802 25.9588 27.9155 25.693 27.589 25.693H25.6347C25.3082 25.693 25.0435 25.9588 25.0435 26.2868C25.0435 26.6149 25.3082 26.8807 25.6347 26.8807Z" fill="#FFB038"/>
<path d="M24.6011 18.0169V23.8197H18.7394C18.1954 23.8197 17.8451 23.2301 18.1138 22.7548C19.4728 20.3513 21.8204 18.5862 24.6011 18.0169Z" fill="#FFB038"/>
<path d="M44.4873 25.2299H44.9602C45.9091 25.2299 46.6812 26.0055 46.6812 26.9588C46.6812 27.9121 45.9092 28.6877 44.9602 28.6877H44.4873C43.5384 28.6877 42.7663 27.9122 42.7663 26.9588C42.7663 26.0055 43.5384 25.2299 44.4873 25.2299Z" fill="#FFB038"/>
<path d="M43.7898 25.3788C44.2657 25.1659 44.6236 25.2487 44.9602 25.2298C45.9091 25.2298 46.6812 26.0054 46.6812 26.9588C46.6812 27.912 45.9092 28.6876 44.9602 28.6876C44.621 28.6686 44.2683 28.7527 43.7898 28.5387C45.1522 27.9293 45.1521 25.9882 43.7898 25.3788Z" fill="#FFB038"/>
<path d="M10.3162 30.7755C11.9491 30.7755 44.8607 30.7755 46.3869 30.7755C47.2397 30.7755 47.9375 31.4765 47.9375 32.3332C47.9375 33.19 47.2397 33.891 46.3868 33.891C41.1025 33.891 13.2934 33.891 10.3161 33.891C9.46329 33.891 8.76546 33.1901 8.76546 32.3332C8.76554 31.4765 9.46329 30.7755 10.3162 30.7755Z" fill="url(#paint1_linear)"/>
<path d="M45.9723 32.3332C45.9723 31.4765 45.2746 30.7755 44.4217 30.7755H46.3868C47.2397 30.7755 47.9375 31.4765 47.9375 32.3332C47.9375 33.19 47.2397 33.891 46.3868 33.891H44.4217C45.2746 33.8909 45.9723 33.19 45.9723 32.3332Z" fill="#6982FF"/>
<path d="M17.7793 36.2519C15.6311 36.2519 13.8896 34.5025 13.8896 32.3445C13.8896 30.1864 15.6311 28.437 17.7793 28.437C19.9275 28.437 21.6689 30.1864 21.6689 32.3445C21.6689 34.5025 19.9275 36.2519 17.7793 36.2519Z" fill="#485760"/>
<path d="M17.7783 33.8415C16.9553 33.8415 16.2881 33.1713 16.2881 32.3445C16.2881 31.5177 16.9553 30.8474 17.7783 30.8474C18.6014 30.8474 19.2686 31.5177 19.2686 32.3445C19.2686 33.1713 18.6014 33.8415 17.7783 33.8415Z" fill="#FFB038"/>
<path d="M17.0333 31.0491C18.0164 30.477 19.2686 31.1851 19.2686 32.3442C19.2686 33.5037 18.016 34.2113 17.0333 33.6394C18.0251 33.0623 18.0271 31.6274 17.0333 31.0491Z" fill="#FFB038"/>
<path d="M37.9473 36.2519C35.7991 36.2519 34.0576 34.5025 34.0576 32.3445C34.0576 30.1864 35.7991 28.437 37.9473 28.437C40.0955 28.437 41.8369 30.1864 41.8369 32.3445C41.8369 34.5025 40.0955 36.2519 37.9473 36.2519Z" fill="#485760"/>
<path d="M37.9483 33.8415C37.1252 33.8415 36.458 33.1713 36.458 32.3445C36.458 31.5177 37.1252 30.8474 37.9483 30.8474C38.7713 30.8474 39.4385 31.5177 39.4385 32.3445C39.4385 33.1713 38.7713 33.8415 37.9483 33.8415Z" fill="#FFB038"/>
<path d="M37.2032 31.0491C38.1864 30.477 39.4385 31.1851 39.4385 32.3442C39.4385 33.5037 38.186 34.2113 37.2032 33.6394C38.1949 33.0623 38.197 31.6274 37.2032 31.0491Z" fill="#FFB038"/>
</g>
<defs>
<linearGradient id="paint0_linear" x1="28.2726" y1="15.3941" x2="28.2726" y2="30.934" gradientUnits="userSpaceOnUse">
<stop stop-color="#5C75F4"/>
<stop offset="1" stop-color="#3751D7"/>
</linearGradient>
<linearGradient id="paint1_linear" x1="28.3515" y1="30.0666" x2="28.3515" y2="34.3439" gradientUnits="userSpaceOnUse">
<stop stop-color="#5872F1"/>
<stop offset="1" stop-color="#3A54D9"/>
</linearGradient>
<clipPath id="clip0">
<rect width="55" height="55" fill="white" transform="translate(0 0.000152588)"/>
</clipPath>
</defs>
</svg>
