<svg width="55" height="55" viewBox="0 0 55 55" fill="none" xmlns="http://www.w3.org/2000/svg">
<circle cx="27.5" cy="27.5" r="27.5" fill="#E6EAFF"/>
<path d="M15.0015 15.9012C15.0015 11.5375 18.3299 8 22.4358 8H31.5671C35.673 8 39.0015 11.5375 39.0015 15.9012V40.0988C39.0015 44.4625 35.673 48 31.5671 48H22.4358C18.3299 48 15.0015 44.4625 15.0015 40.0988V15.9012Z" fill="url(#paint0_linear)"/>
<path d="M16.9995 16.0651C16.9995 12.7153 19.5132 9.99969 22.614 9.99969H31.385C34.4858 9.99969 36.9995 12.7152 36.9995 16.0651V35.9343C36.9995 39.2841 34.4858 41.9997 31.385 41.9997H22.614C19.5132 41.9997 16.9995 39.2841 16.9995 35.9343V16.0651Z" fill="url(#paint1_linear)"/>
<path d="M29.0024 44.9998C29.0024 46.1043 28.107 46.9998 27.0024 46.9998C25.8979 46.9998 25.0024 46.1043 25.0024 44.9998C25.0024 43.8952 25.8979 42.9998 27.0024 42.9998C28.107 42.9998 29.0024 43.8952 29.0024 44.9998Z" fill="white"/>
<circle cx="37.6548" cy="27.5649" r="9" fill="#FFB038"/>
<path fill-rule="evenodd" clip-rule="evenodd" d="M41.5918 24H33.5918C33.0418 24 32.5918 24.45 32.5918 25V31C32.5918 31.55 33.0418 32 33.5918 32H41.5918C42.1418 32 42.5918 31.55 42.5918 31V25C42.5918 24.45 42.1418 24 41.5918 24ZM41.5918 31H33.5918V28H41.5918V31ZM41.5918 26H33.5918V25H41.5918V26Z" fill="white"/>
<defs>
<linearGradient id="paint0_linear" x1="27.0015" y1="8" x2="27.0015" y2="48" gradientUnits="userSpaceOnUse">
<stop stop-color="#6982FF"/>
<stop offset="1" stop-color="#6982FF"/>
</linearGradient>
<linearGradient id="paint1_linear" x1="27.0805" y1="5.62459" x2="26.986" y2="41.9997" gradientUnits="userSpaceOnUse">
<stop stop-color="#6982FF"/>
<stop offset="1" stop-color="#2C47CF"/>
</linearGradient>
</defs>
</svg>
