<svg width="200" height="200" viewBox="0 0 200 200" fill="none" xmlns="http://www.w3.org/2000/svg">
<path d="M162.761 40.7941H151.689C146.957 40.7941 145.772 37.2328 143.561 32.809C138.28 22.248 127.669 15.6898 115.866 15.6898H84.1344C72.3309 15.6898 61.7195 22.248 56.4395 32.809C54.2281 37.2328 53.0434 40.7941 48.3105 40.7941H37.2395C16.6414 40.7941 0 57.466 0 78.034V147.07C0 167.671 16.6746 184.31 37.2395 184.31H162.761C183.325 184.31 200 167.671 200 147.07V78.034C200 57.466 183.359 40.7941 162.761 40.7941ZM56.0676 127.825C54.568 127.825 53.0684 127.253 51.9246 126.109L39.3727 113.557C37.0844 111.269 37.0844 107.559 39.3727 105.271C41.6605 102.982 45.3707 102.982 47.659 105.271L50.2355 107.847C51.0664 81.114 73.0691 59.6222 100 59.6222C113.29 59.6222 125.792 64.8027 135.203 74.2097C137.491 76.4976 137.492 80.2074 135.204 82.4961C132.916 84.7844 129.206 84.7855 126.918 82.4976C119.72 75.3031 110.161 71.3406 100 71.3406C79.5531 71.3406 62.8219 87.543 61.9645 107.783L64.477 105.271C66.7648 102.982 70.475 102.982 72.7633 105.271C75.0516 107.559 75.0516 111.269 72.7633 113.557L60.2109 126.109C59.0668 127.254 57.5672 127.825 56.0676 127.825ZM160.628 113.557C158.34 115.846 154.63 115.846 152.341 113.557L149.765 110.981C148.934 137.714 126.931 159.206 100 159.206C86.7102 159.206 74.2082 154.025 64.7973 144.618C62.5086 142.33 62.5078 138.621 64.7957 136.332C67.0836 134.044 70.7937 134.043 73.082 136.33C80.2797 143.525 89.8391 147.487 100 147.487C120.447 147.487 137.178 131.285 138.036 111.045L135.523 113.557C133.235 115.846 129.525 115.846 127.237 113.557C124.948 111.269 124.948 107.559 127.237 105.271L139.789 92.7191C140.933 91.575 142.432 91.0027 143.932 91.0027C145.431 91.0027 146.931 91.5746 148.075 92.7191L160.627 105.271C162.916 107.559 162.916 111.269 160.628 113.557Z" fill="#DEDEDE"/>
</svg>
