<svg width="55" height="55" viewBox="0 0 55 55" fill="none" xmlns="http://www.w3.org/2000/svg">
<circle cx="27.5" cy="27.5002" r="27.5" fill="#E6EAFF"/>
<path d="M40.9331 23.2294C38.4684 17.9143 33.7968 14.562 33.5991 14.4219L32.1794 13.4156C32.2291 15.3462 31.5595 16.6938 31.1251 17.4721C28.6348 15.228 26.8796 12.6266 26.559 10.3176L26.3197 8.59399L24.8999 9.60023C24.6536 9.77487 18.8314 13.9527 15.7597 20.5769C14.7244 22.8096 14.0582 25.3003 13.8331 27.7798C13.5933 30.4207 13.875 32.9219 14.6479 35.013C15.6691 37.776 17.6323 40.2644 20.1756 42.0198C22.6685 43.7403 25.6023 44.6878 28.4362 44.6878C34.6622 44.6878 40.1828 40.5988 41.8597 34.7503C42.9306 31.097 42.5842 26.7902 40.9331 23.2294ZM28.1096 41.6796C23.4126 41.6796 19.5912 37.8582 19.5912 33.1612C19.5912 26.3209 28.1096 20.0681 28.1096 20.0681C28.1096 20.0681 36.628 26.3209 36.628 33.1612C36.628 37.8582 32.8066 41.6796 28.1096 41.6796Z" fill="#3853D9"/>
<path d="M34.513 33.1612C34.513 28.4361 29.8278 24.1377 28.1098 22.7206C26.3924 24.137 21.7065 28.4358 21.7065 33.1612C21.7065 34.674 22.2343 36.0657 23.1148 37.1627C23.0982 36.9971 23.0896 36.8292 23.0896 36.6593C23.0896 32.7761 28.1098 29.0927 28.1098 29.0927C28.1098 29.0927 33.1301 32.7761 33.1301 36.6593C33.1301 36.8292 33.1214 36.9971 33.1049 37.1627C33.9853 36.0658 34.513 34.674 34.513 33.1612Z" fill="#FFB038"/>
<path d="M31.0149 36.6593C31.0149 35.248 30.0934 33.8818 29.3204 32.9842C28.8874 32.4813 28.4491 32.0635 28.1097 31.7645C27.7705 32.0634 27.3321 32.4812 26.899 32.9842C26.126 33.8818 25.2046 35.2481 25.2046 36.6593C25.2046 38.2612 26.5078 39.5644 28.1097 39.5644C29.7117 39.5644 31.0149 38.2612 31.0149 36.6593Z" fill="#FF9F1E"/>
</svg>
