<svg width="21" height="22" viewBox="0 0 21 22" fill="none" xmlns="http://www.w3.org/2000/svg">
<path d="M18.5806 9.15527e-05H15.4839V1.9999C15.4839 3.0997 14.5542 3.99999 13.4192 3.99999H7.2257C6.09072 3.99999 5.16108 3.0997 5.16108 1.9999V9.15527e-05H2.06431C0.929334 9.15527e-05 0 0.900384 0 1.9999V19.9999C0 21.0997 0.929334 22 2.06431 22H18.5806C19.7156 22 20.6449 21.0997 20.6449 19.9999V1.9999C20.6449 0.900384 19.7156 9.15527e-05 18.5806 9.15527e-05ZM4.12893 7.99989H10.3225V9.99999H4.12893V7.99989ZM14.4514 18.0001H4.12893V16H14.4514V18.0001ZM16.516 13.9999H4.12893V12.0001H16.516V13.9999V13.9999Z" fill="#4F6CFF"/>
</svg>
