<svg width="23" height="26" viewBox="0 0 23 26" fill="none" xmlns="http://www.w3.org/2000/svg">
<path d="M21.7375 8.00333L12.8886 0.519135C12.0879 -0.173045 10.9502 -0.173045 10.1496 0.519135L1.30062 8.00333C0.794966 8.43594 0.5 9.0416 0.5 9.73378V23.7937C0.5 25.005 1.46917 26 2.64904 26H20.347C21.5268 26 22.496 25.005 22.496 23.7937V9.69052C22.5382 9.0416 22.2432 8.39268 21.7375 8.00333ZM18.7457 21.7171C18.7457 22.2363 18.3244 22.6689 17.8187 22.6689H5.26159C4.75593 22.6689 4.33455 22.2363 4.33455 21.7171V20.8519C4.33455 20.3328 4.75593 19.9002 5.26159 19.9002H17.8187C18.3244 19.9002 18.7457 20.3328 18.7457 20.8519V21.7171Z" fill="#4F6CFF"/>
</svg>
