<svg width="22" height="26" viewBox="0 0 22 26" fill="none" xmlns="http://www.w3.org/2000/svg">
<path d="M21.2375 8.00333L12.3886 0.519135C11.5879 -0.173045 10.4502 -0.173045 9.64959 0.519135L0.800621 8.00333C0.294966 8.43594 0 9.0416 0 9.73378V23.7937C0 25.005 0.969173 26 2.14904 26H19.847C21.0268 26 21.996 25.005 21.996 23.7937V9.69052C22.0382 9.0416 21.7432 8.39268 21.2375 8.00333ZM18.2457 21.7171C18.2457 22.2363 17.8244 22.6689 17.3187 22.6689H4.76159C4.25593 22.6689 3.83455 22.2363 3.83455 21.7171V20.8519C3.83455 20.3328 4.25593 19.9002 4.76159 19.9002H17.3187C17.8244 19.9002 18.2457 20.3328 18.2457 20.8519V21.7171Z" fill="#C2C2C2"/>
</svg>
