<svg width="55" height="55" viewBox="0 0 55 55" fill="none" xmlns="http://www.w3.org/2000/svg">
<circle cx="27.5" cy="27.5" r="27.5" fill="#E6EAFF"/>
<path d="M14.9995 15.9012C14.9995 11.5375 18.328 8 22.4339 8H31.5652C35.671 8 38.9995 11.5375 38.9995 15.9012V40.0988C38.9995 44.4625 35.671 48 31.5652 48H22.4338C18.328 48 14.9995 44.4625 14.9995 40.0988V15.9012Z" fill="url(#paint0_linear)"/>
<path d="M16.9995 16.0654C16.9995 12.7156 19.5132 10 22.614 10H31.385C34.4858 10 36.9995 12.7156 36.9995 16.0654V35.9346C36.9995 39.2844 34.4858 42 31.385 42H22.614C19.5132 42 16.9995 39.2844 16.9995 35.9346V16.0654Z" fill="url(#paint1_linear)"/>
<path d="M29 45C29 46.1046 28.1046 47 27 47C25.8954 47 25 46.1046 25 45C25 43.8954 25.8954 43 27 43C28.1046 43 29 43.8954 29 45Z" fill="white"/>
<circle cx="37.6523" cy="27.5652" r="9" fill="#FFB038"/>
<path fill-rule="evenodd" clip-rule="evenodd" d="M37.5005 23.5V22L35.2505 24L37.5005 26V24.5C39.3567 24.5 40.8755 25.85 40.8755 27.5C40.8755 28 40.7067 28.5 40.4817 28.9L41.3255 29.65C41.7192 29 42.0005 28.3 42.0005 27.5C42.0005 25.3 39.9755 23.5 37.5005 23.5ZM37.5005 30.5C35.6442 30.5 34.1255 29.15 34.1255 27.5C34.1255 27 34.2942 26.5 34.5192 26.1L33.6755 25.35C33.2817 26 33.0005 26.7 33.0005 27.5C33.0005 29.7 35.0255 31.5 37.5005 31.5V33L39.7505 31L37.5005 29V30.5Z" fill="white"/>
<defs>
<linearGradient id="paint0_linear" x1="26.9995" y1="8" x2="26.9995" y2="48" gradientUnits="userSpaceOnUse">
<stop stop-color="#6982FF"/>
<stop offset="1" stop-color="#6982FF"/>
</linearGradient>
<linearGradient id="paint1_linear" x1="27.0805" y1="5.6249" x2="26.986" y2="42" gradientUnits="userSpaceOnUse">
<stop stop-color="#6982FF"/>
<stop offset="1" stop-color="#2C47CF"/>
</linearGradient>
</defs>
</svg>
