<svg width="36" height="36" viewBox="0 0 36 36" fill="none" xmlns="http://www.w3.org/2000/svg">
<path d="M0 18C0 8.05887 8.05887 0 18 0C27.9411 0 36 8.05887 36 18C36 27.9411 27.9411 36 18 36C8.05887 36 0 27.9411 0 18Z" fill="#3650D2"/>
<path d="M18.9251 28.1863L20.6276 13.0648L22.918 14.3851C23.6156 14.7858 24.3457 13.9207 23.8216 13.3169L18.5438 7.24584C18.2582 6.91805 17.743 6.91805 17.4579 7.24584L12.1796 13.3169C11.6527 13.9207 12.3856 14.7853 13.0804 14.3851L15.3736 13.0675L17.0742 28.1863C17.1933 29.271 18.8061 29.2715 18.9251 28.1863Z" fill="white"/>
</svg>
