<svg width="17" height="13" viewBox="0 0 17 13" fill="none" xmlns="http://www.w3.org/2000/svg">
<path d="M8.20188 11.9492C8.23533 11.9194 8.26657 11.8876 8.29538 11.854C8.60096 11.4453 8.53427 10.8987 8.13733 10.5588L5.1289 7.85115C4.96897 7.70757 4.7851 7.58719 4.58389 7.49435L4.25144 7.33795L14.9608 7.33795C15.5092 7.35863 15.9946 7.02234 16.1108 6.54128C16.2071 6.00839 15.8036 5.50631 15.2093 5.4199C15.147 5.41082 15.0839 5.40664 15.0208 5.40737L4.27324 5.40737L4.50759 5.30962C4.73666 5.21239 4.94506 5.08006 5.12345 4.91862L8.13733 2.21091C8.53427 1.87111 8.60096 1.32446 8.29538 0.915713C7.93973 0.48014 7.25769 0.385566 6.77196 0.704509C6.73271 0.730291 6.69542 0.758395 6.66037 0.788636L1.2103 5.67619C0.784377 6.05772 0.784002 6.67664 1.20945 7.0586C1.20972 7.05884 1.21003 7.05912 1.2103 7.05936L6.66036 11.9469C7.08533 12.3293 7.77548 12.3303 8.20188 11.9492Z" fill="#828282"/>
</svg>
