<svg width="20" height="20" viewBox="0 0 20 20" fill="none" xmlns="http://www.w3.org/2000/svg">
<path d="M17.8193 0H15.9502V2C15.9502 2.4 15.6386 2.66667 15.3271 2.66667C15.0156 2.66667 14.7041 2.4 14.7041 2V0H4.7352V2C4.7352 2.4 4.42368 2.66667 4.11215 2.66667C3.80062 2.66667 3.4891 2.4 3.4891 2V0H1.61994C0.685358 0 0 0.866667 0 2V4.4H19.9377V2C19.9377 0.866667 18.8162 0 17.8193 0ZM0 5.8V18C0 19.2 0.685358 20 1.68224 20H17.8816C18.8785 20 20 19.1333 20 18V5.8H0ZM5.54517 17H4.04984C3.80062 17 3.5514 16.8 3.5514 16.4667V14.8C3.5514 14.5333 3.73832 14.2667 4.04984 14.2667H5.60748C5.8567 14.2667 6.10592 14.4667 6.10592 14.8V16.4667C6.04361 16.8 5.8567 17 5.54517 17ZM5.54517 11H4.04984C3.80062 11 3.5514 10.8 3.5514 10.4667V8.8C3.5514 8.53333 3.73832 8.26667 4.04984 8.26667H5.60748C5.8567 8.26667 6.10592 8.46667 6.10592 8.8V10.4667C6.04361 10.8 5.8567 11 5.54517 11ZM10.5296 17H8.97196C8.72274 17 8.47352 16.8 8.47352 16.4667V14.8C8.47352 14.5333 8.66044 14.2667 8.97196 14.2667H10.5296C10.7788 14.2667 11.028 14.4667 11.028 14.8V16.4667C11.028 16.8 10.8411 17 10.5296 17ZM10.5296 11H8.97196C8.72274 11 8.47352 10.8 8.47352 10.4667V8.8C8.47352 8.53333 8.66044 8.26667 8.97196 8.26667H10.5296C10.7788 8.26667 11.028 8.46667 11.028 8.8V10.4667C11.028 10.8 10.8411 11 10.5296 11ZM15.514 17H13.9564C13.7072 17 13.4579 16.8 13.4579 16.4667V14.8C13.4579 14.5333 13.6449 14.2667 13.9564 14.2667H15.514C15.7632 14.2667 16.0125 14.4667 16.0125 14.8V16.4667C16.0125 16.8 15.8255 17 15.514 17ZM15.514 11H13.9564C13.7072 11 13.4579 10.8 13.4579 10.4667V8.8C13.4579 8.53333 13.6449 8.26667 13.9564 8.26667H15.514C15.7632 8.26667 16.0125 8.46667 16.0125 8.8V10.4667C16.0125 10.8 15.8255 11 15.514 11Z" fill="#6982FF"/>
</svg>
