<svg width="40" height="40" viewBox="0 0 40 40" fill="none" xmlns="http://www.w3.org/2000/svg">
<path d="M40 20C40 31.0457 31.0457 40 20 40C8.9543 40 0 31.0457 0 20C0 8.9543 8.9543 0 20 0C31.0457 0 40 8.9543 40 20Z" fill="#4D4545"/>
<path d="M27.7496 17.7988C27.5555 17.4353 27.2626 17.1311 26.9033 16.9196C26.5439 16.7081 26.1319 16.5975 25.7125 16.5998H22.7573L24.0496 12.901C24.1654 12.5737 24.1986 12.2238 24.1463 11.8813C24.0941 11.5387 23.958 11.2136 23.7496 10.9335C23.536 10.6444 23.2553 10.409 22.9304 10.2467C22.6056 10.0844 22.246 9.99984 21.8812 10H17.4859C16.9905 9.99998 16.5083 10.1565 16.1113 10.4464C15.7143 10.7362 15.4238 11.1437 15.283 11.6082L13.0906 19.657C12.9926 19.9811 12.9738 20.3232 13.0358 20.6556C13.0978 20.9881 13.2389 21.3016 13.4477 21.571C13.6613 21.8509 13.9392 22.0779 14.2591 22.2334C14.579 22.3889 14.9318 22.4687 15.289 22.4664H18.2502V31.2661C18.2501 31.4235 18.3017 31.5766 18.3975 31.7031C18.4933 31.8295 18.6281 31.9225 18.782 31.9683C18.9359 32.014 19.1009 32.0102 19.2524 31.9573C19.4039 31.9045 19.5341 31.8053 19.6236 31.6746L27.5959 20.0464C27.8298 19.7216 27.9679 19.3401 27.9951 18.9437C28.0222 18.5473 27.9373 18.1512 27.7496 17.7988Z" fill="white"/>
</svg>
