<svg width="40" height="40" viewBox="0 0 40 40" fill="none" xmlns="http://www.w3.org/2000/svg">
<path d="M40 20C40 31.0457 31.0457 40 20 40C8.9543 40 0 31.0457 0 20C0 8.9543 8.9543 0 20 0C31.0457 0 40 8.9543 40 20Z" fill="#4D4545"/>
<path d="M18.2502 22.9664V31.2661L13.0906 19.657C12.9926 19.9811 12.9738 20.3232 13.0358 20.6556C13.0978 20.9881 13.2389 21.3016 13.4477 21.571C13.6613 21.8509 13.9392 22.0779 14.2591 22.2334C14.579 22.3889 14.9318 22.4687 15.289 22.4664H17.7502H18.2502V22.9664ZM15.7635 11.7468C15.873 11.3903 16.0974 11.0755 16.4061 10.8502C16.7168 10.6234 17.0955 10.5 17.4859 10.5H17.4859L21.8812 10.5L21.8814 10.5C22.169 10.4999 22.4519 10.5665 22.707 10.694C22.962 10.8214 23.1812 11.0056 23.3474 11.2306L23.3485 11.232C23.5084 11.4469 23.6122 11.6956 23.652 11.9567C23.6919 12.2177 23.6666 12.4844 23.5782 12.7343L23.5776 12.7361L22.2853 16.4349L22.053 17.0998H22.7573L25.7125 17.0998L25.7153 17.0998C26.0452 17.098 26.3685 17.185 26.6497 17.3505C26.9307 17.5159 27.1581 17.7528 27.3084 18.0341C27.4522 18.3043 27.5169 18.607 27.4962 18.9096C27.4755 19.2122 27.3701 19.5044 27.1901 19.7542L27.19 19.7541L27.1835 19.7637L19.2112 31.3919L19.211 31.3921C19.1826 31.4336 19.1399 31.467 19.0877 31.4852C19.0353 31.5035 18.9779 31.5049 18.9245 31.489C18.8713 31.4732 18.8267 31.4416 18.7961 31.4012L18.3975 31.7031L18.7961 31.4012C18.7656 31.361 18.7502 31.3138 18.7502 31.2665V31.2661V22.4664V21.9664H18.2502L15.289 21.9664L15.2857 21.9664C15.005 21.9682 14.7282 21.9055 14.4778 21.7837C14.2274 21.662 14.0109 21.4849 13.8452 21.2677L13.8452 21.2677L13.8428 21.2647C13.6824 21.0577 13.5746 20.8176 13.5273 20.5639C13.48 20.3103 13.4943 20.0494 13.5692 19.8019L13.5694 19.8019L13.5731 19.7884L15.7635 11.7468Z" stroke="white"/>
</svg>
