<svg width="40" height="40" viewBox="0 0 40 40" fill="none" xmlns="http://www.w3.org/2000/svg">
<path d="M40 20C40 31.0457 31.0457 40 20 40C8.9543 40 0 31.0457 0 20C0 8.9543 8.9543 0 20 0C31.0457 0 40 8.9543 40 20Z" fill="#4D4545"/>
<path d="M28.4211 11H12.2105C11.6245 11.0007 11.0626 11.2379 10.6482 11.6597C10.2337 12.0815 10.0006 12.6535 10 13.25V26.75C10.0006 27.3465 10.2337 27.9185 10.6482 28.3403C11.0626 28.7621 11.6245 28.9993 12.2105 29H28.4211C29.0071 28.9993 29.569 28.7621 29.9834 28.3403C30.3978 27.9185 30.6309 27.3465 30.6316 26.75V13.25C30.6309 12.6535 30.3978 12.0815 29.9834 11.6597C29.569 11.2379 29.0071 11.0007 28.4211 11ZM12.2105 27.5C12.0507 27.4985 11.8959 27.4436 11.7698 27.3436C11.6437 27.2437 11.5534 27.1043 11.5129 26.947L14.7276 22.5836C14.7912 22.4981 14.8721 22.4273 14.9648 22.3762C15.0575 22.325 15.1598 22.2946 15.265 22.287C15.3701 22.2794 15.4757 22.2947 15.5745 22.332C15.6734 22.3692 15.7633 22.4276 15.8382 22.503L18.2419 24.95L16.2736 27.5H12.2105ZM29.1579 26.75C29.1577 26.9489 29.08 27.1395 28.9419 27.2801C28.8037 27.4207 28.6164 27.4998 28.4211 27.5H18.1477L24.29 19.5425C24.3549 19.4599 24.4361 19.3921 24.5283 19.3434C24.6206 19.2948 24.7218 19.2664 24.8256 19.2601C24.9293 19.2538 25.0331 19.2698 25.1304 19.307C25.2277 19.3441 25.3162 19.4017 25.3902 19.4759L29.1579 23.3106V26.75ZM29.1579 21.1896L26.4322 18.4154C26.2103 18.1924 25.9447 18.0194 25.6528 17.9076C25.3609 17.7959 25.0492 17.7479 24.7379 17.7669C24.4266 17.7858 24.1227 17.8712 23.8459 18.0175C23.5691 18.1638 23.3257 18.3678 23.1315 18.6161L19.1589 23.7621L16.88 21.4425C16.6506 21.2129 16.3751 21.0366 16.0724 20.9258C15.7696 20.815 15.4469 20.7722 15.1264 20.8005C14.8059 20.8288 14.4952 20.9274 14.2157 21.0896C13.9362 21.2518 13.6945 21.4737 13.5074 21.74L11.4737 24.5V13.25C11.4739 13.0512 11.5517 12.8606 11.6898 12.72C11.8279 12.5794 12.0152 12.5003 12.2105 12.5H28.4211C28.6164 12.5002 28.8037 12.5793 28.9419 12.7199C29.08 12.8605 29.1577 13.0511 29.1579 13.25V21.1896Z" fill="white"/>
<path d="M17.3707 14C16.9335 14 16.5061 14.132 16.1426 14.3792C15.7791 14.6264 15.4957 14.9778 15.3284 15.389C15.1611 15.8001 15.1173 16.2525 15.2026 16.689C15.2879 17.1254 15.4985 17.5263 15.8076 17.841C16.1168 18.1557 16.5106 18.3699 16.9394 18.4568C17.3682 18.5436 17.8127 18.499 18.2166 18.3287C18.6205 18.1584 18.9658 17.87 19.2087 17.5C19.4516 17.13 19.5812 16.695 19.5812 16.25C19.5806 15.6535 19.3475 15.0815 18.933 14.6597C18.5186 14.2379 17.9568 14.0007 17.3707 14ZM17.3707 17C17.2249 17 17.0825 16.956 16.9613 16.8736C16.8401 16.7912 16.7457 16.6741 16.6899 16.537C16.6342 16.4 16.6196 16.2492 16.648 16.1037C16.6764 15.9582 16.7466 15.8246 16.8497 15.7197C16.9527 15.6148 17.084 15.5433 17.2269 15.5144C17.3699 15.4855 17.518 15.5003 17.6527 15.5571C17.7873 15.6139 17.9024 15.71 17.9833 15.8333C18.0643 15.9567 18.1075 16.1017 18.1075 16.25C18.1073 16.4488 18.0296 16.6394 17.8914 16.78C17.7533 16.9206 17.566 16.9997 17.3707 17Z" fill="white"/>
</svg>
