<svg width="40" height="40" viewBox="0 0 40 40" fill="none" xmlns="http://www.w3.org/2000/svg">
<path d="M0 20C0 31.0457 8.9543 40 20 40C31.0457 40 40 31.0457 40 20C40 8.9543 31.0457 0 20 0C8.9543 0 0 8.9543 0 20Z" fill="#D1D1D1"/>
<g clip-path="url(#clip0)">
<path d="M30.3125 22.75C29.933 22.75 29.625 22.442 29.625 22.0625C29.625 19.4087 27.4663 17.25 24.8125 17.25H18.1667V20.2292C18.1667 20.8342 17.4388 21.1403 17.0043 20.726L11.9627 15.9135C11.827 15.7842 11.75 15.6046 11.75 15.4167C11.75 15.2287 11.827 15.0491 11.9627 14.9198L17.0043 10.1073C17.4407 9.69115 18.1667 10.001 18.1667 10.6042V13.5833H23.8958C27.8127 13.5833 31 16.7706 31 20.6875V22.0625C31 22.442 30.692 22.75 30.3125 22.75Z" fill="white"/>
<path d="M21.8333 29.3958V26.4167H16.1042C12.1873 26.4167 9 23.2294 9 19.3125V17.9375C9 17.558 9.308 17.25 9.6875 17.25C10.067 17.25 10.375 17.558 10.375 17.9375C10.375 20.5912 12.5338 22.75 15.1875 22.75H21.8333V19.7708C21.8333 19.1686 22.5584 18.856 22.9957 19.274L28.0373 24.0865C28.173 24.2158 28.25 24.3954 28.25 24.5833C28.25 24.7713 28.173 24.9509 28.0373 25.0802L22.9957 29.8927C22.5584 30.3088 21.8333 29.999 21.8333 29.3958Z" fill="white"/>
</g>
<defs>
<clipPath id="clip0">
<rect width="22" height="22" fill="white" transform="translate(9 9)"/>
</clipPath>
</defs>
</svg>
