<svg width="40" height="40" viewBox="0 0 40 40" fill="none" xmlns="http://www.w3.org/2000/svg">
<path d="M0 20C0 31.0457 8.9543 40 20 40C31.0457 40 40 31.0457 40 20C40 8.9543 31.0457 0 20 0C8.9543 0 0 8.9543 0 20Z" fill="#D1D1D1"/>
<g clip-path="url(#clip0)">
<path d="M29.9908 28.9953H9.99981C9.44748 28.9953 9 29.4428 9 29.9955C9 30.5474 9.44748 30.9949 9.99981 30.9949H29.9904C30.5427 30.9949 30.9902 30.5474 30.9902 29.9955C30.9897 29.4428 30.5422 28.9953 29.9908 28.9953Z" fill="white"/>
<path d="M11.2498 26.396C10.6975 26.396 10.25 26.8435 10.25 27.3958C10.25 27.9482 10.6975 28.3961 11.2498 28.3961H28.7418C29.2941 28.3961 29.7416 27.9482 29.7416 27.3958C29.7416 26.8435 29.2941 26.396 28.7418 26.396H28.4923V17.3996H28.7418C29.0184 17.3996 29.2412 17.1759 29.2412 16.9002C29.2412 16.6245 29.0175 16.4008 28.7418 16.4008H11.2498C10.9736 16.4008 10.7504 16.6245 10.7504 16.9002C10.7504 17.1759 10.9741 17.3996 11.2498 17.3996H11.4998V26.3956H11.2498V26.396ZM26.4927 17.3996V26.3956H23.4942V17.3996H26.4927ZM21.4946 17.3996V26.3956H18.4961V17.3996H21.4946ZM13.4984 17.3996H16.4969V26.3956H13.4984V17.3996Z" fill="white"/>
<path d="M9.99983 15.5013H29.9904C29.9937 15.5013 29.9974 15.5013 30.0002 15.5013C30.553 15.5013 31 15.0538 31 14.5015C31 14.0625 30.7173 13.6903 30.3246 13.5555L20.4061 9.09243C20.1454 8.97541 19.8472 8.97541 19.586 9.09243L9.58979 13.5902C9.15963 13.784 8.92325 14.2511 9.02249 14.7117C9.12125 15.1723 9.52848 15.5013 9.99983 15.5013Z" fill="white"/>
</g>
<defs>
<clipPath id="clip0">
<rect width="22" height="22" fill="white" transform="translate(9 9)"/>
</clipPath>
</defs>
</svg>
