<svg width="32" height="32" viewBox="0 0 32 32" fill="none" xmlns="http://www.w3.org/2000/svg">
<path d="M32 16C32 24.8366 24.8366 32 16 32C7.16344 32 0 24.8366 0 16C0 7.16344 7.16344 0 16 0C24.8366 0 32 7.16344 32 16Z" fill="#6982FF"/>
<path fill-rule="evenodd" clip-rule="evenodd" d="M12.8023 23.7072C12.3494 23.2947 12.3266 22.6037 12.7514 22.164L18.6912 16.0159L12.783 9.83749C12.3604 9.39559 12.3867 8.70478 12.8418 8.29453C13.2968 7.88427 14.0083 7.90993 14.4308 8.35184L21.0532 15.277C21.4553 15.6975 21.4536 16.3484 21.0494 16.7669L14.3917 23.6581C13.9668 24.0978 13.2553 24.1198 12.8023 23.7072Z" fill="white"/>
</svg>
