<svg width="32" height="32" viewBox="0 0 32 32" fill="none" xmlns="http://www.w3.org/2000/svg">
<path d="M0 16C0 24.8366 7.16344 32 16 32C24.8366 32 32 24.8366 32 16C32 7.16344 24.8366 0 16 0C7.16344 0 0 7.16344 0 16Z" fill="#6982FF"/>
<path fill-rule="evenodd" clip-rule="evenodd" d="M19.1977 23.7072C19.6506 23.2947 19.6734 22.6037 19.2486 22.164L13.3088 16.0159L19.217 9.83749C19.6396 9.39559 19.6133 8.70478 19.1582 8.29453C18.7032 7.88427 17.9917 7.90993 17.5692 8.35184L10.9468 15.277C10.5447 15.6975 10.5464 16.3484 10.9506 16.7669L17.6083 23.6581C18.0332 24.0978 18.7447 24.1198 19.1977 23.7072Z" fill="white"/>
</svg>
