<svg width="25" height="25" viewBox="0 0 25 25" fill="none" xmlns="http://www.w3.org/2000/svg">
<path d="M12.2531 0H12.2469C5.49259 0 0 5.49412 0 12.25C0 14.9297 0.863625 17.4134 2.33209 19.43L0.805438 23.9809L5.51403 22.4757C7.45106 23.7589 9.76172 24.5 12.2531 24.5C19.0074 24.5 24.5 19.0043 24.5 12.25C24.5 5.49566 19.0074 0 12.2531 0ZM19.381 17.2985C19.0855 18.1331 17.9126 18.8252 16.977 19.0273C16.3369 19.1636 15.5008 19.2723 12.6864 18.1055C9.08644 16.6141 6.76813 12.9559 6.58744 12.7186C6.41441 12.4812 5.13275 10.7815 5.13275 9.02366C5.13275 7.26578 6.02547 6.40981 6.38531 6.04231C6.68084 5.74066 7.16931 5.60284 7.63788 5.60284C7.78947 5.60284 7.92575 5.6105 8.04825 5.61662C8.40809 5.63194 8.58878 5.65338 8.82613 6.22147C9.12166 6.9335 9.84134 8.69137 9.92709 8.87206C10.0144 9.05275 10.1017 9.29775 9.97916 9.53509C9.86431 9.78009 9.76325 9.88881 9.58256 10.0971C9.40187 10.3053 9.23037 10.4646 9.04969 10.6881C8.88431 10.8826 8.6975 11.0908 8.90575 11.4507C9.114 11.8029 9.83369 12.9773 10.8933 13.9206C12.2607 15.1379 13.3693 15.5269 13.7659 15.6923C14.0615 15.8148 14.4137 15.7857 14.6296 15.556C14.9037 15.2604 15.2421 14.7704 15.5866 14.2881C15.8316 13.942 16.1409 13.8992 16.4655 14.0217C16.7963 14.1365 18.5465 15.0017 18.9063 15.1808C19.2662 15.3615 19.5035 15.4473 19.5908 15.5988C19.6766 15.7504 19.6766 16.4625 19.381 17.2985Z" fill="#4F6CFF"/>
</svg>
