<svg width="20" height="20" viewBox="0 0 20 20" fill="none" xmlns="http://www.w3.org/2000/svg">
<path d="M3.35408 13.2874V5.01004H2.08881C1.15354 5.01004 0.400391 5.77657 0.400391 6.71306V17.9041C0.400391 18.8418 1.15354 19.6 2.08881 19.6H13.2557C14.1906 19.6 14.9583 18.8418 14.9583 17.9041V16.6817H6.74095C4.88377 16.6821 3.35408 15.149 3.35408 13.2874Z" fill="#4F4F4F"/>
<path d="M17.9087 0.399994H6.74142C5.80656 0.399994 5.04297 1.15898 5.04297 2.0959V13.2873C5.04297 14.2255 5.80698 14.99 6.74142 14.99H17.9087C18.8432 14.99 19.6009 14.2255 19.6009 13.2873V2.09632C19.6009 1.15857 18.8432 0.399994 17.9087 0.399994ZM17.679 12.3475C17.5858 12.52 17.4066 12.6221 17.2111 12.6221H7.64244C7.4741 12.6221 7.31578 12.5468 7.21553 12.412C7.11527 12.2763 7.08478 12.1039 7.13324 11.9418L8.5021 7.40423C8.59233 7.10574 8.8438 6.88512 9.15124 6.83446C9.45868 6.78422 9.76779 6.914 9.94825 7.16812L11.8622 9.86289C12.12 10.2258 12.6191 10.3159 12.9855 10.0655L14.7478 8.86611C14.9291 8.74261 15.1518 8.69782 15.3661 8.74094C15.5812 8.78364 15.7696 8.91174 15.8895 9.09594L17.656 11.8054C17.7629 11.9699 17.7717 12.1759 17.679 12.3475Z" fill="#4F4F4F"/>
</svg>
