<svg width="20" height="16" viewBox="0 0 20 16" fill="none" xmlns="http://www.w3.org/2000/svg">
<path d="M17.6087 2.78261H15.5217L14.3696 1.04348C13.9348 0.391304 13.1739 0 12.3913 0H7.60869C6.82609 0 6.06522 0.391304 5.63043 1.04348L4.47826 2.78261H2.3913C1.06522 2.78261 0 3.84783 0 5.17391V13.6087C0 14.9348 1.06522 16 2.3913 16H17.6087C18.9348 16 20 14.9348 20 13.6087V5.17391C20 3.84783 18.9348 2.78261 17.6087 2.78261ZM10 14.0435C7.02174 14.0435 4.6087 11.6304 4.6087 8.65217C4.6087 5.67391 7.02174 3.28261 10 3.28261C12.9783 3.28261 15.3913 5.69565 15.3913 8.67391C15.3913 11.6304 12.9783 14.0435 10 14.0435ZM17.3043 6.15217C17.2826 6.15217 17.2609 6.15217 17.2174 6.15217H16.3478C15.9565 6.13043 15.6522 5.80435 15.6739 5.41304C15.6957 5.04348 15.9783 4.76087 16.3478 4.73913H17.2174C17.6087 4.71739 17.9348 5.02174 17.9565 5.41304C17.9783 5.80435 17.6957 6.13043 17.3043 6.15217Z" fill="#4F4F4F"/>
<path d="M10 5.67392C8.34783 5.67392 7 7.02175 7 8.67392C7 10.3261 8.34783 11.6522 10 11.6522C11.6522 11.6522 13 10.3044 13 8.65218C13 7.00001 11.6522 5.67392 10 5.67392Z" fill="#4F4F4F"/>
</svg>
