<svg width="55" height="55" viewBox="0 0 55 55" fill="none" xmlns="http://www.w3.org/2000/svg">
<circle cx="27.5" cy="27.5002" r="27.5" fill="#E6EAFF"/>
<g clip-path="url(#clip0)">
<rect x="15.4688" y="18.9065" width="25.7812" height="17.1875" fill="#FFB038"/>
<path d="M41.7535 17.134H14.9652C13.3474 17.134 12.0312 18.4502 12.0312 20.068V36.6512C12.0312 38.269 13.3474 39.5852 14.9652 39.5852H41.7535C43.3713 39.5852 44.6875 38.269 44.6875 36.6512V20.068C44.6875 18.4502 43.3713 17.134 41.7535 17.134ZM22.2363 26.0635C22.2363 27.3296 21.2063 28.3596 19.9402 28.3596H18.4094C17.1433 28.3596 16.1133 27.3296 16.1133 26.0635V24.5327C16.1133 23.2666 17.1433 22.2366 18.4094 22.2366H19.9402C21.2063 22.2366 22.2363 23.2666 22.2363 24.5327V26.0635ZM35.3562 31.2751C35.135 31.2751 34.9122 31.2035 34.725 31.056C34.2825 30.707 34.2064 30.0654 34.5554 29.6228C34.8415 29.26 34.9927 28.8231 34.9927 28.3596C34.9927 27.8961 34.8415 27.4593 34.5555 27.0964C34.2065 26.6538 34.2825 26.0121 34.7251 25.6632C35.1677 25.3144 35.8094 25.3902 36.1583 25.8328C36.7228 26.549 37.0337 27.4463 37.0337 28.3596C37.0337 29.2729 36.7228 30.1703 36.1583 30.8863C35.9569 31.1418 35.658 31.2751 35.3562 31.2751ZM38.6498 33.4696C38.4483 33.6941 38.1697 33.8085 37.89 33.8085C37.6471 33.8085 37.4036 33.7224 37.2086 33.5475C36.7892 33.1711 36.7543 32.5258 37.1307 32.1064C38.0553 31.0761 38.5645 29.7455 38.5645 28.3596C38.5645 26.9738 38.0553 25.6432 37.1307 24.6128C36.7543 24.1933 36.7892 23.5481 37.2086 23.1717C37.6281 22.7954 38.2733 22.8302 38.6498 23.2497C39.9109 24.655 40.6055 26.4698 40.6055 28.3596C40.6055 30.2494 39.9109 32.0642 38.6498 33.4696Z" fill="url(#paint0_linear)"/>
</g>
<defs>
<linearGradient id="paint0_linear" x1="28.3594" y1="17.134" x2="28.3594" y2="39.5852" gradientUnits="userSpaceOnUse">
<stop offset="0.34375" stop-color="#5972F2"/>
<stop offset="1" stop-color="#3954DA"/>
</linearGradient>
<clipPath id="clip0">
<rect width="32.6562" height="32.6562" fill="white" transform="translate(12.0312 12.0315)"/>
</clipPath>
</defs>
</svg>
