<svg width="63" height="62" viewBox="0 0 63 62" fill="none" xmlns="http://www.w3.org/2000/svg">
<rect width="62" height="62" transform="translate(0.5 0.000244141)" fill="white"/>
<path d="M47.6649 16.5005H15.3348C13.4722 16.5005 11.9567 18.1755 11.9567 20.2344V41.7663C11.9567 43.8253 13.4722 45.5002 15.3348 45.5002H47.6649C49.5278 45.5002 51.0433 43.8253 51.0433 41.7663V20.2344C51.0433 18.1755 49.5278 16.5005 47.6649 16.5005V16.5005ZM49.8824 41.7663C49.8824 43.1176 48.8876 44.2171 47.6649 44.2171H15.3348C14.1124 44.2171 13.1176 43.1176 13.1176 41.7663V20.2344C13.1176 18.8831 14.1124 17.7836 15.3348 17.7836H47.6649C48.8876 17.7836 49.8824 18.8831 49.8824 20.2344V41.7663Z" fill="#757575"/>
<path d="M29.3329 21.6333H15.8655C15.5449 21.6333 15.2849 21.9204 15.2849 22.275V23.8145C15.2849 24.1688 15.5449 24.4559 15.8655 24.4559C16.1861 24.4559 16.4461 24.1688 16.4461 23.8145V22.9164H28.7526V38.5713H16.4461V26.3811C16.4461 26.0268 16.1861 25.7394 15.8655 25.7394C15.5449 25.7394 15.2849 26.0268 15.2849 26.3811V39.2127C15.2849 39.567 15.5449 39.8544 15.8655 39.8544H29.3329C29.6534 39.8544 29.9135 39.567 29.9135 39.2127V22.275C29.9135 21.9204 29.6534 21.6333 29.3329 21.6333Z" fill="#757575"/>
<path d="M47.2897 23.1221H32.7387C32.4181 23.1221 32.1581 23.4095 32.1581 23.7638C32.1581 24.1181 32.4181 24.4052 32.7387 24.4052H47.2897C47.6103 24.4052 47.87 24.1181 47.87 23.7638C47.87 23.4095 47.6103 23.1221 47.2897 23.1221Z" fill="#757575"/>
<path d="M47.2898 27.7754H44.0391C43.7185 27.7754 43.4587 28.0625 43.4587 28.4168C43.4587 28.7711 43.7185 29.0585 44.0391 29.0585H47.2898C47.6104 29.0585 47.8701 28.7711 47.8701 28.4168C47.8701 28.0625 47.6104 27.7754 47.2898 27.7754Z" fill="#757575"/>
<path d="M32.7387 29.0585H41.7168C42.0374 29.0585 42.2974 28.7711 42.2974 28.4168C42.2974 28.0625 42.0374 27.7754 41.7168 27.7754H32.7387C32.4181 27.7754 32.1581 28.0625 32.1581 28.4168C32.1581 28.7711 32.4181 29.0585 32.7387 29.0585Z" fill="#757575"/>
<path d="M47.2897 32.4287H32.7387C32.4181 32.4287 32.1581 32.7158 32.1581 33.0701C32.1581 33.4244 32.4181 33.7118 32.7387 33.7118H47.2897C47.6103 33.7118 47.87 33.4244 47.87 33.0701C47.87 32.7158 47.6103 32.4287 47.2897 32.4287Z" fill="#757575"/>
<path d="M40.6334 37.0837H32.7387C32.4181 37.0837 32.1581 37.3708 32.1581 37.7251C32.1581 38.0794 32.4181 38.3668 32.7387 38.3668H40.6334C40.954 38.3668 41.2137 38.0794 41.2137 37.7251C41.2137 37.3708 40.954 37.0837 40.6334 37.0837Z" fill="#757575"/>
<path d="M18.5356 37.1602C18.5356 37.5145 18.7957 37.8016 19.1163 37.8016C19.4368 37.8016 19.6969 37.5145 19.6969 37.1602C19.6969 35.3913 20.9988 33.9523 22.5993 33.9523C24.1998 33.9523 25.5018 35.3913 25.5018 37.1602C25.5018 37.5145 25.7615 37.8016 26.0821 37.8016C26.4027 37.8016 26.6627 37.5145 26.6627 37.1602C26.6627 35.5281 25.871 34.097 24.6898 33.3106C25.871 32.5242 26.6627 31.0931 26.6627 29.461C26.6627 26.9848 24.8397 24.97 22.5993 24.97C20.3586 24.97 18.5356 26.9848 18.5356 29.461C18.5356 31.0931 19.3277 32.5242 20.5089 33.3106C19.3277 34.097 18.5356 35.5281 18.5356 37.1602ZM19.6969 29.461C19.6969 27.6921 20.9988 26.2531 22.5993 26.2531C24.1998 26.2531 25.5018 27.6921 25.5018 29.461C25.5018 31.2299 24.1998 32.6689 22.5993 32.6689C20.9988 32.6689 19.6969 31.2299 19.6969 29.461Z" fill="#757575"/>
</svg>
