<svg width="21" height="21" viewBox="0 0 21 21" fill="none" xmlns="http://www.w3.org/2000/svg">
<path d="M10.5 5.25C11.9497 5.25 13.125 4.07475 13.125 2.625C13.125 1.17525 11.9497 0 10.5 0C9.05025 0 7.875 1.17525 7.875 2.625C7.875 4.07475 9.05025 5.25 10.5 5.25Z" fill="#FF931C"/>
<path d="M14.4338 13.7156L13.8367 7.74506C13.7697 7.07044 13.208 6.5625 12.532 6.5625H8.46984C7.79259 6.5625 7.23084 7.07044 7.1639 7.74375L6.56672 13.7156C6.54834 13.9007 6.60872 14.0831 6.7334 14.2223C6.85678 14.3588 7.03397 14.4375 7.21903 14.4375H7.93697L8.47509 19.8188C8.54203 20.4908 9.10509 21 9.78234 21H11.2195C11.8968 21 12.4585 20.4908 12.5255 19.8188L13.0636 14.4375H13.7815C13.9679 14.4375 14.1438 14.3588 14.2685 14.2223C14.3932 14.0844 14.4535 13.9007 14.4338 13.7156Z" fill="#00A79D"/>
</svg>
