<svg width="47" height="48" viewBox="0 0 47 48" fill="none" xmlns="http://www.w3.org/2000/svg">
<g clip-path="url(#clip0)">
<path d="M23.5 47.5C36.4787 47.5 47 36.9787 47 24C47 11.0213 36.4787 0.5 23.5 0.5C10.5213 0.5 0 11.0213 0 24C0 36.9787 10.5213 47.5 23.5 47.5Z" fill="url(#paint0_linear)"/>
<path d="M23.5 47.5C36.4787 47.5 47 36.9787 47 24C47 11.0213 36.4787 0.5 23.5 0.5C10.5213 0.5 0 11.0213 0 24C0 36.9787 10.5213 47.5 23.5 47.5Z" fill="url(#paint1_radial)"/>
<path d="M37.9576 12.2098C28.3189 11.9345 18.6803 11.9345 9.0416 12.2098C7.53081 12.255 6.19673 13.5376 6.10906 15.0498C5.77354 21.0166 5.77354 26.9834 6.10906 32.9502C6.19718 34.4687 7.52457 35.7447 9.0416 35.7902C18.6803 36.0655 28.3189 36.0655 37.9576 35.7902C39.4747 35.7448 40.802 34.4687 40.8902 32.9502C41.2257 26.9834 41.2257 21.0166 40.8902 15.0498C40.8019 13.5314 39.4747 12.2551 37.9576 12.2098Z" fill="white"/>
<path d="M8.89105 33.016C8.60923 27.0053 8.60923 20.9946 8.89105 14.9838C13.7171 15.8033 18.5931 16.7079 23.4991 17.6487C28.4052 16.7078 33.2812 15.8033 38.1072 14.9838C38.3891 20.9946 38.3891 27.0053 38.1072 33.016C33.3029 31.7342 28.4185 30.3512 23.4991 28.9398C18.5798 30.3512 13.6954 31.7342 8.89105 33.016Z" fill="url(#paint2_linear)"/>
<path d="M38.1079 33.0161C38.1494 32.1421 37.7708 31.3264 37.0859 30.8057C32.6688 27.446 28.0558 23.9501 23.4998 20.4716C18.9439 23.9501 14.3309 27.446 9.91381 30.8057C9.22901 31.3265 8.85035 32.1421 8.89175 33.0161C18.6305 33.2265 28.3692 33.2265 38.1079 33.0161Z" fill="url(#paint3_linear)"/>
<path d="M8.89105 33.016C8.60923 27.0053 8.60923 20.9946 8.89105 14.9838C13.7171 15.8033 18.5931 16.7079 23.4991 17.6487C28.4052 16.7078 33.2812 15.8033 38.1072 14.9838C38.3891 20.9946 38.3891 27.0053 38.1072 33.016C28.3685 33.2265 18.6298 33.2265 8.89105 33.016Z" fill="#FF9F1E"/>
<path d="M8.86042 15.6774C8.82178 16.5631 9.15775 17.4032 9.78895 18.0072C13.2938 21.3611 16.9597 24.815 20.5888 28.273C22.2266 29.834 24.773 29.834 26.4109 28.273C30.0401 24.8151 33.7059 21.3611 37.2107 18.0072C37.842 17.4032 38.178 16.563 38.1392 15.6774C38.1292 15.4462 38.1187 15.2151 38.1079 14.9838C33.2819 15.8033 28.4059 16.7079 23.4998 17.6487C18.5937 16.7078 13.7178 15.8033 8.89173 14.9838C8.88089 15.2151 8.87052 15.4462 8.86042 15.6774Z" fill="#FF9F1E"/>
<path d="M8.89175 14.9839C8.85035 15.8579 9.22892 16.6735 9.91381 17.1942C13.7793 20.1343 17.7947 23.1787 21.7906 26.2245C22.8014 26.9951 24.1983 26.9951 25.2091 26.2245C29.205 23.1788 33.2204 20.1343 37.0859 17.1942C37.7707 16.6735 38.1493 15.8578 38.1079 14.9839C28.3692 14.7734 18.6305 14.7734 8.89175 14.9839Z" fill="#FFC267"/>
</g>
<defs>
<linearGradient id="paint0_linear" x1="6.88293" y1="40.617" x2="40.117" y2="7.38302" gradientUnits="userSpaceOnUse">
<stop stop-color="#4F6CFF"/>
<stop offset="1" stop-color="#6982FF"/>
</linearGradient>
<radialGradient id="paint1_radial" cx="0" cy="0" r="1" gradientUnits="userSpaceOnUse" gradientTransform="translate(23.5 24) scale(23.5)">
<stop stop-color="#4F6CFF"/>
<stop offset="1" stop-color="#6982FF"/>
</radialGradient>
<linearGradient id="paint2_linear" x1="-9.22938" y1="56.7285" x2="40.0671" y2="7.43198" gradientUnits="userSpaceOnUse">
<stop stop-color="#FFB11D"/>
<stop offset="0.2603" stop-color="#FFC315"/>
<stop offset="1" stop-color="#FFF200"/>
</linearGradient>
<linearGradient id="paint3_linear" x1="0.222541" y1="55.6822" x2="83.013" y2="-27.1083" gradientUnits="userSpaceOnUse">
<stop stop-color="#FFCB00"/>
<stop offset="0.5" stop-color="#FFFA78"/>
<stop offset="1" stop-color="#FEFFD6"/>
</linearGradient>
<clipPath id="clip0">
<rect width="47" height="47" fill="white" transform="translate(0 0.5)"/>
</clipPath>
</defs>
</svg>
