<svg width="17" height="20" viewBox="0 0 17 20" fill="none" xmlns="http://www.w3.org/2000/svg">
<path d="M16.0346 14.2728L15.3491 13.7114C15.0912 13.5007 14.9182 13.189 14.8664 12.8419L14.0072 7.14473C13.7981 5.66215 13.1103 4.31025 12.0681 3.33343C11.0259 2.35662 9.69811 1.81937 8.32486 1.81882C6.9516 1.81827 5.62348 2.35446 4.58063 3.33044C3.53778 4.30642 2.84903 5.65778 2.6389 7.14018L1.77891 12.842C1.72711 13.189 1.55421 13.5004 1.29654 13.711L0.610196 14.2728C0.354011 14.4827 0.164791 14.7754 0.0693423 15.1093C-0.0261065 15.4432 -0.0229449 15.8015 0.0783791 16.1334C0.179703 16.4652 0.374053 16.7538 0.633895 16.9583C0.893737 17.1628 1.2059 17.2728 1.52616 17.2728H15.1191C15.4393 17.2728 15.7514 17.1627 16.0112 16.9582C16.271 16.7536 16.4653 16.465 16.5665 16.1331C16.6678 15.8013 16.6709 15.443 16.5754 15.1092C16.4799 14.7753 16.2907 14.4827 16.0345 14.2728H16.0346Z" fill="white"/>
<path d="M9.57104 2.89091C9.46068 2.89091 9.35484 2.84302 9.2768 2.75777C9.19876 2.67253 9.15492 2.55691 9.15492 2.43636V1.81818C9.15492 1.57707 9.06724 1.34584 8.91116 1.17536C8.75509 1.00487 8.54341 0.90909 8.32268 0.90909C8.10196 0.90909 7.89027 1.00487 7.7342 1.17536C7.57812 1.34584 7.49044 1.57707 7.49044 1.81818V2.43636C7.49044 2.55691 7.4466 2.67253 7.36856 2.75777C7.29053 2.84302 7.18468 2.89091 7.07432 2.89091C6.96396 2.89091 6.85812 2.84302 6.78008 2.75777C6.70204 2.67253 6.6582 2.55691 6.6582 2.43636V1.81818C6.6582 1.33597 6.83357 0.873508 7.14572 0.532533C7.45787 0.191558 7.88123 0 8.32268 0C8.76413 0 9.18749 0.191558 9.49965 0.532533C9.8118 0.873508 9.98716 1.33597 9.98716 1.81818V2.43636C9.98716 2.55691 9.94332 2.67253 9.86528 2.75777C9.78724 2.84302 9.6814 2.89091 9.57104 2.89091Z" fill="white"/>
<path d="M5.69482 18.1817C5.93013 18.7256 6.30206 19.1853 6.76729 19.5072C7.23252 19.8291 7.7719 20 8.32261 20C8.87333 20 9.41271 19.8291 9.87793 19.5072C10.3432 19.1853 10.7151 18.7256 10.9504 18.1817H5.69482Z" fill="white"/>
</svg>
