<svg width="32" height="32" viewBox="0 0 32 32" fill="none" xmlns="http://www.w3.org/2000/svg">
<circle cx="16" cy="16" r="16" fill="#E6EAFF"/>
<path d="M8.14551 9.25163C8.14551 6.71273 10.0821 4.65455 12.4709 4.65455H17.7837C20.1726 4.65455 22.1091 6.71273 22.1091 9.25163V23.3302C22.1091 25.8691 20.1726 27.9273 17.7837 27.9273H12.4709C10.0821 27.9273 8.14551 25.8691 8.14551 23.3302V9.25163Z" fill="url(#paint0_linear)"/>
<path d="M9.30908 9.34712C9.30908 7.39814 10.7716 5.81818 12.5757 5.81818H17.6788C19.4829 5.81818 20.9454 7.39814 20.9454 9.34712V20.9074C20.9454 22.8564 19.4829 24.4364 17.6788 24.4364H12.5757C10.7716 24.4364 9.30908 22.8564 9.30908 20.9074V9.34712Z" fill="url(#paint1_linear)"/>
<path d="M16.2911 26.1818C16.2911 26.8245 15.7702 27.3455 15.1275 27.3455C14.4848 27.3455 13.9639 26.8245 13.9639 26.1818C13.9639 25.5392 14.4848 25.0182 15.1275 25.0182C15.7702 25.0182 16.2911 25.5392 16.2911 26.1818Z" fill="white"/>
<circle cx="21.3252" cy="16.0379" r="5.23636" fill="#FFB038"/>
<path d="M24.3852 15.2403C22.6135 13.5378 19.858 13.5384 18.087 15.2403C18.0204 15.3043 18.0191 15.4127 18.0835 15.4791L18.4259 15.832C18.4873 15.8954 18.5861 15.8967 18.6499 15.836C20.1091 14.4471 22.3629 14.4468 23.8224 15.836C23.8862 15.8967 23.985 15.8953 24.0464 15.832L24.3888 15.4791C24.4531 15.4127 24.4518 15.3043 24.3852 15.2403ZM21.2361 17.2883C20.8826 17.2883 20.5961 17.586 20.5961 17.9532C20.5961 18.3205 20.8826 18.6182 21.2361 18.6182C21.5896 18.6182 21.8761 18.3205 21.8761 17.9532C21.8761 17.586 21.5896 17.2883 21.2361 17.2883ZM23.2628 16.4198C22.1102 15.3608 20.3607 15.362 19.2094 16.4198C19.1404 16.4832 19.1382 16.5932 19.2037 16.6604L19.5481 17.0135C19.6081 17.075 19.7047 17.0792 19.7686 17.0218C20.6081 16.2678 21.866 16.2695 22.7035 17.0218C22.7674 17.0792 22.864 17.0751 22.924 17.0135L23.2684 16.6604C23.334 16.5932 23.3317 16.4831 23.2628 16.4198Z" fill="white"/>
<defs>
<linearGradient id="paint0_linear" x1="15.1273" y1="4.65455" x2="15.1273" y2="27.9273" gradientUnits="userSpaceOnUse">
<stop stop-color="#6982FF"/>
<stop offset="1" stop-color="#6982FF"/>
</linearGradient>
<linearGradient id="paint1_linear" x1="15.1744" y1="3.27267" x2="15.1194" y2="24.4363" gradientUnits="userSpaceOnUse">
<stop stop-color="#6982FF"/>
<stop offset="1" stop-color="#2C47CF"/>
</linearGradient>
</defs>
</svg>
