<svg width="32" height="32" viewBox="0 0 32 32" fill="none" xmlns="http://www.w3.org/2000/svg">
<circle cx="16" cy="16" r="16" fill="#E6EAFF"/>
<path d="M16.6982 5.49926C16.3492 5.14872 15.7382 5.14872 15.3892 5.49926C14.6037 6.37563 8.14551 14.263 8.14551 18.2944C8.14551 22.6763 11.6364 26.1818 16.0001 26.1818C20.3637 26.1818 23.8546 22.6763 23.8546 18.2944C23.8546 14.263 17.3964 6.37563 16.6982 5.49926Z" fill="url(#paint0_linear)"/>
<path d="M22.9819 15.1273C21.6728 15.4597 21.411 16.7896 19.7528 16.7896C17.8328 16.7896 17.8328 15.1273 16.0001 15.1273C14.1674 15.1273 14.0801 16.7896 12.2473 16.7896C10.5892 16.7896 10.3273 15.4597 9.01824 15.1273C8.4946 16.1247 8.14551 17.1636 8.14551 18.452C8.14551 18.7013 8.14551 19.0338 8.23277 19.2831C8.32003 19.2831 8.40733 19.2831 8.49459 19.2831C10.4146 19.2831 10.4146 20.9455 12.2473 20.9455C14.08 20.9455 14.1673 19.2831 16 19.2831C17.8327 19.2831 17.92 20.9455 19.7527 20.9455C21.5855 20.9455 21.6728 19.2831 23.5055 19.2831C23.5928 19.2831 23.6801 19.2831 23.7673 19.2831C23.7673 19.0338 23.8546 18.7013 23.8546 18.452C23.8546 17.2862 23.5055 16.1247 22.9819 15.1273Z" fill="url(#paint1_linear)"/>
<path d="M19.7299 20.9531C17.7992 20.9531 17.7992 19.2 15.9562 19.2C14.1132 19.2 14.0254 20.9531 12.1825 20.9531C10.3395 20.9531 10.2794 18.9091 8.43642 18.9091C8.34867 18.9091 8.23325 18.9091 8.14551 18.9091C8.43642 23.5636 12.5091 26.6491 16.9215 26.1245C20.6075 25.6863 23.8546 22.6909 23.8546 18.6182C23.7669 18.6182 23.0696 18.6182 22.9819 18.6182C21.0512 18.6182 21.6606 20.9531 19.7299 20.9531Z" fill="url(#paint2_linear)"/>
<defs>
<linearGradient id="paint0_linear" x1="16.0001" y1="5.23636" x2="14.5455" y2="19.2" gradientUnits="userSpaceOnUse">
<stop stop-color="#6982FF"/>
<stop offset="1" stop-color="#2D48D0"/>
</linearGradient>
<linearGradient id="paint1_linear" x1="16.5819" y1="22.1091" x2="14.5455" y2="11.6364" gradientUnits="userSpaceOnUse">
<stop stop-color="#FFB038"/>
<stop offset="1" stop-color="#FFC01E"/>
</linearGradient>
<linearGradient id="paint2_linear" x1="15.4182" y1="6.10908" x2="14.5455" y2="25.0182" gradientUnits="userSpaceOnUse">
<stop stop-color="#6079F8"/>
<stop offset="1" stop-color="#3852D8"/>
</linearGradient>
</defs>
</svg>
