<svg width="32" height="32" viewBox="0 0 32 32" fill="none" xmlns="http://www.w3.org/2000/svg">
<circle cx="16" cy="16" r="16" fill="#E6EAFF"/>
<path d="M22.0552 15.6501C21.9762 15.3722 21.7393 15.1499 21.4761 15.0944L17.686 14.2607L18.8178 6.78572C18.8704 6.42447 18.6862 6.06321 18.3703 5.89652C18.0545 5.72978 17.6597 5.84094 17.4491 6.11885L10.0795 15.3723C9.92159 15.5946 9.84265 15.8724 9.92159 16.1225C10.0005 16.4004 10.1848 16.595 10.4217 16.6783L14.1065 17.9843L12.6326 25.1814C12.5536 25.5427 12.7379 25.9317 13.0537 26.0985C13.159 26.154 13.2906 26.1818 13.4222 26.1818C13.6327 26.1818 13.8696 26.0707 14.0012 25.904L21.9235 16.4282C22.1078 16.2337 22.1604 15.928 22.0552 15.6501Z" fill="url(#paint0_linear)"/>
<path fill-rule="evenodd" clip-rule="evenodd" d="M16.2209 10.1614C16.3397 10.2505 16.3464 10.4423 16.2358 10.5898L12.6307 15.3966C12.5201 15.544 12.3341 15.5914 12.2152 15.5022C12.0964 15.4131 12.0898 15.2213 12.2004 15.0738L15.8055 10.267C15.9161 10.1196 16.1021 10.0722 16.2209 10.1614Z" fill="#FFB038"/>
<defs>
<linearGradient id="paint0_linear" x1="15.4179" y1="3.19999" x2="15.127" y2="31.4182" gradientUnits="userSpaceOnUse">
<stop stop-color="#6982FF"/>
<stop offset="1" stop-color="#304BD3"/>
</linearGradient>
</defs>
</svg>
