<svg width="70" height="69" viewBox="0 0 70 69" fill="none" xmlns="http://www.w3.org/2000/svg">
<ellipse cx="35" cy="34.5" rx="35" ry="34.5" fill="white"/>
<path d="M35 3C17.3287 3 3 17.1027 3 34.5C3 51.8973 17.3273 66 35 66C52.6741 66 67 51.8973 67 34.5C67 17.1027 52.6741 3 35 3ZM35 12.4189C40.8473 12.4189 45.5856 17.0847 45.5856 22.8382C45.5856 28.593 40.8473 33.2574 35 33.2574C29.1555 33.2574 24.4172 28.593 24.4172 22.8382C24.4172 17.0847 29.1555 12.4189 35 12.4189ZM34.993 57.7642C29.1611 57.7642 23.8198 55.6734 19.7 52.2128C18.6964 51.3701 18.1173 50.1345 18.1173 48.8379C18.1173 43.0029 22.9146 38.3329 28.8435 38.3329H41.1594C47.0896 38.3329 51.8687 43.0029 51.8687 48.8379C51.8687 50.1358 51.2924 51.3687 50.2874 52.2114C46.1689 55.6734 40.8262 57.7642 34.993 57.7642Z" fill="#4F6CFF"/>
</svg>
