<svg width="21" height="24" viewBox="0 0 21 24" fill="none" xmlns="http://www.w3.org/2000/svg">
<path d="M9.85996 11.5608C11.4482 11.5608 12.8235 10.9912 13.9472 9.86729C15.0709 8.74358 15.6406 7.36865 15.6406 5.78023C15.6406 4.19235 15.0709 2.81724 13.947 1.69316C12.8231 0.569636 11.448 0 9.85996 0C8.27153 0 6.89659 0.569636 5.77288 1.69335C4.64917 2.81705 4.07935 4.19216 4.07935 5.78023C4.07935 7.36865 4.64917 8.74376 5.77306 9.86747C6.89696 10.991 8.27208 11.5608 9.85996 11.5608V11.5608Z" fill="#4F6CFF"/>
<path d="M19.9747 18.4547C19.9423 17.987 19.8767 17.4769 19.7802 16.9382C19.6828 16.3955 19.5574 15.8824 19.4073 15.4135C19.2522 14.9288 19.0412 14.4502 18.7805 13.9915C18.5099 13.5155 18.192 13.1009 17.8353 12.7598C17.4623 12.4029 17.0057 12.116 16.4776 11.9067C15.9513 11.6985 15.3682 11.593 14.7443 11.593C14.4993 11.593 14.2624 11.6936 13.8048 11.9915C13.5232 12.1751 13.1938 12.3875 12.8261 12.6225C12.5117 12.8228 12.0858 13.0105 11.5598 13.1804C11.0465 13.3465 10.5254 13.4307 10.0111 13.4307C9.49672 13.4307 8.97579 13.3465 8.462 13.1804C7.93649 13.0106 7.51059 12.823 7.19656 12.6226C6.83237 12.3899 6.50278 12.1775 6.21695 11.9913C5.75992 11.6934 5.5228 11.5929 5.27781 11.5929C4.65379 11.5929 4.07078 11.6985 3.54472 11.9069C3.01702 12.1158 2.56017 12.4027 2.18682 12.76C1.83031 13.1013 1.51226 13.5156 1.242 13.9915C0.981441 14.4502 0.770504 14.9287 0.615232 15.4137C0.465269 15.8826 0.339842 16.3955 0.242431 16.9382C0.145934 17.4762 0.080383 17.9865 0.0479734 18.4552C0.0161132 18.9145 0 19.3911 0 19.8725C0 21.1253 0.398253 22.1395 1.18359 22.8874C1.95922 23.6255 2.98552 24 4.23356 24H15.7897C17.0377 24 18.0636 23.6257 18.8395 22.8874C19.625 22.14 20.0232 21.1256 20.0232 19.8723C20.023 19.3887 20.0067 18.9117 19.9747 18.4547V18.4547Z" fill="#4F6CFF"/>
</svg>
