<svg width="32" height="32" viewBox="0 0 32 32" fill="none" xmlns="http://www.w3.org/2000/svg">
<circle cx="16" cy="16" r="16" fill="#E6EAFF"/>
<path d="M8.72705 9.25163C8.72705 6.71273 10.6636 4.65455 13.0525 4.65455H18.3653C20.7541 4.65455 22.6907 6.71273 22.6907 9.25163V23.3302C22.6907 25.8691 20.7541 27.9273 18.3653 27.9273H13.0525C10.6636 27.9273 8.72705 25.8691 8.72705 23.3302V9.25163Z" fill="url(#paint0_linear)"/>
<path d="M9.89111 9.34712C9.89111 7.39814 11.3536 5.81818 13.1577 5.81818H18.2609C20.065 5.81818 21.5275 7.39814 21.5275 9.34712V20.9074C21.5275 22.8564 20.065 24.4364 18.2609 24.4364H13.1577C11.3536 24.4364 9.89111 22.8564 9.89111 20.9074V9.34712Z" fill="url(#paint1_linear)"/>
<path d="M16.8727 26.1818C16.8727 26.8245 16.3517 27.3455 15.709 27.3455C15.0664 27.3455 14.5454 26.8245 14.5454 26.1818C14.5454 25.5392 15.0664 25.0182 15.709 25.0182C16.3517 25.0182 16.8727 25.5392 16.8727 26.1818Z" fill="white"/>
<circle cx="21.9068" cy="16.0379" r="5.23636" fill="#FFB038"/>
<path d="M20.6333 16.375H20.1298V17.6907H19.1997V13.9636H20.7181C21.1757 13.9636 21.5334 14.0618 21.7913 14.258C22.0493 14.4543 22.1782 14.7316 22.1782 15.09C22.1782 15.3493 22.1235 15.5644 22.0139 15.735C21.9062 15.9057 21.7366 16.0439 21.5051 16.1497L22.3107 17.6523V17.6907H21.3144L20.6333 16.375ZM20.1298 15.6813H20.7181C20.8948 15.6813 21.0273 15.6369 21.1156 15.5482C21.2057 15.4577 21.2508 15.3323 21.2508 15.1719C21.2508 15.0115 21.2057 14.886 21.1156 14.7956C21.0255 14.7034 20.893 14.6573 20.7181 14.6573H20.1298V15.6813Z" fill="white"/>
<path d="M25.3608 16.3263C25.3608 16.7564 25.2601 17.1003 25.0587 17.3579C24.8591 17.6139 24.5888 17.7419 24.2478 17.7419C23.9846 17.7419 23.7682 17.6489 23.5986 17.4629V18.7556H22.7056V14.921H23.5403L23.5668 15.177C23.7382 14.9722 23.9634 14.8698 24.2425 14.8698C24.5959 14.8698 24.8706 14.9961 25.0667 15.2487C25.2628 15.4995 25.3608 15.8451 25.3608 16.2854V16.3263ZM24.4678 16.2726C24.4678 15.7811 24.3194 15.5354 24.0226 15.5354C23.8106 15.5354 23.6693 15.6087 23.5986 15.7555V16.846C23.6763 16.9996 23.8194 17.0764 24.0279 17.0764C24.3123 17.0764 24.4589 16.8392 24.4678 16.3647V16.2726Z" fill="white"/>
<defs>
<linearGradient id="paint0_linear" x1="15.7089" y1="4.65455" x2="15.7089" y2="27.9273" gradientUnits="userSpaceOnUse">
<stop stop-color="#6982FF"/>
<stop offset="1" stop-color="#6982FF"/>
</linearGradient>
<linearGradient id="paint1_linear" x1="15.7564" y1="3.27267" x2="15.7014" y2="24.4363" gradientUnits="userSpaceOnUse">
<stop stop-color="#6982FF"/>
<stop offset="1" stop-color="#2C47CF"/>
</linearGradient>
</defs>
</svg>
