<svg width="25" height="10" viewBox="0 0 25 10" fill="none" xmlns="http://www.w3.org/2000/svg">
<path d="M8.23666 2.59654C8.23666 2.19933 8.55865 1.87733 8.95586 1.87733L12.721 1.87734C13.7662 1.87734 14.6135 2.72462 14.6135 3.76979L14.6135 4.91796C14.6135 5.32902 14.2803 5.66225 13.8692 5.66225H13.7427C13.1063 5.66225 12.8041 6.44621 13.2759 6.87337C13.7477 7.30053 13.4455 8.08449 12.8091 8.08449H12.6386C12.4472 8.08449 12.2628 8.01239 12.1222 7.88256L10.9551 6.80507C10.4827 6.36891 9.71731 6.70399 9.71731 7.34696C9.71731 7.75428 9.38572 8.08449 8.97839 8.08449C8.56952 8.08448 8.23667 7.75303 8.23667 7.34416L8.23666 6.16063C8.23666 5.09812 9.098 4.23677 10.1605 4.23677L12.4516 4.23677C12.7059 4.23677 12.9121 4.03059 12.9121 3.77626C12.9121 3.52192 12.7059 3.31574 12.4516 3.31574L8.95586 3.31574C8.55866 3.31574 8.23666 2.99375 8.23666 2.59654Z" fill="#4F4F4F"/>
<path d="M15.2756 7.30525C15.2756 7.73561 15.6245 8.08448 16.0549 8.08449C16.4852 8.08449 16.8341 7.73561 16.8341 7.30525L16.8341 2.64399C16.8341 2.21363 16.4852 1.86476 16.0549 1.86476C15.6245 1.86476 15.2756 2.21363 15.2756 2.644L15.2756 7.30525Z" fill="#4F4F4F"/>
<path d="M3.98343 6.58318C3.3272 6.58317 2.79521 6.05119 2.79521 5.39496L2.7952 3.09813C2.7952 2.42389 2.24863 1.87732 1.5744 1.87732C1.35363 1.87732 1.18477 2.04146 1.18477 2.24306C1.18477 3.35364 1.1718 6.62104 1.1718 7.70598C1.1718 7.90785 1.34066 8.08447 1.54845 8.08447C2.14554 8.08447 3.53528 8.08447 4.42168 8.08447C4.83625 8.08447 5.17165 7.7484 5.17165 7.33382C5.17165 6.91925 4.83558 6.58318 4.421 6.58318H3.98343Z" fill="#4F4F4F"/>
<path d="M5.97681 8.83745C5.97681 9.27862 6.25168 9.63627 6.69286 9.63627C7.13404 9.63627 7.57445 9.2793 7.57445 8.83813C7.57445 8.37164 7.57445 7.78479 7.57445 7.3182C7.57445 6.87703 7.22177 6.52012 6.7806 6.52012C6.33942 6.52012 5.97681 6.87776 5.97681 7.31894C5.97681 7.82384 5.97681 8.32952 5.97681 8.83745Z" fill="#4F4F4F"/>
<path d="M4.35007 1.87733C3.92158 1.87733 3.57437 2.23422 3.57437 2.66271C3.57437 3.0912 3.92168 3.42902 4.35017 3.42902C4.50314 3.42902 4.65916 3.42902 4.81604 3.42902C5.45711 3.42902 5.97681 3.94896 5.97681 4.59003C5.97682 4.71693 5.97682 4.83855 5.97682 4.95211C5.97682 5.39328 6.41723 5.75055 6.85841 5.75055C7.29958 5.75055 7.57445 5.39291 7.57445 4.95173L7.57445 2.256C7.57445 2.05395 7.40536 1.88982 7.19789 1.87733C6.59286 1.87733 5.34556 1.87733 4.35007 1.87733Z" fill="#4F4F4F"/>
<path d="M4.37142 4.18591C3.93591 4.18591 3.57437 4.53895 3.57437 4.97446C3.57437 5.10224 3.57437 5.23077 3.57437 5.36042C3.57437 5.58278 3.75463 5.76303 3.97698 5.76303C4.10005 5.76303 4.23347 5.76303 4.37023 5.76303C4.80574 5.76303 5.1588 5.41951 5.1588 4.984C5.1588 4.54849 4.80693 4.18591 4.37142 4.18591ZM4.6913 4.97291C4.6913 5.14706 4.55011 5.28356 4.37596 5.28356C4.31783 5.28356 4.26171 5.28356 4.21055 5.28356C4.11742 5.28356 4.04192 5.20806 4.04192 5.11493C4.04192 5.0658 4.04192 5.01701 4.04192 4.96823C4.04192 4.79407 4.1831 4.65289 4.35725 4.65289C4.36349 4.65289 4.36973 4.65289 4.37597 4.65289C4.55012 4.65289 4.6913 4.79875 4.6913 4.97291Z" fill="#4F4F4F"/>
<path d="M24.6718 6.52011C24.5678 6.52011 24.4835 6.60441 24.4835 6.70839L24.4835 8.84146C24.4835 9.04329 24.3017 9.20733 24.0942 9.20733H21.8938C21.7893 9.20733 21.7046 9.29205 21.7046 9.39655C21.7046 9.50106 21.7893 9.58578 21.8938 9.58578H24.4968C24.6915 9.58578 24.8601 9.42178 24.8601 9.21991L24.8601 6.70839C24.8601 6.60441 24.7758 6.52011 24.6718 6.52011Z" fill="#4F4F4F"/>
<path d="M0.522448 3.41654L0.522443 1.09501C0.522443 0.893411 0.678276 0.741765 0.886069 0.741765L3.27572 0.741766C3.28851 0.741766 3.28869 0.729638 3.28869 0.729285C3.28869 0.729275 3.28869 0.729272 3.28869 0.729261L3.28869 0.376068C3.28869 0.376042 3.28869 0.376018 3.28869 0.375993C3.28868 0.37525 3.28828 0.363542 3.27572 0.363542L0.522441 0.363541C0.30167 0.363541 0.132812 0.527676 0.132813 0.741765L0.132818 3.41654C0.132818 3.42883 0.145384 3.42902 0.145787 3.42903C0.145799 3.42903 0.145803 3.42903 0.145816 3.42903H0.509422C0.509454 3.42903 0.509482 3.42903 0.509513 3.42903C0.510337 3.42901 0.522448 3.4286 0.522448 3.41654Z" fill="#4F4F4F"/>
<path d="M23.0386 3.41654C23.4636 3.41654 23.8082 3.07198 23.8082 2.64694C23.8082 2.2219 23.4636 1.87733 23.0386 1.87733L19.4398 1.87733C18.3737 1.87733 17.5095 2.74159 17.5095 3.8077C17.5095 4.87382 18.3737 5.73807 19.4398 5.73807L21.3199 5.73807C21.5324 5.73807 21.7046 5.91031 21.7046 6.12278C21.7046 6.33525 21.5324 6.5075 21.3199 6.5075L18.2853 6.5075C17.8568 6.50749 17.5095 6.85487 17.5095 7.28337C17.5095 7.71187 17.8568 8.05924 18.2853 8.05924L21.878 8.05924C22.944 8.05924 23.8082 7.19506 23.8082 6.12905C23.8082 5.06303 22.944 4.19886 21.878 4.19886L20.0046 4.19886C19.7886 4.19886 19.6134 4.02373 19.6134 3.8077C19.6134 3.59167 19.7886 3.41654 20.0046 3.41654L23.0386 3.41654Z" fill="#4F4F4F"/>
</svg>
