<?xml version="1.0" standalone="no"?>
<!DOCTYPE svg PUBLIC "-//W3C//DTD SVG 20010904//EN"
 "http://www.w3.org/TR/2001/REC-SVG-20010904/DTD/svg10.dtd">
<svg version="1.0" xmlns="http://www.w3.org/2000/svg"
 width="720.000000pt" height="1080.000000pt" viewBox="0 0 720.000000 1080.000000"
 preserveAspectRatio="xMidYMid meet">

<g transform="translate(0.000000,1080.000000) scale(0.100000,-0.100000)"
fill="#000000" stroke="none">
<path d="M6260 10723 c0 -12 40 -61 100 -122 91 -92 113 -121 92 -121 -4 0
-43 34 -87 77 -62 59 -81 72 -83 58 -3 -12 27 -49 87 -109 50 -50 91 -95 91
-99 0 -20 -31 0 -85 54 -44 45 -61 56 -63 44 -3 -14 44 -70 127 -150 13 -13
20 -28 16 -35 -7 -11 -33 9 -88 68 -11 12 -24 22 -29 22 -19 0 -4 -25 52 -85
55 -59 71 -85 53 -85 -4 0 -24 17 -45 37 -21 20 -41 34 -44 30 -4 -4 18 -32
49 -63 32 -30 57 -61 57 -67 0 -23 -56 -47 -112 -47 -89 0 -127 -37 -128 -122
0 -50 4 -60 31 -87 26 -26 38 -31 80 -31 76 0 89 11 89 74 0 63 -15 75 -63 49
l-32 -18 28 -3 c21 -3 27 -9 27 -28 0 -22 -4 -24 -45 -24 -49 0 -65 16 -65 67
0 36 8 47 47 67 36 18 60 21 65 7 9 -25 274 70 344 123 30 23 64 49 76 58 20
15 21 19 8 28 -26 17 -68 11 -85 -12 -14 -21 -17 -21 -28 -7 -35 47 -63 82
-73 93 -6 6 -33 39 -59 71 -43 54 -151 164 -262 268 -37 34 -43 37 -43 20z"/>
<path d="M6698 10565 c2 -19 8 -38 13 -41 5 -3 9 -18 9 -34 0 -38 -25 -30 -34
11 -3 16 -10 29 -16 29 -13 0 -12 -17 5 -64 17 -48 6 -80 -15 -41 -15 27 -36
35 -26 9 3 -9 6 -22 6 -29 0 -18 49 -75 64 -75 7 0 22 25 35 55 l23 54 -22 68
c-12 37 -24 74 -26 81 -8 27 -20 10 -16 -23z"/>
<path d="M251 10556 c-16 -19 -10 -178 7 -184 9 -3 12 17 12 75 0 48 5 84 12
91 7 7 43 12 91 12 49 0 76 4 72 10 -10 16 -180 13 -194 -4z"/>
<path d="M1244 10468 c-10 -16 -7 -399 3 -409 6 -6 28 -9 49 -7 l39 3 3 207 2
208 -22 5 c-30 7 -68 3 -74 -7z"/>
<path d="M1910 10458 c-44 -47 -8 -138 55 -138 15 0 36 -5 47 -11 27 -14 47 3
29 25 -10 11 -10 20 -1 36 13 25 6 67 -17 93 -23 25 -87 23 -113 -5z m88 -52
c6 -48 -42 -64 -58 -20 -13 32 3 56 34 52 15 -2 22 -12 24 -32z"/>
<path d="M2077 10473 c-4 -3 -7 -34 -7 -68 0 -74 18 -100 44 -63 l16 22 16
-22 c24 -35 46 -29 39 12 -4 20 -2 36 4 40 17 11 13 51 -7 69 -18 17 -92 24
-105 10z m73 -48 c0 -8 -7 -15 -15 -15 -8 0 -15 7 -15 15 0 8 7 15 15 15 8 0
15 -7 15 -15z"/>
<path d="M2297 10462 c-26 -28 -22 -93 6 -120 37 -35 107 -25 107 14 0 9 -11
11 -33 7 -40 -6 -62 15 -53 51 5 20 13 25 44 28 25 2 37 8 37 18 0 24 -86 26
-108 2z"/>
<path d="M2638 10462 c-4 -12 -18 -23 -36 -27 -33 -7 -48 -40 -36 -78 9 -29
22 -37 66 -37 44 0 51 15 46 100 -2 41 -7 56 -19 58 -10 2 -19 -5 -21 -16z m0
-85 c2 -12 -3 -17 -17 -17 -12 0 -21 6 -21 13 0 31 32 34 38 4z"/>
<path d="M2902 10468 c-16 -16 -16 -53 1 -66 6 -5 23 -12 37 -14 38 -5 30 -23
-12 -26 -69 -6 -39 -41 34 -42 33 0 63 39 53 70 -3 11 -10 20 -15 20 -5 0 -21
5 -37 12 l-28 11 30 6 c17 4 30 13 30 21 0 19 -75 26 -93 8z"/>
<path d="M3477 10461 c-3 -12 -18 -23 -38 -29 -30 -7 -34 -12 -37 -47 -4 -47
15 -65 69 -65 42 0 47 8 43 65 -1 22 -3 52 -3 68 -1 31 -26 37 -34 8z m-7 -81
c0 -11 -7 -20 -15 -20 -8 0 -15 9 -15 20 0 11 7 20 15 20 8 0 15 -9 15 -20z"/>
<path d="M327 10463 c-4 -3 -7 -95 -7 -204 0 -170 2 -198 16 -203 9 -3 65 -6
125 -6 106 0 109 1 115 24 3 13 4 35 2 47 -3 22 -8 24 -75 27 -81 3 -84 7 -82
87 1 22 1 84 0 138 l-1 97 -43 0 c-24 0 -47 -3 -50 -7z"/>
<path d="M477 10435 c-10 -58 -3 -64 76 -67 l72 -3 5 -75 5 -75 48 -3 48 -3
-3 128 -3 128 -121 3 -121 3 -6 -36z"/>
<path d="M784 10456 c-3 -8 -4 -29 -2 -48 l3 -33 148 -3 148 -3 -3 -27 -3 -27
-148 -3 -148 -3 3 -127 3 -127 40 0 40 0 3 65 c2 36 7 69 13 75 6 6 37 -18 87
-68 l77 -77 63 0 c46 0 62 4 62 14 0 7 -30 41 -66 74 -36 34 -63 66 -59 72 3
5 37 10 76 10 38 0 69 3 70 8 5 49 6 184 2 210 l-5 32 -199 0 c-162 0 -201 -3
-205 -14z"/>
<path d="M1384 10457 c-2 -7 -3 -65 -2 -128 l3 -114 133 -3 c75 -1 133 -7 134
-12 5 -34 3 -35 -132 -40 l-135 -5 -3 -47 c-4 -60 -8 -59 228 -56 l185 3 3
128 c3 126 2 127 -20 128 -13 0 -71 0 -129 -1 -111 -1 -137 8 -123 44 5 14 26
16 140 16 l134 0 0 50 0 50 -205 0 c-160 0 -207 -3 -211 -13z"/>
<path d="M3051 10451 c-22 -22 -28 -51 -11 -51 6 0 10 -14 10 -30 0 -36 41
-63 63 -41 9 10 8 15 -5 25 -20 14 -24 41 -8 51 14 9 12 16 -9 44 l-18 24 -22
-22z"/>
<path d="M2742 10432 c-12 -2 -30 -15 -39 -28 -15 -24 -15 -27 4 -52 24 -33
85 -39 91 -9 3 13 -4 17 -25 18 l-28 1 30 7 c56 12 24 73 -33 63z"/>
<path d="M3156 10428 c-2 -7 -9 -28 -15 -45 -14 -45 7 -65 62 -61 34 2 42 7
48 28 6 22 7 23 8 4 1 -22 23 -38 35 -27 3 4 6 16 6 28 0 30 25 52 34 29 3 -8
6 -27 6 -40 0 -33 28 -31 41 3 7 19 7 35 -2 54 -12 30 -27 36 -76 31 -24 -3
-33 -10 -38 -30 -7 -26 -7 -26 -15 -6 -10 27 -18 32 -59 39 -21 3 -33 1 -35
-7z"/>
<path d="M3580 10432 c-8 -1 -23 -20 -33 -40 -17 -36 -17 -37 4 -54 44 -37
106 -17 103 32 -3 47 -33 72 -74 62z"/>
<path d="M3682 10431 c-9 -5 -12 -25 -10 -57 3 -41 6 -49 23 -49 15 0 21 8 23
30 2 17 11 38 20 48 14 16 14 19 2 27 -19 12 -41 12 -58 1z"/>
<path d="M2436 10415 c-23 -23 -20 -61 6 -79 32 -23 61 -20 89 10 22 23 23 27
8 52 -18 33 -77 43 -103 17z m64 -41 c0 -8 -7 -14 -15 -14 -15 0 -21 21 -9 33
10 9 24 -2 24 -19z"/>
<path d="M493 10312 c-13 -9 -23 -75 -14 -91 5 -8 25 -11 52 -9 l44 3 3 43 c2
28 -1 44 -10 47 -27 9 -65 13 -75 7z m57 -46 c0 -16 -19 -25 -37 -18 -23 8
-14 32 12 32 15 0 25 -6 25 -14z"/>
<path d="M3754 10205 c-9 -23 10 -40 25 -22 9 11 8 17 -4 27 -12 10 -16 9 -21
-5z"/>
<path d="M1897 10203 c-12 -11 -8 -138 4 -150 14 -14 39 -6 39 13 0 8 17 22
38 31 30 15 38 24 40 51 5 47 -12 62 -68 62 -25 0 -50 -3 -53 -7z m83 -51 c0
-14 -11 -21 -26 -15 -8 3 -11 9 -8 14 7 11 34 12 34 1z"/>
<path d="M2386 10194 c-11 -29 -7 -132 6 -140 21 -13 78 -8 96 9 15 14 19 14
39 -2 16 -14 31 -17 60 -12 34 6 38 10 41 38 5 52 -13 75 -56 71 -30 -2 -38
-8 -40 -25 -4 -29 -24 -29 -37 -1 -6 12 -21 25 -35 28 -14 3 -29 16 -35 28
-11 26 -30 29 -39 6z m72 -87 c2 -10 -3 -17 -12 -17 -10 0 -16 9 -16 21 0 24
23 21 28 -4z"/>
<path d="M3337 10203 c-4 -3 -7 -39 -7 -80 0 -66 2 -73 20 -73 16 0 20 7 20
30 0 17 4 30 10 30 5 0 19 -13 32 -30 42 -58 67 -29 58 67 -4 43 -9 58 -20 58
-8 0 -16 -11 -18 -25 -6 -42 -18 -43 -42 -6 -21 34 -39 44 -53 29z"/>
<path d="M4215 10188 c-3 -13 -5 -49 -3 -79 2 -40 7 -54 18 -54 12 0 15 15 15
74 0 49 -4 76 -12 78 -7 3 -15 -6 -18 -19z"/>
<path d="M3037 10161 c-10 -4 -18 -10 -17 -14 0 -4 -7 -21 -16 -37 -24 -40 -7
-60 51 -60 36 0 43 3 47 23 11 61 -21 104 -65 88z"/>
<path d="M3643 10158 c-27 -13 -30 -36 -5 -54 10 -8 12 -13 5 -14 -25 0 -14
-38 13 -44 44 -11 97 38 64 59 -5 3 -10 17 -10 31 0 13 -4 24 -9 24 -5 0 -15
2 -23 4 -7 3 -23 0 -35 -6z"/>
<path d="M634 10147 c-3 -8 -4 -54 -2 -103 l3 -89 48 -3 47 -3 0 105 0 106
-45 0 c-29 0 -48 -5 -51 -13z"/>
<path d="M2043 10146 c-14 -16 -10 -60 7 -81 13 -15 75 -21 83 -7 16 26 17 71
2 86 -20 19 -75 21 -92 2z"/>
<path d="M2177 10153 c-4 -3 -7 -28 -7 -55 0 -41 3 -48 20 -48 16 0 20 7 20
35 0 24 5 35 15 35 8 0 17 -14 21 -35 8 -43 34 -48 34 -6 0 48 30 56 32 10 4
-63 48 -54 48 10 0 20 -5 42 -12 49 -13 13 -159 17 -171 5z"/>
<path d="M2647 10154 c-3 -4 0 -18 7 -33 20 -38 23 -66 8 -84 -15 -18 -8 -37
12 -37 7 0 20 8 28 18 14 17 58 117 58 133 0 15 -22 10 -43 -8 -18 -17 -19
-17 -28 0 -10 17 -30 22 -42 11z"/>
<path d="M2790 10137 c0 -13 -4 -27 -9 -32 -5 -6 -5 -20 0 -33 8 -20 14 -23
56 -20 45 3 48 5 51 32 6 49 -15 76 -60 76 -33 0 -38 -3 -38 -23z"/>
<path d="M2904 10136 c-10 -41 -1 -81 20 -84 23 -5 36 14 36 51 0 17 5 27 15
27 8 0 15 7 15 15 0 11 -11 15 -40 15 -33 0 -41 -4 -46 -24z"/>
<path d="M3140 10105 c0 -41 4 -55 14 -55 9 0 16 12 18 33 4 40 21 38 28 -3 3
-17 8 -31 13 -30 4 0 12 0 17 0 6 0 10 22 10 49 0 54 -8 61 -66 61 l-34 0 0
-55z"/>
<path d="M3510 10142 c0 -10 -5 -23 -11 -29 -6 -6 -9 -21 -7 -34 3 -21 9 -24
56 -27 l52 -3 0 49 c0 54 -8 62 -61 62 -21 0 -29 -5 -29 -18z"/>
<path d="M3746 10134 c-9 -36 2 -84 20 -84 10 0 14 14 14 55 0 40 -4 55 -14
55 -8 0 -17 -12 -20 -26z"/>
<path d="M3826 10144 c-29 -28 -17 -80 21 -95 49 -19 94 31 73 82 -10 24 -18
29 -45 29 -19 0 -41 -7 -49 -16z m54 -39 c0 -8 -7 -15 -15 -15 -8 0 -15 7 -15
15 0 8 7 15 15 15 8 0 15 -7 15 -15z"/>
<path d="M3952 10148 c-15 -15 -16 -80 -1 -95 20 -20 39 -3 39 34 0 44 24 40
28 -5 2 -23 8 -32 22 -32 10 0 21 8 25 18 6 16 7 16 16 0 13 -24 94 -25 103
-2 11 28 6 71 -8 83 -17 14 -81 11 -82 -4 -3 -37 -34 -61 -34 -27 0 28 -20 42
-60 42 -20 0 -41 -5 -48 -12z"/>
<path d="M1838 10063 l-3 -78 -83 -5 c-113 -7 -106 -25 10 -25 87 0 92 1 98
23 8 33 0 162 -10 162 -5 0 -10 -35 -12 -77z"/>
<path d="M6707 10123 c-4 -3 -7 -58 -7 -120 0 -113 0 -114 23 -111 22 3 22 2
26 96 2 36 17 26 63 -38 31 -45 48 -60 63 -58 18 3 20 11 23 109 2 84 0 109
-12 118 -25 21 -36 3 -36 -60 0 -32 -4 -59 -9 -59 -5 0 -28 26 -52 58 -52 70
-66 81 -82 65z"/>
<path d="M6591 10082 c20 -31 4 -69 -31 -74 -37 -6 -40 -3 -40 38 0 34 -27 55
-42 32 -4 -7 -7 -51 -6 -98 3 -77 5 -85 23 -85 15 0 21 8 23 30 4 35 16 45 57
45 17 0 41 7 53 16 19 13 23 23 20 62 -3 45 -4 47 -36 50 -30 3 -32 2 -21 -16z"/>
<path d="M0 6868 l0 -1281 22 19 c12 10 92 87 178 170 85 83 190 184 234 225
43 41 93 88 110 104 39 39 171 162 309 289 l108 100 -5 365 -6 366 -467 462
c-258 255 -471 463 -475 463 -5 0 -8 -577 -8 -1282z"/>
<path d="M1997 8104 c-4 -4 -7 -61 -7 -126 0 -111 1 -118 20 -118 18 0 20 7
20 76 0 42 4 74 9 72 5 -1 35 -36 66 -76 81 -103 89 -98 87 53 -1 99 -4 121
-17 123 -8 2 -15 0 -16 -5 0 -4 -1 -39 -1 -76 -1 -37 -5 -70 -9 -73 -5 -2 -36
30 -69 73 -64 81 -72 88 -83 77z"/>
<path d="M2257 8104 c-4 -4 -7 -61 -7 -126 0 -108 2 -119 18 -116 14 3 17 14
17 67 0 35 5 66 10 68 6 1 23 -19 38 -47 44 -78 43 -78 102 17 l30 48 5 -75
c4 -61 8 -75 23 -78 16 -3 17 6 15 120 -4 151 -13 156 -77 46 -25 -43 -49 -78
-53 -78 -4 0 -17 17 -28 38 -59 110 -77 132 -93 116z"/>
<path d="M2569 8106 c-2 -2 -3 -59 -1 -126 3 -105 5 -121 19 -118 9 2 16 6 15
11 -1 4 -2 59 -2 122 0 89 -3 115 -13 115 -8 0 -16 -2 -18 -4z"/>
<path d="M2668 8103 c-2 -5 -2 -61 0 -125 l3 -118 65 0 c68 0 94 8 132 43 17
16 22 31 22 74 0 64 -19 98 -68 118 -36 16 -148 21 -154 8z m159 -55 c32 -30
32 -96 1 -126 -27 -24 -69 -36 -100 -29 -22 6 -23 11 -21 89 1 46 2 84 2 86 1
1 22 2 48 2 34 0 53 -6 70 -22z"/>
<path d="M3177 8104 c-4 -4 -7 -61 -7 -126 0 -112 1 -118 20 -118 20 0 20 5
18 122 -3 113 -10 142 -31 122z"/>
<path d="M3264 8097 c-2 -7 -3 -62 -2 -123 l3 -109 64 -3 c71 -3 108 8 141 43
50 53 28 154 -40 187 -43 21 -158 24 -166 5z m151 -39 c37 -17 52 -75 31 -116
-18 -35 -77 -59 -120 -48 -25 6 -26 9 -26 85 0 43 3 81 7 84 10 11 80 8 108
-5z"/>
<path d="M3505 8101 c-9 -16 3 -31 25 -31 18 0 20 -9 22 -102 3 -89 5 -103 21
-106 16 -3 17 6 15 120 l-3 123 -37 3 c-20 2 -39 -2 -43 -7z"/>
<path d="M3665 8098 c-41 -23 -38 -61 3 -39 42 22 92 8 92 -27 0 -8 -29 -44
-65 -81 -36 -37 -65 -73 -65 -79 0 -15 176 -17 185 -2 4 7 12 7 25 0 29 -16
93 -11 116 8 39 31 45 55 24 90 -11 18 -27 32 -35 32 -22 0 -19 14 11 49 41
49 28 62 -58 59 -57 -2 -73 -6 -73 -18 0 -11 13 -16 48 -18 52 -3 56 -9 27
-40 -28 -30 -25 -45 13 -62 65 -30 17 -93 -52 -69 -24 9 -35 9 -44 0 -12 -12
-99 -15 -110 -5 -4 4 16 31 43 61 28 30 50 61 50 68 0 63 -78 105 -135 73z"/>
<path d="M4082 8047 c-93 -119 -93 -137 -2 -137 57 0 60 -1 60 -25 0 -18 5
-25 20 -25 15 0 20 7 20 25 0 18 5 25 20 25 11 0 20 -6 20 -14 0 -16 50 -36
87 -36 42 0 81 27 88 61 12 55 -28 99 -90 99 -20 0 -25 5 -25 24 0 23 4 25 53
28 38 2 52 7 52 18 0 12 -14 15 -70 15 l-70 0 0 -60 0 -60 49 -5 c52 -5 74
-25 63 -54 -16 -40 -119 -36 -133 6 -3 10 -12 18 -20 18 -8 0 -19 11 -24 25
-12 31 -38 33 -42 3 -2 -18 -11 -24 -35 -26 -18 -2 -33 1 -33 7 0 5 20 39 45
74 40 58 46 77 24 77 -4 0 -29 -28 -57 -63z"/>
<path d="M4484 8091 c-46 -28 -64 -59 -64 -111 0 -63 29 -107 75 -116 70 -13
125 37 110 99 -13 49 -68 68 -127 42 -24 -10 -23 6 3 39 17 21 29 26 65 26 48
0 63 23 22 34 -37 9 -51 7 -84 -13z m78 -136 c14 -31 -3 -55 -41 -55 -30 0
-51 16 -51 40 0 45 73 57 92 15z"/>
<path d="M4615 8100 c-6 -9 0 -59 9 -67 8 -8 26 7 26 23 0 10 13 14 50 14 28
0 50 -2 50 -4 0 -6 -58 -138 -70 -158 -16 -28 -12 -48 9 -48 12 0 23 9 27 23
4 12 18 46 31 76 36 78 54 132 47 142 -7 12 -171 12 -179 -1z"/>
<path d="M4851 8095 c-35 -19 -43 -39 -29 -70 9 -21 9 -31 0 -46 -49 -78 48
-151 138 -104 37 19 47 54 27 94 -12 25 -13 37 -4 62 11 29 10 33 -18 55 -33
26 -76 30 -114 9z m89 -40 c17 -21 4 -35 -34 -35 -39 0 -62 20 -44 38 17 17
63 15 78 -3z m4 -88 c23 -17 14 -52 -16 -68 -29 -16 -78 6 -78 35 0 12 5 27
12 34 16 16 60 15 82 -1z"/>
<path d="M5048 8089 c-21 -15 -28 -29 -28 -53 0 -50 28 -70 90 -64 51 5 51 5
45 -21 -10 -40 -30 -55 -76 -55 -48 -1 -64 -22 -25 -32 77 -19 137 26 144 108
5 68 -9 102 -49 122 -42 21 -68 20 -101 -5z m97 -54 c0 -27 -4 -30 -35 -33
-42 -4 -65 20 -49 50 8 15 19 18 47 16 34 -3 37 -6 37 -33z"/>
<path d="M3000 8010 c0 -16 5 -21 23 -18 12 2 22 10 22 18 0 8 -10 16 -22 18
-18 3 -23 -2 -23 -18z"/>
<path d="M3002 7898 c-8 -8 -9 -15 -1 -25 22 -26 55 -10 43 21 -7 19 -25 21
-42 4z"/>
<path d="M3357 7628 c-21 -57 -38 -107 -38 -113 -1 -21 21 -15 30 8 18 47 84
52 109 7 27 -48 54 -38 32 12 -5 13 -23 60 -40 106 -17 45 -37 82 -44 82 -6 0
-29 -46 -49 -102z m78 -45 c-2 -7 -16 -13 -31 -13 -25 0 -26 2 -21 36 3 20 11
42 18 50 10 13 14 9 26 -23 7 -21 11 -44 8 -50z"/>
<path d="M3561 7711 c-18 -18 -21 -33 -21 -101 0 -67 3 -83 20 -100 23 -23 58
-26 84 -7 24 17 38 96 27 153 -10 54 -17 62 -58 70 -24 5 -36 1 -52 -15z m73
-33 c19 -26 21 -82 5 -127 -8 -23 -17 -31 -35 -31 -32 0 -45 35 -40 107 5 73
38 97 70 51z"/>
<path d="M3765 7707 c-39 -21 -40 -22 -13 -25 27 -3 27 -4 30 -89 2 -58 7 -88
16 -91 9 -3 12 24 12 112 0 64 -1 116 -2 116 -2 -1 -21 -11 -43 -23z"/>
<path d="M2791 7108 c-56 -27 -81 -68 -81 -133 0 -62 25 -106 73 -128 59 -28
88 -30 140 -8 50 22 56 31 32 51 -12 10 -21 10 -41 1 -47 -21 -90 -14 -119 21
-23 27 -26 39 -22 77 3 31 12 50 28 62 27 21 90 25 118 7 15 -9 23 -9 35 1 24
20 20 29 -26 51 -52 25 -81 25 -137 -2z"/>
<path d="M3065 7105 c-53 -31 -75 -68 -75 -130 0 -66 25 -106 84 -133 57 -27
79 -27 136 1 128 63 117 230 -19 276 -49 16 -81 13 -126 -14z m132 -50 c12 -8
27 -31 33 -51 32 -97 -79 -167 -151 -95 -42 43 -37 112 10 148 22 17 82 16
108 -2z"/>
<path d="M3338 7068 c-6 -123 2 -236 18 -242 35 -13 44 4 44 83 0 43 3 80 6
84 6 6 52 -48 118 -136 20 -27 34 -37 49 -35 21 3 22 8 25 156 l3 153 -28 -3
c-28 -3 -28 -4 -31 -85 -2 -57 -7 -83 -15 -82 -7 0 -39 37 -73 82 -45 61 -67
83 -87 85 -25 3 -26 2 -29 -60z"/>
<path d="M3634 7115 c-12 -30 4 -45 45 -45 l40 0 3 -122 3 -123 25 0 25 0 3
122 3 122 42 3 c38 3 42 6 45 31 l3 27 -116 0 c-94 0 -117 -3 -121 -15z"/>
<path d="M3961 7107 c-56 -29 -79 -67 -80 -131 -1 -63 28 -108 86 -136 49 -23
67 -24 114 -9 139 47 146 228 10 285 -46 19 -79 17 -130 -9z m146 -76 c13 -19
23 -44 23 -56 0 -12 -10 -37 -23 -56 -19 -28 -30 -35 -65 -37 -36 -3 -47 1
-72 27 -22 22 -30 39 -30 66 0 27 8 44 30 66 25 26 36 30 72 27 35 -2 46 -9
65 -37z"/>
<path d="M4237 7124 c-4 -4 -7 -72 -7 -150 l0 -144 24 -6 c38 -9 46 2 46 67
l0 60 63 -3 62 -3 5 -60 c5 -56 7 -60 30 -60 l25 0 0 150 0 150 -25 0 c-23 0
-25 -4 -30 -60 l-5 -60 -62 -3 c-46 -2 -63 1 -64 10 0 7 -1 36 -2 63 -2 46 -4
50 -27 53 -14 2 -29 0 -33 -4z"/>
<path d="M1587 6603 c-4 -3 -7 -206 -7 -450 l0 -443 415 -1 c228 -1 422 -1
430 -1 60 0 55 -43 55 436 0 239 -3 441 -6 450 -5 14 -54 16 -443 16 -241 0
-441 -3 -444 -7z m768 -448 l0 -330 -330 0 -330 0 -3 320 c-1 176 0 326 3 333
3 10 74 12 332 10 l328 -3 0 -330z"/>
<path d="M1800 6155 l0 -225 223 2 222 3 3 223 2 222 -225 0 -225 0 0 -225z"/>
<path d="M2704 6597 c-3 -8 -4 -32 -2 -53 l3 -39 53 -3 53 -3 -3 53 -3 53 -48
3 c-34 2 -49 -1 -53 -11z"/>
<path d="M2942 6602 c-9 -7 -12 -47 -10 -168 l3 -159 52 -3 52 -3 3 -52 3 -52
110 -5 110 -5 3 -57 3 -58 42 0 c57 0 65 8 69 64 3 46 5 50 32 53 17 2 40 2
53 -2 22 -5 23 -9 23 -105 0 -105 -8 -124 -51 -113 -10 3 -30 2 -44 -1 -25 -6
-25 -7 -25 -117 l0 -110 -47 3 -48 3 -5 160 -5 160 -57 3 -58 3 0 -166 0 -165
-55 0 -55 0 0 165 0 165 -55 0 -55 0 -1 -112 c0 -62 -1 -135 -2 -163 l-2 -50
-55 -5 -55 -5 -3 -52 -3 -52 -107 -3 -107 -3 -3 -52 -3 -52 45 -6 c24 -4 124
-5 223 -3 161 4 185 7 255 31 139 48 317 171 379 261 13 20 28 36 32 36 5 0
20 -13 34 -30 13 -16 29 -30 34 -30 5 0 10 91 11 203 l3 202 165 0 165 0 3
-52 3 -53 48 0 c26 0 52 -5 59 -12 7 -7 12 -34 12 -60 l0 -48 55 0 55 0 0 -50
0 -50 -48 0 c-26 0 -53 -5 -60 -12 -7 -7 -12 -33 -12 -59 l0 -48 -52 -3 -53
-3 -3 -52 -3 -53 -55 0 -54 0 0 109 0 110 53 3 52 3 3 53 3 52 -43 0 c-58 0
-66 8 -70 60 l-3 45 -51 3 -52 3 -7 -47 c-3 -25 -3 -50 2 -55 4 -4 31 -9 58
-11 l50 -3 0 -45 0 -45 -45 -3 c-24 -2 -50 -8 -57 -14 -14 -11 -18 -124 -7
-166 7 -23 69 -62 99 -62 8 0 15 -4 15 -10 0 -12 95 -61 104 -53 3 4 6 19 6
35 0 27 1 28 55 28 l55 0 0 -49 c0 -56 7 -61 76 -61 l44 0 0 54 0 55 53 3 52
3 0 220 0 220 -52 3 -53 3 0 170 0 169 28 1 c15 1 34 1 43 0 25 -3 41 24 37
66 l-3 38 -52 3 -53 3 0 -55 0 -56 -54 0 c-60 0 -66 6 -66 71 l0 39 -162 -2
-163 -3 0 -50 0 -50 40 -1 c22 -1 46 -2 53 -3 8 -1 12 -19 12 -56 l0 -55 -170
0 -169 0 -3 108 -3 107 -52 3 -52 3 -3 -53 -3 -53 -112 -3 -112 -3 -3 53 -3
53 -52 3 -53 3 0 44 c0 65 -7 75 -49 75 -20 0 -42 -4 -49 -8z m208 -277 l0
-55 -55 0 -55 0 0 48 c0 27 3 52 7 55 3 4 28 7 55 7 l48 0 0 -55z m228 -112
l3 -53 -55 0 c-31 0 -56 3 -57 8 -2 10 -2 64 0 85 1 15 9 18 54 15 l52 -3 3
-52z m-348 -563 l0 -50 -44 0 c-48 0 -56 9 -56 66 l0 34 50 0 50 0 0 -50z
m230 0 l0 -50 -50 0 c-49 0 -50 1 -51 30 -1 17 -2 36 -3 43 -4 23 5 27 55 27
l49 0 0 -50z"/>
<path d="M3277 6604 c-4 -4 -7 -29 -7 -56 l0 -48 51 0 50 0 -3 53 -3 52 -40 3
c-23 2 -44 0 -48 -4z"/>
<path d="M4067 6604 c-4 -4 -7 -32 -7 -61 l0 -54 53 3 52 3 0 55 0 55 -45 3
c-25 2 -49 0 -53 -4z"/>
<path d="M4397 6603 c-4 -3 -7 -28 -7 -55 l0 -48 60 0 60 0 0 43 c0 24 -5 48
-12 55 -13 13 -90 17 -101 5z"/>
<path d="M4736 6602 c-6 -11 -9 -882 -3 -888 6 -7 878 -5 888 2 5 3 9 202 9
444 0 390 -2 439 -16 444 -24 9 -872 7 -878 -2z m772 -444 l-3 -333 -330 0
-330 0 -3 320 c-1 176 0 325 3 332 3 10 78 13 335 13 l330 0 -2 -332z"/>
<path d="M4956 6373 c-8 -8 -7 -408 1 -429 4 -11 46 -14 224 -14 l219 0 0 225
0 225 -218 0 c-120 0 -222 -3 -226 -7z"/>
<path d="M4510 6325 l0 -166 53 3 52 3 0 160 0 160 -52 3 -53 3 0 -166z"/>
<path d="M2594 6367 c-2 -7 -3 -56 -2 -108 l3 -94 50 0 50 0 0 105 0 105 -48
3 c-33 2 -49 -1 -53 -11z"/>
<path d="M4280 6270 l0 -110 49 0 c49 0 50 1 53 33 2 17 2 67 0 110 l-4 77
-49 0 -49 0 0 -110z"/>
<path d="M2820 6100 l0 -51 53 3 52 3 0 45 0 45 -52 3 -53 3 0 -51z"/>
<path d="M2702 5988 l3 -53 53 -3 c57 -3 55 -6 55 73 0 8 -1 20 -2 25 0 6 -26
10 -57 10 l-55 0 3 -52z"/>
<path d="M4510 5985 l0 -56 53 3 52 3 0 50 0 50 -52 3 -53 3 0 -56z"/>
<path d="M2597 5923 c-10 -9 -9 -93 1 -94 98 -10 102 -8 102 52 l0 49 -48 0
c-27 0 -52 -3 -55 -7z"/>
<path d="M4390 5882 c0 -45 2 -50 26 -56 14 -4 41 -4 60 0 35 6 35 7 32 53
l-3 46 -57 3 -58 3 0 -49z"/>
<path d="M4510 5651 l0 -50 -62 -3 -63 -3 0 -55 0 -55 49 3 c60 3 74 -8 74
-56 0 -20 0 -43 1 -49 1 -10 29 -13 106 -13 l105 0 0 -54 0 -55 -52 -3 -53 -3
-3 -52 -3 -53 -103 0 c-66 0 -106 -4 -114 -12 -8 -8 -12 -48 -12 -114 l0 -103
-52 -3 c-45 -3 -53 -6 -53 -23 0 -18 7 -20 98 -20 72 0 100 -4 106 -14 19 -30
31 2 31 84 l0 84 53 3 52 3 3 53 3 52 103 0 c71 0 107 4 114 13 8 10 8 205 -1
214 -2 1 -26 4 -54 5 l-50 3 -7 65 c-3 36 -6 84 -6 107 l0 42 -47 3 -48 3 -5
50 -5 50 -52 3 -53 3 0 -50z"/>
<path d="M1792 5592 l-103 -3 3 -52 3 -52 40 -1 c22 -1 45 -2 52 -3 9 -1 13
-33 15 -108 l3 -108 110 0 110 0 0 50 0 50 -55 5 -55 5 -3 105 c-1 58 -6 107
-10 110 -4 3 -53 4 -110 2z"/>
<path d="M2034 5591 c-2 -2 -4 -51 -4 -108 0 -110 -3 -105 55 -105 58 0 55 -5
55 106 l0 104 -51 4 c-28 1 -53 1 -55 -1z"/>
<path d="M2378 5592 c-14 -3 -18 -14 -18 -52 l0 -49 45 -7 c66 -9 75 -3 75 56
0 45 -2 50 -22 51 -13 0 -32 2 -43 3 -11 1 -28 0 -37 -2z"/>
<path d="M5233 5593 l-52 -4 -3 -52 -3 -52 -55 -5 -55 -5 -3 -162 c-1 -90 1
-163 5 -164 5 0 27 -2 49 -5 50 -7 59 3 59 66 l0 45 58 3 57 3 0 169 c0 94 -1
169 -2 168 -2 -1 -26 -3 -55 -5z"/>
<path d="M4285 5480 c-4 -6 12 -10 42 -10 35 0 44 3 33 10 -20 13 -67 13 -75
0z"/>
<path d="M1580 5432 c0 -27 2 -51 4 -53 2 -2 27 -2 56 -1 l51 4 -3 46 -3 47
-52 3 -53 3 0 -49z"/>
<path d="M4847 5473 c-4 -3 -7 -26 -7 -50 l0 -44 57 3 58 3 -2 40 c0 22 -2 43
-2 48 -1 9 -95 10 -104 0z"/>
<path d="M5911 5451 c-40 -21 -81 -85 -81 -126 0 -41 18 -101 33 -114 10 -8
19 -7 32 3 19 13 19 15 1 54 -20 45 -16 74 17 110 25 27 91 30 124 7 30 -21
40 -78 20 -120 -15 -31 -14 -34 2 -49 16 -15 19 -15 34 1 8 10 21 39 27 65 11
43 10 52 -11 95 -42 85 -122 115 -198 74z"/>
<path d="M1100 5431 c0 -29 2 -30 53 -33 l52 -3 3 -62 3 -62 -53 -3 c-52 -3
-53 -4 -53 -33 l0 -30 135 0 135 0 0 30 c0 29 -2 30 -55 35 l-55 5 0 60 0 60
58 3 c56 3 57 4 57 32 l0 30 -140 0 -140 0 0 -29z"/>
<path d="M2330 5371 l-75 -6 -5 -110 -5 -110 -52 -3 -53 -3 0 -50 c0 -48 1
-49 29 -49 16 0 41 -4 55 -10 23 -8 26 -15 26 -60 l0 -50 225 0 226 0 -3 113
-3 112 -50 0 -50 0 -5 -50 -5 -50 -113 -3 -113 -3 3 48 3 48 55 5 55 5 3 109
c3 118 -1 127 -48 124 -14 -1 -59 -4 -100 -7z"/>
<path d="M1697 5253 c-4 -3 -7 -28 -7 -55 0 -48 0 -48 35 -49 19 -1 43 -2 53
-3 14 -1 18 9 20 57 l3 57 -49 0 c-27 0 -52 -3 -55 -7z"/>
<path d="M2034 5247 c-3 -8 -4 -34 -2 -58 3 -42 4 -44 37 -45 66 -3 72 3 69
60 l-3 51 -48 3 c-34 2 -49 -1 -53 -11z"/>
<path d="M5910 5182 c-51 -25 -82 -84 -77 -148 14 -195 289 -190 289 6 0 122
-107 195 -212 142z m138 -78 c32 -37 30 -88 -7 -125 -68 -67 -178 -3 -152 89
5 17 16 38 24 46 33 33 101 28 135 -10z"/>
<path d="M3380 5170 c-22 -22 -98 -28 -117 -9 -8 8 -21 8 -45 1 -18 -6 -59
-16 -92 -21 -32 -6 -65 -16 -72 -22 -10 -9 -14 -42 -14 -130 l0 -119 38 0 c21
0 62 -7 92 -16 69 -21 149 -98 174 -169 39 -110 37 -108 92 -109 l49 -1 3 -52
3 -53 52 -1 c29 0 60 -2 70 -4 9 -2 17 1 17 7 0 5 14 23 32 40 94 88 207 91
303 7 24 -22 35 -26 35 -16 0 18 -65 72 -104 87 -49 18 -134 12 -179 -12 -29
-17 -41 -20 -44 -10 -3 6 -15 12 -28 12 -29 0 -36 11 -42 59 -7 63 -4 61 -118
61 l-105 0 2 163 3 162 53 3 52 3 0 -55 0 -55 53 -3 52 -3 3 -52 3 -53 110 0
c98 0 115 3 153 24 24 13 51 26 61 27 16 4 18 14 16 86 l-2 83 168 2 168 3 3
33 c4 40 -12 42 -30 2 -13 -30 -23 -37 -30 -22 -6 17 -236 87 -350 106 -41 8
-39 11 -42 -64 l-1 -45 -52 -3 -53 -3 0 65 c0 36 -3 67 -7 69 -5 3 -30 8 -56
12 -44 7 -49 6 -54 -14 -5 -18 -13 -21 -55 -21 -41 0 -51 3 -55 20 -4 16 -14
20 -49 20 -31 0 -50 -6 -64 -20z m-122 -192 l-3 -53 -47 -3 c-52 -3 -48 -8
-53 63 -3 38 6 45 57 45 l49 0 -3 -52z m447 -3 l0 -50 -47 -3 -48 -3 0 56 0
56 48 -3 47 -3 0 -50z"/>
<path d="M1200 5152 c-64 -17 -103 -70 -103 -144 -1 -97 54 -158 143 -158 60
0 106 29 130 83 25 54 25 87 0 140 -30 63 -102 96 -170 79z m75 -66 c39 -17
55 -42 55 -89 0 -45 -26 -76 -70 -83 -52 -8 -87 9 -105 53 -15 35 -15 41 -1
71 10 19 30 39 49 47 40 18 32 17 72 1z"/>
<path d="M1800 5090 l0 -50 55 0 55 0 0 50 0 50 -55 0 -55 0 0 -50z"/>
<path d="M5180 5090 l0 -50 55 0 54 0 3 -112 3 -113 53 -3 52 -3 0 55 0 56 55
0 55 0 0 48 c0 26 5 53 12 60 7 7 34 12 61 12 l48 0 -3 48 -3 47 -222 3 -223
2 0 -50z"/>
<path d="M2813 5064 c-9 -25 11 -35 63 -32 43 3 49 6 52 27 3 21 1 23 -20 17
-62 -17 -68 -18 -68 -7 0 17 -20 13 -27 -5z"/>
<path d="M4733 5033 c-8 -3 -13 -25 -13 -58 l0 -54 -52 -3 -53 -3 -3 -50 c-2
-27 -7 -52 -12 -55 -5 -3 -5 -48 -1 -100 6 -82 8 -90 15 -57 8 37 9 37 57 37
l49 0 0 -50 0 -50 -49 0 c-34 0 -51 -4 -55 -15 -9 -25 10 -61 46 -86 18 -13
38 -28 43 -34 18 -18 35 -65 35 -95 0 -39 17 -47 42 -20 13 14 29 20 46 18 26
-3 27 -5 24 -58 -1 -30 -6 -154 -10 -275 l-7 -220 -50 0 -50 0 -5 50 -5 50
-45 3 c-68 4 -74 8 -56 34 20 29 20 82 0 155 -9 32 -20 78 -24 103 -12 76 -62
275 -70 280 -4 3 -10 18 -14 33 -4 16 -12 27 -19 24 -18 -6 -21 -39 -4 -51 8
-6 22 -49 31 -96 9 -47 21 -99 27 -116 5 -17 9 -42 9 -57 0 -14 5 -29 11 -32
5 -4 9 -17 7 -28 -1 -12 2 -36 8 -52 24 -64 34 -102 34 -123 0 -36 -15 -42
-258 -92 -157 -32 -160 -30 -178 112 -9 77 -24 157 -39 223 -9 39 -19 90 -22
113 -3 24 -12 46 -19 49 -17 6 -60 -37 -45 -46 12 -8 45 -121 37 -129 -3 -2
-24 15 -46 38 -39 41 -66 48 -43 11 9 -14 7 -27 -7 -59 -11 -23 -15 -42 -10
-42 6 0 10 -6 10 -12 0 -7 16 -34 34 -59 30 -41 38 -46 65 -43 34 4 34 3 60
-78 7 -21 9 -43 5 -49 -4 -8 -40 -10 -110 -7 -71 3 -104 1 -103 -6 3 -24 -2
-34 -17 -40 -8 -3 -12 -2 -9 4 4 6 -6 10 -23 10 -24 0 -31 -5 -34 -25 -5 -22
-2 -25 16 -19 21 6 21 6 1 -10 -23 -18 -35 -20 -35 -6 0 5 -12 21 -26 35 -25
25 -25 25 -22 3 2 -16 -7 -28 -32 -46 -19 -12 -44 -31 -56 -41 -54 -47 -231
-90 -249 -60 -4 6 -13 8 -20 5 -8 -3 -15 -2 -17 2 -2 4 -21 16 -43 27 -55 27
-170 146 -170 177 0 6 -6 13 -14 16 -9 3 -11 -1 -7 -15 10 -31 -12 -41 -64
-30 -25 5 -40 12 -33 14 14 5 6 30 -19 55 -20 20 -24 8 -7 -24 13 -24 8 -31
-15 -22 -9 4 -15 13 -12 20 7 18 -12 17 -44 -1 -14 -8 -41 -15 -60 -15 -34 0
-92 -17 -117 -33 -9 -6 -13 -38 -13 -103 l0 -94 -104 0 c-113 0 -114 1 -112
60 1 35 1 35 56 40 l55 5 3 52 c3 45 6 52 25 55 16 2 22 10 22 26 0 19 -9 27
-38 37 -21 7 -56 25 -77 39 -32 21 -52 26 -100 26 l-60 0 0 50 c0 46 2 50 24
50 14 0 27 3 29 8 6 9 -8 100 -16 109 -4 3 -35 8 -69 9 -35 2 -66 3 -70 3 -5
1 -8 23 -8 51 0 45 -2 50 -25 56 -14 3 -34 4 -45 1 -37 -10 -45 13 -42 117 l3
97 47 -3 47 -3 3 -52 3 -53 92 2 c51 0 107 -2 125 -7 32 -7 33 -6 22 15 -9 17
-8 33 5 74 22 68 23 70 70 92 54 26 55 48 8 150 -35 78 -40 84 -68 84 -25 -1
-27 -2 -12 -11 21 -12 23 -59 3 -59 -12 0 -12 -6 -3 -35 11 -38 -1 -94 -28
-129 -28 -37 -121 -15 -163 39 -16 20 -21 22 -26 10 -9 -23 -32 -18 -45 11
-15 33 -2 50 56 76 24 10 43 21 43 23 0 3 -68 5 -150 5 l-151 0 3 -57 3 -58
50 -5 50 -5 0 -50 0 -50 -107 -3 -108 -3 -2 223 -3 223 -49 3 c-32 2 -52 -1
-58 -10 -4 -7 -8 -103 -8 -213 1 -110 1 -206 0 -212 0 -10 -29 -13 -110 -13
l-110 0 0 -55 0 -55 -55 0 -56 0 3 -107 3 -108 50 -5 50 -5 3 -57 3 -58 -56 0
-55 0 2 -275 3 -275 160 -2 160 -3 3 58 3 58 112 -3 112 -3 3 -52 3 -53 54 0
54 0 3 53 3 52 53 3 52 3 0 49 0 48 48 4 c26 3 52 3 58 1 8 -3 12 -40 13 -106
1 -56 5 -105 9 -109 4 -4 52 -9 107 -10 l100 -3 3 -38 c4 -49 -11 -67 -54 -63
-44 3 -56 -12 -52 -66 l3 -43 50 -5 50 -5 5 -50 5 -50 51 -3 c50 -3 51 -2 58
29 3 17 6 91 6 165 l0 133 53 3 52 3 3 53 3 52 54 0 54 0 3 -52 3 -53 50 -5
50 -5 0 -45 0 -45 -103 -5 c-114 -6 -122 -10 -122 -72 0 -50 18 -58 134 -58
l96 0 0 -49 0 -50 -52 -3 -53 -3 0 -165 0 -165 52 -3 52 -3 3 -52 3 -52 53 -3
52 -3 0 55 0 56 -56 0 -56 0 3 148 c2 81 5 155 7 165 3 12 14 17 42 17 64 0
70 6 70 66 l0 54 -55 0 -55 0 0 50 0 50 105 0 105 0 0 -167 c0 -93 3 -191 6
-220 l7 -52 -59 -3 -59 -3 0 -50 1 -50 57 -3 56 -3 3 -112 3 -112 50 0 50 0 3
53 3 52 55 0 54 0 0 -55 0 -55 -56 0 -55 0 3 -52 3 -53 50 0 50 0 3 53 3 52
154 0 c84 0 160 3 169 6 13 5 16 25 16 115 l0 109 55 0 55 0 0 55 0 55 -111 0
-110 0 3 53 3 52 168 3 167 2 0 -55 0 -55 56 0 55 0 -3 -52 -3 -53 -52 -3 -52
-3 -3 -52 c-3 -52 -3 -52 -38 -55 -77 -6 -80 -8 -80 -62 0 -54 1 -53 -67 -50
l-43 2 0 -62 0 -61 113 3 112 3 3 52 3 51 50 4 c28 1 53 1 55 -1 2 -2 4 -28 4
-58 l0 -53 50 0 c45 0 50 2 51 23 0 12 2 36 2 52 l2 30 95 2 c141 4 140 4 140
63 l0 50 51 0 50 0 -3 -52 -3 -53 -47 -3 -48 -3 0 -55 0 -54 335 0 334 0 3 58
3 57 50 0 50 0 0 55 0 55 -91 -3 c-119 -5 -134 3 -134 68 l0 50 -104 0 c-74 0
-105 4 -108 13 -3 10 -3 175 1 200 1 4 23 7 51 7 l49 0 3 113 3 112 113 3 112
3 0 47 c0 65 9 74 61 71 l44 -4 3 53 3 52 -110 0 -111 0 0 -42 c0 -61 -9 -70
-66 -66 l-49 3 0 50 0 50 53 3 53 3 -3 57 -3 57 -105 5 -105 5 1 33 c1 17 2
115 3 217 l1 185 50 0 49 0 3 -107 3 -108 50 0 50 0 5 105 5 105 58 3 57 3 0
60 0 60 113 -3 112 -3 5 -55 c5 -52 7 -55 34 -58 15 -2 39 -1 52 2 l24 6 0
166 0 165 -57 -3 -58 -3 -3 -52 -3 -53 -110 0 -109 0 0 55 0 54 -57 3 -58 3
-1 50 -1 50 -54 5 -54 5 -5 55 -5 55 -162 3 -163 2 0 110 0 110 110 0 110 0 0
-55 0 -55 110 0 110 0 0 108 0 109 -152 6 c-170 8 -267 8 -285 0z m-2935 -615
l-3 -53 -50 0 -50 0 -3 53 -3 52 56 0 56 0 -3 -52z m232 -3 l0 -55 105 0 c115
0 110 3 105 -63 -3 -42 16 -57 71 -57 l49 0 0 -105 0 -105 -44 0 c-71 0 -76
-4 -69 -63 3 -29 8 -54 10 -57 2 -2 25 -7 51 -10 l47 -5 0 -45 0 -45 -107 -3
-108 -3 -2 223 -3 223 -110 5 -110 5 -3 108 -3 107 61 0 60 0 0 -55z m2918 3
l-3 -52 -47 -1 -48 -2 0 53 0 54 51 0 50 0 -3 -52z m232 -3 l0 -55 55 0 55 0
0 -55 0 -56 -165 1 -165 2 0 55 0 56 36 -6 c56 -9 64 -2 64 59 l0 54 60 0 60
0 0 -55z m-3152 -447 l-3 -163 -55 -5 -55 -5 -3 -52 -3 -53 -54 0 -54 0 -3 53
-3 52 -53 3 -53 3 3 107 3 107 105 5 105 5 3 53 3 52 60 0 59 0 -2 -162z m552
-118 l0 -50 -50 0 -50 0 0 50 0 50 50 0 50 0 0 -50z m450 0 l0 -50 -44 0 c-47
0 -56 9 -56 59 0 37 6 41 57 41 l43 0 0 -50z m138 2 c20 -30 11 -27 -29 8 -30
26 -31 29 -10 22 14 -5 31 -19 39 -30z m50 -26 c-16 -19 -31 10 -17 35 l13 24
6 -25 c4 -14 3 -29 -2 -34z m1162 4 c0 -29 -1 -30 -50 -30 -44 0 -50 3 -50 20
0 23 29 38 73 39 24 1 27 -3 27 -29z m-1200 -14 c0 -3 -4 -8 -10 -11 -5 -3
-10 -1 -10 4 0 6 5 11 10 11 6 0 10 -2 10 -4z m660 -20 c0 -11 -19 -15 -25 -6
-3 5 1 10 9 10 9 0 16 -2 16 -4z m80 -6 c5 0 10 -24 12 -52 l3 -53 39 -3 c22
-2 50 -1 63 2 20 6 23 12 23 56 l0 50 105 0 105 0 0 -49 0 -50 -52 -3 -53 -3
-3 -52 -3 -53 -165 0 -164 0 0 89 c0 86 1 90 28 110 15 11 33 18 40 16 8 -3
18 -5 22 -5z m580 -51 l0 -50 -52 3 -53 3 -3 48 -3 47 55 0 56 0 0 -51z m220
1 l0 -50 -50 0 -50 0 0 50 0 50 50 0 50 0 0 -50z m-959 20 c6 0 7 -4 4 -10
-10 -16 -42 -12 -42 5 0 10 6 14 14 10 8 -3 19 -5 24 -5z m-460 -18 c-7 -2
-18 1 -23 6 -8 8 -4 9 13 5 13 -4 18 -8 10 -11z m14 -22 c-3 -5 3 -10 14 -10
11 0 23 5 26 10 3 6 10 10 16 10 5 0 0 -9 -11 -20 -12 -12 -33 -20 -55 -20
-28 0 -35 4 -35 20 0 15 7 20 26 20 14 0 23 -4 19 -10z m393 -87 l-3 -58 -102
-3 c-102 -3 -102 -3 -109 23 -3 14 -3 36 0 50 6 22 12 25 54 26 26 1 57 0 69
-1 12 -1 30 3 40 9 10 6 26 11 36 11 16 0 18 -8 15 -57z m-448 -4 l0 -50 -52
3 -53 3 -1 35 c0 55 4 60 57 60 l49 0 0 -51z m1120 1 l0 -50 -50 0 -50 0 0 50
0 50 50 0 50 0 0 -50z m-562 -113 l3 -48 -48 3 -47 3 -2 40 c-1 22 1 44 3 48
3 4 24 7 46 5 l42 -3 3 -48z m454 -59 l3 -113 52 -3 51 -3 7 -49 7 -50 54 0
c48 0 54 -2 60 -24 3 -13 4 -38 2 -57 -3 -34 -3 -34 -60 -37 l-57 -3 -3 -52
-3 -52 -52 -3 -52 -3 -3 53 -3 53 -52 3 -53 3 0 60 0 59 -164 0 c-104 0 -167
4 -171 10 -4 6 -4 54 0 105 l7 95 112 0 c61 0 135 3 164 6 l52 7 0 47 c0 26 3
50 7 53 3 4 26 7 49 7 l43 0 3 -112z m679 -53 l0 -160 -165 -3 -166 -2 0 165
0 165 166 -2 165 -3 0 -160z m-458 48 c3 -5 7 -28 8 -53 l4 -45 -55 0 -55 0
-3 44 c-2 28 1 47 10 52 16 11 85 12 91 2z m-895 -50 l-3 -48 -47 -3 -48 -3 0
50 0 51 51 0 50 0 -3 -47z m107 -173 l0 -105 -99 -3 c-107 -4 -116 0 -116 50
0 48 9 58 54 58 53 0 66 13 66 68 l0 43 48 -3 47 -3 0 -105z m1135 -165 l0
-55 -60 0 -60 0 0 -55 0 -55 60 0 60 0 0 -55 0 -55 -57 0 -58 0 0 52 0 53 -52
3 -53 3 0 54 0 54 53 3 52 3 1 45 c1 25 2 48 3 53 0 4 26 7 56 7 l55 0 0 -55z
m-1355 -110 l0 -50 -52 -3 -53 -3 0 56 0 56 53 -3 52 -3 0 -50z m343 -52 l-3
-108 -52 -3 -52 -3 -3 53 -3 53 -55 5 -55 5 -3 39 c-6 65 -5 66 118 66 l111 0
-3 -107z m680 73 c2 -15 1 -39 -2 -52 -6 -22 -12 -24 -61 -24 l-55 0 0 -49 c0
-28 -3 -52 -8 -54 -4 -3 -27 -7 -52 -8 l-45 -4 -3 58 -3 57 56 0 55 0 0 55 0
56 58 -3 c55 -3 57 -4 60 -32z m108 -100 c3 -13 4 -37 2 -52 -3 -27 -7 -29
-51 -34 -26 -4 -50 -4 -52 -1 -3 2 -5 28 -5 58 l0 53 50 0 c44 0 50 -3 56 -24z
m336 -155 l-4 -51 -43 4 c-59 5 -65 11 -65 61 l0 44 43 3 c65 5 73 -2 69 -61z
m223 8 c0 -44 0 -44 -40 -49 -60 -9 -75 3 -75 55 0 43 0 44 38 47 64 6 77 -3
77 -53z"/>
<path d="M4727 3453 c-4 -3 -7 -28 -7 -55 l0 -48 60 0 60 0 0 55 0 55 -53 0
c-30 0 -57 -3 -60 -7z"/>
<path d="M1587 5024 c-4 -4 -7 -54 -7 -111 l0 -104 53 3 52 3 0 105 0 105 -45
3 c-25 2 -49 0 -53 -4z"/>
<path d="M2817 4913 c-4 -3 -7 -15 -7 -25 0 -16 9 -18 64 -18 62 0 63 0 58 25
-4 23 -9 25 -56 25 -29 0 -56 -3 -59 -7z"/>
<path d="M4310 4850 c-30 -5 -101 -17 -158 -28 -104 -20 -142 -39 -142 -73 0
-29 -11 -49 -24 -42 -19 13 -40 12 -48 0 -6 -9 -8 -9 -8 1 0 9 -5 10 -16 4 -9
-5 -31 -6 -48 -2 -45 10 -76 -4 -76 -34 0 -15 8 -30 19 -36 31 -16 144 -17
174 -1 15 8 30 12 33 9 3 -3 11 -34 17 -67 9 -46 16 -61 29 -61 24 0 26 29 4
72 -10 21 -21 65 -25 99 -7 54 -5 62 13 75 24 17 48 18 63 3 8 -8 31 -8 84 0
110 17 147 29 154 50 3 10 15 23 28 29 20 10 20 11 2 10 -11 0 -45 -4 -75 -8z"/>
<path d="M4410 4852 c0 -5 9 -17 20 -27 16 -14 23 -16 32 -7 8 8 8 15 3 21
-15 14 -55 23 -55 13z"/>
<path d="M1107 4843 c-4 -3 -7 -60 -7 -125 0 -110 1 -118 19 -118 16 0 20 8
23 43 l3 42 115 5 115 5 3 27 c4 34 -8 37 -137 41 l-94 2 -4 30 c-6 52 -18 67
-36 48z"/>
<path d="M5842 4837 c-6 -7 -6 -21 -1 -34 8 -21 15 -23 79 -23 38 0 70 -4 70
-9 0 -4 -33 -36 -74 -70 -77 -65 -89 -81 -80 -106 5 -12 31 -15 146 -15 l139
0 -3 28 c-3 26 -5 27 -73 30 -38 2 -74 7 -78 11 -5 5 28 39 73 76 68 57 81 72
78 94 l-3 26 -132 2 c-92 1 -134 -2 -141 -10z"/>
<path d="M3020 4705 c-7 -8 -10 -25 -6 -39 10 -40 91 -57 168 -36 50 14 66 42
39 69 -17 17 -25 19 -50 10 -20 -7 -41 -7 -68 0 -51 15 -68 14 -83 -4z"/>
<path d="M1582 4638 c3 -50 5 -53 32 -56 15 -2 39 -1 53 3 22 5 24 10 21 53
l-3 47 -53 3 -53 3 3 -53z"/>
<path d="M5294 4677 c-3 -8 -3 -56 -2 -108 l3 -94 108 -3 107 -3 0 56 0 55
-55 0 -55 0 0 55 0 55 -50 0 c-33 0 -52 -5 -56 -13z"/>
<path d="M4365 4630 c3 -5 13 -10 21 -10 8 0 14 5 14 10 0 6 -9 10 -21 10 -11
0 -17 -4 -14 -10z"/>
<path d="M2875 4548 c-70 -78 -72 -85 -31 -102 24 -10 37 -24 46 -50 6 -20 24
-45 40 -56 16 -11 31 -33 35 -49 6 -26 75 -114 75 -95 0 14 -26 83 -33 90 -4
4 -7 17 -7 28 0 22 -55 87 -104 122 l-28 21 41 60 c22 33 41 66 41 72 0 25
-31 8 -75 -41z"/>
<path d="M3165 4581 c-39 -18 -115 -91 -115 -111 0 -6 14 5 32 25 36 41 115
85 153 85 56 0 116 -23 160 -62 51 -45 57 -42 19 7 -53 70 -164 95 -249 56z"/>
<path d="M1104 4555 c-14 -36 3 -45 81 -45 41 0 75 -3 75 -6 0 -8 -14 -21 -92
-83 -55 -44 -68 -60 -68 -83 l0 -28 140 0 140 0 0 29 c0 35 -13 41 -91 41 -32
0 -59 3 -59 8 0 4 34 34 75 67 59 48 74 66 75 88 l0 27 -135 0 c-111 0 -137
-3 -141 -15z"/>
<path d="M6077 4553 c-4 -3 -7 -23 -7 -44 0 -47 -6 -49 -129 -47 -76 1 -95 -1
-102 -14 -5 -9 -6 -23 -3 -32 5 -13 25 -16 119 -16 l114 0 3 -42 c2 -36 7 -44
26 -46 22 -3 22 -2 22 122 0 116 -2 126 -18 126 -10 0 -22 -3 -25 -7z"/>
<path d="M3180 4497 c-88 -46 -114 -155 -56 -232 35 -46 74 -65 131 -65 90 0
155 64 155 153 0 76 -39 132 -109 156 -49 16 -72 14 -121 -12z m105 -149 c-9
-22 -35 -31 -51 -17 -19 16 -17 46 4 58 22 13 56 -17 47 -41z"/>
<path d="M3755 4506 c-156 -72 -105 -306 67 -306 113 0 194 131 143 230 -37
71 -140 109 -210 76z m89 -122 c19 -19 20 -36 4 -52 -18 -18 -46 -14 -58 9 -9
16 -8 25 6 40 21 23 28 24 48 3z"/>
<path d="M4168 4345 c5 -39 16 -45 32 -16 13 25 3 51 -19 51 -14 0 -16 -7 -13
-35z"/>
<path d="M4360 4370 c0 -7 8 -10 20 -7 25 6 26 -2 3 -19 -17 -12 -17 -13 0
-19 9 -4 17 -14 17 -23 0 -11 3 -13 11 -5 18 18 -3 77 -29 81 -12 2 -22 -2
-22 -8z"/>
<path d="M3508 4363 c-14 -3 -18 -15 -18 -47 0 -23 -5 -47 -11 -53 -7 -7 -6
-30 2 -76 l12 -66 31 6 c36 7 46 18 46 55 0 15 5 30 10 33 6 3 10 35 10 71 0
60 -2 65 -26 74 -26 10 -28 11 -56 3z"/>
<path d="M4242 4353 c32 -68 41 -76 52 -47 4 11 2 15 -8 11 -8 -3 -17 1 -20 9
-4 9 3 18 17 24 20 8 19 9 -11 9 -18 1 -32 -2 -30 -6z"/>
<path d="M4320 4335 c-7 -8 -10 -21 -7 -29 3 -8 -5 -26 -17 -39 -21 -23 -22
-26 -6 -30 31 -8 66 52 40 68 -15 9 -12 25 5 25 8 0 15 5 15 10 0 15 -16 12
-30 -5z"/>
<path d="M5913 4295 c-18 -8 -42 -29 -53 -47 -43 -71 -38 -149 14 -205 28 -31
40 -37 88 -41 38 -3 64 1 85 12 80 41 102 176 39 244 -46 51 -110 65 -173 37z
m135 -81 c37 -42 24 -121 -25 -143 -54 -24 -103 -9 -129 40 -25 49 1 112 56
132 27 10 75 -4 98 -29z"/>
<path d="M1147 4247 c-82 -77 -64 -212 35 -261 72 -36 160 1 194 83 19 45 17
78 -6 128 -25 56 -70 83 -137 83 -45 0 -56 -4 -86 -33z m153 -45 c15 -12 24
-33 27 -64 5 -40 2 -50 -20 -72 -18 -18 -37 -26 -62 -26 -47 0 -71 14 -90 51
-19 37 -6 90 28 114 29 20 90 19 117 -3z"/>
<path d="M4407 4248 c-7 -26 -3 -32 17 -25 9 4 12 14 9 26 -7 27 -19 27 -26
-1z"/>
<path d="M4350 4226 c0 -9 7 -16 16 -16 9 0 14 5 12 12 -6 18 -28 21 -28 4z"/>
<path d="M4310 4210 c-8 -5 -12 -12 -9 -15 4 -3 12 1 19 10 14 17 11 19 -10 5z"/>
<path d="M4501 4166 c-7 -8 -8 -17 -3 -20 6 -3 15 1 21 8 7 8 8 17 3 20 -6 3
-15 -1 -21 -8z"/>
<path d="M4541 4143 c0 -4 4 -17 9 -28 8 -19 9 -19 9 2 1 12 -3 25 -9 28 -5 3
-10 3 -9 -2z"/>
<path d="M3490 4106 c0 -2 8 -10 18 -17 15 -13 16 -12 3 4 -13 16 -21 21 -21
13z"/>
<path d="M2977 4053 c-12 -11 -8 -23 8 -23 8 0 15 7 15 15 0 16 -12 20 -23 8z"/>
<path d="M3448 4053 c7 -3 16 -2 19 1 4 3 -2 6 -13 5 -11 0 -14 -3 -6 -6z"/>
<path d="M3588 4053 c12 -2 30 -2 40 0 9 3 -1 5 -23 4 -22 0 -30 -2 -17 -4z"/>
<path d="M3340 4040 c0 -5 9 -10 21 -10 11 0 17 5 14 10 -3 6 -13 10 -21 10
-8 0 -14 -4 -14 -10z"/>
<path d="M3700 4040 c0 -5 7 -10 15 -10 8 0 15 5 15 10 0 6 -7 10 -15 10 -8 0
-15 -4 -15 -10z"/>
<path d="M4040 4029 c0 -5 5 -7 10 -4 6 3 10 8 10 11 0 2 -4 4 -10 4 -5 0 -10
-5 -10 -11z"/>
<path d="M5294 4007 c-3 -8 -3 -56 -2 -108 l3 -94 53 -3 52 -3 0 110 0 111
-50 0 c-33 0 -52 -5 -56 -13z"/>
<path d="M3489 4006 c-3 -3 -54 -7 -113 -8 -101 -1 -108 -3 -116 -24 -11 -28
-3 -59 28 -108 37 -59 69 -84 120 -93 72 -12 181 -9 245 6 49 12 64 22 94 58
70 85 75 157 12 159 -19 0 -86 4 -149 8 -63 5 -118 5 -121 2z"/>
<path d="M4000 3970 c0 -5 5 -10 10 -10 6 0 10 5 10 10 0 6 -4 10 -10 10 -5 0
-10 -4 -10 -10z"/>
<path d="M1109 3904 c-48 -107 22 -214 138 -214 107 0 172 121 121 227 -7 15
-21 29 -30 31 -20 4 -35 -35 -19 -51 6 -6 11 -30 11 -52 0 -72 -67 -112 -133
-80 -45 21 -60 65 -39 117 29 76 -17 96 -49 22z"/>
<path d="M5838 3945 c-3 -3 -3 -17 0 -30 4 -23 9 -25 58 -25 l54 0 0 -70 0
-70 -54 0 c-49 0 -54 -2 -58 -25 -3 -13 -3 -27 0 -30 3 -3 68 -5 144 -5 l139
0 -3 28 c-3 25 -7 27 -53 32 l-50 5 0 65 0 65 50 5 c46 5 50 7 53 33 l3 27
-139 0 c-76 0 -141 -2 -144 -5z"/>
<path d="M3133 3913 c9 -2 25 -2 35 0 9 3 1 5 -18 5 -19 0 -27 -2 -17 -5z"/>
<path d="M5525 3898 c-2 -7 -6 -31 -7 -53 l-3 -40 -55 -5 -55 -5 -3 -52 -3
-53 45 0 c76 0 76 1 76 -115 l0 -103 45 -4 c24 -2 49 -2 55 0 6 2 10 81 10
217 0 235 3 225 -66 225 -19 0 -37 -6 -39 -12z"/>
<path d="M1587 3433 c-4 -3 -7 -204 -7 -445 l0 -438 450 0 450 0 -2 443 -3
442 -441 3 c-242 1 -444 -1 -447 -5z m768 -443 l0 -335 -330 0 -330 0 -3 325
c-1 179 0 331 3 338 3 10 74 12 332 10 l328 -3 0 -335z"/>
<path d="M1805 3197 c-3 -7 -4 -107 -3 -222 l3 -210 220 0 220 0 0 220 0 220
-218 3 c-171 2 -219 0 -222 -11z"/>
<path d="M5182 3178 l3 -53 53 -3 52 -3 0 -39 c0 -63 6 -70 61 -70 l49 0 0
-55 0 -54 58 -3 57 -3 5 -110 5 -110 41 -3 c26 -2 45 2 53 11 8 11 11 74 9
223 l-3 209 -50 0 -50 0 -5 -50 -5 -50 -57 -3 -58 -3 0 56 0 55 -55 0 -55 0 0
55 0 55 -56 0 -55 0 3 -52z"/>
<path d="M2594 3107 c-3 -8 -4 -32 -2 -53 l3 -39 50 0 50 0 0 50 0 50 -48 3
c-34 2 -49 -1 -53 -11z"/>
<path d="M2818 2968 c-7 -64 -3 -69 56 -66 l51 3 0 50 0 50 -51 3 -52 3 -4
-43z"/>
<path d="M2597 2893 c-12 -12 -8 -198 5 -211 16 -16 73 -15 86 1 6 7 12 33 14
57 l3 45 53 3 52 3 0 55 0 54 -103 0 c-57 0 -107 -3 -110 -7z"/>
<path d="M2942 2781 c-9 -5 -12 -25 -10 -57 3 -49 3 -49 41 -52 21 -2 45 2 53
9 17 14 19 80 2 97 -14 14 -67 16 -86 3z"/>
<path d="M2820 2614 l0 -55 53 3 52 3 3 53 3 52 -55 0 -56 0 0 -56z"/>
<path d="M3042 2618 l3 -53 163 -3 162 -2 0 55 0 55 -166 0 -165 0 3 -52z"/>
<path d="M2787 2419 c-51 -27 -77 -72 -77 -134 1 -57 13 -84 54 -116 37 -29
118 -37 169 -16 39 17 43 23 27 47 -7 12 -14 12 -43 2 -58 -21 -92 -16 -122
20 -23 27 -26 39 -22 77 8 73 66 106 132 75 33 -15 38 -15 52 -1 20 19 11 34
-34 52 -48 20 -90 18 -136 -6z"/>
<path d="M3068 2419 c-53 -27 -78 -67 -78 -127 0 -92 48 -144 139 -150 68 -4
115 17 148 67 48 71 17 173 -64 211 -52 24 -96 24 -145 -1z m119 -46 c83 -55
50 -183 -47 -183 -43 0 -90 47 -90 90 0 48 26 88 63 99 45 13 45 13 74 -6z"/>
<path d="M3340 2290 l0 -150 30 0 30 0 0 79 c0 44 3 82 8 84 4 3 36 -33 72
-79 53 -68 70 -83 93 -84 l27 0 0 151 0 150 -27 -3 c-28 -3 -28 -4 -31 -85 -2
-46 -7 -83 -12 -83 -5 0 -39 38 -76 85 -50 63 -73 85 -91 85 l-23 0 0 -150z"/>
<path d="M3637 2433 c-16 -15 -6 -43 16 -44 12 -1 27 -2 32 -4 6 -1 16 -3 23
-3 9 -2 12 -33 12 -122 l0 -120 30 0 30 0 0 120 c0 66 3 120 8 121 4 0 25 2
46 5 47 5 50 7 41 33 -6 20 -14 21 -119 21 -62 0 -116 -3 -119 -7z"/>
<path d="M3955 2415 c-52 -30 -75 -69 -75 -126 0 -84 68 -149 155 -149 164 0
215 210 68 280 -55 26 -98 24 -148 -5z m142 -57 c62 -58 21 -168 -62 -168
-100 0 -131 140 -41 184 36 19 72 13 103 -16z"/>
<path d="M4230 2291 l0 -151 36 0 35 0 -2 58 -3 57 67 3 67 3 0 -61 0 -60 30
0 30 0 0 151 0 150 -27 -3 c-26 -3 -28 -6 -33 -63 l-5 -60 -62 -3 -63 -3 -1
51 c-1 27 -2 56 -3 63 0 6 -16 13 -33 15 l-33 3 0 -150z"/>
<path d="M1440 1590 l0 -150 30 0 30 0 0 150 0 150 -30 0 -30 0 0 -150z"/>
<path d="M1560 1590 l0 -151 103 3 c97 3 102 4 105 25 3 21 -1 22 -70 25 l-73
3 -3 123 -3 122 -29 0 -30 0 0 -150z"/>
<path d="M1790 1641 c0 -124 11 -156 61 -181 51 -26 98 -25 140 3 50 34 59 59
59 175 l0 102 -29 0 -28 0 -5 -107 c-4 -95 -7 -108 -28 -125 -30 -25 -56 -23
-85 7 -23 22 -25 31 -25 125 l0 100 -30 0 -30 0 0 -99z"/>
<path d="M2144 1730 c-12 -5 -31 -22 -43 -39 -20 -28 -21 -33 -8 -64 14 -32
60 -59 121 -69 28 -5 43 -33 27 -52 -16 -19 -52 -20 -97 -4 -26 9 -36 9 -48
-1 -22 -18 -10 -37 33 -50 73 -21 131 -11 170 30 44 48 16 104 -64 129 -89 28
-102 39 -73 68 14 14 94 16 103 2 9 -15 35 0 35 21 0 12 -10 23 -26 29 -31 12
-101 12 -130 0z"/>
<path d="M2313 1724 c-8 -22 6 -32 52 -36 l40 -3 3 -123 3 -123 31 3 32 3 1
120 0 120 45 5 c37 4 46 9 48 28 3 22 2 22 -123 22 -105 0 -127 -3 -132 -16z"/>
<path d="M2586 1713 c1 -15 2 -83 3 -151 l1 -123 33 3 c33 3 33 4 36 66 1 20
6 23 33 20 27 -2 37 -11 56 -45 l23 -43 65 0 c64 0 64 0 81 35 17 35 17 35 85
35 l68 0 14 -35 c13 -29 20 -35 45 -35 30 0 40 15 23 35 -5 6 -32 67 -62 138
-54 126 -54 127 -87 127 -35 0 -36 -1 -98 -150 -41 -99 -57 -130 -65 -130 -4
0 -19 17 -32 38 l-26 38 30 33 c26 29 29 39 25 74 -3 25 -16 50 -31 66 -24 24
-34 26 -125 29 l-98 4 3 -29z m174 -42 c26 -49 -2 -91 -62 -91 l-38 0 0 55 0
55 45 0 c34 0 47 -5 55 -19z m263 -46 c24 -50 22 -55 -24 -55 -35 0 -40 3 -34
18 4 9 12 29 17 45 13 36 21 34 41 -8z"/>
<path d="M3221 1730 c-35 -15 -50 -40 -51 -81 0 -46 20 -64 90 -82 64 -16 85
-41 56 -63 -25 -18 -43 -18 -94 0 -44 16 -52 13 -52 -19 0 -43 121 -60 178
-25 58 36 65 106 14 130 -15 7 -34 16 -42 20 -9 4 -30 11 -49 15 -37 8 -49 28
-31 50 14 17 57 19 94 5 21 -8 27 -6 37 11 8 15 8 24 0 32 -15 15 -120 19
-150 7z"/>
<path d="M3427 1720 c-3 -11 -4 -77 -4 -148 l2 -127 33 -3 32 -3 0 150 0 151
-29 0 c-20 0 -30 -6 -34 -20z"/>
<path d="M3620 1715 c0 -23 4 -25 45 -25 l45 0 0 -126 0 -125 33 3 32 3 3 123
3 122 44 0 c41 0 45 2 45 25 l0 25 -125 0 -125 0 0 -25z"/>
<path d="M3965 1731 c-15 -25 -115 -266 -115 -277 0 -8 11 -14 26 -14 19 0 28
8 40 35 l14 35 70 0 70 0 14 -35 c12 -27 21 -35 40 -35 34 0 37 9 16 55 -30
65 -66 147 -80 185 -7 19 -18 41 -23 48 -11 14 -63 16 -72 3z m58 -106 c24
-50 22 -55 -23 -55 -22 0 -40 4 -40 10 0 14 33 80 40 80 3 0 14 -16 23 -35z"/>
<path d="M4170 1589 l0 -150 33 3 32 3 5 80 5 80 38 -62 c23 -37 45 -63 55
-63 10 0 31 25 51 60 19 33 39 60 43 60 4 0 8 -36 8 -81 l0 -80 28 3 27 3 3
148 3 147 -29 0 c-24 0 -32 -8 -56 -52 -57 -105 -78 -134 -88 -118 -5 8 -29
50 -54 93 -40 69 -48 77 -74 77 l-30 0 0 -151z"/>
<path d="M4560 1591 l0 -151 29 0 c28 0 30 3 33 43 l3 42 55 5 c68 7 95 21
116 62 20 39 12 87 -22 119 -23 21 -37 24 -120 27 l-94 4 0 -151z m168 87 c18
-18 15 -69 -5 -84 -19 -14 -61 -18 -87 -8 -12 4 -16 20 -16 55 l0 49 48 0 c26
0 53 -5 60 -12z"/>
<path d="M4842 1593 l3 -148 28 -3 27 -3 0 150 0 151 -30 0 -31 0 3 -147z"/>
<path d="M4960 1590 l0 -150 134 0 134 0 12 35 12 35 69 0 70 0 15 -35 c12
-29 19 -35 45 -35 38 0 40 -9 -37 168 -57 129 -59 132 -90 132 -30 0 -33 -4
-72 -92 -22 -51 -47 -109 -54 -128 l-15 -35 -76 3 -77 4 0 124 0 124 -35 0
-35 0 0 -150z m386 35 c21 -50 18 -55 -27 -55 -22 0 -39 3 -37 8 2 4 10 24 18
45 8 20 18 37 23 37 4 0 15 -16 23 -35z"/>
<path d="M5500 1590 l0 -150 30 0 30 0 0 85 c0 47 4 85 9 85 5 0 39 -38 76
-85 51 -65 72 -85 91 -85 l24 0 0 150 0 150 -30 0 -30 0 0 -85 c0 -64 -3 -83
-12 -79 -7 3 -40 41 -73 84 -49 65 -65 79 -87 80 l-28 0 0 -150z"/>
<path d="M7069 1207 c-69 -67 -177 -171 -240 -231 -63 -60 -145 -139 -184
-175 -38 -37 -106 -101 -150 -142 -44 -41 -132 -122 -195 -180 -63 -59 -137
-126 -164 -150 -27 -24 -61 -55 -75 -68 -14 -13 -79 -71 -144 -130 l-118 -106
648 -3 c356 -2 672 0 701 3 l52 6 0 650 c0 357 -1 649 -2 649 -2 0 -60 -55
-129 -123z"/>
<path d="M770 841 c0 -67 2 -79 15 -75 8 4 15 13 15 22 0 12 5 11 24 -7 13
-12 27 -18 30 -13 3 5 -1 15 -9 22 -18 15 -20 51 -3 68 9 9 9 12 -3 12 -8 0
-20 -5 -27 -12 -9 -9 -13 -4 -18 20 -12 61 -24 43 -24 -37z"/>
<path d="M1107 913 c-11 -10 -8 -143 3 -143 6 0 10 32 10 75 0 75 -1 81 -13
68z"/>
<path d="M3041 901 c-28 -28 -29 -101 -3 -124 24 -22 65 -21 85 1 37 41 26
122 -18 131 -19 3 -19 3 -2 -16 17 -19 23 -67 11 -97 -3 -9 -17 -16 -30 -16
-42 0 -59 65 -28 108 21 31 11 39 -15 13z"/>
<path d="M4288 913 c-14 -4 -15 -7 -3 -29 7 -15 11 -45 9 -70 -3 -24 0 -44 5
-44 10 0 21 131 11 141 -3 3 -12 4 -22 2z"/>
<path d="M147 888 c-2 -13 -3 -36 -2 -53 1 -16 3 -40 3 -52 2 -19 8 -23 36
-23 64 0 101 85 56 130 -11 11 -26 20 -32 20 -7 0 -4 -7 7 -16 14 -10 20 -26
20 -55 0 -43 -14 -59 -54 -59 -23 0 -24 2 -19 65 5 62 -5 90 -15 43z"/>
<path d="M957 892 c-40 -44 -8 -132 48 -132 57 0 87 88 45 130 -29 29 -45 24
-21 -6 12 -15 21 -36 21 -48 -1 -46 -49 -73 -78 -44 -17 17 -15 69 4 96 18 27
4 29 -19 4z"/>
<path d="M1273 869 c-1 -43 1 -46 24 -24 24 25 38 12 43 -38 4 -34 8 -44 18
-38 8 5 11 21 8 44 -6 46 -13 57 -36 57 -11 0 -27 9 -37 19 -18 19 -18 18 -20
-20z"/>
<path d="M1567 903 c-11 -10 -8 -131 3 -138 9 -6 12 0 14 35 1 9 13 16 31 18
17 2 36 8 43 14 17 15 15 65 -4 72 -26 10 -28 7 -10 -13 15 -16 15 -22 4 -40
-25 -41 -74 -15 -62 33 6 24 -4 34 -19 19z"/>
<path d="M1730 902 c0 -4 4 -12 9 -17 6 -6 12 -35 14 -65 l3 -55 2 61 c1 33 7
65 14 72 9 9 6 12 -15 12 -15 0 -27 -4 -27 -8z"/>
<path d="M1894 896 c-3 -7 -4 -40 -2 -72 3 -57 4 -59 32 -62 15 -2 39 -1 52 2
23 6 24 10 21 74 -2 67 -2 67 -32 69 -16 1 -23 -1 -13 -3 23 -7 30 -30 13 -44
-24 -20 -48 -4 -41 25 5 19 2 25 -9 25 -9 0 -18 -6 -21 -14z m80 -75 c11 -18
-6 -41 -30 -41 -17 0 -24 6 -24 18 0 10 3 22 7 25 9 10 41 8 47 -2z"/>
<path d="M2047 843 c-25 -69 -25 -104 1 -65 18 27 67 30 81 5 20 -36 19 -6 -2
57 -30 89 -47 90 -80 3z m57 -14 c-9 -15 -34 -10 -34 6 0 9 6 22 13 29 10 12
13 10 20 -6 4 -11 5 -24 1 -29z"/>
<path d="M2180 841 c0 -41 4 -71 10 -71 6 0 10 15 10 34 0 51 13 51 49 0 17
-25 36 -42 41 -39 13 8 13 145 0 145 -5 0 -10 -20 -10 -45 0 -25 -4 -45 -9
-45 -5 0 -22 19 -38 42 -44 65 -53 61 -53 -21z"/>
<path d="M2338 904 c-5 -4 -8 -36 -8 -71 0 -47 3 -64 13 -61 6 3 13 14 15 26
5 30 19 28 49 -8 13 -17 29 -27 35 -24 5 4 -2 18 -16 33 -30 31 -33 57 -9 83
26 29 8 32 -22 4 -35 -33 -43 -33 -47 0 -2 14 -6 22 -10 18z"/>
<path d="M2530 840 c0 -78 17 -96 22 -22 l3 47 38 -52 c22 -29 43 -53 48 -53
5 0 9 34 9 75 0 43 -4 75 -10 75 -5 0 -10 -10 -11 -22 0 -13 -4 -32 -8 -43 -7
-17 -11 -15 -35 23 -40 64 -56 56 -56 -28z"/>
<path d="M2727 903 c-3 -5 -14 -35 -26 -67 -21 -61 -20 -85 3 -53 17 22 62 22
74 1 5 -9 14 -15 19 -13 14 6 -37 139 -53 139 -7 0 -15 -3 -17 -7z m29 -48 c4
-8 3 -23 0 -32 -6 -15 -8 -15 -22 -2 -8 9 -12 23 -8 32 8 21 23 22 30 2z"/>
<path d="M2864 894 c3 -9 6 -41 6 -71 0 -77 11 -60 14 21 2 51 -1 66 -12 66
-9 0 -12 -6 -8 -16z"/>
<path d="M3186 903 c-9 -9 -7 -53 2 -52 20 3 31 -5 61 -46 18 -25 37 -43 42
-40 12 8 12 132 -1 140 -9 6 -15 -29 -11 -62 3 -25 -19 -13 -41 22 -23 35 -41
48 -52 38z"/>
<path d="M3374 893 c-6 -19 -13 -37 -33 -87 -13 -32 -5 -51 10 -23 13 22 79
24 79 2 0 -8 7 -15 15 -15 11 0 13 4 6 18 -5 9 -18 39 -28 66 -20 53 -39 69
-49 39z m31 -63 c-9 -15 -25 -12 -32 6 -8 21 19 38 30 18 4 -8 5 -19 2 -24z"/>
<path d="M3480 847 c0 -37 -1 -70 -2 -74 -4 -11 60 -16 80 -7 13 5 8 9 -18 13
-35 6 -35 7 -38 61 -5 82 -22 87 -22 7z"/>
<path d="M3600 834 c0 -47 4 -73 10 -69 6 3 10 24 10 46 0 21 5 39 10 39 6 0
23 -20 38 -45 15 -24 32 -43 37 -41 14 4 19 146 5 146 -5 0 -10 -12 -10 -27 0
-43 -13 -57 -32 -36 -8 10 -21 28 -27 41 -6 12 -18 22 -26 22 -12 0 -15 -16
-15 -76z"/>
<path d="M3773 903 c-8 -3 -13 -25 -13 -60 0 -60 15 -82 57 -83 54 0 86 96 45
133 -18 16 -63 21 -89 10z m67 -13 c18 -11 20 -84 3 -101 -6 -6 -23 -9 -36 -5
-34 8 -45 57 -23 91 17 27 32 30 56 15z"/>
<path d="M3922 838 l3 -73 33 -3 c50 -5 62 10 58 76 -5 74 -4 72 -17 72 -5 0
-9 -8 -8 -17 3 -35 -1 -43 -26 -43 -25 0 -29 8 -26 43 1 9 -3 17 -9 17 -7 0
-10 -24 -8 -72z m62 -13 c20 -21 10 -45 -20 -45 -19 0 -24 5 -24 24 0 13 6 27
13 29 6 3 13 6 14 6 1 1 8 -6 17 -14z"/>
<path d="M4050 849 c0 -37 5 -70 12 -77 17 -17 64 -15 82 3 19 19 30 76 22
110 -10 39 -26 20 -26 -30 0 -59 -8 -75 -36 -75 -29 0 -35 12 -37 73 -3 71
-17 68 -17 -4z"/>
<path d="M4388 876 c-2 -19 -2 -52 0 -75 4 -40 5 -41 42 -41 21 0 42 6 48 13
6 6 10 39 9 72 -2 49 -5 60 -20 63 -16 3 -17 1 -5 -17 11 -18 11 -23 -2 -31
-39 -25 -70 6 -38 38 9 9 7 12 -9 12 -16 0 -22 -7 -25 -34z m77 -71 c0 -14 -8
-21 -27 -23 -22 -3 -28 1 -28 16 0 25 10 33 35 30 12 -2 20 -10 20 -23z"/>
<path d="M4532 835 c0 -66 1 -74 9 -47 12 41 31 41 60 0 13 -17 25 -26 27 -20
2 6 -7 25 -20 42 -22 30 -22 32 -5 62 25 44 12 48 -22 7 l-29 -34 -10 35 c-9
31 -10 25 -10 -45z"/>
<path d="M580 885 c-10 -12 -10 -19 -2 -27 7 -7 12 -29 12 -49 0 -21 5 -41 11
-44 17 -11 21 1 8 29 -10 20 -10 32 0 53 10 21 9 29 -2 40 -12 12 -16 12 -27
-2z"/>
<path d="M2960 835 c0 -51 3 -65 15 -65 12 0 15 14 15 65 0 51 -3 65 -15 65
-12 0 -15 -14 -15 -65z"/>
<path d="M347 864 c-13 -13 -7 -81 7 -94 17 -14 58 -10 63 6 2 7 -5 10 -20 7
-28 -6 -48 16 -41 44 7 27 30 36 56 22 16 -9 19 -8 16 3 -5 14 -69 24 -81 12z"/>
<path d="M462 858 c-32 -32 1 -98 49 -98 16 0 29 5 29 10 0 6 -14 10 -31 10
-29 0 -30 2 -27 38 3 42 28 52 38 15 4 -17 9 -20 20 -13 12 7 12 13 4 27 -13
22 -64 29 -82 11z"/>
<path d="M660 860 c0 -5 10 -9 21 -7 12 1 24 -4 26 -10 3 -8 -3 -13 -15 -13
-10 0 -27 -9 -37 -20 -26 -28 -5 -51 44 -47 31 2 36 6 39 31 7 56 -5 76 -43
76 -19 0 -35 -4 -35 -10z m54 -48 c9 -15 -12 -35 -29 -28 -14 5 -15 9 -5 21
14 17 26 19 34 7z"/>
<path d="M1159 846 c-24 -53 19 -103 68 -80 14 6 11 9 -14 12 -30 3 -33 6 -33
37 0 37 15 54 33 36 9 -9 8 -14 -3 -21 -12 -8 -9 -10 13 -10 15 0 27 5 27 13
0 42 -74 52 -91 13z"/>
<path d="M297 841 c-5 -22 2 -71 12 -71 8 0 7 78 -1 85 -3 3 -8 -3 -11 -14z"/>
<path d="M1160 557 c0 -64 3 -77 16 -77 10 0 14 6 10 15 -3 9 0 15 10 15 8 0
17 -7 20 -15 7 -16 34 -21 34 -6 0 5 -7 14 -15 21 -18 15 -19 42 -2 59 10 10
6 12 -18 9 -23 -2 -30 1 -33 17 -2 11 -8 24 -13 30 -5 5 -9 -22 -9 -68z"/>
<path d="M2740 625 c0 -3 7 -16 15 -28 24 -37 7 -106 -26 -107 -21 0 -31 34
-26 82 5 35 3 48 -4 41 -5 -5 -9 -37 -7 -69 l3 -59 34 -3 c42 -4 51 8 51 75 0
42 -4 54 -20 63 -11 6 -20 8 -20 5z"/>
<path d="M140 608 c0 -31 46 -128 59 -126 14 3 49 87 50 123 1 29 -14 6 -28
-43 -14 -51 -30 -46 -51 18 -12 38 -30 54 -30 28z"/>
<path d="M714 595 c-11 -17 -14 -35 -10 -57 9 -44 23 -58 61 -58 33 0 65 24
50 38 -4 4 -10 1 -12 -5 -3 -7 -20 -13 -39 -13 -34 0 -34 0 -34 48 0 26 5 53
12 60 9 9 9 12 0 12 -6 0 -19 -11 -28 -25z"/>
<path d="M788 604 c24 -17 39 -14 27 5 -3 6 -16 11 -28 11 l-21 0 22 -16z"/>
<path d="M1450 610 c0 -5 7 -10 15 -10 12 0 15 -13 15 -60 0 -33 4 -60 10 -60
6 0 10 30 10 70 0 68 -1 70 -25 70 -14 0 -25 -4 -25 -10z"/>
<path d="M1632 608 c-7 -7 -12 -33 -12 -58 0 -54 13 -70 56 -70 27 0 34 5 43
31 13 39 -2 109 -24 109 -11 0 -12 -6 -5 -24 11 -30 4 -87 -12 -97 -32 -20
-52 56 -28 102 12 21 1 26 -18 7z"/>
<path d="M1815 609 c-11 -17 3 -23 20 -9 19 16 45 6 45 -17 0 -9 -17 -34 -37
-55 -44 -45 -37 -56 29 -49 l43 4 -32 9 -32 8 30 43 c38 54 32 77 -21 77 -22
0 -42 -5 -45 -11z"/>
<path d="M1939 597 c-7 -16 -8 -39 -2 -68 8 -43 9 -44 48 -44 38 0 40 2 45 35
8 53 -2 94 -25 99 -17 3 -18 1 -6 -13 17 -20 17 -96 0 -107 -7 -4 -18 -5 -26
-2 -17 7 -18 109 0 116 7 3 5 6 -6 6 -9 1 -22 -10 -28 -22z"/>
<path d="M2064 609 c-3 -6 -2 -15 3 -20 5 -5 14 0 21 11 10 17 10 20 -2 20 -8
0 -18 -5 -22 -11z"/>
<path d="M2130 600 c13 -23 0 -46 -43 -80 -39 -31 -34 -40 24 -40 31 0 48 4
44 10 -4 6 -10 8 -15 5 -4 -3 -15 -2 -23 1 -13 5 -10 13 14 48 30 42 31 76 3
76 -12 0 -12 -4 -4 -20z"/>
<path d="M2202 608 c-13 -13 -16 -96 -4 -114 11 -17 50 -23 67 -10 16 11 24
103 11 125 -9 15 -59 14 -74 -1z m59 -35 c2 -52 -1 -67 -14 -75 -20 -12 -37
14 -37 57 0 46 5 55 32 55 14 0 18 -8 19 -37z"/>
<path d="M2380 601 c-13 -26 -13 -64 2 -96 16 -36 70 -36 86 0 23 49 8 115
-25 115 -12 0 -13 -3 -4 -14 7 -8 11 -34 9 -58 -2 -35 -7 -44 -24 -46 -17 -2
-23 4 -27 27 -4 17 -2 43 3 57 12 31 12 34 0 34 -5 0 -14 -9 -20 -19z"/>
<path d="M2512 608 c-19 -19 -14 -56 8 -68 14 -7 20 -7 20 0 0 5 -5 10 -11 10
-6 0 -9 12 -7 28 2 19 9 27 23 27 17 0 20 -7 20 -48 0 -42 -4 -51 -25 -63
l-25 -13 26 -1 c15 0 32 7 39 15 18 22 25 92 10 110 -15 18 -61 20 -78 3z"/>
<path d="M2820 610 c0 -5 3 -9 8 -9 28 5 32 -4 32 -63 0 -81 11 -68 14 16 l2
66 -28 0 c-15 0 -28 -4 -28 -10z"/>
<path d="M978 598 c-2 -7 -2 -37 0 -65 3 -46 7 -53 25 -53 19 0 19 1 4 18 -20
22 -22 53 -5 70 9 10 9 16 -4 28 -12 12 -16 13 -20 2z"/>
<path d="M293 571 c-22 -21 -12 -73 15 -87 25 -12 62 -8 62 7 0 5 -13 9 -29 9
-26 0 -29 3 -27 32 2 38 36 55 36 19 0 -12 4 -21 9 -21 17 0 22 19 11 40 -12
23 -55 24 -77 1z"/>
<path d="M417 583 c-4 -3 -6 -29 -6 -57 1 -28 3 -40 6 -26 9 57 14 70 29 70 8
0 12 5 9 10 -7 11 -28 13 -38 3z"/>
<path d="M491 581 c-18 -12 -7 -41 16 -41 14 0 15 2 4 9 -9 6 -10 10 -2 16 7
4 18 1 26 -5 20 -16 40 -3 24 16 -13 16 -47 18 -68 5z"/>
<path d="M873 580 c-27 -11 -39 -51 -23 -79 8 -15 20 -21 45 -21 19 0 35 5 35
10 0 6 -13 10 -28 10 -25 0 -28 3 -28 35 0 30 3 35 21 33 13 -2 19 -9 17 -20
-2 -11 3 -18 13 -18 18 0 20 31 3 48 -14 14 -24 14 -55 2z"/>
<path d="M1055 580 c-7 -11 0 -13 28 -11 14 2 17 -6 17 -39 0 -44 -22 -53 -28
-12 -4 26 -32 18 -32 -9 0 -24 24 -36 61 -31 27 4 29 7 29 48 0 23 -3 45 -7
47 -21 12 -63 16 -68 7z"/>
<path d="M602 525 c-1 -25 3 -45 8 -45 6 0 10 20 10 45 0 25 -4 45 -8 45 -4 0
-9 -20 -10 -45z"/>
<path d="M522 533 c-10 -4 -9 -9 5 -20 16 -13 15 -14 -15 -9 -24 4 -32 2 -30
-7 3 -6 21 -13 41 -15 41 -4 59 17 37 43 -13 16 -17 17 -38 8z"/>
<path d="M1335 490 c-3 -5 -1 -10 4 -10 6 0 11 5 11 10 0 6 -2 10 -4 10 -3 0
-8 -4 -11 -10z"/>
<path d="M1568 483 c7 -3 16 -2 19 1 4 3 -2 6 -13 5 -11 0 -14 -3 -6 -6z"/>
<path d="M2318 483 c7 -3 16 -2 19 1 4 3 -2 6 -13 5 -11 0 -14 -3 -6 -6z"/>
</g>
</svg>
