<svg width="84" height="84" viewBox="0 0 84 84" fill="none" xmlns="http://www.w3.org/2000/svg">
<g filter="url(#filter0_d)">
<path d="M78 40C78 59.8823 61.8822 76 42 76C22.1178 76 6 59.8823 6 40C6 20.1177 22.1178 4 42 4C61.8822 4 78 20.1177 78 40Z" fill="url(#paint0_linear)"/>
</g>
<g clip-path="url(#clip0)">
<path d="M53.9174 27.1667C53.3194 27.1667 52.834 26.6824 52.834 26.0833V21.75C52.834 21.152 52.3476 20.6667 51.7507 20.6667H47.4174C46.8194 20.6667 46.334 20.1824 46.334 19.5833C46.334 18.9842 46.8194 18.5 47.4174 18.5H51.7507C53.5425 18.5 55.0007 19.9582 55.0007 21.75V26.0833C55.0007 26.6824 54.5154 27.1667 53.9174 27.1667Z" fill="white"/>
<path d="M51.7507 44.5H47.4174C46.8194 44.5 46.334 44.0157 46.334 43.4167C46.334 42.8176 46.8194 42.3333 47.4174 42.3333H51.7507C52.3476 42.3333 52.834 41.848 52.834 41.25V36.9167C52.834 36.3176 53.3194 35.8333 53.9174 35.8333C54.5154 35.8333 55.0007 36.3176 55.0007 36.9167V41.25C55.0007 43.0418 53.5425 44.5 51.7507 44.5Z" fill="white"/>
<path d="M36.5833 44.5H32.25C30.4582 44.5 29 43.0418 29 41.25V36.9167C29 36.3176 29.4853 35.8333 30.0833 35.8333C30.6813 35.8333 31.1667 36.3176 31.1667 36.9167V41.25C31.1667 41.848 31.6531 42.3333 32.25 42.3333H36.5833C37.1813 42.3333 37.6667 42.8176 37.6667 43.4167C37.6667 44.0157 37.1813 44.5 36.5833 44.5Z" fill="white"/>
<path d="M30.0833 27.1667C29.4853 27.1667 29 26.6824 29 26.0833V21.75C29 19.9582 30.4582 18.5 32.25 18.5H36.5833C37.1813 18.5 37.6667 18.9842 37.6667 19.5833C37.6667 20.1824 37.1813 20.6667 36.5833 20.6667H32.25C31.6531 20.6667 31.1667 21.152 31.1667 21.75V26.0833C31.1667 26.6824 30.6813 27.1667 30.0833 27.1667Z" fill="white"/>
<path d="M48.4993 30.4167C47.9013 30.4167 47.416 29.9324 47.416 29.3333V26.0833H36.5826V29.3333C36.5826 29.9324 36.0973 30.4167 35.4993 30.4167C34.9013 30.4167 34.416 29.9324 34.416 29.3333V26.0833C34.416 24.8884 35.3878 23.9167 36.5826 23.9167H47.416C48.6109 23.9167 49.5826 24.8884 49.5826 26.0833V29.3333C49.5826 29.9324 49.0973 30.4167 48.4993 30.4167Z" fill="white"/>
<path d="M51.75 33.6667C51.75 34.2657 51.2647 34.75 50.6667 34.75H49.5833V36.9167C49.5833 38.1116 48.6116 39.0833 47.4167 39.0833H36.5833C35.3884 39.0833 34.4167 38.1116 34.4167 36.9167V34.75H33.3333C32.7353 34.75 32.25 34.2657 32.25 33.6667C32.25 33.0676 32.7353 32.5833 33.3333 32.5833H50.6667C51.2647 32.5833 51.75 33.0676 51.75 33.6667Z" fill="white"/>
</g>
<path d="M33.4512 55.0653H34.7211C34.6827 53.6676 33.4469 52.6534 31.6742 52.6534C29.9228 52.6534 28.5804 53.6548 28.5804 55.1591C28.5804 56.3736 29.4498 57.0852 30.8517 57.4645L31.883 57.7457C32.8162 57.9929 33.5364 58.2997 33.5364 59.0753C33.5364 59.9276 32.7225 60.4901 31.6017 60.4901C30.5875 60.4901 29.7438 60.0384 29.6671 59.0881H28.3461C28.4313 60.669 29.6543 61.6449 31.6103 61.6449C33.66 61.6449 34.8404 60.5668 34.8404 59.0881C34.8404 57.5156 33.4384 56.9062 32.3304 56.6335L31.4782 56.4119C30.7963 56.2372 29.8887 55.9176 29.8929 55.0824C29.8929 54.3409 30.5705 53.7912 31.6444 53.7912C32.6458 53.7912 33.3574 54.2599 33.4512 55.0653ZM39.0687 61.6321C40.6156 61.6321 41.617 60.7031 41.7576 59.429H40.5176C40.3556 60.1364 39.8059 60.554 39.0772 60.554C37.9991 60.554 37.3045 59.6548 37.3045 58.2273C37.3045 56.8253 38.0119 55.9432 39.0772 55.9432C39.8869 55.9432 40.3812 56.4545 40.5176 57.0682H41.7576C41.6213 55.7472 40.5431 54.8693 39.0559 54.8693C37.2108 54.8693 36.0176 56.2585 36.0176 58.2571C36.0176 60.2301 37.1681 61.6321 39.0687 61.6321ZM45.025 61.6449C46.1074 61.6449 46.7168 61.0952 46.9597 60.6051H47.0108V61.5H48.2551V57.1534C48.2551 55.2486 46.7551 54.8693 45.7154 54.8693C44.5307 54.8693 43.4398 55.3466 43.0137 56.5398L44.2111 56.8125C44.3986 56.348 44.8759 55.9006 45.7324 55.9006C46.5549 55.9006 46.9767 56.331 46.9767 57.0724V57.1023C46.9767 57.5668 46.4995 57.5582 45.3233 57.6946C44.0833 57.8395 42.8134 58.1634 42.8134 59.6506C42.8134 60.9375 43.7807 61.6449 45.025 61.6449ZM45.302 60.6222C44.5819 60.6222 44.062 60.2983 44.062 59.6676C44.062 58.9858 44.6671 58.7429 45.4043 58.6449C45.8176 58.5895 46.7978 58.4787 46.981 58.2955V59.1392C46.981 59.9148 46.3631 60.6222 45.302 60.6222ZM51.2264 57.6136C51.2264 56.5696 51.8656 55.973 52.752 55.973C53.617 55.973 54.1412 56.5398 54.1412 57.4901V61.5H55.4153V57.3366C55.4153 55.7173 54.5247 54.8693 53.1866 54.8693C52.2022 54.8693 51.5588 55.3253 51.2562 56.0199H51.1752V54.9545H49.9522V61.5H51.2264V57.6136Z" fill="white"/>
<defs>
<filter id="filter0_d" x="0" y="0" width="84" height="84" filterUnits="userSpaceOnUse" color-interpolation-filters="sRGB">
<feFlood flood-opacity="0" result="BackgroundImageFix"/>
<feColorMatrix in="SourceAlpha" type="matrix" values="0 0 0 0 0 0 0 0 0 0 0 0 0 0 0 0 0 0 127 0" result="hardAlpha"/>
<feOffset dy="2"/>
<feGaussianBlur stdDeviation="3"/>
<feComposite in2="hardAlpha" operator="out"/>
<feColorMatrix type="matrix" values="0 0 0 0 0 0 0 0 0 0 0 0 0 0 0 0 0 0 0.18 0"/>
<feBlend mode="normal" in2="BackgroundImageFix" result="effect1_dropShadow"/>
<feBlend mode="normal" in="SourceGraphic" in2="effect1_dropShadow" result="shape"/>
</filter>
<linearGradient id="paint0_linear" x1="48.5" y1="87" x2="9.5" y2="-13" gradientUnits="userSpaceOnUse">
<stop offset="0.123415" stop-color="#4F6CFF"/>
<stop offset="1" stop-color="#93A5FF"/>
</linearGradient>
<clipPath id="clip0">
<rect width="26" height="26" fill="white" transform="translate(29 18.5)"/>
</clipPath>
</defs>
</svg>
