<svg width="29" height="12" viewBox="0 0 29 12" fill="none" xmlns="http://www.w3.org/2000/svg">
<path fill-rule="evenodd" clip-rule="evenodd" d="M0.776681 0.701019C0.615203 0.786483 0.57993 0.826015 0.546414 0.959114C0.526085 1.03988 0.516113 1.59525 0.516113 2.64694V4.21438H0.735886H0.955658V2.89948C0.955658 2.12006 0.967086 1.52437 0.983706 1.43662C1.02093 1.24018 1.11321 1.1479 1.30966 1.11067C1.3971 1.09411 1.9843 1.08263 2.74504 1.08263H4.03247V0.862854V0.643082H2.45931C0.911951 0.643082 0.884369 0.644043 0.776681 0.701019ZM1.91966 2.45065C1.86815 2.47637 1.81252 2.52213 1.79604 2.55235C1.77956 2.58257 1.75687 2.61416 1.7456 2.62257C1.67854 2.67262 1.66764 3.22079 1.67544 6.15112C1.68338 9.12236 1.68547 9.23159 1.73645 9.33433C1.8378 9.5385 1.73057 9.52919 4.08054 9.53782L6.17525 9.54551V8.69452V7.84356L4.85887 7.83521C4.13488 7.83065 3.53221 7.81659 3.51963 7.804C3.50708 7.79142 3.49312 6.57067 3.48864 5.09119L3.48051 2.40126L2.74691 2.40258C2.1129 2.40373 2.00059 2.41024 1.91966 2.45065ZM4.36213 3.27909V4.15694L5.66568 4.16504C6.68954 4.17144 6.9769 4.18084 7.00492 4.20886C7.03294 4.23688 7.04233 4.52423 7.04873 5.5481L7.05684 6.85165H7.93469H8.81252V4.75565V2.65966L8.7095 2.55941C8.64285 2.49455 8.56283 2.4492 8.48286 2.4309C8.40429 2.41291 7.63072 2.40236 6.36068 2.40192L4.36213 2.40126V3.27909ZM9.58172 3.22541V4.04955H12.1915H14.8013V4.57151V5.09347H12.1915H9.58172V7.31867V9.54386H10.4059H11.23V8.18402C11.23 7.43611 11.2372 6.82418 11.2459 6.82418C11.2898 6.82418 11.7221 7.22512 12.9354 8.39151C13.2742 8.71716 13.6895 9.10964 13.8582 9.26373L14.1652 9.54386H15.4231H16.681L16.5447 9.40364C16.4697 9.32653 16.2971 9.16376 16.1612 9.04198C16.0252 8.92017 15.7579 8.67111 15.5672 8.48854C15.3765 8.30594 14.9996 7.95257 14.7296 7.70327C14.0727 7.09669 13.7849 6.81366 13.7849 6.77434C13.7849 6.74962 14.1396 6.74176 15.2546 6.74176H16.7243V4.57151V2.40126H13.153H9.58172V3.22541ZM17.4386 5.97256V9.54386H18.3177H19.1968V5.97256V2.40126H18.3177H17.4386V5.97256ZM19.966 4.62645V6.85165H22.301H24.6361V7.29119V7.73074H22.301H19.966V8.60983V9.48892H23.4823H26.9987V7.26372V5.03853H24.6361H22.2736V4.65917C22.2736 4.37498 22.2833 4.26644 22.3125 4.2265C22.3505 4.17455 22.4116 4.17295 24.6751 4.16512L26.9987 4.1571V3.27917V2.40126H23.4823H19.966V4.62645ZM4.36213 5.94509V6.85165H5.24122H6.12031V5.94509V5.03853H5.24122H4.36213V5.94509ZM5.62582 5.94509V6.30222H5.26869H4.91156V5.94509V5.58796H5.26869H5.62582V5.94509ZM7.05434 9.54386V11.357H7.93343H8.81252V9.54386V7.73074H7.93343H7.05434V9.54386ZM27.7679 8.95481C27.7679 10.4432 27.7455 10.6435 27.5657 10.7613C27.4373 10.8454 27.1618 10.8621 25.8929 10.8623L24.6361 10.8625V11.0823V11.302H26.1457C28.0033 11.302 28.0282 11.2985 28.1111 11.0193C28.1459 10.9023 28.1525 10.6277 28.1525 9.30535V7.73074H27.9602H27.7679V8.95481Z" fill="#6982FF"/>
</svg>
