<svg width="34" height="24" viewBox="0 0 34 24" fill="none" xmlns="http://www.w3.org/2000/svg">
<path d="M1.54233 13.4816L28.6658 13.4816L20.5023 21.4211C20.3549 21.5594 20.2374 21.725 20.1566 21.908C20.0758 22.091 20.0332 22.2878 20.0315 22.487C20.0297 22.6861 20.0687 22.8837 20.1462 23.068C20.2238 23.2523 20.3383 23.4198 20.4831 23.5607C20.6279 23.7015 20.8002 23.8129 20.9897 23.8883C21.1792 23.9637 21.3823 24.0017 21.5871 23.9999C21.7919 23.9982 21.9943 23.9568 22.1825 23.8782C22.3706 23.7996 22.5408 23.6853 22.6831 23.5421L33.4795 13.0421C33.7686 12.7608 33.931 12.3793 33.931 11.9816C33.931 11.5838 33.7686 11.2024 33.4795 10.9211L22.6831 0.421067C22.3922 0.14783 22.0026 -0.00336161 21.5982 5.63913e-05C21.1938 0.0034744 20.807 0.161229 20.521 0.439342C20.2351 0.717454 20.0729 1.09367 20.0694 1.48697C20.0658 1.88026 20.2213 2.25917 20.5022 2.54207L28.6658 10.4816L1.54233 10.4816C1.13328 10.4816 0.740977 10.6396 0.451735 10.9209C0.16249 11.2022 -4.90016e-06 11.5837 -4.86538e-06 11.9816C-4.8306e-06 12.3794 0.16249 12.7609 0.451735 13.0422C0.740977 13.3235 1.13328 13.4816 1.54233 13.4816Z" fill="black"/>
</svg>
