<svg width="32" height="33" viewBox="0 0 32 33" fill="none" xmlns="http://www.w3.org/2000/svg">
<g clip-path="url(#clip0)">
<path d="M27.9174 12.1667C27.3194 12.1667 26.834 11.6824 26.834 11.0833V6.75C26.834 6.152 26.3476 5.66667 25.7507 5.66667H21.4174C20.8194 5.66667 20.334 5.18242 20.334 4.58333C20.334 3.98425 20.8194 3.5 21.4174 3.5H25.7507C27.5425 3.5 29.0007 4.95817 29.0007 6.75V11.0833C29.0007 11.6824 28.5154 12.1667 27.9174 12.1667Z" fill="white"/>
<path d="M25.7507 29.5H21.4174C20.8194 29.5 20.334 29.0157 20.334 28.4167C20.334 27.8176 20.8194 27.3333 21.4174 27.3333H25.7507C26.3476 27.3333 26.834 26.848 26.834 26.25V21.9167C26.834 21.3176 27.3194 20.8333 27.9174 20.8333C28.5154 20.8333 29.0007 21.3176 29.0007 21.9167V26.25C29.0007 28.0418 27.5425 29.5 25.7507 29.5Z" fill="white"/>
<path d="M10.5833 29.5H6.25C4.45817 29.5 3 28.0418 3 26.25V21.9167C3 21.3176 3.48533 20.8333 4.08333 20.8333C4.68133 20.8333 5.16667 21.3176 5.16667 21.9167V26.25C5.16667 26.848 5.65308 27.3333 6.25 27.3333H10.5833C11.1813 27.3333 11.6667 27.8176 11.6667 28.4167C11.6667 29.0157 11.1813 29.5 10.5833 29.5Z" fill="white"/>
<path d="M4.08333 12.1667C3.48533 12.1667 3 11.6824 3 11.0833V6.75C3 4.95817 4.45817 3.5 6.25 3.5H10.5833C11.1813 3.5 11.6667 3.98425 11.6667 4.58333C11.6667 5.18242 11.1813 5.66667 10.5833 5.66667H6.25C5.65308 5.66667 5.16667 6.152 5.16667 6.75V11.0833C5.16667 11.6824 4.68133 12.1667 4.08333 12.1667Z" fill="white"/>
<path d="M22.4993 15.4167C21.9013 15.4167 21.416 14.9324 21.416 14.3333V11.0833H10.5826V14.3333C10.5826 14.9324 10.0973 15.4167 9.49933 15.4167C8.90133 15.4167 8.41602 14.9324 8.41602 14.3333V11.0833C8.41602 9.88844 9.38777 8.91669 10.5826 8.91669H21.416C22.6109 8.91669 23.5826 9.88844 23.5826 11.0833V14.3333C23.5826 14.9324 23.0973 15.4167 22.4993 15.4167Z" fill="white"/>
<path d="M25.75 18.6667C25.75 19.2657 25.2647 19.75 24.6667 19.75H23.5833V21.9167C23.5833 23.1116 22.6116 24.0833 21.4167 24.0833H10.5833C9.38843 24.0833 8.41668 23.1116 8.41668 21.9167V19.75H7.33333C6.73533 19.75 6.25 19.2657 6.25 18.6667C6.25 18.0676 6.73533 17.5833 7.33333 17.5833H24.6667C25.2647 17.5833 25.75 18.0676 25.75 18.6667Z" fill="white"/>
</g>
<defs>
<clipPath id="clip0">
<rect width="26" height="26" fill="white" transform="translate(3 3.5)"/>
</clipPath>
</defs>
</svg>
