<svg width="41" height="44" viewBox="0 0 41 44" fill="none" xmlns="http://www.w3.org/2000/svg">
<g clip-path="url(#clip0)">
<path d="M37.8051 42.8755L29.9409 35.3796C26.5634 31.2772 32.208 28.8139 28.0134 20.1365C27.2791 18.1465 26.3185 15.5451 26.3135 15.5314C25.7772 14.0793 24.761 12.823 23.4323 11.9565L23.4332 4.23926V4.239C23.4332 2.37412 21.9303 0.856934 20.0829 0.856934H6.35021C4.50285 0.856934 3 2.37412 3 4.239V9.09787C3 9.45872 3.30683 9.75117 3.6854 9.75117C4.06398 9.75117 4.3708 9.45872 4.3708 9.09787V6.97515H22.0615V27.8156L18.9116 25.9445V22.34C18.9116 20.209 17.616 18.3617 15.7365 17.4739C16.7331 16.8226 17.4404 15.7971 17.6327 14.6115H19.9359C20.3145 14.6115 20.6213 14.319 20.6213 13.9582C20.6213 13.5974 20.3145 13.3049 19.9359 13.3049H17.6327C17.3019 11.2648 15.4472 9.69799 13.2157 9.69799C10.9842 9.69799 9.1295 11.2648 8.7987 13.3049H6.49542C6.11685 13.3049 5.81002 13.5974 5.81002 13.9582C5.81002 14.319 6.11685 14.6115 6.49542 14.6115H8.7987C8.99105 15.7975 9.69862 16.8232 10.6957 17.4745C8.81699 18.3625 7.5219 20.2094 7.5219 22.34V29.0551H4.3708V12.6763C4.3708 12.3155 4.06398 12.023 3.6854 12.023C3.30683 12.023 3 12.3155 3 12.6763V31.9079C3 33.7727 4.50285 35.2899 6.35021 35.2899H8.98104C9.62958 36.5955 10.7357 37.6309 12.1404 38.2314C16.5686 40.0079 17.1657 41.5265 20.1031 43.823C20.2151 44.1057 22.5194 43.9569 22.7478 43.9907C23.1263 43.9907 23.4333 43.6982 23.4333 43.3374C23.4333 42.9765 23.1264 42.6841 22.7478 42.6841H20.8249L16.5617 39.0258C16.7591 38.6956 11.3633 36.8981 10.5472 35.2899C10.5472 35.2899 20.292 35.2843 20.3951 35.2747L21.8609 36.5679C22.508 37.1387 23.4416 36.1822 22.7921 35.6091L21.0836 34.1017C21.0835 34.1016 21.0833 34.1015 21.0832 34.1014L13.5007 27.4146C12.9551 26.8859 12.9681 26.0262 13.514 25.5058C14.0855 24.961 14.8151 25.0488 15.4462 25.4254L22.2799 29.4849C22.7087 29.8664 23.4324 29.5667 23.4324 29.0078V13.6306C24.1434 14.2749 24.6918 15.0753 25.0205 15.9652C25.5948 17.6895 27.9469 23.3717 28.1308 25.058C29.0409 29.9473 25.5297 32.994 28.9716 36.3036L35.6658 42.6842H25.9883C25.6098 42.6842 25.3029 42.9766 25.3029 43.3375C25.3029 43.6983 25.6097 43.9908 25.9883 43.9908H37.3204C37.9171 43.9908 38.2273 43.278 37.8051 42.8755ZM4.3708 5.66855V4.23891C4.3708 3.09443 5.25874 2.16345 6.35021 2.16345H20.0829C21.1743 2.16345 22.0623 3.09452 22.0624 4.23874L22.0617 5.66855H4.3708ZM13.2158 11.0046C14.6889 11.0046 15.9243 11.9897 16.2372 13.3049H10.1943C10.5072 11.9897 11.7427 11.0046 13.2158 11.0046ZM16.2372 14.6115C15.9243 15.9267 14.6889 16.9118 13.2158 16.9118C11.7427 16.9118 10.5072 15.9267 10.1943 14.6115H16.2372ZM6.35021 33.9834C5.25874 33.9834 4.3708 33.0523 4.3708 31.9079V30.3617L14.8239 30.3619L18.9308 33.9834H6.35021ZM14.5174 23.7966C13.0325 23.7966 11.7627 24.9817 11.7226 26.3942C11.6884 27.6025 12.4956 28.3082 13.3422 29.0551H8.89262V22.34C8.89262 20.0674 10.8324 18.2185 13.2167 18.2185C15.6009 18.2185 17.5407 20.0674 17.5407 22.34V25.1301C16.6218 24.5841 15.6446 23.7966 14.5174 23.7966Z" fill="#757575"/>
<path d="M11.4956 31.4912C11.117 31.4912 10.8102 31.7837 10.8102 32.1445C10.8102 32.5054 11.117 32.7978 11.4956 32.7978H14.9377C15.3163 32.7978 15.6231 32.5054 15.6231 32.1445C15.6231 31.7837 15.3163 31.4912 14.9377 31.4912H11.4956Z" fill="#757575"/>
<path d="M14.4455 3.2627H11.9862C11.6076 3.2627 11.3008 3.55515 11.3008 3.916C11.3008 4.27684 11.6076 4.5693 11.9862 4.5693H14.4455C14.8241 4.5693 15.1309 4.27684 15.1309 3.916C15.1309 3.55515 14.824 3.2627 14.4455 3.2627Z" fill="#757575"/>
<path d="M18.2262 3.22168C17.8241 3.22168 17.498 3.53235 17.498 3.91562C17.498 4.29889 17.824 4.60965 18.2262 4.60965C18.6283 4.60965 18.9543 4.29889 18.9543 3.91562C18.9543 3.53235 18.6283 3.22168 18.2262 3.22168Z" fill="#757575"/>
<path d="M25.6725 2.3772C25.8491 2.3772 26.0257 2.3126 26.1597 2.18346L27.2711 1.11304C27.5373 0.856584 27.5351 0.442986 27.266 0.189192C26.9971 -0.064517 26.563 -0.0625409 26.2968 0.194003L25.1854 1.26443C24.7667 1.66754 25.0768 2.3772 25.6725 2.3772Z" fill="#757575"/>
<path d="M26.2967 7.63253C26.9186 8.2317 27.8927 7.31232 27.2711 6.71349L26.1596 5.64298C25.8933 5.38643 25.4593 5.38446 25.1903 5.63817C24.9213 5.89196 24.919 6.30556 25.1853 6.56202L26.2967 7.63253Z" fill="#757575"/>
<path d="M26.0983 3.916C26.0983 4.27684 26.4051 4.5693 26.7837 4.5693H28.3815C28.7601 4.5693 29.0669 4.27684 29.0669 3.916C29.0669 3.55515 28.7601 3.2627 28.3815 3.2627H26.7837C26.4052 3.2627 26.0983 3.55515 26.0983 3.916Z" fill="#757575"/>
</g>
<defs>
<clipPath id="clip0">
<rect width="41" height="44" fill="white" transform="translate(0 0.000244141)"/>
</clipPath>
</defs>
</svg>
