<svg width="25" height="25" viewBox="0 0 25 25" fill="none" xmlns="http://www.w3.org/2000/svg">
<path d="M12.2509 0C5.4905 0 0.000917852 5.48972 0.000917852 12.2508C0.00500142 14.4144 0.592872 16.5318 1.6821 18.3981L0.0216529 23.3795C-0.0847746 23.6988 0.219208 24.0026 0.538445 23.8963L5.30284 22.3084C7.34489 23.7221 9.76248 24.4963 12.2501 24.5C19.0108 24.4998 24.5 19.0106 24.5 12.25C24.5 5.48923 19.0112 0.000155102 12.2509 0ZM8.15718 11.025C8.82887 11.025 9.38217 11.5784 9.38217 12.25C9.38216 12.9218 8.82886 13.475 8.15718 13.475C7.4855 13.475 6.93299 12.9218 6.93298 12.25C6.93297 11.5784 7.48549 11.025 8.15718 11.025ZM12.2509 11.025C12.9225 11.025 13.4759 11.5784 13.4759 12.25C13.4758 12.9218 12.9225 13.475 12.2509 13.475C11.5792 13.475 11.0259 12.9218 11.0259 12.25C11.0259 11.5784 11.5792 11.025 12.2509 11.025ZM16.3238 11.025C16.9955 11.025 17.5488 11.5784 17.5488 12.25C17.5488 12.9218 16.9955 13.475 16.3238 13.475C15.6521 13.475 15.0988 12.9218 15.0988 12.25C15.0988 11.5784 15.6521 11.025 16.3238 11.025Z" fill="#4F6CFF"/>
</svg>
