<svg width="32" height="32" viewBox="0 0 32 32" fill="none" xmlns="http://www.w3.org/2000/svg">
<circle cx="16" cy="16" r="16" fill="#E6EAFF"/>
<path d="M19.2746 15.4079L14.6401 12.7597C14.4349 12.6571 14.1912 12.6681 13.9961 12.7887C13.8009 12.9094 13.6821 13.1224 13.6821 13.3519V18.6484C13.6821 18.8779 13.8009 19.0909 13.9961 19.2116C14.1912 19.3322 14.4349 19.3432 14.6401 19.2406L19.2746 16.5924C19.499 16.4802 19.6407 16.251 19.6407 16.0001C19.6407 15.7493 19.499 15.5201 19.2746 15.4079Z" fill="#FFB038"/>
<path d="M15.9917 9.37938H16.0082C16.1798 9.38212 16.3454 9.31621 16.4681 9.1963C16.5909 9.07639 16.6607 8.91242 16.662 8.74081V7.06213C16.6629 6.88649 16.5924 6.71801 16.4667 6.59538C16.2727 6.40175 15.9794 6.34769 15.7291 6.4594C15.4789 6.57112 15.3233 6.82551 15.3379 7.09921V8.74081C15.3392 8.91242 15.4089 9.07639 15.5317 9.1963C15.6545 9.31621 15.8201 9.38212 15.9917 9.37938Z" fill="url(#paint0_linear)"/>
<path d="M16.0082 22.6207H15.9917C15.8201 22.618 15.6545 22.6839 15.5318 22.8038C15.409 22.9237 15.3392 23.0877 15.3379 23.2593V24.938C15.3384 25.1332 15.4249 25.3183 15.5742 25.444C15.7236 25.5697 15.9207 25.6232 16.1132 25.5904C16.4393 25.522 16.6701 25.2307 16.662 24.8976V23.2593C16.6607 23.0877 16.5909 22.9237 16.4682 22.8038C16.3454 22.6839 16.1798 22.618 16.0082 22.6207Z" fill="url(#paint1_linear)"/>
<path d="M12.6073 9.54483C12.76 9.86183 13.1335 10.0046 13.4587 9.87019C13.7839 9.73581 13.9477 9.371 13.8321 9.03867L13.1929 7.4891C13.1175 7.30406 12.962 7.16339 12.7703 7.1069C12.5787 7.0504 12.3718 7.08422 12.2081 7.19878C11.9485 7.39963 11.8591 7.75145 11.9912 8.05186L12.6073 9.54483Z" fill="url(#paint2_linear)"/>
<path d="M19.3927 22.4553C19.24 22.1383 18.8664 21.9955 18.5412 22.1299C18.216 22.2643 18.0522 22.6291 18.1679 22.9614L18.8071 24.511C18.947 24.8492 19.3345 25.01 19.6727 24.8702C20.011 24.7303 20.1718 24.3428 20.0319 24.0045L19.3927 22.4553Z" fill="url(#paint3_linear)"/>
<path d="M10.1478 9.21052C10.0167 9.07823 9.83594 9.00746 9.64994 9.01566C9.46395 9.02386 9.29007 9.11026 9.1712 9.25355C8.95382 9.53172 8.98244 9.92932 9.23741 10.1735L10.4 11.3361C10.5674 11.5034 10.8113 11.5688 11.0399 11.5075C11.2685 11.4463 11.447 11.2677 11.5083 11.0391C11.5695 10.8105 11.5042 10.5666 11.3368 10.3993L10.1478 9.21052Z" fill="url(#paint4_linear)"/>
<path d="M21.6006 20.6641C21.4332 20.4968 21.1893 20.4314 20.9607 20.4927C20.7321 20.5539 20.5536 20.7325 20.4923 20.9611C20.4311 21.1897 20.4964 21.4336 20.6638 21.6009L21.826 22.7632C22.0561 23.0041 22.4255 23.0459 22.7036 22.8625C22.8632 22.7498 22.965 22.5724 22.9815 22.3776C22.998 22.1829 22.9277 21.9909 22.7893 21.8529L21.6006 20.6641Z" fill="url(#paint5_linear)"/>
<path d="M13.4725 22.1209C13.3138 22.0473 13.132 22.0413 12.9688 22.1043C12.8056 22.1674 12.6751 22.2941 12.6072 22.4553L11.9679 24.0045C11.8281 24.3428 11.9889 24.7303 12.3271 24.8702C12.6653 25.01 13.0529 24.8492 13.1928 24.511L13.8333 22.9608C13.8974 22.8016 13.8953 22.6235 13.8275 22.4658C13.7598 22.3082 13.632 22.1841 13.4725 22.1209Z" fill="url(#paint6_linear)"/>
<path d="M8.74109 16.662C8.91269 16.6607 9.07667 16.591 9.19658 16.4682C9.31649 16.3454 9.38239 16.1798 9.37965 16.0082V15.9917C9.38239 15.8201 9.31649 15.6545 9.19658 15.5318C9.07667 15.409 8.91269 15.3392 8.74109 15.3379H7.06241C6.87664 15.3379 6.69942 15.416 6.57401 15.553C6.44861 15.6901 6.38655 15.8735 6.40299 16.0586C6.44575 16.4087 6.7468 16.6696 7.09949 16.662H8.74109Z" fill="url(#paint7_linear)"/>
<path d="M24.9379 15.3379H23.2593C23.0876 15.3392 22.9237 15.409 22.8038 15.5318C22.6839 15.6545 22.6179 15.8201 22.6207 15.9917V16.0082C22.6179 16.1798 22.6839 16.3454 22.8038 16.4682C22.9237 16.591 23.0876 16.6607 23.2593 16.662H24.8975C25.2307 16.6701 25.5221 16.4391 25.5904 16.1129C25.6237 15.9204 25.5703 15.723 25.4445 15.5736C25.3187 15.4241 25.1333 15.3379 24.9379 15.3379Z" fill="url(#paint8_linear)"/>
<path d="M9.88528 18.5407C9.82484 18.3774 9.70087 18.2455 9.5416 18.175C9.38234 18.1046 9.20134 18.1016 9.03982 18.1667L7.48958 18.8072C7.24201 18.9102 7.08026 19.1515 7.0791 19.4196C7.08771 19.6487 7.21102 19.8581 7.40721 19.9768C7.6034 20.0954 7.84612 20.1074 8.05301 20.0086L9.54597 19.3928C9.70468 19.3257 9.8299 19.1978 9.89365 19.0377C9.95741 18.8776 9.95439 18.6986 9.88528 18.5407Z" fill="url(#paint9_linear)"/>
<path d="M7.48886 13.1929L9.03909 13.8334C9.37142 13.9491 9.73622 13.7852 9.87061 13.4601C10.005 13.1349 9.86225 12.7613 9.54524 12.6086L8.05228 11.9929C7.75173 11.8607 7.39976 11.9499 7.19854 12.2094C7.08449 12.373 7.05098 12.5796 7.10744 12.7709C7.16391 12.9622 7.30423 13.1174 7.48886 13.1929Z" fill="url(#paint10_linear)"/>
<path d="M24.5103 18.8072L22.9601 18.1667C22.6278 18.0511 22.263 18.2149 22.1286 18.5401C21.9942 18.8653 22.1369 19.2388 22.4539 19.3915L24.0038 20.0321C24.3421 20.1719 24.7296 20.0111 24.8695 19.6729C25.0094 19.3347 24.8486 18.9471 24.5103 18.8072Z" fill="url(#paint11_linear)"/>
<path d="M11.3142 20.6763C11.1948 20.5526 11.031 20.4818 10.8591 20.4795C10.6872 20.4772 10.5215 20.5436 10.3989 20.6641L9.21016 21.8528C9.0718 21.9908 9.00147 22.1829 9.018 22.3776C9.03454 22.5723 9.13625 22.7498 9.29589 22.8624C9.57395 23.0459 9.94343 23.0041 10.1735 22.7631L11.3357 21.6009C11.458 21.4767 11.5247 21.3083 11.5206 21.134C11.5165 20.9598 11.4421 20.7947 11.3142 20.6763Z" fill="url(#paint12_linear)"/>
<path d="M18.66 9.57798C18.7412 9.61162 18.8323 9.61165 18.9135 9.57807C18.9946 9.54448 19.0591 9.48002 19.0927 9.39889L19.726 7.86951C19.7897 7.70213 19.7087 7.51445 19.5433 7.44592C19.3778 7.37739 19.1878 7.45287 19.1145 7.61626L18.4809 9.14498C18.4472 9.22614 18.4471 9.31739 18.4807 9.39862C18.5143 9.47984 18.5788 9.54437 18.66 9.57798Z" fill="url(#paint13_linear)"/>
<path d="M21.1497 11.1811C21.2375 11.1814 21.3218 11.1464 21.3837 11.0841L22.5546 9.91393C22.6839 9.78458 22.6839 9.57486 22.5546 9.44551C22.4252 9.31617 22.2155 9.31617 22.0862 9.44551L20.9156 10.6157C20.8207 10.7104 20.7923 10.8529 20.8435 10.9767C20.8948 11.1005 21.0157 11.1812 21.1497 11.1811Z" fill="url(#paint14_linear)"/>
<path d="M22.4217 13.3399C22.4554 13.421 22.5198 13.4855 22.601 13.5191C22.6821 13.5527 22.7733 13.5526 22.8544 13.519L24.3835 12.8857C24.5524 12.8158 24.6326 12.6221 24.5627 12.4532C24.4928 12.2843 24.2991 12.204 24.1302 12.274L22.6008 12.9072C22.5197 12.9408 22.4552 13.0053 22.4217 13.0865C22.3881 13.1676 22.3881 13.2588 22.4217 13.3399Z" fill="url(#paint15_linear)"/>
<defs>
<linearGradient id="paint0_linear" x1="15.9995" y1="6.4019" x2="15.9995" y2="9.37946" gradientUnits="userSpaceOnUse">
<stop stop-color="#6F88FF"/>
<stop offset="1" stop-color="#455FE3"/>
</linearGradient>
<linearGradient id="paint1_linear" x1="16.0001" y1="22.6206" x2="16.0001" y2="25.5999" gradientUnits="userSpaceOnUse">
<stop stop-color="#6F88FF"/>
<stop offset="1" stop-color="#455FE3"/>
</linearGradient>
<linearGradient id="paint2_linear" x1="12.8999" y1="7.08009" x2="12.8999" y2="9.92064" gradientUnits="userSpaceOnUse">
<stop stop-color="#6F88FF"/>
<stop offset="1" stop-color="#455FE3"/>
</linearGradient>
<linearGradient id="paint3_linear" x1="19.1066" y1="22.0795" x2="19.1066" y2="24.9206" gradientUnits="userSpaceOnUse">
<stop stop-color="#6F88FF"/>
<stop offset="1" stop-color="#455FE3"/>
</linearGradient>
<linearGradient id="paint4_linear" x1="10.2781" y1="9.01502" x2="10.2781" y2="11.5301" gradientUnits="userSpaceOnUse">
<stop stop-color="#6F88FF"/>
<stop offset="1" stop-color="#455FE3"/>
</linearGradient>
<linearGradient id="paint5_linear" x1="21.7268" y1="20.4701" x2="21.7268" y2="22.9764" gradientUnits="userSpaceOnUse">
<stop stop-color="#6F88FF"/>
<stop offset="1" stop-color="#455FE3"/>
</linearGradient>
<linearGradient id="paint6_linear" x1="12.8987" y1="22.061" x2="12.8987" y2="24.9206" gradientUnits="userSpaceOnUse">
<stop stop-color="#6F88FF"/>
<stop offset="1" stop-color="#455FE3"/>
</linearGradient>
<linearGradient id="paint7_linear" x1="7.89006" y1="15.3379" x2="7.89006" y2="16.6622" gradientUnits="userSpaceOnUse">
<stop stop-color="#6F88FF"/>
<stop offset="1" stop-color="#455FE3"/>
</linearGradient>
<linearGradient id="paint8_linear" x1="24.1104" y1="15.3379" x2="24.1104" y2="16.6622" gradientUnits="userSpaceOnUse">
<stop stop-color="#6F88FF"/>
<stop offset="1" stop-color="#455FE3"/>
</linearGradient>
<linearGradient id="paint9_linear" x1="8.50924" y1="18.1199" x2="8.50924" y2="20.075" gradientUnits="userSpaceOnUse">
<stop stop-color="#6F88FF"/>
<stop offset="1" stop-color="#455FE3"/>
</linearGradient>
<linearGradient id="paint10_linear" x1="8.50081" y1="11.9322" x2="8.50081" y2="13.8704" gradientUnits="userSpaceOnUse">
<stop stop-color="#6F88FF"/>
<stop offset="1" stop-color="#455FE3"/>
</linearGradient>
<linearGradient id="paint11_linear" x1="23.499" y1="18.1297" x2="23.499" y2="20.0825" gradientUnits="userSpaceOnUse">
<stop stop-color="#6F88FF"/>
<stop offset="1" stop-color="#455FE3"/>
</linearGradient>
<linearGradient id="paint12_linear" x1="10.2682" y1="20.4794" x2="10.2682" y2="22.9763" gradientUnits="userSpaceOnUse">
<stop stop-color="#6F88FF"/>
<stop offset="1" stop-color="#455FE3"/>
</linearGradient>
<linearGradient id="paint13_linear" x1="19.1016" y1="7.42065" x2="19.1016" y2="9.60323" gradientUnits="userSpaceOnUse">
<stop stop-color="#6F88FF"/>
<stop offset="1" stop-color="#455FE3"/>
</linearGradient>
<linearGradient id="paint14_linear" x1="21.735" y1="9.3485" x2="21.735" y2="11.1811" gradientUnits="userSpaceOnUse">
<stop stop-color="#6F88FF"/>
<stop offset="1" stop-color="#455FE3"/>
</linearGradient>
<linearGradient id="paint15_linear" x1="23.4922" y1="12.2487" x2="23.4922" y2="13.5442" gradientUnits="userSpaceOnUse">
<stop stop-color="#6F88FF"/>
<stop offset="1" stop-color="#455FE3"/>
</linearGradient>
</defs>
</svg>
