<svg width="32" height="18" viewBox="0 0 32 18" fill="none" xmlns="http://www.w3.org/2000/svg">
<rect y="1.4899" width="28.7347" height="15.0204" rx="7.5102" fill="#E0E0E0"/>
<circle cx="23.1835" cy="9.0001" r="8.81633" fill="#4F6CFF"/>
<path d="M22.9974 9.56412C22.9974 8.02887 22.0605 7.12442 20.8151 7.12442C19.5674 7.12442 18.6328 8.02887 18.6328 9.56412C18.6328 11.0971 19.5674 12.0038 20.8151 12.0038C22.0605 12.0038 22.9974 11.0994 22.9974 9.56412ZM22.1323 9.56412C22.1323 10.6448 21.5897 11.2316 20.8151 11.2316C20.0428 11.2316 19.4978 10.6448 19.4978 9.56412C19.4978 8.48342 20.0428 7.89668 20.8151 7.89668C21.5897 7.89668 22.1323 8.48342 22.1323 9.56412Z" fill="white"/>
<path d="M27.7139 7.18936H26.8581V10.4268H26.8164L24.5807 7.18936H23.8108V11.9389H24.6712V8.70373H24.7106L26.9486 11.9389H27.7139V7.18936Z" fill="white"/>
</svg>
