<svg width="32" height="32" viewBox="0 0 32 32" fill="none" xmlns="http://www.w3.org/2000/svg">
<path fill-rule="evenodd" clip-rule="evenodd" d="M23 30H9C7.14351 29.9999 5.36308 29.2624 4.05034 27.9497C2.73761 26.6369 2.00008 24.8565 2 23V9C2.00008 7.14351 2.73761 5.36308 4.05034 4.05034C5.36308 2.73761 7.14351 2.00008 9 2L23 2C24.8565 2 26.637 2.7375 27.9497 4.05025C29.2625 5.36301 30 7.14348 30 9V23C30 24.8565 29.2625 26.637 27.9497 27.9497C26.637 29.2625 24.8565 30 23 30Z" fill="#00978B"/>
<path fill-rule="evenodd" clip-rule="evenodd" d="M15.125 9.875H23C24.0094 9.87494 24.9803 9.48722 25.7121 8.79193C26.4439 8.09663 26.8807 7.14686 26.9324 6.13875C26.984 5.13064 26.6466 4.14119 25.9897 3.37474C25.3328 2.60829 24.4066 2.12337 23.4025 2.02012C23.2686 2.01269 23.1361 2 23 2H9C7.14351 2.00008 5.36308 2.73761 4.05034 4.05034C2.73761 5.36308 2.00008 7.14351 2 9L2 23C2.00008 19.5191 3.38292 16.1807 5.84431 13.7193C8.30571 11.2579 11.6441 9.87508 15.125 9.875" fill="#00A79C"/>
<path fill-rule="evenodd" clip-rule="evenodd" d="M23 16C21.6155 16 20.2622 16.4105 19.111 17.1797C17.9599 17.9489 17.0627 19.0421 16.5328 20.3212C16.003 21.6003 15.8644 23.0078 16.1345 24.3656C16.4046 25.7235 17.0713 26.9708 18.0503 27.9497C19.0292 28.9287 20.2765 29.5954 21.6344 29.8655C22.9922 30.1356 24.3997 29.997 25.6788 29.4672C26.9579 28.9373 28.0511 28.0401 28.8203 26.889C29.5895 25.7378 30 24.3845 30 23V9C30 10.8565 29.2625 12.637 27.9498 13.9497C26.637 15.2625 24.8565 16 23 16Z" fill="#007A6C"/>
<g clip-path="url(#clip0)">
<path d="M21.6867 14.7145C21.7059 12.4587 19.7846 10.3908 17.4039 10.1048C17.3565 10.0992 17.3049 10.0906 17.2503 10.0816C17.1325 10.0621 17.0106 10.042 16.8876 10.042C16.3997 10.042 16.2692 10.3847 16.2349 10.5892C16.2015 10.7879 16.2333 10.9548 16.3294 11.0855C16.491 11.3052 16.7753 11.3442 17.0037 11.3755C17.0706 11.3847 17.1338 11.3933 17.1866 11.4052C19.3257 11.8831 20.0459 12.6346 20.3979 14.7554C20.4065 14.8073 20.4104 14.8711 20.4145 14.9388C20.4299 15.1924 20.4619 15.7198 21.0289 15.7198H21.029C21.0762 15.7198 21.1269 15.7157 21.1797 15.7077C21.7078 15.6274 21.6912 15.1453 21.6833 14.9136C21.681 14.8484 21.6789 14.7867 21.6844 14.7456C21.6859 14.7353 21.6867 14.7249 21.6867 14.7145Z" fill="white"/>
<path d="M16.7492 9.27642C16.8125 9.28099 16.8725 9.28537 16.9224 9.29302C20.4349 9.83319 22.0503 11.4974 22.4979 15.0374C22.5055 15.0975 22.5067 15.1709 22.508 15.2486C22.5124 15.5252 22.5216 16.1006 23.1395 16.1125L23.1587 16.1127C23.3525 16.1127 23.5066 16.0543 23.6169 15.9389C23.8092 15.7377 23.7958 15.4388 23.785 15.1986C23.7824 15.1397 23.7798 15.0842 23.7805 15.0356C23.8251 11.4151 20.6912 8.13207 17.074 8.00999C17.059 8.00949 17.0447 8.01029 17.0302 8.01232C17.0231 8.01337 17.0099 8.01466 16.9874 8.01466C16.9513 8.01466 16.9069 8.01153 16.8599 8.00835C16.803 8.00447 16.7385 8 16.6731 8C16.097 8 15.9875 8.40944 15.9735 8.65352C15.9412 9.21759 16.4869 9.25729 16.7492 9.27642Z" fill="white"/>
<path d="M22.3284 19.6132C22.2538 19.5561 22.1765 19.4971 22.1042 19.4388C21.7207 19.1302 21.3127 18.8458 20.9182 18.5706C20.8363 18.5136 20.7544 18.4565 20.6728 18.3992C20.1673 18.0442 19.7129 17.8717 19.2836 17.8717C18.7054 17.8717 18.2012 18.1912 17.7851 18.8212C17.6008 19.1005 17.3771 19.2363 17.1015 19.2363C16.9385 19.2363 16.7533 19.1898 16.5511 19.098C14.9197 18.3582 13.7547 17.2239 13.0885 15.7266C12.7665 15.0029 12.8709 14.5299 13.4377 14.1449C13.7595 13.9264 14.3586 13.5198 14.3161 12.7411C14.2681 11.8567 12.3169 9.19591 11.4948 8.8937C11.1467 8.7657 10.781 8.76451 10.4058 8.89072C9.46071 9.20843 8.7825 9.7664 8.44432 10.5042C8.11751 11.2171 8.13227 12.0541 8.487 12.9249C9.51249 15.4425 10.9543 17.6375 12.7725 19.4488C14.5521 21.2219 16.7395 22.6743 19.2738 23.7656C19.5022 23.8638 19.7418 23.9175 19.9168 23.9566C19.9764 23.97 20.0279 23.9814 20.0654 23.9917C20.086 23.9973 20.1073 24.0003 20.1286 24.0005L20.1486 24.0006C20.1487 24.0006 20.1486 24.0006 20.1487 24.0006C21.3407 24.0006 22.7719 22.9114 23.2114 21.6697C23.5965 20.5824 22.8934 20.045 22.3284 19.6132Z" fill="white"/>
<path d="M17.2764 12.1518C17.0723 12.157 16.6476 12.1675 16.4986 12.6C16.4289 12.8022 16.4372 12.9777 16.5234 13.1217C16.6499 13.333 16.8923 13.3977 17.1128 13.4332C17.9123 13.5615 18.323 14.0037 18.4051 14.8245C18.4433 15.2073 18.701 15.4746 19.0319 15.4746H19.032C19.0564 15.4746 19.0814 15.4731 19.1063 15.4701C19.5043 15.4228 19.6973 15.1303 19.6798 14.601C19.6862 14.0486 19.3971 13.4215 18.9054 12.922C18.4121 12.4209 17.8173 12.1387 17.2764 12.1518Z" fill="white"/>
</g>
<defs>
<clipPath id="clip0">
<rect width="16" height="16" fill="white" transform="translate(8 8)"/>
</clipPath>
</defs>
</svg>
