<svg width="32" height="32" viewBox="0 0 32 32" fill="none" xmlns="http://www.w3.org/2000/svg">
<circle cx="16" cy="16" r="16" fill="#E6EAFF"/>
<path d="M8.72754 9.25164C8.72754 6.71274 10.6641 4.65456 13.053 4.65456H18.3657C20.7546 4.65456 22.6912 6.71274 22.6912 9.25164V23.3302C22.6912 25.8691 20.7546 27.9273 18.3657 27.9273H13.053C10.6641 27.9273 8.72754 25.8691 8.72754 23.3302V9.25164Z" fill="url(#paint0_linear)"/>
<path d="M9.8916 9.34712C9.8916 7.39814 11.3541 5.81818 13.1582 5.81818H18.2614C20.0655 5.81818 21.528 7.39814 21.528 9.34712V20.9074C21.528 22.8564 20.0655 24.4364 18.2614 24.4364H13.1582C11.3541 24.4364 9.8916 22.8564 9.8916 20.9074V9.34712Z" fill="url(#paint1_linear)"/>
<path d="M16.8727 26.1818C16.8727 26.8245 16.3517 27.3455 15.709 27.3455C15.0664 27.3455 14.5454 26.8245 14.5454 26.1818C14.5454 25.5392 15.0664 25.0182 15.709 25.0182C16.3517 25.0182 16.8727 25.5392 16.8727 26.1818Z" fill="white"/>
<circle cx="21.9068" cy="16.0379" r="5.23636" fill="#FFB038"/>
<path d="M24.8312 17.5709C24.8153 17.5583 23.6608 16.7261 23.3439 16.7858C23.1926 16.8126 23.1061 16.9158 22.9326 17.1223C22.9046 17.1557 22.8375 17.2356 22.7854 17.2924C22.6757 17.2566 22.5687 17.2131 22.4652 17.1621C21.931 16.902 21.4993 16.4704 21.2393 15.9362C21.1882 15.8327 21.1447 15.7257 21.1089 15.616C21.166 15.5636 21.2459 15.4965 21.28 15.4678C21.4856 15.2952 21.5889 15.2087 21.6157 15.0571C21.6706 14.7429 20.839 13.5804 20.8303 13.5699C20.7925 13.516 20.7433 13.4712 20.6861 13.4387C20.6289 13.4061 20.5652 13.3867 20.4996 13.3818C20.1625 13.3818 19.2002 14.6302 19.2002 14.8404C19.2002 14.8527 19.2178 16.0946 20.7494 17.6526C22.3057 19.1824 23.5475 19.2 23.5598 19.2C23.7702 19.2 25.0184 18.2377 25.0184 17.9006C25.0135 17.8352 24.9942 17.7717 24.9619 17.7147C24.9295 17.6577 24.8849 17.6086 24.8312 17.5709Z" fill="white"/>
<defs>
<linearGradient id="paint0_linear" x1="15.7094" y1="4.65456" x2="15.7094" y2="27.9273" gradientUnits="userSpaceOnUse">
<stop stop-color="#6982FF"/>
<stop offset="1" stop-color="#6982FF"/>
</linearGradient>
<linearGradient id="paint1_linear" x1="15.7569" y1="3.27267" x2="15.7019" y2="24.4363" gradientUnits="userSpaceOnUse">
<stop stop-color="#6982FF"/>
<stop offset="1" stop-color="#2C47CF"/>
</linearGradient>
</defs>
</svg>
