<svg width="32" height="32" viewBox="0 0 32 32" fill="none" xmlns="http://www.w3.org/2000/svg">
<circle cx="16" cy="16" r="16" fill="#E6EAFF"/>
<path d="M9.71963 14.9282L8.93303 14.1416C7.68899 12.8975 7.68899 10.8729 8.93303 9.6289L11.5461 7.01519L10.3907 5.85982C10.2469 5.71607 10.2033 5.4991 10.2812 5.31101C10.3591 5.12293 10.5438 5 10.7474 5H15.1136C15.3917 5 15.6174 5.2257 15.6174 5.5038V9.87005C15.6174 10.0736 15.4945 10.2576 15.3064 10.3356C15.119 10.4135 14.902 10.3712 14.7576 10.2261L13.6022 9.07136L10.4317 12.2419C9.88689 12.7867 9.88689 13.672 10.4317 14.2161C10.6285 14.413 10.6285 14.732 10.4317 14.9289C10.2348 15.1257 9.91645 15.125 9.71963 14.9282Z" fill="url(#paint0_linear)"/>
<path d="M23.2315 17.3098L24.0181 18.0964C25.2622 19.3405 25.2622 21.3651 24.0181 22.6091L21.4051 25.2228L22.5605 26.3782C22.7042 26.5219 22.7479 26.7389 22.67 26.927C22.5921 27.1151 22.4073 27.238 22.2038 27.238L17.8375 27.238C17.5594 27.238 17.3337 27.0123 17.3337 26.7342L17.3337 22.368C17.3337 22.1644 17.4567 21.9804 17.6448 21.9024C17.8322 21.8245 18.0491 21.8668 18.1936 22.0119L19.3489 23.1666L22.5195 19.9961C23.0643 19.4513 23.0643 18.566 22.5195 18.0219C22.3227 17.825 22.3227 17.506 22.5195 17.3092C22.7163 17.1123 23.0347 17.113 23.2315 17.3098Z" fill="url(#paint1_linear)"/>
<path d="M21.5761 16.0305C21.5761 18.8422 19.2967 21.1215 16.4851 21.1215C13.6734 21.1215 11.394 18.8422 11.394 16.0305C11.394 13.2188 13.6734 10.9395 16.4851 10.9395C19.2967 10.9395 21.5761 13.2188 21.5761 16.0305Z" fill="#FFB038"/>
<path d="M13.6128 17.7275H14.618V16.5054H14.9651L15.6159 17.7275H16.7079L15.9558 16.3463C16.3499 16.1565 16.585 15.7967 16.585 15.2833C16.585 14.495 16.0336 14.025 15.211 14.025H13.6128V17.7275ZM14.618 15.7244V14.8277H14.9723C15.3249 14.8277 15.5364 14.9651 15.5364 15.2833C15.5364 15.5996 15.3249 15.7244 14.9723 15.7244H14.618Z" fill="white"/>
<path d="M17.0279 18.7689H18.0258V17.2719H18.0403C18.156 17.554 18.4236 17.7637 18.8141 17.7637C19.4071 17.7637 19.9061 17.3009 19.9061 16.3391C19.9061 15.3339 19.3709 14.9145 18.8213 14.9145C18.4091 14.9145 18.1488 15.1531 18.0403 15.4351H18.0186V14.9506H17.0279V18.7689ZM18.0042 16.3391C18.0042 15.9269 18.1705 15.681 18.4453 15.681C18.7201 15.681 18.8792 15.9269 18.8792 16.3391C18.8792 16.7513 18.7201 16.9971 18.4453 16.9971C18.1705 16.9971 18.0042 16.744 18.0042 16.3391Z" fill="white"/>
<defs>
<linearGradient id="paint0_linear" x1="11.8087" y1="5" x2="11.8087" y2="15.0761" gradientUnits="userSpaceOnUse">
<stop stop-color="#5972F2"/>
<stop offset="1" stop-color="#3B55DA"/>
</linearGradient>
<linearGradient id="paint1_linear" x1="21.1425" y1="27.238" x2="21.1425" y2="17.1619" gradientUnits="userSpaceOnUse">
<stop stop-color="#5972F2"/>
<stop offset="1" stop-color="#3B55DA"/>
</linearGradient>
</defs>
</svg>
