<svg width="32" height="32" viewBox="0 0 32 32" fill="none" xmlns="http://www.w3.org/2000/svg">
<circle cx="16" cy="16" r="16" fill="#E6EAFF"/>
<circle cx="14.5" cy="17.5" r="4.5" fill="#FFB038"/>
<path d="M11.7427 17.1219C11.5792 17.2854 11.626 17.6085 11.845 17.8274C12.0639 18.0464 12.387 18.0932 12.5505 17.9297C12.714 17.7662 12.6671 17.4431 12.4482 17.2242C12.2293 17.0052 11.9062 16.9584 11.7427 17.1219Z" fill="url(#paint0_linear)"/>
<path d="M16.6875 16.832C16.524 16.9955 16.5709 17.3186 16.7898 17.5375C17.0088 17.7565 17.3319 17.8033 17.4953 17.6398C17.6588 17.4763 17.612 17.1532 17.393 16.9343C17.1741 16.7154 16.851 16.6685 16.6875 16.832Z" fill="url(#paint1_linear)"/>
<path d="M25.5845 11.9702L26 11.5546L20.4454 6L20.0298 6.41555C19.4272 7.01816 18.4467 7.01812 17.8441 6.41555L17.4285 6L15.3023 8.12621L16.5586 9.42293L15.7077 10.2337L14.4711 8.95734L6 17.4285L6.41551 17.8441C7.01813 18.4467 7.01813 19.4272 6.41551 20.0298L6 20.4454L11.5546 26L11.9702 25.5845C12.5728 24.9818 13.5533 24.9819 14.1559 25.5845L14.5715 26L23.0424 17.5291L21.8454 16.3714L22.6549 15.5193L23.8736 16.6979L26 14.5715L25.5845 14.1559C24.9818 13.5533 24.9818 12.5728 25.5845 11.9702ZM13.2099 18.5889C12.6801 19.1187 11.7722 19.0728 11.186 18.4866C10.5998 17.9004 10.5539 16.9925 11.0837 16.4627C11.6135 15.9329 12.5214 15.9787 13.1077 16.5649C13.6938 17.1512 13.7397 18.0591 13.2099 18.5889ZM15.3383 20.3454L13.0101 14.6498L13.8731 14.297L16.2013 19.9926L15.3383 20.3454ZM18.1546 18.299C17.6248 18.8288 16.7169 18.7829 16.1307 18.1967C15.5445 17.6105 15.4986 16.7026 16.0284 16.1728C16.5582 15.643 17.4661 15.6889 18.0523 16.2751C18.6385 16.8612 18.6844 17.7692 18.1546 18.299ZM18.1966 12.6922L16.8997 11.3953L17.7307 10.5643L19.0276 11.8611L18.1966 12.6922ZM20.6449 15.1405L19.348 13.8437L20.1791 13.0126L21.476 14.3095L20.6449 15.1405Z" fill="url(#paint2_linear)"/>
<defs>
<linearGradient id="paint0_linear" x1="12.1466" y1="17.0242" x2="12.1466" y2="18.0274" gradientUnits="userSpaceOnUse">
<stop stop-color="#3752D8"/>
<stop offset="1" stop-color="#5972F2"/>
</linearGradient>
<linearGradient id="paint1_linear" x1="17.0914" y1="16.7343" x2="17.0914" y2="17.7375" gradientUnits="userSpaceOnUse">
<stop stop-color="#3752D8"/>
<stop offset="1" stop-color="#5972F2"/>
</linearGradient>
<linearGradient id="paint2_linear" x1="15" y1="24.5" x2="15" y2="6.5" gradientUnits="userSpaceOnUse">
<stop stop-color="#3752D8"/>
<stop offset="1" stop-color="#5972F2"/>
</linearGradient>
</defs>
</svg>
