<svg width="32" height="32" viewBox="0 0 32 32" fill="none" xmlns="http://www.w3.org/2000/svg">
<circle cx="16" cy="16" r="16" fill="#E6EAFF"/>
<path d="M26.3942 14.6827C26.7288 14.6827 27 14.4114 27 14.0769V10.8462C27 10.5116 26.7288 10.2404 26.3942 10.2404H13.0673V13.2692C13.0673 13.6038 12.7961 13.875 12.4616 13.875C12.127 13.875 11.8558 13.6038 11.8558 13.2692V10.2404H6.6058C6.27124 10.2404 6 10.5116 6 10.8462V14.0769C6 14.4115 6.27124 14.6827 6.60576 14.6827C7.60781 14.6827 8.42308 15.4979 8.42308 16.5C8.42308 17.5021 7.60785 18.3173 6.60576 18.3173C6.27124 18.3173 6 18.5885 6 18.9231V22.1538C6 22.4884 6.27124 22.7596 6.60576 22.7596H11.8558V19.7308C11.8558 19.3962 12.127 19.125 12.4615 19.125C12.796 19.125 13.0673 19.3962 13.0673 19.7308V22.7596H26.3942C26.7288 22.7596 27 22.4884 27 22.1538V18.9231C27 18.5885 26.7287 18.3173 26.3942 18.3173C25.3921 18.3173 24.5769 17.5021 24.5769 16.5C24.5769 15.4979 25.3921 14.6827 26.3942 14.6827ZM13.0673 17.3077C13.0673 17.6422 12.7961 17.9134 12.4616 17.9134C12.127 17.9134 11.8558 17.6422 11.8558 17.3077V15.6923C11.8558 15.3577 12.127 15.0865 12.4616 15.0865C12.7961 15.0865 13.0673 15.3578 13.0673 15.6923V17.3077Z" fill="url(#paint0_linear)"/>
<rect x="15" y="13" width="7" height="1" rx="0.5" fill="#FFB038"/>
<rect x="15" y="15" width="4" height="1" rx="0.5" fill="#FFB038"/>
<defs>
<linearGradient id="paint0_linear" x1="16.5" y1="10.2404" x2="16.5" y2="22.7596" gradientUnits="userSpaceOnUse">
<stop stop-color="#4F6CFF"/>
<stop offset="1" stop-color="#455FE3"/>
</linearGradient>
</defs>
</svg>
