<svg width="32" height="32" viewBox="0 0 32 32" fill="none" xmlns="http://www.w3.org/2000/svg">
<circle cx="16" cy="16" r="16" fill="#E6EAFF"/>
<ellipse cx="12.2184" cy="17.1636" rx="2.32727" ry="2.61818" fill="#FFB038"/>
<ellipse cx="20.3634" cy="17.1636" rx="2.32727" ry="2.61818" fill="#FFB038"/>
<path d="M25.5676 20.338L24.8006 16.1661C24.5541 14.2592 22.9222 12.8233 20.998 12.8233H11.609C9.68479 12.8233 8.05292 14.2592 7.80638 16.1661L7.03941 20.338C6.65808 22.4123 8.22178 24.3494 10.3192 24.4335C12.3178 24.5135 13.9235 22.8819 13.9298 20.935C13.9298 20.9281 13.7043 20.9305 18.6773 20.9305C18.6773 22.8707 20.2831 24.514 22.2878 24.4335C24.3758 24.3497 25.9508 22.4222 25.5676 20.338ZM13.6741 17.7168H12.7612V18.6298C12.7612 18.9323 12.5159 19.1776 12.2134 19.1776C11.9109 19.1776 11.6656 18.9323 11.6656 18.6298V17.7168H10.7526C10.4501 17.7168 10.2049 17.4716 10.2049 17.1691C10.2049 16.8665 10.4501 16.6213 10.7526 16.6213H11.6656V15.7083C11.6656 15.4058 11.9109 15.1605 12.2134 15.1605C12.5159 15.1605 12.7612 15.4058 12.7612 15.7083V16.6213H13.6741C13.9767 16.6213 14.2219 16.8665 14.2219 17.1691C14.2219 17.4716 13.9767 17.7168 13.6741 17.7168ZM19.4806 17.2056C19.4806 17.5081 19.2354 17.7534 18.9328 17.7534C18.6303 17.7534 18.3851 17.5081 18.3851 17.2056V17.1691C18.3851 16.8665 18.6303 16.6213 18.9328 16.6213C19.2354 16.6213 19.4806 16.8665 19.4806 17.1691V17.2056ZM20.9388 18.6839C20.909 18.971 20.6614 19.2013 20.3396 19.175C20.033 19.1431 19.8178 18.8704 19.8484 18.5761C19.8811 18.2609 20.171 18.0307 20.5006 18.0926C20.7915 18.1531 20.9658 18.418 20.9388 18.6839ZM20.9388 15.762C20.9074 16.071 20.6319 16.2834 20.3396 16.2535C20.0324 16.2215 19.8185 15.9486 19.8484 15.6543C19.8819 15.3378 20.1722 15.1094 20.5006 15.1711C20.7923 15.2317 20.9662 15.498 20.9388 15.762ZM22.4021 17.2056C22.4021 17.5081 22.1569 17.7534 21.8544 17.7534C21.5518 17.7534 21.3066 17.5081 21.3066 17.2056V17.1691C21.3066 16.8665 21.5518 16.6213 21.8544 16.6213C22.1569 16.6213 22.4021 16.8665 22.4021 17.1691V17.2056Z" fill="url(#paint0_linear)"/>
<path d="M14.8831 10.4901C14.6692 10.704 14.6692 11.0509 14.8831 11.2648C15.097 11.4787 15.4438 11.4787 15.6578 11.2648C16.0146 10.908 16.5921 10.9079 16.9489 11.2648C17.1628 11.4787 17.5096 11.4787 17.7236 11.2648C17.9375 11.0509 17.9375 10.704 17.7236 10.4901C16.9405 9.70696 15.6662 9.707 14.8831 10.4901Z" fill="#FFB038"/>
<path d="M14.0049 9.61212C15.2751 8.34196 17.3311 8.34174 18.6014 9.61212C18.8153 9.82605 19.1621 9.82605 19.3761 9.61212C19.59 9.3982 19.59 9.05138 19.3761 8.83745C17.6778 7.13914 14.9288 7.13893 13.2303 8.83745C13.0163 9.05138 13.0163 9.3982 13.2303 9.61212C13.4442 9.82605 13.7911 9.82605 14.0049 9.61212Z" fill="#FFB038"/>
<defs>
<linearGradient id="paint0_linear" x1="15.7092" y1="10.7636" x2="16.291" y2="23.2727" gradientUnits="userSpaceOnUse">
<stop stop-color="#6C83F5"/>
<stop offset="0.770833" stop-color="#304BD2"/>
</linearGradient>
</defs>
</svg>
