<svg width="39" height="40" viewBox="0 0 39 40" fill="none" xmlns="http://www.w3.org/2000/svg">
<circle cx="19.5" cy="20" r="19.5" fill="#FFB038"/>
<g clip-path="url(#clip0)">
<g clip-path="url(#clip1)">
<path d="M30.5957 23.7168L22.1696 10.5139C21.6945 9.76924 20.8834 9.32465 20 9.32465C19.1165 9.32465 18.3054 9.76924 17.8304 10.5139L9.40423 23.7167C8.89848 24.5093 8.86493 25.5139 9.31696 26.3387C9.76898 27.1631 10.6338 27.6753 11.574 27.6753H28.4261C29.3662 27.6753 30.2311 27.1632 30.6832 26.3385C31.135 25.5139 31.1015 24.5094 30.5957 23.7168ZM20 25.4529C19.2251 25.4529 18.5971 24.8248 18.5971 24.05C18.5971 23.2751 19.2252 22.647 20 22.647C20.7749 22.647 21.4029 23.2751 21.4029 24.05C21.4029 24.8248 20.7748 25.4529 20 25.4529ZM21.9446 15.7038L21.2536 20.3562C21.1518 21.041 20.5142 21.5137 19.8295 21.412C19.2762 21.3298 18.8614 20.8961 18.7761 20.3721L18.0258 15.7289C17.8511 14.6478 18.5858 13.6298 19.6669 13.4551C20.748 13.2804 21.766 14.0151 21.9407 15.0962C21.9735 15.2998 21.9724 15.5099 21.9446 15.7038Z" fill="white"/>
</g>
</g>
<defs>
<clipPath id="clip0">
<rect width="22" height="22" fill="white" transform="translate(9 7.5)"/>
</clipPath>
<clipPath id="clip1">
<rect width="22" height="22" fill="white" transform="translate(9 7.5)"/>
</clipPath>
</defs>
</svg>
