<svg width="32" height="32" viewBox="0 0 32 32" fill="none" xmlns="http://www.w3.org/2000/svg">
<circle cx="16" cy="16" r="16" fill="#E6EAFF"/>
<path d="M26.67 13.6746L24.034 16.6878L20.5211 20.7005L19.8106 21.5138C19.7292 21.6063 19.6159 21.6648 19.4933 21.6775C19.3707 21.6902 19.2479 21.6562 19.1492 21.5824L18.3653 20.9944C18.2206 20.8857 18.0683 20.7875 17.9096 20.7005C17.3299 20.3777 16.677 20.209 16.0135 20.2105C15.3514 20.2081 14.6999 20.3769 14.1223 20.7005C13.9744 20.7782 13.8335 20.8683 13.7009 20.97L12.8778 21.5824C12.793 21.646 12.6898 21.6804 12.5838 21.6804C12.5143 21.6803 12.4455 21.6654 12.3822 21.6367C12.3188 21.6079 12.2623 21.5661 12.2164 21.5138L11.5059 20.7005L7.99298 16.6878L5.35704 13.6746C5.28979 13.5973 5.24843 13.501 5.23876 13.3991C5.22909 13.2971 5.25161 13.1947 5.30314 13.1062C6.39214 11.2457 7.94825 9.70186 9.81737 8.62766C11.6865 7.55345 13.8038 6.98611 15.9596 6.98182H16.0674C18.2232 6.98611 20.3405 7.55345 22.2096 8.62766C24.0787 9.70186 25.6349 11.2457 26.7239 13.1062C26.7754 13.1947 26.7979 13.2971 26.7882 13.3991C26.7786 13.501 26.7372 13.5973 26.67 13.6746Z" fill="url(#paint0_linear)"/>
<path d="M24.0342 16.6878L20.5212 20.7005H17.9098C17.33 20.3777 16.6772 20.2091 16.0137 20.2105C15.3516 20.2081 14.7001 20.3769 14.1225 20.7005H11.5061L7.99316 16.6878L8.20384 16.1194V16.0704C8.31163 15.899 10.3841 11.8813 16.0137 11.8813C21.6432 11.8813 23.7157 15.899 23.799 16.0704V16.1194L24.0342 16.6878Z" fill="url(#paint1_linear)"/>
<path d="M16.013 25.6C17.0954 25.6 17.9728 24.7226 17.9728 23.6402C17.9728 22.5578 17.0954 21.6804 16.013 21.6804C14.9307 21.6804 14.0532 22.5578 14.0532 23.6402C14.0532 24.7226 14.9307 25.6 16.013 25.6Z" fill="#FFB038"/>
<path d="M21.9902 19.0199L20.5204 20.7005L19.8099 21.5138C19.7285 21.6063 19.6152 21.6648 19.4926 21.6775C19.3701 21.6902 19.2472 21.6562 19.1485 21.5824L18.3646 20.9944C18.2199 20.8857 18.0676 20.7875 17.9089 20.7005C17.3292 20.3777 16.6763 20.209 16.0128 20.2105C15.3507 20.2081 14.6992 20.3769 14.1216 20.7005C13.9737 20.7782 13.8328 20.8683 13.7002 20.97L12.8771 21.5824C12.7923 21.646 12.6892 21.6804 12.5832 21.6804C12.5136 21.6803 12.4448 21.6654 12.3815 21.6367C12.3181 21.6079 12.2616 21.5661 12.2157 21.5138L11.5053 20.7005L10.0354 19.0199L10.153 18.6084V18.5594C10.2118 18.4467 11.324 15.801 16.0128 15.801C20.7017 15.801 21.8138 18.4467 21.8579 18.5594V18.6084L21.9902 19.0199Z" fill="url(#paint2_linear)"/>
<defs>
<linearGradient id="paint0_linear" x1="16.0135" y1="6.98182" x2="16.0135" y2="21.6804" gradientUnits="userSpaceOnUse">
<stop stop-color="#6982FF"/>
<stop offset="1" stop-color="#304BD3"/>
</linearGradient>
<linearGradient id="paint1_linear" x1="15.7091" y1="9.3091" x2="16.0137" y2="20.7005" gradientUnits="userSpaceOnUse">
<stop stop-color="#4C66E9"/>
<stop offset="1" stop-color="#344FD5"/>
</linearGradient>
<linearGradient id="paint2_linear" x1="14.5451" y1="13.9636" x2="14.836" y2="26.1818" gradientUnits="userSpaceOnUse">
<stop stop-color="#6780FD"/>
<stop offset="1" stop-color="#3F5ADE"/>
</linearGradient>
</defs>
</svg>
