<svg width="55" height="55" viewBox="0 0 55 55" fill="none" xmlns="http://www.w3.org/2000/svg">
<circle cx="27.5" cy="27.5002" r="27.5" fill="#E6EAFF"/>
<path d="M26.097 36.5173L25.9198 40.5651H18.7611C18.8435 38.576 18.1423 36.6374 16.8182 35.1939C14.7497 32.9672 13.1245 30.7256 12.2532 28.4455C12.0989 28.0363 12.0237 27.5996 12.0319 27.1603V20.3098C12.0385 19.6874 12.4617 19.1533 13.0499 19.0251C13.6939 18.9324 14.2922 19.387 14.4002 20.051L15.3382 26.4018C15.9857 28.1717 17.1716 29.6755 18.7168 30.6861C19.1159 30.9692 19.5591 31.2829 20.0687 30.9464C20.323 30.6035 20.2915 30.1182 19.9951 29.8137L17.9045 28.0999C17.2363 27.6529 16.9347 26.8015 17.1652 26.013C17.2652 25.5847 17.6813 25.3215 18.0948 25.425C18.1912 25.4492 18.2823 25.4924 18.3629 25.5524L22.5735 28.6667C23.3164 29.0943 23.9536 29.6941 24.4353 30.4192C25.638 32.1994 26.2236 34.3486 26.097 36.5173Z" fill="url(#paint0_linear)"/>
<path d="M18.1521 40.3415H26.1467C26.4298 40.3415 26.6592 40.5791 26.6592 40.8722V44.0984C26.6592 44.3916 26.4297 44.6292 26.1467 44.6292H18.1521C17.869 44.6292 17.6396 44.3915 17.6396 44.0984V40.8722C17.6396 40.579 17.8691 40.3415 18.1521 40.3415Z" fill="#9AA6FE"/>
<path d="M24.9027 43.1376C25.2505 43.1376 25.5325 42.8456 25.5325 42.4854C25.5325 42.1251 25.2505 41.8331 24.9027 41.8331C24.5549 41.8331 24.2729 42.1251 24.2729 42.4854C24.2729 42.8456 24.5549 43.1376 24.9027 43.1376Z" fill="white"/>
<path d="M29.7986 36.5173L29.9758 40.5651H37.1345C37.0522 38.576 37.7533 36.6374 39.0774 35.1939C41.1459 32.9672 42.7711 30.7256 43.6424 28.4455C43.7967 28.0362 43.872 27.5996 43.8638 27.1603V20.3098C43.8571 19.6874 43.4339 19.1533 42.8458 19.0251C42.2018 18.9324 41.6035 19.387 41.4954 20.051L40.555 26.4018C39.9081 28.1714 38.7231 29.6751 37.1788 30.6861C36.7797 30.9692 36.3365 31.2829 35.827 30.9464C35.5726 30.6035 35.6042 30.1182 35.9006 29.8137L37.9911 28.0999C38.6594 27.6529 38.9609 26.8015 38.7304 26.013C38.6305 25.5847 38.2143 25.3215 37.8008 25.425C37.7044 25.4492 37.6133 25.4924 37.5327 25.5524L33.3226 28.6667C32.5797 29.0942 31.9425 29.6941 31.4608 30.4191C30.258 32.1993 29.6723 34.3485 29.7986 36.5173Z" fill="url(#paint1_linear)"/>
<path d="M29.5106 40.3415H37.6142C37.901 40.3415 38.1336 40.5823 38.1336 40.8794V44.1498C38.1336 44.4469 37.901 44.6877 37.6142 44.6877H29.5106C29.2238 44.6877 28.9912 44.4469 28.9912 44.1498V40.8794C28.9912 40.5822 29.2238 40.3415 29.5106 40.3415Z" fill="#9AA6FE"/>
<path d="M30.7724 43.2418C31.1248 43.2418 31.4105 42.9459 31.4105 42.5809C31.4105 42.2159 31.1248 41.92 30.7724 41.92C30.42 41.92 30.1343 42.2159 30.1343 42.5809C30.1343 42.9459 30.42 43.2418 30.7724 43.2418Z" fill="white"/>
<path d="M31.6791 10.3128C30.3023 10.3124 28.9737 10.8387 27.9486 11.7907C25.6402 9.65319 22.0959 9.85848 20.032 12.2492C19.1114 13.3156 18.6033 14.6963 18.605 16.1268C18.605 22.1492 27.9485 28.5656 27.9485 28.5656C27.9485 28.5656 37.3063 22.1705 37.292 16.1268C37.2893 12.9172 34.778 10.3159 31.6791 10.3128Z" fill="url(#paint2_linear)"/>
<defs>
<linearGradient id="paint0_linear" x1="19.0726" y1="19.0131" x2="19.0726" y2="40.5651" gradientUnits="userSpaceOnUse">
<stop stop-color="#5972F2"/>
<stop offset="1" stop-color="#3853D8"/>
</linearGradient>
<linearGradient id="paint1_linear" x1="36.8231" y1="19.0131" x2="36.8231" y2="40.5651" gradientUnits="userSpaceOnUse">
<stop stop-color="#5972F2"/>
<stop offset="1" stop-color="#3853D8"/>
</linearGradient>
<linearGradient id="paint2_linear" x1="27.9485" y1="10.3127" x2="27.9485" y2="28.5656" gradientUnits="userSpaceOnUse">
<stop stop-color="#FFB038"/>
<stop offset="1" stop-color="#FF9F1E"/>
</linearGradient>
</defs>
</svg>
